<svg xmlns="http://www.w3.org/2000/svg" xmlns:xlink="http://www.w3.org/1999/xlink" width="821" zoomAndPan="magnify" viewBox="0 0 615.75 310.499991" height="414" preserveAspectRatio="xMidYMid meet" version="1.0"><defs><g/><clipPath id="48a54ab58b"><path d="M 197.074219 16 L 258 16 L 258 78 L 197.074219 78 Z M 197.074219 16 " clip-rule="nonzero"/></clipPath><clipPath id="f50b9bf5c7"><path d="M 197.074219 15 L 258 15 L 258 78 L 197.074219 78 Z M 197.074219 15 " clip-rule="nonzero"/></clipPath><clipPath id="fddb9c4c48"><path d="M 415 32 L 421.054688 32 L 421.054688 39 L 415 39 Z M 415 32 " clip-rule="nonzero"/></clipPath><clipPath id="0f90ce8df6"><path d="M 280 0.535156 L 285 0.535156 L 285 5 L 280 5 Z M 280 0.535156 " clip-rule="nonzero"/></clipPath><clipPath id="f84848be3d"><path d="M 280 0.535156 L 285 0.535156 L 285 6 L 280 6 Z M 280 0.535156 " clip-rule="nonzero"/></clipPath></defs><g fill="#000000" fill-opacity="1"><g transform="translate(101.143282, 160.991669)"><g><path d="M 27.890625 -16.328125 C 28.160156 -16.328125 28.40625 -16.394531 28.625 -16.53125 L 28.625 -20.265625 C 30.488281 -21.523438 33.09375 -22.550781 36.4375 -23.34375 C 39.789062 -24.132812 43.050781 -24.53125 46.21875 -24.53125 C 47.675781 -23.050781 48.890625 -20.84375 49.859375 -17.90625 C 50.828125 -14.96875 51.335938 -12.304688 51.390625 -9.921875 C 50.847656 -8.828125 49.925781 -7.648438 48.625 -6.390625 C 47.320312 -5.140625 45.753906 -3.976562 43.921875 -2.90625 C 39.390625 -0.226562 34.179688 1.109375 28.296875 1.109375 C 19.878906 1.109375 13.25 -1.335938 8.40625 -6.234375 C 3.40625 -11.179688 0.90625 -18.035156 0.90625 -26.796875 C 0.90625 -35.566406 3.640625 -42.453125 9.109375 -47.453125 C 11.515625 -49.691406 14.316406 -51.378906 17.515625 -52.515625 C 20.710938 -53.648438 24.078125 -54.21875 27.609375 -54.21875 C 34.492188 -54.21875 40.132812 -52.550781 44.53125 -49.21875 C 48.9375 -45.882812 51.140625 -41.769531 51.140625 -36.875 C 51.140625 -33.1875 50.003906 -30.457031 47.734375 -28.6875 C 45.472656 -26.925781 42.398438 -26.046875 38.515625 -26.046875 C 36.378906 -26.046875 34.226562 -26.570312 32.0625 -27.625 C 29.90625 -28.675781 28.625 -29.664062 28.21875 -30.59375 C 28.21875 -32.84375 28.257812 -34.609375 28.34375 -35.890625 C 28.289062 -35.921875 28.195312 -35.9375 28.0625 -35.9375 L 27.765625 -35.9375 C 27.359375 -35.9375 27.035156 -35.816406 26.796875 -35.578125 C 26.566406 -35.347656 26.363281 -34.863281 26.1875 -34.125 C 26.007812 -33.382812 25.921875 -31.375 25.921875 -28.09375 C 25.921875 -20.25 26.578125 -16.328125 27.890625 -16.328125 Z M 27.890625 -16.328125 "/></g></g></g><g fill="#000000" fill-opacity="1"><g transform="translate(175.153974, 160.991669)"><g><path d="M 29.484375 -28.296875 C 29.484375 -31.035156 29.359375 -32.914062 29.109375 -33.9375 C 28.867188 -34.96875 28.421875 -35.484375 27.765625 -35.484375 C 27.359375 -35.484375 26.988281 -35.34375 26.65625 -35.0625 C 26.71875 -34.570312 26.800781 -33.914062 26.90625 -33.09375 C 27.019531 -32.28125 27.078125 -30.53125 27.078125 -27.84375 L 27.078125 -25.1875 C 27.078125 -23.320312 27.035156 -21.96875 26.953125 -21.125 C 26.867188 -20.28125 26.800781 -19.554688 26.75 -18.953125 C 26.71875 -18.617188 26.6875 -18.289062 26.65625 -17.96875 C 26.988281 -17.695312 27.359375 -17.5625 27.765625 -17.5625 C 28.421875 -17.5625 28.867188 -18.070312 29.109375 -19.09375 C 29.359375 -20.113281 29.484375 -21.992188 29.484375 -24.734375 Z M 27.84375 1.3125 C 22.976562 1.3125 18.515625 0.304688 14.453125 -1.703125 C 10.398438 -3.710938 7.128906 -6.785156 4.640625 -10.921875 C 2.148438 -15.066406 0.90625 -20.242188 0.90625 -26.453125 C 0.90625 -35.453125 3.613281 -42.476562 9.03125 -47.53125 C 13.84375 -51.988281 20.035156 -54.21875 27.609375 -54.21875 C 35.835938 -54.21875 42.347656 -51.664062 47.140625 -46.5625 C 51.941406 -41.46875 54.34375 -34.765625 54.34375 -26.453125 C 54.34375 -17.210938 51.773438 -10.160156 46.640625 -5.296875 C 41.960938 -0.890625 35.695312 1.3125 27.84375 1.3125 Z M 27.84375 1.3125 "/></g></g></g><g fill="#000000" fill-opacity="1"><g transform="translate(252.404616, 160.991669)"><g><path d="M 46.4375 0.734375 C 42.6875 0.734375 39.742188 0.117188 37.609375 -1.109375 C 35.316406 -2.390625 34.070312 -4.207031 33.875 -6.5625 L 33.515625 -10.421875 C 36.023438 -11.023438 38.144531 -12.582031 39.875 -15.09375 C 40.332031 -15.800781 40.5625 -16.414062 40.5625 -16.9375 C 40.5625 -17.644531 40.207031 -18 39.5 -18 L 39.375 -18 C 39.34375 -17.976562 39.289062 -17.96875 39.21875 -17.96875 C 37.300781 -13.945312 34.195312 -11.9375 29.90625 -11.9375 C 27.71875 -11.9375 25.847656 -12.414062 24.296875 -13.375 C 22.753906 -14.332031 21.34375 -15.984375 20.0625 -18.328125 L 19.8125 -18.328125 C 19.070312 -18.328125 18.703125 -18.015625 18.703125 -17.390625 C 18.703125 -16.953125 18.867188 -16.460938 19.203125 -15.921875 C 20.296875 -14.085938 21.660156 -12.648438 23.296875 -11.609375 C 24.578125 -10.734375 25.929688 -10.210938 27.359375 -10.046875 L 27.03125 -2.296875 C 25.382812 -1.234375 23.648438 -0.460938 21.828125 0.015625 C 20.015625 0.492188 17.429688 0.734375 14.078125 0.734375 C 10.734375 0.734375 7.75 0.078125 5.125 -1.234375 C 1.894531 -2.847656 0.28125 -5.085938 0.28125 -7.953125 C 0.28125 -11.535156 0.992188 -20.382812 2.421875 -34.5 C 3.179688 -41.851562 3.796875 -46.992188 4.265625 -49.921875 C 7.078125 -52.429688 11.234375 -53.6875 16.734375 -53.6875 C 20.722656 -53.6875 24.03125 -52.945312 26.65625 -51.46875 L 28.921875 -43.921875 L 27.484375 -37.90625 C 27.367188 -37.488281 27.3125 -37.085938 27.3125 -36.703125 C 27.3125 -35.753906 27.859375 -35.265625 28.953125 -35.234375 L 32.859375 -51.4375 C 33.972656 -52.039062 35.429688 -52.566406 37.234375 -53.015625 C 39.046875 -53.460938 41.019531 -53.6875 43.15625 -53.6875 C 47.144531 -53.6875 50.101562 -53.007812 52.03125 -51.65625 C 53.957031 -50.300781 55.097656 -48.023438 55.453125 -44.828125 C 55.535156 -44.222656 55.660156 -43.226562 55.828125 -41.84375 C 58.316406 -20.457031 59.5625 -7.863281 59.5625 -4.0625 C 56.519531 -0.863281 52.144531 0.734375 46.4375 0.734375 Z M 46.4375 0.734375 "/></g></g></g><g fill="#000000" fill-opacity="1"><g transform="translate(334.248593, 160.991669)"><g><path d="M 25.265625 -45.484375 L 25.265625 -3.125 C 24.003906 -2.03125 22.320312 -1.113281 20.21875 -0.375 C 18.113281 0.363281 15.554688 0.734375 12.546875 0.734375 C 9.546875 0.734375 6.988281 0.0664062 4.875 -1.265625 C 2.5 -2.722656 1.3125 -4.773438 1.3125 -7.421875 L 1.3125 -49.796875 C 2.570312 -50.890625 4.253906 -51.804688 6.359375 -52.546875 C 8.460938 -53.285156 11.003906 -53.65625 13.984375 -53.65625 C 16.960938 -53.65625 19.546875 -53 21.734375 -51.6875 C 24.085938 -50.175781 25.265625 -48.109375 25.265625 -45.484375 Z M 25.265625 -45.484375 "/></g></g></g><g fill="#000000" fill-opacity="1"><g transform="translate(382.831841, 160.991669)"><g><path d="M 1.3125 -7.59375 L 1.3125 -48.6875 C 1.3125 -50.101562 2.453125 -51.285156 4.734375 -52.234375 C 7.015625 -53.179688 9.703125 -53.65625 12.796875 -53.65625 C 14.546875 -53.65625 16.191406 -53.441406 17.734375 -53.015625 C 19.285156 -52.585938 20.46875 -52.046875 21.28125 -51.390625 C 22.40625 -49.972656 23.429688 -48.523438 24.359375 -47.046875 C 25.296875 -45.566406 27.390625 -42.117188 30.640625 -36.703125 C 30.941406 -36.703125 31.210938 -36.796875 31.453125 -36.984375 C 31.703125 -37.179688 31.828125 -37.476562 31.828125 -37.875 C 31.828125 -38.269531 31.484375 -39.046875 30.796875 -40.203125 L 26.375 -47.828125 L 26.375 -50.078125 C 27.769531 -51.222656 29.460938 -52.109375 31.453125 -52.734375 C 33.453125 -53.367188 35.519531 -53.6875 37.65625 -53.6875 C 41.125 -53.6875 43.925781 -53.054688 46.0625 -51.796875 C 48.550781 -50.296875 49.796875 -47.945312 49.796875 -44.75 L 49.796875 -5.90625 C 49.796875 -3.550781 48.675781 -1.84375 46.4375 -0.78125 C 44.519531 0.175781 41.960938 0.65625 38.765625 0.65625 C 36.984375 0.65625 35.25 0.460938 33.5625 0.078125 C 31.882812 -0.304688 30.566406 -0.796875 29.609375 -1.390625 C 27.671875 -3.878906 25.742188 -6.671875 23.828125 -9.765625 L 19.640625 -16.734375 C 18.847656 -16.628906 18.453125 -16.207031 18.453125 -15.46875 C 18.453125 -15 18.847656 -14.109375 19.640625 -12.796875 L 24.78125 -4.515625 L 24.78125 -2.34375 C 21.601562 -0.289062 18.023438 0.734375 14.046875 0.734375 C 10.066406 0.734375 6.945312 0.0078125 4.6875 -1.4375 C 2.4375 -2.882812 1.3125 -4.9375 1.3125 -7.59375 Z M 1.3125 -7.59375 "/></g></g></g><g fill="#000000" fill-opacity="1"><g transform="translate(455.94028, 160.991669)"><g><path d="M 28.390625 -34.171875 L 52.703125 -34.171875 C 54.265625 -31.898438 55.046875 -29.144531 55.046875 -25.90625 C 55.046875 -22.664062 54.375 -20.03125 53.03125 -18 L 51.359375 -18 L 51.359375 -5.703125 C 45.960938 -1.023438 38.851562 1.3125 30.03125 1.3125 C 24.632812 1.3125 19.847656 0.351562 15.671875 -1.5625 C 11.097656 -3.613281 7.554688 -6.609375 5.046875 -10.546875 C 2.285156 -14.859375 0.90625 -20.160156 0.90625 -26.453125 C 0.90625 -35.398438 3.582031 -42.316406 8.9375 -47.203125 C 14.03125 -51.878906 20.921875 -54.21875 29.609375 -54.21875 C 33.898438 -54.21875 37.953125 -53.578125 41.765625 -52.296875 C 45.585938 -51.015625 48.601562 -49.414062 50.8125 -47.5 C 50.8125 -45.851562 50.613281 -43.84375 50.21875 -41.46875 C 49.820312 -39.09375 49.328125 -37.273438 48.734375 -36.015625 L 27.109375 -36.015625 C 26.234375 -35.085938 25.40625 -33.75 24.625 -32 C 23.851562 -30.25 23.46875 -28.238281 23.46875 -25.96875 C 23.46875 -22.84375 24.242188 -20.394531 25.796875 -18.625 C 27.160156 -17.007812 28.910156 -16.203125 31.046875 -16.203125 C 31.921875 -16.203125 32.359375 -16.503906 32.359375 -17.109375 L 32.359375 -18.046875 L 31.90625 -18.046875 C 30.101562 -18.046875 28.609375 -18.75 27.421875 -20.15625 C 26.234375 -21.5625 25.640625 -23.578125 25.640625 -26.203125 C 25.640625 -29.484375 26.554688 -32.140625 28.390625 -34.171875 Z M 28.390625 -34.171875 "/></g></g></g><path stroke-linecap="butt" transform="matrix(0.749098, 0, 0, 0.749098, 43.986501, 95.219984)" fill="none" stroke-linejoin="miter" d="M 117.388323 63.20978 C 117.753345 63.20978 118.081865 63.115918 118.373883 62.933406 L 118.373883 57.95346 C 120.856034 56.274357 124.32896 54.902917 128.803091 53.844352 C 133.272006 52.785787 137.6262 52.259112 141.860459 52.259112 C 143.795077 54.230233 145.411604 57.176484 146.704826 61.10308 C 148.003262 65.024463 148.686375 68.575608 148.759379 71.751301 C 148.029335 73.211391 146.798688 74.780986 145.062225 76.460089 C 143.330977 78.139191 141.239921 79.687929 138.794272 81.111515 C 132.734902 84.688734 125.783835 86.477343 117.935856 86.477343 C 106.69317 86.477343 97.838773 83.213001 91.377879 76.679102 C 84.703186 70.072199 81.360625 60.920569 81.360625 49.218998 C 81.360625 37.522642 85.010848 28.33451 92.311293 21.654602 C 95.523489 18.66142 99.26236 16.408711 103.53312 14.891261 C 107.803881 13.379026 112.293655 12.617694 117.002442 12.617694 C 126.201003 12.617694 133.74132 14.84433 139.618179 19.297602 C 145.489823 23.750873 148.430859 29.247066 148.430859 35.780964 C 148.430859 40.708765 146.91341 44.348558 143.888939 46.700345 C 140.859255 49.057346 136.750147 50.230631 131.566831 50.230631 C 128.719657 50.230631 125.856839 49.531875 122.973164 48.123932 C 120.089488 46.721203 118.373883 45.396694 117.82635 44.155618 C 117.82635 41.162435 117.878496 38.810649 117.988002 37.095044 C 117.914998 37.058542 117.789847 37.037684 117.607336 37.037684 L 117.221455 37.037684 C 116.673922 37.037684 116.246325 37.194122 115.933448 37.501784 C 115.625787 37.81466 115.349413 38.461271 115.114756 39.446831 C 114.880098 40.432391 114.760162 43.117912 114.760162 47.498179 C 114.760162 57.969104 115.636216 63.20978 117.388323 63.20978 Z M 218.322195 47.221805 C 218.322195 43.571582 218.155327 41.063358 217.826807 39.691917 C 217.498287 38.325691 216.898608 37.642578 216.022554 37.642578 C 215.475021 37.642578 214.979634 37.825089 214.541607 38.190111 C 214.614611 38.847151 214.724118 39.723205 214.870127 40.818272 C 215.016136 41.913338 215.08914 44.249481 215.08914 47.821485 L 215.08914 51.383059 C 215.08914 53.86521 215.036994 55.669463 214.927487 56.801032 C 214.817981 57.932601 214.724118 58.902518 214.651113 59.705567 C 214.614611 60.143593 214.578109 60.58162 214.541607 61.019647 C 214.979634 61.384669 215.475021 61.56718 216.022554 61.56718 C 216.898608 61.56718 217.498287 60.884067 217.826807 59.512626 C 218.155327 58.1464 218.322195 55.632961 218.322195 51.982738 Z M 216.132061 86.753717 C 209.634665 86.753717 203.674372 85.408349 198.256399 82.728043 C 192.833211 80.042522 188.463373 75.938628 185.14167 70.411148 C 181.819968 64.878454 180.161724 57.969104 180.161724 49.683098 C 180.161724 37.67908 183.775444 28.298008 191.002885 21.545096 C 197.427277 15.595233 205.692424 12.617694 215.803541 12.617694 C 226.790711 12.617694 235.48867 16.02283 241.892204 22.827888 C 248.295737 29.638161 251.502719 38.591636 251.502719 49.683098 C 251.502719 62.020851 248.071509 71.438425 241.209091 77.935822 C 234.96721 83.81268 226.6082 86.753717 216.132061 86.753717 Z M 344.056722 85.98717 C 339.055917 85.98717 335.134535 85.163263 332.287361 83.520662 C 329.221174 81.805058 327.56293 79.380267 327.307415 76.241075 L 326.812027 71.094261 C 330.170232 70.291212 333.001762 68.210585 335.301402 64.852381 C 335.916726 63.903323 336.229602 63.079415 336.229602 62.385873 C 336.229602 61.436815 335.755073 60.962286 334.806015 60.962286 L 334.644362 60.962286 C 334.60786 60.998788 334.534856 61.019647 334.425349 61.019647 C 331.870193 66.385474 327.724583 69.065781 321.993733 69.065781 C 319.073555 69.065781 316.580975 68.429599 314.521206 67.152021 C 312.456223 65.874443 310.568536 63.663451 308.852932 60.524259 L 308.524412 60.524259 C 307.538852 60.524259 307.048679 60.946642 307.048679 61.786194 C 307.048679 62.370229 307.267692 63.027269 307.705719 63.757314 C 309.165808 66.202963 310.990919 68.116723 313.181053 69.503807 C 314.896658 70.671878 316.700911 71.365421 318.599026 71.584434 L 318.161 81.935423 C 315.970866 83.35901 313.660796 84.386287 311.236006 85.027683 C 308.806 85.663865 305.359147 85.98717 300.890232 85.98717 C 296.416102 85.98717 292.42693 85.111117 288.922716 83.35901 C 284.615453 81.205378 282.461822 78.212196 282.461822 74.379462 C 282.461822 69.59767 283.41088 57.786592 285.308995 38.956658 C 286.331058 29.137559 287.154965 22.27514 287.775503 18.369402 C 291.535232 15.011197 297.083571 13.332095 304.420518 13.332095 C 309.749844 13.332095 314.166613 14.317655 317.670827 16.288775 L 320.679653 26.36339 L 318.765894 34.409523 C 318.619885 34.957057 318.54688 35.488946 318.54688 35.999978 C 318.54688 37.277556 319.276925 37.934596 320.737014 37.971098 L 325.935974 16.340921 C 327.432565 15.537872 329.388042 14.839115 331.797189 14.234221 C 334.206336 13.634542 336.829281 13.332095 339.676455 13.332095 C 345.00578 13.332095 348.95845 14.234221 351.534464 16.043689 C 354.105264 17.847942 355.627928 20.888056 356.102457 25.158816 C 356.211964 25.961865 356.378831 27.291589 356.597844 29.153203 C 359.919547 57.697944 361.577791 74.504612 361.577791 79.578422 C 357.526044 83.849182 351.685688 85.98717 344.056722 85.98717 Z M 425.065593 24.282763 L 425.065593 80.840356 C 423.38649 82.300445 421.138996 83.520662 418.328325 84.506222 C 415.517653 85.491783 412.107302 85.98717 408.092057 85.98717 C 404.076812 85.98717 400.661247 85.090258 397.850575 83.301649 C 394.674882 81.367031 393.089642 78.629364 393.089642 75.088648 L 393.089642 18.531055 C 394.768744 17.070966 397.011024 15.850748 399.821696 14.865188 C 402.632367 13.879628 406.027074 13.384241 410.005817 13.384241 C 413.98456 13.384241 417.436627 14.260294 420.356806 16.012401 C 423.495997 18.020024 425.065593 20.778549 425.065593 24.282763 Z M 457.94367 74.869635 L 457.94367 20.012002 C 457.94367 18.113886 459.471549 16.533862 462.516878 15.277142 C 465.562206 14.015208 469.149854 13.384241 473.274605 13.384241 C 475.610748 13.384241 477.811311 13.671044 479.871079 14.234221 C 481.936062 14.802613 483.516087 15.522228 484.611154 16.398282 C 486.107745 18.296398 487.473971 20.231016 488.715047 22.202136 C 489.956123 24.173256 492.751151 28.772537 497.089701 35.999978 C 497.491225 35.999978 497.856248 35.869613 498.184768 35.614097 C 498.513288 35.358581 498.680155 34.967486 498.680155 34.435596 C 498.680155 33.908921 498.22127 32.87643 497.308714 31.343336 L 491.400568 21.159215 L 491.400568 18.150389 C 493.262182 16.617295 495.520105 15.428365 498.184768 14.588814 C 500.84943 13.749263 503.607956 13.332095 506.455129 13.332095 C 511.090912 13.332095 514.829783 14.171646 517.676957 15.850748 C 520.998659 17.858371 522.662118 20.997562 522.662118 25.268323 L 522.662118 77.117129 C 522.662118 80.25632 521.165527 82.535102 518.172344 83.958689 C 515.617188 85.236267 512.201623 85.877663 507.930862 85.877663 C 505.558218 85.877663 503.253363 85.622148 501.005868 85.111117 C 498.763589 84.600085 497.001053 83.943045 495.723475 83.139996 C 493.131817 79.818294 490.561017 76.095066 488.005861 71.970315 L 482.42102 62.662247 C 481.362456 62.808256 480.830566 63.371433 480.830566 64.356993 C 480.830566 64.977531 481.362456 66.166461 482.42102 67.918568 L 489.262581 78.978742 L 489.262581 81.878062 C 485.028322 84.615729 480.25696 85.98717 474.943278 85.98717 C 469.634812 85.98717 465.473558 85.017254 462.464731 83.082636 C 459.45069 81.148018 457.94367 78.410351 457.94367 74.869635 Z M 591.6774 39.394685 L 624.143523 39.394685 C 626.22415 42.42437 627.261856 46.100665 627.261856 50.423572 C 627.261856 54.751693 626.370159 58.261121 624.58155 60.962286 L 622.33927 60.962286 L 622.33927 77.388288 C 615.148332 83.630169 605.657753 86.753717 593.867533 86.753717 C 586.676595 86.753717 580.288705 85.476139 574.703864 82.920983 C 568.607992 80.183316 563.878347 76.183715 560.525357 70.927394 C 556.838632 65.160042 554.992662 58.07861 554.992662 49.683098 C 554.992662 37.752084 558.56988 28.517021 565.724317 21.983123 C 572.513731 15.741242 581.712292 12.617694 593.32 12.617694 C 599.05085 12.617694 604.458394 13.478104 609.553062 15.193708 C 614.642515 16.909313 618.668189 19.042086 621.62487 21.597242 C 621.62487 23.787375 621.358925 26.472896 620.83225 29.64859 C 620.30036 32.824284 619.638106 35.249075 618.835057 36.928177 L 589.977439 36.928177 C 588.809368 38.169253 587.709086 39.957862 586.666166 42.294004 C 585.628459 44.630147 585.106999 47.315668 585.106999 50.340138 C 585.106999 54.501392 586.144705 57.770949 588.225332 60.143593 C 590.050443 62.297225 592.386586 63.371433 595.23376 63.371433 C 596.401831 63.371433 596.985867 62.969909 596.985867 62.16686 L 596.985867 60.91014 L 596.386187 60.91014 C 593.97704 60.91014 591.974632 59.971511 590.389393 58.089039 C 588.804153 56.211782 588.006319 53.515832 588.006319 50.011618 C 588.006319 45.636565 589.231751 42.095849 591.6774 39.394685 Z M 591.6774 39.394685 " stroke="#cb4195" stroke-width="1.822145" stroke-opacity="1" stroke-miterlimit="4"/><g fill="#000000" fill-opacity="1"><g transform="translate(168.199273, 249.385249)"><g><path d="M 23.375 -14.9375 C 24.28125 -15.09375 24.734375 -15.546875 24.734375 -16.296875 C 24.734375 -17.054688 24.492188 -17.90625 24.015625 -18.84375 C 23.535156 -19.789062 22.832031 -20.6875 21.90625 -21.53125 C 19.46875 -23.71875 16.171875 -24.8125 12.015625 -24.8125 C 9.960938 -24.8125 8.050781 -24.472656 6.28125 -23.796875 C 4.394531 -24.742188 2.890625 -26.253906 1.765625 -28.328125 C 0.640625 -30.410156 0.078125 -32.65625 0.078125 -35.0625 C 0.078125 -41.351562 2.703125 -46.207031 7.953125 -49.625 C 12.460938 -52.550781 18.03125 -54.015625 24.65625 -54.015625 C 29.570312 -54.015625 33.710938 -53.488281 37.078125 -52.4375 C 40.441406 -51.382812 43.191406 -50.039062 45.328125 -48.40625 C 45.953125 -46.59375 46.265625 -44.71875 46.265625 -42.78125 C 46.265625 -40.84375 46.003906 -39.078125 45.484375 -37.484375 C 44.960938 -35.898438 44.210938 -34.628906 43.234375 -33.671875 C 42.304688 -34.359375 40.625 -35.054688 38.1875 -35.765625 C 35.75 -36.472656 33.53125 -36.828125 31.53125 -36.828125 C 29.539062 -36.828125 28.207031 -36.703125 27.53125 -36.453125 C 26.863281 -36.210938 26.53125 -35.832031 26.53125 -35.3125 C 26.53125 -35.070312 26.570312 -34.84375 26.65625 -34.625 C 27.613281 -34.863281 28.847656 -34.984375 30.359375 -34.984375 C 35.679688 -34.984375 40.023438 -33.726562 43.390625 -31.21875 C 47.359375 -28.207031 49.34375 -23.691406 49.34375 -17.671875 C 49.34375 -12.367188 47.195312 -7.96875 42.90625 -4.46875 C 38.257812 -0.71875 32.007812 1.15625 24.15625 1.15625 C 19.832031 1.15625 16.082031 0.832031 12.90625 0.1875 C 9.738281 -0.457031 6.65625 -1.585938 3.65625 -3.203125 C 1.601562 -6.179688 0.578125 -9.207031 0.578125 -12.28125 C 0.578125 -15.363281 1.628906 -17.914062 3.734375 -19.9375 C 5.835938 -21.957031 8.425781 -22.96875 11.5 -22.96875 C 14.582031 -22.96875 17.097656 -22.335938 19.046875 -21.078125 C 21.003906 -19.828125 22.445312 -17.78125 23.375 -14.9375 Z M 23.375 -14.9375 "/></g></g></g><g fill="#000000" fill-opacity="1"><g transform="translate(238.395847, 249.385249)"><g><path d="M 29.484375 -28.296875 C 29.484375 -31.035156 29.359375 -32.914062 29.109375 -33.9375 C 28.867188 -34.96875 28.421875 -35.484375 27.765625 -35.484375 C 27.359375 -35.484375 26.988281 -35.34375 26.65625 -35.0625 C 26.71875 -34.570312 26.800781 -33.914062 26.90625 -33.09375 C 27.019531 -32.28125 27.078125 -30.53125 27.078125 -27.84375 L 27.078125 -25.1875 C 27.078125 -23.320312 27.035156 -21.96875 26.953125 -21.125 C 26.867188 -20.28125 26.800781 -19.554688 26.75 -18.953125 C 26.71875 -18.617188 26.6875 -18.289062 26.65625 -17.96875 C 26.988281 -17.695312 27.359375 -17.5625 27.765625 -17.5625 C 28.421875 -17.5625 28.867188 -18.070312 29.109375 -19.09375 C 29.359375 -20.113281 29.484375 -21.992188 29.484375 -24.734375 Z M 27.84375 1.3125 C 22.976562 1.3125 18.515625 0.304688 14.453125 -1.703125 C 10.398438 -3.710938 7.128906 -6.785156 4.640625 -10.921875 C 2.148438 -15.066406 0.90625 -20.242188 0.90625 -26.453125 C 0.90625 -35.453125 3.613281 -42.476562 9.03125 -47.53125 C 13.84375 -51.988281 20.035156 -54.21875 27.609375 -54.21875 C 35.835938 -54.21875 42.347656 -51.664062 47.140625 -46.5625 C 51.941406 -41.46875 54.34375 -34.765625 54.34375 -26.453125 C 54.34375 -17.210938 51.773438 -10.160156 46.640625 -5.296875 C 41.960938 -0.890625 35.695312 1.3125 27.84375 1.3125 Z M 27.84375 1.3125 "/></g></g></g><g fill="#000000" fill-opacity="1"><g transform="translate(315.64649, 249.385249)"><g><path d="M 29.484375 -28.296875 C 29.484375 -31.035156 29.359375 -32.914062 29.109375 -33.9375 C 28.867188 -34.96875 28.421875 -35.484375 27.765625 -35.484375 C 27.359375 -35.484375 26.988281 -35.34375 26.65625 -35.0625 C 26.71875 -34.570312 26.800781 -33.914062 26.90625 -33.09375 C 27.019531 -32.28125 27.078125 -30.53125 27.078125 -27.84375 L 27.078125 -25.1875 C 27.078125 -23.320312 27.035156 -21.96875 26.953125 -21.125 C 26.867188 -20.28125 26.800781 -19.554688 26.75 -18.953125 C 26.71875 -18.617188 26.6875 -18.289062 26.65625 -17.96875 C 26.988281 -17.695312 27.359375 -17.5625 27.765625 -17.5625 C 28.421875 -17.5625 28.867188 -18.070312 29.109375 -19.09375 C 29.359375 -20.113281 29.484375 -21.992188 29.484375 -24.734375 Z M 27.84375 1.3125 C 22.976562 1.3125 18.515625 0.304688 14.453125 -1.703125 C 10.398438 -3.710938 7.128906 -6.785156 4.640625 -10.921875 C 2.148438 -15.066406 0.90625 -20.242188 0.90625 -26.453125 C 0.90625 -35.453125 3.613281 -42.476562 9.03125 -47.53125 C 13.84375 -51.988281 20.035156 -54.21875 27.609375 -54.21875 C 35.835938 -54.21875 42.347656 -51.664062 47.140625 -46.5625 C 51.941406 -41.46875 54.34375 -34.765625 54.34375 -26.453125 C 54.34375 -17.210938 51.773438 -10.160156 46.640625 -5.296875 C 41.960938 -0.890625 35.695312 1.3125 27.84375 1.3125 Z M 27.84375 1.3125 "/></g></g></g><g fill="#000000" fill-opacity="1"><g transform="translate(392.89712, 249.385249)"><g><path d="M 1.3125 -7.59375 L 1.3125 -48.6875 C 1.3125 -50.101562 2.453125 -51.285156 4.734375 -52.234375 C 7.015625 -53.179688 9.703125 -53.65625 12.796875 -53.65625 C 14.546875 -53.65625 16.191406 -53.441406 17.734375 -53.015625 C 19.285156 -52.585938 20.46875 -52.046875 21.28125 -51.390625 C 22.40625 -49.972656 23.429688 -48.523438 24.359375 -47.046875 C 25.296875 -45.566406 27.390625 -42.117188 30.640625 -36.703125 C 30.941406 -36.703125 31.210938 -36.796875 31.453125 -36.984375 C 31.703125 -37.179688 31.828125 -37.476562 31.828125 -37.875 C 31.828125 -38.269531 31.484375 -39.046875 30.796875 -40.203125 L 26.375 -47.828125 L 26.375 -50.078125 C 27.769531 -51.222656 29.460938 -52.109375 31.453125 -52.734375 C 33.453125 -53.367188 35.519531 -53.6875 37.65625 -53.6875 C 41.125 -53.6875 43.925781 -53.054688 46.0625 -51.796875 C 48.550781 -50.296875 49.796875 -47.945312 49.796875 -44.75 L 49.796875 -5.90625 C 49.796875 -3.550781 48.675781 -1.84375 46.4375 -0.78125 C 44.519531 0.175781 41.960938 0.65625 38.765625 0.65625 C 36.984375 0.65625 35.25 0.460938 33.5625 0.078125 C 31.882812 -0.304688 30.566406 -0.796875 29.609375 -1.390625 C 27.671875 -3.878906 25.742188 -6.671875 23.828125 -9.765625 L 19.640625 -16.734375 C 18.847656 -16.628906 18.453125 -16.207031 18.453125 -15.46875 C 18.453125 -15 18.847656 -14.109375 19.640625 -12.796875 L 24.78125 -4.515625 L 24.78125 -2.34375 C 21.601562 -0.289062 18.023438 0.734375 14.046875 0.734375 C 10.066406 0.734375 6.945312 0.0078125 4.6875 -1.4375 C 2.4375 -2.882812 1.3125 -4.9375 1.3125 -7.59375 Z M 1.3125 -7.59375 "/></g></g></g><path stroke-linecap="butt" transform="matrix(0.749098, 0, 0, 0.749098, 43.986501, 95.219984)" fill="none" stroke-linejoin="miter" d="M 200.879345 183.072664 C 202.083918 182.853651 202.688812 182.238328 202.688812 181.237124 C 202.688812 180.230705 202.365507 179.099136 201.729325 177.842416 C 201.087929 176.580482 200.1493 175.386338 198.908225 174.254769 C 195.659526 171.334591 191.263615 169.874502 185.715277 169.874502 C 182.97761 169.874502 180.422454 170.333387 178.049809 171.245943 C 175.531156 169.968365 173.523533 167.939884 172.026942 165.165715 C 170.53035 162.391545 169.779448 159.398363 169.779448 156.186167 C 169.779448 147.790655 173.283661 141.314117 180.292089 136.751338 C 186.314956 132.8456 193.745767 130.895338 202.579306 130.895338 C 209.149706 130.895338 214.677187 131.594095 219.16696 133.002038 C 223.656734 134.404767 227.322601 136.203805 230.169775 138.393938 C 231.009326 140.803085 231.431709 143.300881 231.431709 145.892539 C 231.431709 148.484197 231.08233 150.841198 230.388788 152.958327 C 229.695246 155.075456 228.694042 156.770202 227.379961 158.04778 C 226.138886 157.135225 223.891391 156.207025 220.642693 155.257967 C 217.393995 154.308909 214.442529 153.83438 211.777867 153.83438 C 209.113204 153.83438 207.32981 153.996033 206.438112 154.324553 C 205.541201 154.653073 205.097959 155.164104 205.097959 155.857647 C 205.097959 156.186167 205.150105 156.499043 205.259612 156.791061 C 206.53719 156.462541 208.17979 156.295673 210.187413 156.295673 C 217.305347 156.295673 223.109201 157.974776 227.598975 161.332981 C 232.891798 165.348226 235.535602 171.371093 235.535602 179.401583 C 235.535602 186.483015 232.672784 192.359874 226.941935 197.032159 C 220.736556 202.032964 212.398405 204.530759 201.922266 204.530759 C 196.154914 204.530759 191.154109 204.103161 186.91985 203.247966 C 182.685592 202.387557 178.56084 200.880536 174.545595 198.726905 C 171.807928 194.753377 170.436488 190.706844 170.436488 186.602951 C 170.436488 182.493843 171.844431 179.093921 174.655102 176.392757 C 177.465774 173.691592 180.923056 172.341009 185.026949 172.341009 C 189.136057 172.341009 192.494262 173.180561 195.101564 174.859663 C 197.71408 176.538766 199.638269 179.276433 200.879345 183.072664 Z M 302.746631 165.223075 C 302.746631 161.572853 302.579763 159.064628 302.251243 157.693187 C 301.922723 156.326961 301.323044 155.638633 300.44699 155.638633 C 299.899457 155.638633 299.40407 155.821144 298.966043 156.186167 C 299.039047 156.843207 299.148554 157.71926 299.294563 158.814327 C 299.440572 159.909394 299.513576 162.245536 299.513576 165.822755 L 299.513576 169.384329 C 299.513576 171.86648 299.46143 173.670733 299.351924 174.802302 C 299.242417 175.933871 299.148554 176.903788 299.07555 177.706837 C 299.039047 178.144864 299.002545 178.58289 298.966043 179.020917 C 299.40407 179.385939 299.899457 179.56845 300.44699 179.56845 C 301.323044 179.56845 301.922723 178.880123 302.251243 177.513896 C 302.579763 176.142456 302.746631 173.634231 302.746631 169.984009 Z M 300.556497 204.749772 C 294.059101 204.749772 288.098808 203.409619 282.680835 200.729313 C 277.257647 198.043792 272.887809 193.939899 269.566106 188.407204 C 266.244404 182.879724 264.58616 175.970374 264.58616 167.684368 C 264.58616 155.675136 268.19988 146.294063 275.427321 139.541151 C 281.851713 133.596503 290.11686 130.618964 300.227977 130.618964 C 311.215147 130.618964 319.907892 134.0241 326.31664 140.829158 C 332.720173 147.639431 335.927155 156.587691 335.927155 167.684368 C 335.927155 180.022121 332.495946 189.439695 325.633527 195.937092 C 319.391646 201.81395 311.032636 204.749772 300.556497 204.749772 Z M 405.870636 165.223075 C 405.870636 161.572853 405.708983 159.064628 405.380463 157.693187 C 405.051943 156.326961 404.447049 155.638633 403.570996 155.638633 C 403.023462 155.638633 402.53329 155.821144 402.095263 156.186167 C 402.168267 156.843207 402.277774 157.71926 402.423783 158.814327 C 402.569792 159.909394 402.642796 162.245536 402.642796 165.822755 L 402.642796 169.384329 C 402.642796 171.86648 402.585436 173.670733 402.475929 174.802302 C 402.366422 175.933871 402.277774 176.903788 402.20477 177.706837 C 402.168267 178.144864 402.131765 178.58289 402.095263 179.020917 C 402.53329 179.385939 403.023462 179.56845 403.570996 179.56845 C 404.447049 179.56845 405.051943 178.880123 405.380463 177.513896 C 405.708983 176.142456 405.870636 173.634231 405.870636 169.984009 Z M 403.680502 204.749772 C 397.183106 204.749772 391.222814 203.409619 385.804841 200.729313 C 380.381653 198.043792 376.011815 193.939899 372.690112 188.407204 C 369.368409 182.879724 367.710165 175.970374 367.710165 167.684368 C 367.710165 155.675136 371.323886 146.294063 378.551327 139.541151 C 384.975719 133.596503 393.240866 130.618964 403.351982 130.618964 C 414.339153 130.618964 423.037112 134.0241 429.440645 140.829158 C 435.849393 147.639431 439.05116 156.587691 439.05116 167.684368 C 439.05116 180.022121 435.619951 189.439695 428.757532 195.937092 C 422.515651 201.81395 414.156642 204.749772 403.680502 204.749772 Z M 471.381704 192.870905 L 471.381704 138.008058 C 471.381704 136.115157 472.904368 134.535132 475.954912 133.273198 C 479.00024 132.016478 482.587888 131.385511 486.712639 131.385511 C 489.048782 131.385511 491.249345 131.6671 493.309113 132.235491 C 495.374096 132.798669 496.948907 133.523499 498.043973 134.399552 C 499.540565 136.292453 500.912006 138.227071 502.153081 140.198191 C 503.394157 142.169312 506.18397 146.768592 510.527735 153.996033 C 510.929259 153.996033 511.294282 153.870883 511.622802 153.615367 C 511.951322 153.359851 512.118189 152.968756 512.118189 152.436867 C 512.118189 151.910192 511.659304 150.8777 510.746748 149.344607 L 504.833388 139.160485 L 504.833388 136.146444 C 506.695001 134.618565 508.958139 133.429636 511.622802 132.590084 C 514.287464 131.750533 517.04599 131.333365 519.893163 131.333365 C 524.528946 131.333365 528.267817 132.172916 531.114991 133.852019 C 534.436694 135.859641 536.094938 138.993618 536.094938 143.264378 L 536.094938 195.118399 C 536.094938 198.252376 534.598346 200.536372 531.610378 201.959959 C 529.055222 203.237537 525.639657 203.873719 521.368896 203.873719 C 518.996252 203.873719 516.686182 203.618203 514.443902 203.107172 C 512.196408 202.596141 510.439087 201.939101 509.161509 201.136052 C 506.569851 197.814349 503.993836 194.096337 501.438681 189.971585 L 495.85384 180.663517 C 494.795275 180.809526 494.2686 181.372703 494.2686 182.358263 C 494.2686 182.978801 494.795275 184.167731 495.85384 185.919838 L 502.700615 196.974798 L 502.700615 199.879332 C 498.466356 202.616999 493.694994 203.983225 488.381313 203.983225 C 483.072846 203.983225 478.911592 203.018524 475.897551 201.083906 C 472.888725 199.149288 471.381704 196.411621 471.381704 192.870905 Z M 471.381704 192.870905 " stroke="#cb4195" stroke-width="1.822145" stroke-opacity="1" stroke-miterlimit="4"/><g clip-path="url(#48a54ab58b)"><path fill="#cb4195" d="M 257.226562 20.324219 C 257.226562 20.882812 257.085938 21.445312 256.789062 21.964844 C 255.003906 25.105469 251.386719 30.328125 244.9375 35.472656 C 244.242188 42.886719 238.96875 48.972656 231.984375 50.855469 L 231.984375 68.984375 C 233.179688 68.765625 234.527344 68.710938 235.949219 68.855469 C 240.421875 69.316406 243.851562 71.605469 243.613281 73.964844 C 243.371094 76.324219 239.550781 77.867188 235.078125 77.402344 C 230.753906 76.960938 227.402344 74.808594 227.402344 72.535156 C 227.402344 72.457031 227.40625 72.378906 227.414062 72.296875 L 227.414062 51.457031 L 227.390625 51.457031 L 227.390625 72.292969 C 227.398438 72.371094 227.402344 72.449219 227.402344 72.53125 C 227.402344 74.804688 224.054688 76.957031 219.726562 77.398438 C 215.253906 77.859375 211.433594 76.320312 211.191406 73.960938 C 210.949219 71.597656 214.382812 69.3125 218.855469 68.851562 C 220.273438 68.707031 221.625 68.761719 222.820312 68.976562 L 222.820312 50.851562 C 215.632812 48.917969 210.265625 42.535156 209.820312 34.828125 C 203.398438 29.699219 199.796875 24.496094 198.011719 21.359375 C 197.71875 20.839844 197.578125 20.277344 197.578125 19.722656 C 197.578125 18.582031 198.167969 17.472656 199.226562 16.867188 C 200.855469 15.925781 202.941406 16.546875 203.789062 18.230469 C 206.367188 23.371094 209.003906 26.679688 210.609375 28.429688 C 212.871094 21.296875 219.535156 16.125 227.398438 16.125 C 235.429688 16.125 242.203125 21.515625 244.324219 28.890625 C 245.9375 27.101562 248.5 23.835938 251.011719 18.835938 C 251.855469 17.152344 253.945312 16.535156 255.574219 17.472656 C 256.636719 18.078125 257.226562 19.183594 257.226562 20.324219 Z M 257.226562 20.324219 " fill-opacity="1" fill-rule="nonzero"/></g><g clip-path="url(#f50b9bf5c7)"><path fill="#000000" d="M 218.128906 77.988281 C 214.078125 77.988281 210.933594 76.378906 210.6875 74.011719 C 210.417969 71.335938 213.980469 68.847656 218.800781 68.351562 C 220.003906 68.230469 221.207031 68.242188 222.316406 68.390625 L 222.316406 51.234375 C 215.035156 49.109375 209.859375 42.679688 209.328125 35.082031 C 203.097656 30.0625 199.5 24.992188 197.578125 21.609375 C 197.25 21.035156 197.074219 20.382812 197.074219 19.722656 C 197.074219 18.363281 197.804688 17.101562 198.976562 16.425781 C 199.890625 15.902344 200.949219 15.777344 201.957031 16.082031 C 202.960938 16.386719 203.769531 17.066406 204.242188 18.003906 C 206.480469 22.464844 208.75 25.535156 210.417969 27.453125 C 213.046875 20.34375 219.769531 15.621094 227.40625 15.621094 C 235.128906 15.621094 242.050781 20.621094 244.542969 27.886719 C 246.175781 25.976562 248.390625 22.949219 250.566406 18.609375 C 251.039062 17.671875 251.847656 16.992188 252.851562 16.6875 C 253.84375 16.390625 254.933594 16.515625 255.832031 17.03125 C 257.003906 17.707031 257.734375 18.96875 257.734375 20.328125 C 257.734375 20.988281 257.5625 21.640625 257.230469 22.214844 C 255.300781 25.609375 251.6875 30.699219 245.417969 35.734375 C 244.648438 43.019531 239.496094 49.1875 232.492188 51.234375 L 232.492188 68.390625 C 233.601562 68.242188 234.804688 68.226562 236.003906 68.351562 C 240.828125 68.847656 244.386719 71.335938 244.121094 74.011719 C 243.84375 76.691406 239.851562 78.398438 235.027344 77.902344 C 231.441406 77.535156 228.53125 76.0625 227.40625 74.21875 C 226.28125 76.0625 223.375 77.535156 219.785156 77.902344 C 219.214844 77.957031 218.664062 77.988281 218.128906 77.988281 Z M 220.421875 69.277344 C 219.921875 69.277344 219.414062 69.304688 218.902344 69.355469 C 214.785156 69.78125 211.480469 71.867188 211.6875 73.910156 C 211.898438 75.953125 215.554688 77.320312 219.671875 76.898438 C 223.65625 76.488281 226.898438 74.53125 226.898438 72.53125 C 226.898438 72.464844 226.894531 72.40625 226.886719 72.34375 C 226.886719 72.328125 226.886719 72.308594 226.886719 72.296875 L 226.886719 51.457031 C 226.886719 51.179688 227.109375 50.953125 227.386719 50.953125 C 227.664062 50.953125 227.917969 51.179688 227.917969 51.457031 L 227.917969 72.292969 C 227.917969 72.308594 227.917969 72.328125 227.914062 72.34375 C 227.90625 72.40625 227.902344 72.464844 227.902344 72.527344 C 227.902344 74.527344 231.144531 76.488281 235.125 76.894531 C 239.242188 77.316406 242.898438 75.949219 243.109375 73.90625 C 243.316406 71.859375 240.015625 69.773438 235.898438 69.351562 C 234.570312 69.21875 233.25 69.257812 232.074219 69.472656 C 231.929688 69.496094 231.777344 69.460938 231.660156 69.363281 C 231.546875 69.269531 231.480469 69.125 231.480469 68.976562 L 231.480469 50.851562 C 231.480469 50.621094 231.632812 50.421875 231.851562 50.363281 C 238.714844 48.515625 243.769531 42.511719 244.433594 35.421875 C 244.445312 35.285156 244.515625 35.160156 244.621094 35.074219 C 250.867188 30.097656 254.445312 25.0625 256.351562 21.714844 C 256.59375 21.289062 256.71875 20.8125 256.71875 20.328125 C 256.71875 19.332031 256.183594 18.40625 255.324219 17.90625 C 254.652344 17.519531 253.875 17.433594 253.132812 17.65625 C 252.398438 17.878906 251.804688 18.375 251.460938 19.058594 C 248.957031 24.046875 246.402344 27.339844 244.695312 29.222656 C 244.570312 29.359375 244.386719 29.417969 244.210938 29.375 C 244.03125 29.335938 243.890625 29.199219 243.839844 29.023438 C 241.742188 21.726562 234.980469 16.628906 227.402344 16.628906 C 219.914062 16.628906 213.359375 21.433594 211.089844 28.582031 C 211.035156 28.753906 210.894531 28.882812 210.71875 28.921875 C 210.542969 28.960938 210.363281 28.902344 210.242188 28.769531 C 208.507812 26.875 205.898438 23.550781 203.339844 18.457031 C 202.996094 17.769531 202.402344 17.273438 201.667969 17.050781 C 200.925781 16.832031 200.148438 16.917969 199.476562 17.304688 C 198.617188 17.800781 198.082031 18.726562 198.082031 19.722656 C 198.082031 20.207031 198.207031 20.683594 198.449219 21.109375 C 200.347656 24.445312 203.914062 29.464844 210.132812 34.429688 C 210.242188 34.519531 210.3125 34.652344 210.320312 34.796875 C 210.746094 42.1875 215.820312 48.441406 222.949219 50.363281 C 223.167969 50.421875 223.320312 50.625 223.320312 50.851562 L 223.320312 68.980469 C 223.320312 69.128906 223.253906 69.273438 223.140625 69.367188 C 223.023438 69.464844 222.875 69.503906 222.726562 69.476562 C 222.003906 69.34375 221.222656 69.277344 220.421875 69.277344 Z M 220.421875 69.277344 " fill-opacity="1" fill-rule="nonzero"/></g><path fill="#fdd501" d="M 309.191406 17.769531 C 307.5625 16.832031 305.476562 17.449219 304.628906 19.132812 C 302.058594 24.253906 299.433594 27.554688 297.828125 29.3125 C 297.347656 28.6875 296.828125 28.089844 296.28125 27.523438 C 294.96875 26.164062 294.261719 24.339844 294.289062 22.449219 C 294.289062 22.40625 294.289062 22.363281 294.289062 22.324219 C 294.328125 15.160156 288.65625 9.179688 281.519531 8.882812 C 273.898438 8.5625 267.617188 14.671875 267.617188 22.25 C 267.617188 22.335938 267.617188 22.421875 267.617188 22.507812 C 267.65625 24.394531 266.902344 26.195312 265.597656 27.550781 C 265.175781 27.988281 264.777344 28.441406 264.390625 28.914062 C 262.808594 27.214844 260.074219 23.855469 257.402344 18.53125 C 256.558594 16.847656 254.46875 16.230469 252.839844 17.167969 C 251.78125 17.777344 251.195312 18.882812 251.195312 20.027344 C 251.195312 20.582031 251.335938 21.144531 251.628906 21.660156 C 253.226562 24.476562 256.289062 28.949219 261.53125 33.535156 C 260.28125 36.277344 259.59375 39.328125 259.613281 42.542969 C 259.671875 52.683594 266.855469 61.210938 276.371094 63.316406 L 276.371094 68.980469 C 275.175781 68.761719 273.828125 68.707031 272.40625 68.855469 C 267.933594 69.3125 264.503906 71.597656 264.742188 73.960938 C 264.984375 76.320312 268.804688 77.863281 273.277344 77.402344 C 277.601562 76.953125 280.953125 74.808594 280.953125 72.53125 C 280.953125 74.804688 284.304688 76.957031 288.628906 77.402344 C 293.101562 77.863281 296.921875 76.320312 297.164062 73.960938 C 297.40625 71.597656 293.972656 69.3125 289.5 68.855469 C 288.082031 68.707031 286.730469 68.761719 285.535156 68.980469 L 285.535156 63.324219 C 295.121094 61.222656 302.292969 52.65625 302.292969 42.417969 C 302.292969 39.449219 301.691406 36.621094 300.601562 34.054688 C 305.78125 29.496094 308.8125 25.0625 310.402344 22.265625 C 310.695312 21.75 310.835938 21.1875 310.835938 20.632812 C 310.839844 19.488281 310.246094 18.378906 309.191406 17.769531 Z M 280.964844 72.292969 C 280.957031 72.371094 280.953125 72.449219 280.953125 72.527344 C 280.953125 72.449219 280.945312 72.371094 280.941406 72.292969 L 280.941406 63.820312 L 280.964844 63.820312 Z M 280.964844 72.292969 " fill-opacity="1" fill-rule="nonzero"/><path fill="#000000" d="M 290.222656 77.988281 C 289.6875 77.988281 289.136719 77.957031 288.574219 77.902344 C 284.984375 77.53125 282.078125 76.058594 280.953125 74.210938 C 279.824219 76.058594 276.921875 77.53125 273.328125 77.902344 C 271.085938 78.132812 268.921875 77.886719 267.234375 77.203125 C 265.441406 76.480469 264.375 75.34375 264.242188 74.007812 C 263.96875 71.328125 267.53125 68.84375 272.351562 68.351562 C 273.550781 68.226562 274.753906 68.238281 275.867188 68.386719 L 275.867188 63.71875 C 266.191406 61.382812 259.167969 52.546875 259.109375 42.546875 C 259.089844 39.453125 259.699219 36.46875 260.917969 33.667969 C 255.847656 29.167969 252.832031 24.800781 251.191406 21.910156 C 250.863281 21.335938 250.6875 20.683594 250.6875 20.027344 C 250.6875 18.667969 251.414062 17.40625 252.589844 16.730469 C 253.5 16.203125 254.558594 16.082031 255.570312 16.382812 C 256.570312 16.6875 257.382812 17.367188 257.851562 18.304688 C 260.234375 23.046875 262.652344 26.226562 264.375 28.148438 C 264.652344 27.828125 264.941406 27.511719 265.234375 27.203125 C 266.480469 25.910156 267.148438 24.246094 267.117188 22.523438 C 267.113281 22.433594 267.113281 22.34375 267.113281 22.25 C 267.113281 18.433594 268.628906 14.875 271.375 12.230469 C 274.121094 9.589844 277.730469 8.222656 281.542969 8.382812 C 285.125 8.53125 288.46875 10.0625 290.960938 12.683594 C 293.449219 15.308594 294.8125 18.734375 294.792969 22.328125 C 294.789062 22.386719 294.789062 22.421875 294.789062 22.453125 C 294.761719 24.238281 295.417969 25.910156 296.640625 27.171875 C 297.0625 27.609375 297.46875 28.066406 297.847656 28.535156 C 299.523438 26.628906 301.867188 23.507812 304.175781 18.910156 C 304.648438 17.972656 305.457031 17.292969 306.460938 16.988281 C 307.46875 16.6875 308.527344 16.808594 309.441406 17.335938 C 310.613281 18.007812 311.339844 19.273438 311.339844 20.632812 C 311.339844 21.289062 311.167969 21.941406 310.839844 22.515625 C 309.207031 25.386719 306.21875 29.722656 301.203125 34.191406 C 302.261719 36.800781 302.796875 39.566406 302.796875 42.417969 C 302.796875 47.445312 301.054688 52.351562 297.898438 56.242188 C 294.867188 59.972656 290.667969 62.617188 286.035156 63.726562 L 286.035156 68.390625 C 287.148438 68.242188 288.351562 68.230469 289.550781 68.355469 C 291.792969 68.585938 293.859375 69.269531 295.375 70.277344 C 296.984375 71.347656 297.796875 72.679688 297.660156 74.015625 C 297.417969 76.378906 294.273438 77.988281 290.222656 77.988281 Z M 273.972656 69.277344 C 273.472656 69.277344 272.964844 69.304688 272.457031 69.355469 C 268.339844 69.78125 265.035156 71.863281 265.246094 73.910156 C 265.339844 74.855469 266.183594 75.695312 267.613281 76.269531 C 269.148438 76.890625 271.144531 77.113281 273.226562 76.898438 C 277.207031 76.492188 280.445312 74.53125 280.449219 72.53125 C 280.449219 72.53125 280.449219 72.53125 280.449219 72.527344 C 280.449219 72.464844 280.445312 72.402344 280.4375 72.34375 C 280.4375 72.324219 280.4375 72.308594 280.4375 72.292969 L 280.4375 63.820312 C 280.4375 63.542969 280.664062 63.3125 280.941406 63.3125 C 281.214844 63.3125 281.46875 63.542969 281.46875 63.820312 L 281.46875 72.292969 C 281.46875 72.308594 281.46875 72.328125 281.464844 72.34375 C 281.457031 72.40625 281.457031 72.464844 281.457031 72.527344 C 281.457031 72.527344 281.457031 72.53125 281.457031 72.53125 C 281.457031 74.527344 284.695312 76.488281 288.675781 76.898438 C 292.792969 77.320312 296.449219 75.953125 296.664062 73.90625 C 296.757812 72.960938 296.105469 71.96875 294.820312 71.113281 C 293.441406 70.195312 291.535156 69.570312 289.449219 69.355469 C 288.128906 69.21875 286.804688 69.261719 285.625 69.476562 C 285.480469 69.503906 285.328125 69.464844 285.210938 69.367188 C 285.097656 69.273438 285.03125 69.132812 285.03125 68.980469 L 285.03125 63.324219 C 285.03125 63.085938 285.195312 62.882812 285.425781 62.832031 C 289.996094 61.832031 294.148438 59.261719 297.117188 55.605469 C 300.128906 51.894531 301.789062 47.210938 301.789062 42.417969 C 301.789062 39.582031 301.234375 36.832031 300.136719 34.25 C 300.050781 34.050781 300.105469 33.816406 300.269531 33.671875 C 305.34375 29.210938 308.34375 24.871094 309.964844 22.015625 C 310.207031 21.59375 310.332031 21.113281 310.332031 20.632812 C 310.332031 19.632812 309.800781 18.703125 308.9375 18.210938 C 308.265625 17.824219 307.488281 17.734375 306.75 17.957031 C 306.015625 18.175781 305.421875 18.675781 305.074219 19.359375 C 302.527344 24.4375 299.925781 27.757812 298.195312 29.652344 C 298.097656 29.765625 297.949219 29.824219 297.804688 29.816406 C 297.65625 29.808594 297.515625 29.738281 297.425781 29.621094 C 296.960938 29.015625 296.453125 28.425781 295.917969 27.871094 C 294.511719 26.417969 293.753906 24.488281 293.785156 22.441406 C 293.785156 22.398438 293.785156 22.34375 293.789062 22.296875 C 293.800781 18.984375 292.539062 15.808594 290.230469 13.375 C 287.917969 10.941406 284.816406 9.523438 281.5 9.386719 C 277.964844 9.238281 274.617188 10.507812 272.070312 12.957031 C 269.523438 15.410156 268.121094 18.710938 268.121094 22.25 C 268.121094 22.335938 268.121094 22.417969 268.121094 22.5 C 268.160156 24.5 267.390625 26.417969 265.957031 27.90625 C 265.546875 28.332031 265.152344 28.78125 264.78125 29.234375 C 264.6875 29.347656 264.554688 29.417969 264.410156 29.421875 C 264.261719 29.429688 264.125 29.367188 264.023438 29.261719 C 262.242188 27.351562 259.574219 23.976562 256.953125 18.761719 C 256.605469 18.074219 256.015625 17.574219 255.277344 17.355469 C 254.535156 17.132812 253.757812 17.222656 253.085938 17.609375 C 252.226562 18.105469 251.691406 19.03125 251.691406 20.03125 C 251.691406 20.515625 251.820312 20.992188 252.058594 21.417969 C 253.695312 24.296875 256.722656 28.667969 261.855469 33.164062 C 262.023438 33.308594 262.074219 33.546875 261.980469 33.753906 C 260.722656 36.519531 260.09375 39.476562 260.109375 42.546875 C 260.167969 52.214844 267.046875 60.746094 276.476562 62.828125 C 276.707031 62.878906 276.871094 63.085938 276.871094 63.320312 L 276.871094 68.984375 C 276.871094 69.132812 276.804688 69.277344 276.6875 69.375 C 276.574219 69.46875 276.425781 69.511719 276.277344 69.480469 C 275.550781 69.34375 274.773438 69.277344 273.972656 69.277344 Z M 273.972656 69.277344 " fill-opacity="1" fill-rule="nonzero"/><path fill="#000000" d="M 224.679688 25.441406 C 224.679688 25.710938 224.585938 25.941406 224.398438 26.132812 C 224.207031 26.320312 223.980469 26.417969 223.710938 26.417969 C 223.441406 26.417969 223.214844 26.320312 223.023438 26.132812 C 222.835938 25.941406 222.738281 25.710938 222.738281 25.441406 C 222.738281 25.175781 222.835938 24.945312 223.023438 24.753906 C 223.214844 24.5625 223.441406 24.46875 223.710938 24.46875 C 223.980469 24.46875 224.207031 24.5625 224.398438 24.753906 C 224.585938 24.945312 224.679688 25.175781 224.679688 25.441406 Z M 224.679688 25.441406 " fill-opacity="1" fill-rule="nonzero"/><path fill="#000000" d="M 232.363281 25.414062 C 232.363281 25.679688 232.269531 25.910156 232.078125 26.101562 C 231.890625 26.292969 231.660156 26.386719 231.390625 26.386719 C 231.125 26.386719 230.894531 26.292969 230.707031 26.101562 C 230.515625 25.910156 230.421875 25.679688 230.421875 25.414062 C 230.421875 25.144531 230.515625 24.914062 230.707031 24.722656 C 230.894531 24.535156 231.125 24.4375 231.390625 24.4375 C 231.660156 24.4375 231.890625 24.535156 232.078125 24.722656 C 232.269531 24.914062 232.363281 25.144531 232.363281 25.414062 Z M 232.363281 25.414062 " fill-opacity="1" fill-rule="nonzero"/><path fill="#000000" d="M 227.402344 32.875 C 223.679688 32.875 219.960938 31.933594 216.644531 30.046875 C 216.402344 29.910156 216.316406 29.601562 216.453125 29.359375 C 216.59375 29.113281 216.898438 29.03125 217.140625 29.167969 C 223.472656 32.765625 231.335938 32.765625 237.664062 29.167969 C 237.90625 29.03125 238.214844 29.117188 238.351562 29.359375 C 238.488281 29.601562 238.40625 29.90625 238.164062 30.046875 C 234.839844 31.933594 231.121094 32.875 227.402344 32.875 Z M 227.402344 32.875 " fill-opacity="1" fill-rule="nonzero"/><path fill="#000000" d="M 278.222656 21.46875 C 278.222656 21.738281 278.128906 21.96875 277.9375 22.15625 C 277.75 22.347656 277.519531 22.441406 277.253906 22.441406 C 276.984375 22.441406 276.753906 22.347656 276.566406 22.15625 C 276.375 21.96875 276.28125 21.738281 276.28125 21.46875 C 276.28125 21.199219 276.375 20.972656 276.566406 20.78125 C 276.753906 20.589844 276.984375 20.496094 277.253906 20.496094 C 277.519531 20.496094 277.75 20.589844 277.9375 20.78125 C 278.128906 20.972656 278.222656 21.199219 278.222656 21.46875 Z M 278.222656 21.46875 " fill-opacity="1" fill-rule="nonzero"/><path fill="#000000" d="M 285.90625 21.4375 C 285.90625 21.707031 285.808594 21.9375 285.621094 22.128906 C 285.429688 22.316406 285.203125 22.414062 284.933594 22.414062 C 284.664062 22.414062 284.4375 22.316406 284.246094 22.128906 C 284.058594 21.9375 283.960938 21.707031 283.960938 21.4375 C 283.960938 21.171875 284.058594 20.941406 284.246094 20.75 C 284.4375 20.5625 284.664062 20.464844 284.933594 20.464844 C 285.203125 20.464844 285.429688 20.5625 285.621094 20.75 C 285.808594 20.941406 285.90625 21.171875 285.90625 21.4375 Z M 285.90625 21.4375 " fill-opacity="1" fill-rule="nonzero"/><path fill="#000000" d="M 280.941406 28.902344 C 277.222656 28.902344 273.503906 27.960938 270.183594 26.074219 C 269.941406 25.9375 269.859375 25.628906 269.996094 25.386719 C 270.132812 25.144531 270.4375 25.058594 270.683594 25.195312 C 277.011719 28.789062 284.875 28.789062 291.207031 25.195312 C 291.449219 25.058594 291.753906 25.144531 291.894531 25.386719 C 292.027344 25.628906 291.945312 25.933594 291.703125 26.074219 C 288.382812 27.960938 284.660156 28.902344 280.941406 28.902344 Z M 280.941406 28.902344 " fill-opacity="1" fill-rule="nonzero"/><path fill="#44b764" d="M 364.496094 20.324219 C 364.496094 20.882812 364.355469 21.445312 364.0625 21.964844 C 362.273438 25.105469 358.65625 30.328125 352.207031 35.472656 C 351.515625 42.886719 346.238281 48.972656 339.253906 50.855469 L 339.253906 68.984375 C 340.449219 68.765625 341.800781 68.710938 343.222656 68.855469 C 347.695312 69.316406 351.125 71.605469 350.886719 73.964844 C 350.640625 76.324219 346.820312 77.867188 342.347656 77.402344 C 338.023438 76.960938 334.675781 74.808594 334.675781 72.535156 C 334.675781 72.457031 334.679688 72.378906 334.6875 72.296875 L 334.6875 51.457031 L 334.664062 51.457031 L 334.664062 72.292969 C 334.667969 72.371094 334.675781 72.449219 334.675781 72.53125 C 334.675781 74.804688 331.324219 76.957031 327 77.398438 C 322.527344 77.859375 318.707031 76.320312 318.460938 73.960938 C 318.222656 71.597656 321.652344 69.3125 326.125 68.851562 C 327.542969 68.707031 328.898438 68.761719 330.09375 68.976562 L 330.09375 50.851562 C 322.90625 48.917969 317.535156 42.535156 317.089844 34.828125 C 310.675781 29.699219 307.074219 24.496094 305.285156 21.359375 C 304.988281 20.839844 304.851562 20.277344 304.851562 19.722656 C 304.851562 18.582031 305.441406 17.472656 306.5 16.867188 C 308.128906 15.925781 310.214844 16.546875 311.0625 18.230469 C 313.640625 23.371094 316.277344 26.679688 317.882812 28.429688 C 320.148438 21.296875 326.808594 16.125 334.671875 16.125 C 342.703125 16.125 349.476562 21.515625 351.597656 28.890625 C 353.210938 27.101562 355.773438 23.835938 358.285156 18.835938 C 359.128906 17.152344 361.21875 16.535156 362.847656 17.472656 C 363.910156 18.078125 364.496094 19.183594 364.496094 20.324219 Z M 364.496094 20.324219 " fill-opacity="1" fill-rule="nonzero"/><path fill="#000000" d="M 325.402344 77.988281 C 321.351562 77.988281 318.207031 76.378906 317.964844 74.011719 C 317.691406 71.335938 321.257812 68.847656 326.074219 68.351562 C 327.277344 68.230469 328.480469 68.242188 329.589844 68.390625 L 329.589844 51.234375 C 322.308594 49.109375 317.132812 42.679688 316.601562 35.082031 C 310.371094 30.0625 306.777344 24.992188 304.851562 21.609375 C 304.523438 21.035156 304.347656 20.382812 304.347656 19.722656 C 304.347656 18.363281 305.078125 17.101562 306.25 16.425781 C 307.164062 15.902344 308.222656 15.777344 309.230469 16.082031 C 310.234375 16.386719 311.042969 17.066406 311.515625 18.003906 C 313.753906 22.464844 316.023438 25.535156 317.6875 27.453125 C 320.320312 20.34375 327.039062 15.621094 334.675781 15.621094 C 342.402344 15.621094 349.324219 20.621094 351.8125 27.886719 C 353.445312 25.976562 355.660156 22.949219 357.839844 18.609375 C 358.308594 17.671875 359.121094 16.992188 360.125 16.6875 C 361.132812 16.386719 362.191406 16.507812 363.105469 17.03125 C 364.277344 17.707031 365.003906 18.96875 365.003906 20.328125 C 365.003906 20.988281 364.832031 21.640625 364.503906 22.214844 C 362.570312 25.609375 358.960938 30.699219 352.691406 35.734375 C 351.917969 43.019531 346.769531 49.1875 339.761719 51.234375 L 339.761719 68.390625 C 340.871094 68.242188 342.074219 68.226562 343.277344 68.351562 C 348.097656 68.847656 351.660156 71.335938 351.386719 74.011719 C 351.113281 76.691406 347.121094 78.398438 342.296875 77.902344 C 338.710938 77.535156 335.800781 76.0625 334.675781 74.21875 C 333.550781 76.0625 330.644531 77.535156 327.054688 77.902344 C 326.488281 77.957031 325.9375 77.988281 325.402344 77.988281 Z M 327.695312 69.277344 C 327.195312 69.277344 326.6875 69.304688 326.175781 69.355469 C 322.058594 69.78125 318.757812 71.867188 318.960938 73.910156 C 319.171875 75.953125 322.832031 77.320312 326.949219 76.898438 C 330.933594 76.488281 334.171875 74.53125 334.171875 72.53125 C 334.171875 72.464844 334.167969 72.40625 334.160156 72.34375 C 334.160156 72.328125 334.160156 72.308594 334.160156 72.296875 L 334.160156 51.457031 C 334.160156 51.179688 334.386719 50.953125 334.664062 50.953125 C 334.9375 50.953125 335.191406 51.179688 335.191406 51.457031 L 335.191406 72.292969 C 335.191406 72.308594 335.191406 72.328125 335.1875 72.34375 C 335.183594 72.40625 335.179688 72.464844 335.179688 72.527344 C 335.179688 74.527344 338.417969 76.488281 342.398438 76.894531 C 346.515625 77.316406 350.171875 75.949219 350.386719 73.90625 C 350.589844 71.859375 347.289062 69.773438 343.171875 69.351562 C 341.84375 69.21875 340.519531 69.257812 339.347656 69.472656 C 339.203125 69.496094 339.050781 69.460938 338.933594 69.363281 C 338.820312 69.269531 338.753906 69.125 338.753906 68.976562 L 338.753906 50.851562 C 338.753906 50.621094 338.90625 50.421875 339.125 50.363281 C 345.988281 48.515625 351.042969 42.511719 351.707031 35.421875 C 351.71875 35.285156 351.789062 35.160156 351.894531 35.074219 C 358.140625 30.097656 361.722656 25.0625 363.625 21.714844 C 363.867188 21.289062 363.996094 20.8125 363.996094 20.328125 C 363.996094 19.332031 363.457031 18.40625 362.597656 17.90625 C 361.925781 17.519531 361.148438 17.433594 360.40625 17.65625 C 359.671875 17.878906 359.078125 18.375 358.734375 19.058594 C 356.234375 24.046875 353.675781 27.339844 351.96875 29.222656 C 351.847656 29.359375 351.660156 29.417969 351.484375 29.375 C 351.304688 29.335938 351.164062 29.199219 351.113281 29.023438 C 349.015625 21.726562 342.253906 16.628906 334.675781 16.628906 C 327.1875 16.628906 320.632812 21.433594 318.363281 28.582031 C 318.308594 28.753906 318.167969 28.882812 317.992188 28.921875 C 317.816406 28.960938 317.636719 28.902344 317.515625 28.769531 C 315.78125 26.875 313.171875 23.550781 310.613281 18.457031 C 310.269531 17.769531 309.675781 17.273438 308.941406 17.050781 C 308.199219 16.832031 307.421875 16.917969 306.75 17.304688 C 305.890625 17.800781 305.355469 18.726562 305.355469 19.722656 C 305.355469 20.207031 305.484375 20.6875 305.722656 21.113281 C 307.625 24.449219 311.191406 29.464844 317.40625 34.433594 C 317.519531 34.523438 317.585938 34.65625 317.59375 34.800781 C 318.019531 42.191406 323.09375 48.445312 330.222656 50.367188 C 330.441406 50.425781 330.59375 50.628906 330.59375 50.855469 L 330.59375 68.984375 C 330.59375 69.132812 330.53125 69.277344 330.414062 69.371094 C 330.296875 69.46875 330.148438 69.507812 330 69.480469 C 329.277344 69.34375 328.496094 69.277344 327.695312 69.277344 Z M 327.695312 69.277344 " fill-opacity="1" fill-rule="nonzero"/><path fill="#5271ff" d="M 416.460938 17.769531 C 414.835938 16.832031 412.746094 17.449219 411.898438 19.132812 C 409.328125 24.253906 406.707031 27.554688 405.097656 29.3125 C 404.617188 28.6875 404.101562 28.089844 403.550781 27.523438 C 402.242188 26.164062 401.53125 24.339844 401.558594 22.449219 C 401.558594 22.40625 401.558594 22.363281 401.5625 22.324219 C 401.601562 15.160156 395.929688 9.179688 388.792969 8.882812 C 381.167969 8.5625 374.886719 14.671875 374.886719 22.25 C 374.886719 22.335938 374.886719 22.421875 374.890625 22.507812 C 374.929688 24.394531 374.171875 26.195312 372.867188 27.550781 C 372.449219 27.988281 372.046875 28.441406 371.664062 28.914062 C 370.082031 27.214844 367.347656 23.855469 364.671875 18.53125 C 363.828125 16.847656 361.742188 16.230469 360.109375 17.167969 C 359.054688 17.777344 358.464844 18.882812 358.464844 20.027344 C 358.464844 20.582031 358.605469 21.144531 358.898438 21.660156 C 360.5 24.476562 363.5625 28.949219 368.800781 33.535156 C 367.550781 36.277344 366.863281 39.328125 366.882812 42.542969 C 366.941406 52.683594 374.125 61.210938 383.644531 63.316406 L 383.644531 68.980469 C 382.449219 68.761719 381.097656 68.707031 379.675781 68.855469 C 375.203125 69.3125 371.773438 71.597656 372.015625 73.960938 C 372.257812 76.320312 376.078125 77.863281 380.550781 77.402344 C 384.875 76.953125 388.222656 74.808594 388.226562 72.53125 C 388.226562 74.804688 391.578125 76.957031 395.898438 77.402344 C 400.371094 77.863281 404.191406 76.320312 404.4375 73.960938 C 404.679688 71.597656 401.246094 69.3125 396.773438 68.855469 C 395.355469 68.707031 394 68.761719 392.804688 68.980469 L 392.804688 63.324219 C 402.390625 61.222656 409.566406 52.65625 409.566406 42.417969 C 409.566406 39.449219 408.964844 36.621094 407.871094 34.054688 C 413.050781 29.496094 416.085938 25.0625 417.675781 22.265625 C 417.96875 21.75 418.105469 21.1875 418.105469 20.632812 C 418.113281 19.488281 417.519531 18.378906 416.460938 17.769531 Z M 388.238281 72.292969 C 388.230469 72.371094 388.226562 72.449219 388.226562 72.527344 C 388.226562 72.449219 388.222656 72.371094 388.214844 72.292969 L 388.214844 63.820312 L 388.238281 63.820312 Z M 388.238281 72.292969 " fill-opacity="1" fill-rule="nonzero"/><path fill="#000000" d="M 397.496094 77.988281 C 396.960938 77.988281 396.410156 77.957031 395.847656 77.902344 C 392.253906 77.53125 389.351562 76.058594 388.226562 74.210938 C 387.097656 76.058594 384.191406 77.53125 380.601562 77.902344 C 378.363281 78.132812 376.195312 77.886719 374.511719 77.203125 C 372.71875 76.480469 371.652344 75.34375 371.519531 74.007812 C 371.382812 72.671875 372.191406 71.34375 373.800781 70.269531 C 375.316406 69.261719 377.382812 68.578125 379.625 68.347656 C 380.824219 68.222656 382.027344 68.234375 383.140625 68.386719 L 383.140625 63.71875 C 373.464844 61.382812 366.441406 52.542969 366.382812 42.546875 C 366.367188 39.453125 366.976562 36.46875 368.195312 33.667969 C 363.125 29.167969 360.109375 24.800781 358.464844 21.910156 C 358.140625 21.335938 357.964844 20.683594 357.964844 20.027344 C 357.964844 18.667969 358.691406 17.40625 359.863281 16.730469 C 360.777344 16.203125 361.835938 16.082031 362.84375 16.382812 C 363.847656 16.6875 364.660156 17.367188 365.128906 18.304688 C 367.511719 23.046875 369.929688 26.226562 371.652344 28.148438 C 371.929688 27.828125 372.21875 27.511719 372.511719 27.203125 C 373.757812 25.910156 374.425781 24.246094 374.390625 22.523438 C 374.390625 22.433594 374.390625 22.34375 374.390625 22.25 C 374.390625 18.433594 375.902344 14.875 378.652344 12.230469 C 381.398438 9.589844 385.011719 8.226562 388.820312 8.382812 C 392.402344 8.53125 395.746094 10.058594 398.238281 12.683594 C 400.726562 15.304688 402.089844 18.730469 402.070312 22.328125 C 402.066406 22.378906 402.066406 22.414062 402.066406 22.449219 C 402.039062 24.234375 402.695312 25.910156 403.914062 27.171875 C 404.335938 27.605469 404.742188 28.0625 405.125 28.53125 C 406.796875 26.625 409.144531 23.503906 411.453125 18.90625 C 411.921875 17.96875 412.730469 17.289062 413.734375 16.988281 C 414.746094 16.683594 415.800781 16.808594 416.710938 17.332031 C 417.882812 18.003906 418.613281 19.269531 418.613281 20.628906 C 418.613281 21.289062 418.4375 21.9375 418.113281 22.515625 C 416.480469 25.386719 413.488281 29.71875 408.476562 34.1875 C 409.53125 36.796875 410.070312 39.5625 410.070312 42.414062 C 410.070312 47.441406 408.328125 52.351562 405.167969 56.242188 C 402.140625 59.96875 397.941406 62.617188 393.308594 63.726562 L 393.308594 68.390625 C 394.421875 68.242188 395.625 68.230469 396.820312 68.351562 C 399.0625 68.582031 401.132812 69.265625 402.644531 70.273438 C 404.253906 71.347656 405.066406 72.675781 404.933594 74.011719 C 404.695312 76.378906 401.550781 77.988281 397.496094 77.988281 Z M 381.246094 69.277344 C 380.746094 69.277344 380.238281 69.304688 379.730469 69.355469 C 377.648438 69.570312 375.738281 70.195312 374.359375 71.113281 C 373.078125 71.96875 372.421875 72.960938 372.519531 73.910156 C 372.613281 74.855469 373.457031 75.695312 374.886719 76.269531 C 376.425781 76.890625 378.417969 77.113281 380.503906 76.898438 C 384.484375 76.492188 387.722656 74.53125 387.726562 72.53125 C 387.726562 72.53125 387.726562 72.53125 387.726562 72.527344 C 387.726562 72.464844 387.722656 72.402344 387.714844 72.34375 C 387.714844 72.324219 387.714844 72.308594 387.714844 72.292969 L 387.714844 63.820312 C 387.714844 63.542969 387.941406 63.3125 388.214844 63.3125 C 388.492188 63.3125 388.746094 63.542969 388.746094 63.820312 L 388.746094 72.292969 C 388.746094 72.308594 388.746094 72.328125 388.742188 72.34375 C 388.738281 72.40625 388.730469 72.464844 388.730469 72.527344 C 388.730469 72.527344 388.730469 72.53125 388.730469 72.53125 C 388.730469 74.527344 391.972656 76.488281 395.953125 76.898438 C 400.070312 77.320312 403.726562 75.953125 403.9375 73.90625 C 404.035156 72.960938 403.378906 71.96875 402.097656 71.113281 C 400.71875 70.195312 398.808594 69.570312 396.726562 69.355469 C 395.40625 69.21875 394.082031 69.261719 392.902344 69.476562 C 392.757812 69.503906 392.605469 69.464844 392.488281 69.367188 C 392.375 69.273438 392.308594 69.132812 392.308594 68.980469 L 392.308594 63.324219 C 392.308594 63.085938 392.472656 62.882812 392.703125 62.832031 C 397.269531 61.832031 401.421875 59.261719 404.394531 55.605469 C 407.40625 51.894531 409.066406 47.210938 409.066406 42.417969 C 409.066406 39.582031 408.511719 36.832031 407.414062 34.25 C 407.328125 34.050781 407.382812 33.816406 407.546875 33.671875 C 412.617188 29.210938 415.621094 24.871094 417.242188 22.015625 C 417.484375 21.59375 417.609375 21.117188 417.609375 20.632812 C 417.609375 19.632812 417.074219 18.703125 416.214844 18.210938 C 415.542969 17.824219 414.765625 17.734375 414.027344 17.957031 C 413.292969 18.175781 412.695312 18.675781 412.351562 19.359375 C 409.804688 24.4375 407.203125 27.757812 405.472656 29.652344 C 405.371094 29.761719 405.230469 29.824219 405.082031 29.816406 C 404.933594 29.808594 404.792969 29.738281 404.703125 29.621094 C 404.238281 29.015625 403.734375 28.425781 403.195312 27.871094 C 401.789062 26.417969 401.03125 24.488281 401.0625 22.441406 C 401.0625 22.398438 401.0625 22.347656 401.0625 22.296875 C 401.082031 18.984375 399.816406 15.808594 397.507812 13.375 C 395.195312 10.941406 392.09375 9.523438 388.777344 9.386719 C 385.246094 9.234375 381.894531 10.503906 379.347656 12.957031 C 376.800781 15.40625 375.394531 18.707031 375.394531 22.25 C 375.394531 22.332031 375.394531 22.414062 375.398438 22.5 C 375.4375 24.496094 374.667969 26.414062 373.234375 27.902344 C 372.824219 28.332031 372.429688 28.78125 372.0625 29.230469 C 371.96875 29.34375 371.832031 29.414062 371.6875 29.417969 C 371.542969 29.421875 371.402344 29.367188 371.304688 29.261719 C 369.523438 27.347656 366.851562 23.976562 364.230469 18.757812 C 363.886719 18.070312 363.292969 17.570312 362.554688 17.351562 C 361.8125 17.128906 361.035156 17.21875 360.363281 17.605469 C 359.503906 18.101562 358.972656 19.03125 358.972656 20.027344 C 358.972656 20.511719 359.101562 20.992188 359.339844 21.414062 C 360.972656 24.292969 364.003906 28.664062 369.136719 33.160156 C 369.304688 33.304688 369.355469 33.546875 369.261719 33.75 C 368 36.515625 367.371094 39.472656 367.390625 42.542969 C 367.445312 52.214844 374.328125 60.742188 383.753906 62.828125 C 383.984375 62.878906 384.148438 63.082031 384.148438 63.320312 L 384.148438 68.984375 C 384.148438 69.132812 384.082031 69.277344 383.96875 69.371094 C 383.851562 69.46875 383.703125 69.507812 383.554688 69.480469 C 382.824219 69.34375 382.046875 69.277344 381.246094 69.277344 Z M 381.246094 69.277344 " fill-opacity="1" fill-rule="nonzero"/><path fill="#000000" d="M 331.957031 25.441406 C 331.957031 25.710938 331.859375 25.941406 331.671875 26.132812 C 331.480469 26.320312 331.253906 26.417969 330.984375 26.417969 C 330.714844 26.417969 330.488281 26.320312 330.296875 26.132812 C 330.109375 25.941406 330.015625 25.710938 330.015625 25.441406 C 330.015625 25.175781 330.109375 24.945312 330.296875 24.753906 C 330.488281 24.5625 330.714844 24.46875 330.984375 24.46875 C 331.253906 24.46875 331.480469 24.5625 331.671875 24.753906 C 331.859375 24.945312 331.957031 25.175781 331.957031 25.441406 Z M 331.957031 25.441406 " fill-opacity="1" fill-rule="nonzero"/><path fill="#000000" d="M 339.636719 25.414062 C 339.636719 25.679688 339.542969 25.910156 339.351562 26.101562 C 339.164062 26.292969 338.933594 26.386719 338.667969 26.386719 C 338.398438 26.386719 338.167969 26.292969 337.980469 26.101562 C 337.789062 25.910156 337.695312 25.679688 337.695312 25.414062 C 337.695312 25.144531 337.789062 24.914062 337.980469 24.722656 C 338.167969 24.535156 338.398438 24.4375 338.667969 24.4375 C 338.933594 24.4375 339.164062 24.535156 339.351562 24.722656 C 339.542969 24.914062 339.636719 25.144531 339.636719 25.414062 Z M 339.636719 25.414062 " fill-opacity="1" fill-rule="nonzero"/><path fill="#000000" d="M 334.675781 32.875 C 330.953125 32.875 327.234375 31.933594 323.917969 30.046875 C 323.675781 29.910156 323.589844 29.601562 323.726562 29.359375 C 323.867188 29.113281 324.171875 29.03125 324.414062 29.167969 C 330.746094 32.765625 338.609375 32.765625 344.9375 29.167969 C 345.179688 29.03125 345.488281 29.117188 345.625 29.359375 C 345.761719 29.601562 345.679688 29.90625 345.4375 30.046875 C 342.113281 31.933594 338.394531 32.875 334.675781 32.875 Z M 334.675781 32.875 " fill-opacity="1" fill-rule="nonzero"/><path fill="#000000" d="M 385.496094 21.46875 C 385.496094 21.738281 385.398438 21.96875 385.210938 22.15625 C 385.019531 22.347656 384.792969 22.441406 384.523438 22.441406 C 384.253906 22.441406 384.027344 22.347656 383.835938 22.15625 C 383.648438 21.96875 383.554688 21.738281 383.554688 21.46875 C 383.554688 21.199219 383.648438 20.972656 383.835938 20.78125 C 384.027344 20.589844 384.253906 20.496094 384.523438 20.496094 C 384.792969 20.496094 385.019531 20.589844 385.210938 20.78125 C 385.398438 20.972656 385.496094 21.199219 385.496094 21.46875 Z M 385.496094 21.46875 " fill-opacity="1" fill-rule="nonzero"/><path fill="#000000" d="M 393.175781 21.4375 C 393.175781 21.707031 393.082031 21.9375 392.890625 22.128906 C 392.703125 22.316406 392.472656 22.414062 392.207031 22.414062 C 391.9375 22.414062 391.707031 22.316406 391.519531 22.128906 C 391.328125 21.9375 391.234375 21.707031 391.234375 21.4375 C 391.234375 21.171875 391.328125 20.941406 391.519531 20.75 C 391.707031 20.5625 391.9375 20.464844 392.207031 20.464844 C 392.472656 20.464844 392.703125 20.5625 392.890625 20.75 C 393.082031 20.941406 393.175781 21.171875 393.175781 21.4375 Z M 393.175781 21.4375 " fill-opacity="1" fill-rule="nonzero"/><path fill="#000000" d="M 388.214844 28.902344 C 384.492188 28.902344 380.773438 27.957031 377.457031 26.074219 C 377.214844 25.9375 377.128906 25.628906 377.265625 25.386719 C 377.402344 25.144531 377.710938 25.058594 377.953125 25.195312 C 384.285156 28.789062 392.148438 28.789062 398.476562 25.195312 C 398.71875 25.058594 399.027344 25.144531 399.164062 25.386719 C 399.300781 25.628906 399.21875 25.933594 398.976562 26.074219 C 395.652344 27.960938 391.933594 28.902344 388.214844 28.902344 Z M 388.214844 28.902344 " fill-opacity="1" fill-rule="nonzero"/><path fill="#fdd501" d="M 210.457031 7.90625 L 210.816406 6.910156 L 211.175781 7.90625 C 211.566406 8.980469 212.375 9.851562 213.417969 10.316406 L 213.960938 10.558594 L 213.417969 10.800781 C 212.375 11.265625 211.566406 12.136719 211.175781 13.210938 L 210.816406 14.210938 L 210.457031 13.210938 C 210.070312 12.136719 209.261719 11.265625 208.21875 10.800781 L 207.671875 10.558594 L 208.21875 10.316406 C 209.261719 9.851562 210.070312 8.980469 210.457031 7.90625 Z M 210.457031 7.90625 " fill-opacity="1" fill-rule="nonzero"/><path fill="#000000" d="M 210.816406 14.617188 C 210.644531 14.617188 210.492188 14.507812 210.433594 14.347656 L 210.074219 13.351562 C 209.722656 12.382812 208.988281 11.589844 208.046875 11.171875 L 207.503906 10.929688 C 207.359375 10.863281 207.265625 10.71875 207.265625 10.558594 C 207.265625 10.398438 207.359375 10.253906 207.503906 10.1875 L 208.046875 9.945312 C 208.988281 9.53125 209.722656 8.734375 210.074219 7.765625 L 210.433594 6.769531 C 210.492188 6.609375 210.644531 6.503906 210.816406 6.503906 C 210.984375 6.503906 211.140625 6.609375 211.199219 6.769531 L 211.558594 7.765625 C 211.90625 8.734375 212.644531 9.527344 213.582031 9.945312 L 214.125 10.1875 C 214.269531 10.253906 214.367188 10.398438 214.367188 10.558594 C 214.367188 10.71875 214.269531 10.863281 214.125 10.929688 L 213.582031 11.171875 C 212.644531 11.589844 211.90625 12.382812 211.558594 13.351562 L 211.199219 14.347656 C 211.140625 14.507812 210.984375 14.617188 210.816406 14.617188 Z M 208.648438 10.558594 C 209.640625 11.082031 210.421875 11.957031 210.816406 13.011719 C 211.214844 11.957031 211.992188 11.082031 212.984375 10.558594 C 211.996094 10.035156 211.214844 9.160156 210.816406 8.105469 C 210.421875 9.160156 209.640625 10.035156 208.648438 10.558594 Z M 210.457031 7.90625 Z M 210.457031 7.90625 " fill-opacity="1" fill-rule="nonzero"/><path fill="#fdd501" d="M 200.652344 35.941406 L 200.851562 35.390625 L 201.046875 35.941406 C 201.261719 36.53125 201.707031 37.011719 202.277344 37.265625 L 202.578125 37.402344 L 202.277344 37.535156 C 201.707031 37.789062 201.261719 38.269531 201.046875 38.859375 L 200.851562 39.410156 L 200.652344 38.859375 C 200.441406 38.269531 199.996094 37.789062 199.421875 37.535156 L 199.121094 37.402344 L 199.421875 37.265625 C 199.996094 37.011719 200.441406 36.53125 200.652344 35.941406 Z M 200.652344 35.941406 " fill-opacity="1" fill-rule="nonzero"/><path fill="#000000" d="M 200.851562 39.816406 C 200.679688 39.816406 200.527344 39.707031 200.46875 39.546875 L 200.269531 39 C 200.09375 38.515625 199.726562 38.117188 199.253906 37.90625 L 198.957031 37.773438 C 198.808594 37.707031 198.714844 37.5625 198.714844 37.402344 C 198.714844 37.246094 198.808594 37.097656 198.957031 37.03125 L 199.253906 36.898438 C 199.726562 36.6875 200.09375 36.289062 200.269531 35.804688 L 200.46875 35.257812 C 200.527344 35.097656 200.679688 34.992188 200.851562 34.992188 C 201.019531 34.992188 201.175781 35.101562 201.230469 35.257812 L 201.429688 35.804688 C 201.605469 36.289062 201.972656 36.6875 202.445312 36.898438 L 202.742188 37.03125 C 202.890625 37.097656 202.984375 37.246094 202.984375 37.402344 C 202.984375 37.5625 202.890625 37.707031 202.742188 37.773438 L 202.445312 37.90625 C 201.972656 38.117188 201.605469 38.515625 201.429688 39 L 201.230469 39.546875 C 201.175781 39.707031 201.019531 39.816406 200.851562 39.816406 Z M 200.011719 37.402344 C 200.355469 37.636719 200.644531 37.953125 200.851562 38.320312 C 201.058594 37.953125 201.34375 37.636719 201.691406 37.402344 C 201.347656 37.164062 201.058594 36.847656 200.851562 36.480469 C 200.644531 36.847656 200.355469 37.164062 200.011719 37.402344 Z M 200.011719 37.402344 " fill-opacity="1" fill-rule="nonzero"/><path fill="#fdd501" d="M 317.667969 8.355469 L 317.371094 7.53125 L 317.074219 8.355469 C 316.75 9.25 316.078125 9.972656 315.214844 10.355469 L 314.765625 10.558594 L 315.214844 10.761719 C 316.078125 11.148438 316.75 11.867188 317.074219 12.761719 L 317.371094 13.585938 L 317.667969 12.761719 C 317.988281 11.867188 318.660156 11.144531 319.527344 10.761719 L 319.976562 10.558594 L 319.527344 10.355469 C 318.660156 9.972656 317.988281 9.25 317.667969 8.355469 Z M 317.667969 8.355469 " fill-opacity="1" fill-rule="nonzero"/><path fill="#000000" d="M 317.054688 13.699219 L 316.757812 12.875 C 316.46875 12.074219 315.855469 11.414062 315.078125 11.066406 L 314.628906 10.867188 C 314.507812 10.8125 314.429688 10.691406 314.429688 10.558594 C 314.429688 10.425781 314.507812 10.304688 314.628906 10.25 L 315.078125 10.050781 C 315.855469 9.703125 316.46875 9.046875 316.757812 8.242188 L 317.054688 7.417969 C 317.101562 7.285156 317.226562 7.195312 317.371094 7.195312 C 317.511719 7.195312 317.640625 7.285156 317.6875 7.417969 L 317.984375 8.242188 C 318.273438 9.046875 318.882812 9.703125 319.660156 10.050781 L 320.113281 10.25 C 320.230469 10.304688 320.308594 10.425781 320.308594 10.558594 C 320.308594 10.691406 320.230469 10.8125 320.113281 10.867188 L 319.660156 11.066406 C 318.882812 11.414062 318.273438 12.074219 317.984375 12.875 L 317.6875 13.699219 C 317.640625 13.832031 317.511719 13.921875 317.371094 13.921875 C 317.230469 13.925781 317.101562 13.832031 317.054688 13.699219 Z M 317.371094 8.523438 C 317.039062 9.398438 316.394531 10.128906 315.570312 10.558594 C 316.394531 10.992188 317.039062 11.722656 317.371094 12.59375 C 317.699219 11.71875 318.347656 10.988281 319.167969 10.558594 C 318.347656 10.125 317.699219 9.394531 317.371094 8.523438 Z M 317.667969 8.355469 Z M 317.667969 8.355469 " fill-opacity="1" fill-rule="nonzero"/><path fill="#fdd501" d="M 418.410156 33.191406 L 418.113281 32.367188 L 417.816406 33.191406 C 417.492188 34.082031 416.820312 34.808594 415.957031 35.191406 L 415.507812 35.390625 L 415.957031 35.59375 C 416.820312 35.980469 417.492188 36.703125 417.816406 37.59375 L 418.113281 38.417969 L 418.410156 37.59375 C 418.730469 36.703125 419.402344 35.976562 420.269531 35.59375 L 420.71875 35.390625 L 420.269531 35.191406 C 419.402344 34.808594 418.730469 34.082031 418.410156 33.191406 Z M 418.410156 33.191406 " fill-opacity="1" fill-rule="nonzero"/><g clip-path="url(#fddb9c4c48)"><path fill="#000000" d="M 417.796875 38.535156 L 417.5 37.710938 C 417.210938 36.910156 416.597656 36.25 415.820312 35.90625 L 415.371094 35.703125 C 415.25 35.648438 415.171875 35.527344 415.171875 35.394531 C 415.171875 35.261719 415.25 35.140625 415.371094 35.085938 L 415.820312 34.886719 C 416.597656 34.539062 417.210938 33.882812 417.5 33.078125 L 417.796875 32.253906 C 417.84375 32.121094 417.96875 32.03125 418.113281 32.03125 C 418.253906 32.03125 418.382812 32.121094 418.429688 32.253906 L 418.726562 33.078125 C 419.015625 33.882812 419.625 34.539062 420.402344 34.886719 L 420.855469 35.085938 C 420.972656 35.140625 421.050781 35.261719 421.050781 35.394531 C 421.050781 35.527344 420.972656 35.648438 420.855469 35.703125 L 420.402344 35.90625 C 419.625 36.25 419.015625 36.910156 418.726562 37.710938 L 418.429688 38.535156 C 418.382812 38.667969 418.253906 38.757812 418.113281 38.757812 C 417.96875 38.757812 417.84375 38.667969 417.796875 38.535156 Z M 418.113281 33.355469 C 417.78125 34.230469 417.136719 34.960938 416.3125 35.390625 C 417.136719 35.828125 417.78125 36.554688 418.113281 37.429688 C 418.441406 36.554688 419.089844 35.824219 419.910156 35.390625 C 419.085938 34.960938 418.441406 34.230469 418.113281 33.355469 Z M 418.40625 33.191406 Z M 418.40625 33.191406 " fill-opacity="1" fill-rule="nonzero"/></g><path fill="#fdd501" d="M 364.796875 4.300781 L 364.5 3.476562 L 364.203125 4.300781 C 363.882812 5.191406 363.210938 5.917969 362.34375 6.300781 L 361.894531 6.503906 L 362.34375 6.703125 C 363.210938 7.089844 363.882812 7.8125 364.203125 8.703125 L 364.5 9.53125 L 364.796875 8.703125 C 365.117188 7.8125 365.789062 7.085938 366.65625 6.703125 L 367.105469 6.503906 L 366.65625 6.300781 C 365.789062 5.914062 365.117188 5.191406 364.796875 4.300781 Z M 364.796875 4.300781 " fill-opacity="1" fill-rule="nonzero"/><path fill="#000000" d="M 364.183594 9.644531 L 363.886719 8.816406 C 363.597656 8.015625 362.984375 7.355469 362.207031 7.011719 L 361.757812 6.808594 C 361.636719 6.757812 361.558594 6.636719 361.558594 6.503906 C 361.558594 6.367188 361.636719 6.246094 361.757812 6.195312 L 362.207031 5.992188 C 362.984375 5.648438 363.597656 4.988281 363.886719 4.1875 L 364.183594 3.363281 C 364.230469 3.226562 364.355469 3.140625 364.5 3.140625 C 364.640625 3.140625 364.769531 3.226562 364.816406 3.363281 L 365.113281 4.1875 C 365.402344 4.988281 366.015625 5.648438 366.792969 5.992188 L 367.242188 6.195312 C 367.363281 6.246094 367.441406 6.367188 367.441406 6.503906 C 367.441406 6.636719 367.363281 6.757812 367.242188 6.808594 L 366.792969 7.011719 C 366.015625 7.355469 365.402344 8.015625 365.113281 8.816406 L 364.816406 9.644531 C 364.769531 9.777344 364.644531 9.863281 364.5 9.863281 C 364.355469 9.867188 364.230469 9.777344 364.183594 9.644531 Z M 364.496094 4.464844 C 364.167969 5.339844 363.523438 6.066406 362.699219 6.5 C 363.523438 6.933594 364.167969 7.664062 364.496094 8.535156 C 364.828125 7.660156 365.472656 6.929688 366.296875 6.5 C 365.472656 6.066406 364.828125 5.339844 364.496094 4.464844 Z M 364.792969 4.300781 Z M 364.792969 4.300781 " fill-opacity="1" fill-rule="nonzero"/><path fill="#fdd501" d="M 406.84375 7.664062 L 406.546875 6.839844 L 406.25 7.664062 C 405.929688 8.558594 405.257812 9.28125 404.390625 9.664062 L 403.941406 9.867188 L 404.390625 10.070312 C 405.257812 10.457031 405.929688 11.175781 406.25 12.070312 L 406.546875 12.894531 L 406.84375 12.070312 C 407.164062 11.175781 407.835938 10.453125 408.703125 10.070312 L 409.152344 9.867188 L 408.703125 9.664062 C 407.835938 9.28125 407.164062 8.558594 406.84375 7.664062 Z M 406.84375 7.664062 " fill-opacity="1" fill-rule="nonzero"/><path fill="#000000" d="M 406.230469 13.007812 L 405.933594 12.183594 C 405.644531 11.382812 405.03125 10.722656 404.253906 10.378906 L 403.804688 10.175781 C 403.683594 10.121094 403.605469 10 403.605469 9.867188 C 403.605469 9.734375 403.683594 9.613281 403.804688 9.558594 L 404.253906 9.359375 C 405.03125 9.011719 405.644531 8.355469 405.933594 7.550781 L 406.230469 6.726562 C 406.277344 6.59375 406.402344 6.503906 406.546875 6.503906 C 406.6875 6.503906 406.816406 6.59375 406.863281 6.726562 L 407.160156 7.550781 C 407.449219 8.355469 408.0625 9.011719 408.839844 9.359375 L 409.289062 9.558594 C 409.410156 9.613281 409.488281 9.734375 409.488281 9.867188 C 409.488281 10 409.410156 10.121094 409.289062 10.175781 L 408.839844 10.378906 C 408.0625 10.722656 407.449219 11.382812 407.160156 12.183594 L 406.863281 13.007812 C 406.816406 13.140625 406.691406 13.230469 406.546875 13.230469 C 406.40625 13.230469 406.277344 13.140625 406.230469 13.007812 Z M 406.546875 7.828125 C 406.21875 8.703125 405.570312 9.433594 404.75 9.863281 C 405.570312 10.300781 406.21875 11.027344 406.546875 11.902344 C 406.875 11.027344 407.523438 10.296875 408.34375 9.863281 C 407.523438 9.433594 406.875 8.703125 406.546875 7.828125 Z M 406.84375 7.664062 Z M 406.84375 7.664062 " fill-opacity="1" fill-rule="nonzero"/><g clip-path="url(#0f90ce8df6)"><path fill="#fdd501" d="M 282.480469 1.527344 L 282.285156 0.980469 L 282.089844 1.527344 C 281.875 2.121094 281.429688 2.597656 280.855469 2.855469 L 280.558594 2.988281 L 280.855469 3.121094 C 281.429688 3.375 281.875 3.855469 282.089844 4.449219 L 282.285156 4.996094 L 282.480469 4.449219 C 282.695312 3.855469 283.140625 3.375 283.714844 3.121094 L 284.011719 2.988281 L 283.714844 2.855469 C 283.140625 2.597656 282.695312 2.121094 282.480469 1.527344 Z M 282.480469 1.527344 " fill-opacity="1" fill-rule="nonzero"/></g><g clip-path="url(#f84848be3d)"><path fill="#000000" d="M 281.902344 5.136719 L 281.707031 4.585938 C 281.53125 4.101562 281.160156 3.703125 280.691406 3.496094 L 280.390625 3.363281 C 280.246094 3.296875 280.148438 3.148438 280.148438 2.992188 C 280.148438 2.832031 280.246094 2.683594 280.390625 2.621094 L 280.691406 2.484375 C 281.160156 2.277344 281.53125 1.878906 281.707031 1.394531 L 281.902344 0.847656 C 281.960938 0.683594 282.113281 0.574219 282.285156 0.574219 C 282.457031 0.574219 282.609375 0.683594 282.667969 0.839844 L 282.863281 1.386719 C 283.039062 1.871094 283.410156 2.273438 283.878906 2.480469 L 284.179688 2.613281 C 284.324219 2.679688 284.421875 2.828125 284.421875 2.984375 C 284.421875 3.144531 284.324219 3.289062 284.179688 3.355469 L 283.878906 3.488281 C 283.410156 3.699219 283.039062 4.097656 282.863281 4.582031 L 282.667969 5.128906 C 282.609375 5.292969 282.457031 5.398438 282.285156 5.398438 C 282.113281 5.402344 281.960938 5.296875 281.902344 5.136719 Z M 282.285156 2.070312 C 282.078125 2.433594 281.792969 2.75 281.445312 2.988281 C 281.789062 3.226562 282.078125 3.539062 282.285156 3.90625 C 282.492188 3.539062 282.777344 3.226562 283.125 2.988281 C 282.777344 2.75 282.492188 2.433594 282.285156 2.070312 Z M 282.285156 2.070312 " fill-opacity="1" fill-rule="nonzero"/></g><path fill="#fdd501" d="M 348.871094 12.75 L 348.675781 12.199219 L 348.476562 12.75 C 348.265625 13.339844 347.820312 13.820312 347.246094 14.074219 L 346.945312 14.210938 L 347.246094 14.34375 C 347.820312 14.597656 348.265625 15.078125 348.476562 15.667969 L 348.675781 16.21875 L 348.871094 15.667969 C 349.085938 15.078125 349.53125 14.597656 350.101562 14.34375 L 350.402344 14.210938 L 350.101562 14.074219 C 349.53125 13.820312 349.085938 13.339844 348.871094 12.75 Z M 348.871094 12.75 " fill-opacity="1" fill-rule="nonzero"/><path fill="#000000" d="M 348.292969 16.351562 L 348.097656 15.804688 C 347.917969 15.320312 347.550781 14.921875 347.078125 14.714844 L 346.78125 14.578125 C 346.632812 14.515625 346.539062 14.367188 346.539062 14.210938 C 346.539062 14.046875 346.632812 13.902344 346.78125 13.839844 L 347.078125 13.703125 C 347.550781 13.496094 347.917969 13.097656 348.097656 12.613281 L 348.292969 12.066406 C 348.351562 11.902344 348.503906 11.796875 348.675781 11.796875 C 348.84375 11.796875 349 11.90625 349.058594 12.066406 L 349.253906 12.613281 C 349.429688 13.097656 349.796875 13.496094 350.269531 13.703125 L 350.570312 13.839844 C 350.714844 13.902344 350.808594 14.050781 350.808594 14.210938 C 350.808594 14.371094 350.714844 14.515625 350.570312 14.578125 L 350.269531 14.714844 C 349.796875 14.921875 349.429688 15.320312 349.253906 15.804688 L 349.058594 16.351562 C 349 16.515625 348.84375 16.621094 348.675781 16.621094 C 348.503906 16.625 348.351562 16.515625 348.292969 16.351562 Z M 348.675781 13.289062 C 348.46875 13.65625 348.179688 13.972656 347.835938 14.210938 C 348.179688 14.445312 348.46875 14.761719 348.675781 15.128906 C 348.878906 14.761719 349.167969 14.445312 349.515625 14.210938 C 349.167969 13.972656 348.878906 13.65625 348.675781 13.289062 Z M 348.675781 13.289062 " fill-opacity="1" fill-rule="nonzero"/><path fill="#fdd501" d="M 261.113281 11.550781 L 260.917969 11.003906 L 260.722656 11.550781 C 260.507812 12.144531 260.0625 12.625 259.488281 12.878906 L 259.191406 13.011719 L 259.488281 13.148438 C 260.0625 13.402344 260.507812 13.882812 260.722656 14.472656 L 260.917969 15.019531 L 261.113281 14.472656 C 261.328125 13.882812 261.773438 13.402344 262.347656 13.148438 L 262.644531 13.011719 L 262.347656 12.878906 C 261.773438 12.625 261.328125 12.144531 261.113281 11.550781 Z M 261.113281 11.550781 " fill-opacity="1" fill-rule="nonzero"/><path fill="#000000" d="M 260.535156 15.160156 L 260.339844 14.613281 C 260.164062 14.128906 259.792969 13.730469 259.324219 13.519531 L 259.023438 13.386719 C 258.878906 13.320312 258.78125 13.175781 258.78125 13.015625 C 258.78125 12.855469 258.878906 12.710938 259.023438 12.644531 L 259.324219 12.511719 C 259.792969 12.300781 260.164062 11.902344 260.339844 11.417969 L 260.535156 10.871094 C 260.59375 10.710938 260.746094 10.605469 260.917969 10.605469 C 261.089844 10.605469 261.242188 10.710938 261.300781 10.871094 L 261.496094 11.417969 C 261.671875 11.902344 262.042969 12.300781 262.511719 12.511719 L 262.8125 12.644531 C 262.957031 12.710938 263.054688 12.855469 263.054688 13.015625 C 263.054688 13.175781 262.957031 13.320312 262.8125 13.386719 L 262.511719 13.519531 C 262.042969 13.730469 261.671875 14.128906 261.496094 14.613281 L 261.300781 15.160156 C 261.242188 15.320312 261.089844 15.425781 260.917969 15.425781 C 260.746094 15.425781 260.59375 15.320312 260.535156 15.160156 Z M 260.917969 12.09375 C 260.710938 12.460938 260.425781 12.777344 260.078125 13.011719 C 260.421875 13.25 260.710938 13.566406 260.917969 13.929688 C 261.125 13.566406 261.410156 13.25 261.757812 13.011719 C 261.410156 12.777344 261.121094 12.460938 260.917969 12.09375 Z M 260.917969 12.09375 " fill-opacity="1" fill-rule="nonzero"/></svg>