<svg xmlns="http://www.w3.org/2000/svg" xmlns:xlink="http://www.w3.org/1999/xlink" width="541" zoomAndPan="magnify" viewBox="0 0 405.75 390.749986" height="521" preserveAspectRatio="xMidYMid meet" version="1.0"><defs><filter x="0%" y="0%" width="100%" height="100%" id="60352abd41"><feColorMatrix values="0 0 0 0 1 0 0 0 0 1 0 0 0 0 1 0 0 0 1 0" color-interpolation-filters="sRGB"/></filter><clipPath id="23f53e3604"><path d="M 0.00390625 0 L 405.496094 0 L 405.496094 390.5 L 0.00390625 390.5 Z M 0.00390625 0 " clip-rule="nonzero"/></clipPath><mask id="af03fbef8b"><g filter="url(#60352abd41)"><rect x="-40.575" width="486.9" fill="#000000" y="-39.074999" height="468.899983" fill-opacity="0.3"/></g></mask><clipPath id="01d2ad6f78"><path d="M 0.519531 0.375 L 36 0.375 L 36 32.625 L 0.519531 32.625 Z M 0.519531 0.375 " clip-rule="nonzero"/></clipPath><clipPath id="a7abf311ff"><rect x="0" width="38" y="0" height="34"/></clipPath><mask id="e3998889b6"><g filter="url(#60352abd41)"><rect x="-40.575" width="486.9" fill="#000000" y="-39.074999" height="468.899983" fill-opacity="0.3"/></g></mask><clipPath id="1bb491af42"><path d="M 5 5 L 47 5 L 47 36 L 5 36 Z M 5 5 " clip-rule="nonzero"/></clipPath><clipPath id="8acac94a28"><path d="M 0.828125 13.558594 L 43.226562 0.902344 L 51.59375 28.929688 L 9.195312 41.585938 Z M 0.828125 13.558594 " clip-rule="nonzero"/></clipPath><clipPath id="83be9f4607"><path d="M 0.828125 13.558594 L 43.226562 0.902344 L 51.59375 28.929688 L 9.195312 41.585938 Z M 0.828125 13.558594 " clip-rule="nonzero"/></clipPath><clipPath id="34c20ff441"><path d="M 0.828125 13.558594 L 43.226562 0.902344 L 51.59375 28.929688 L 9.195312 41.585938 Z M 0.828125 13.558594 " clip-rule="nonzero"/></clipPath><clipPath id="355ef70ddc"><rect x="0" width="52" y="0" height="42"/></clipPath><mask id="783647ca4f"><g filter="url(#60352abd41)"><rect x="-40.575" width="486.9" fill="#000000" y="-39.074999" height="468.899983" fill-opacity="0.3"/></g></mask><clipPath id="88c97db14f"><path d="M 8 1.089844 L 12 1.089844 L 12 9 L 8 9 Z M 8 1.089844 " clip-rule="nonzero"/></clipPath><clipPath id="b271de9426"><path d="M 20 1.089844 L 24 1.089844 L 24 8 L 20 8 Z M 20 1.089844 " clip-rule="nonzero"/></clipPath><clipPath id="5c08d4029d"><path d="M 0.703125 7 L 32.953125 7 L 32.953125 26.589844 L 0.703125 26.589844 Z M 0.703125 7 " clip-rule="nonzero"/></clipPath><clipPath id="db8d064f0e"><rect x="0" width="34" y="0" height="28"/></clipPath><mask id="effd34c8a6"><g filter="url(#60352abd41)"><rect x="-40.575" width="486.9" fill="#000000" y="-39.074999" height="468.899983" fill-opacity="0.3"/></g></mask><clipPath id="1d0bbce66c"><path d="M 9 8 L 13 8 L 13 17 L 9 17 Z M 9 8 " clip-rule="nonzero"/></clipPath><clipPath id="5c83c0df49"><path d="M 0.855469 11.117188 L 33.085938 1.109375 L 42.875 32.621094 L 10.644531 42.632812 Z M 0.855469 11.117188 " clip-rule="nonzero"/></clipPath><clipPath id="3a8fa62f0f"><path d="M 0.855469 11.117188 L 33.085938 1.109375 L 42.875 32.621094 L 10.644531 42.632812 Z M 0.855469 11.117188 " clip-rule="nonzero"/></clipPath><clipPath id="e837a8a7df"><path d="M 0.855469 11.117188 L 33.085938 1.109375 L 42.875 32.621094 L 10.644531 42.632812 Z M 0.855469 11.117188 " clip-rule="nonzero"/></clipPath><clipPath id="e357260b34"><path d="M 24 4 L 28 4 L 28 12 L 24 12 Z M 24 4 " clip-rule="nonzero"/></clipPath><clipPath id="3cf2ee70c1"><path d="M 0.855469 11.117188 L 33.085938 1.109375 L 42.875 32.621094 L 10.644531 42.632812 Z M 0.855469 11.117188 " clip-rule="nonzero"/></clipPath><clipPath id="284b23d018"><path d="M 0.855469 11.117188 L 33.085938 1.109375 L 42.875 32.621094 L 10.644531 42.632812 Z M 0.855469 11.117188 " clip-rule="nonzero"/></clipPath><clipPath id="af6e3bbffe"><path d="M 0.855469 11.117188 L 33.085938 1.109375 L 42.875 32.621094 L 10.644531 42.632812 Z M 0.855469 11.117188 " clip-rule="nonzero"/></clipPath><clipPath id="67e572a095"><path d="M 6 14 L 38 14 L 38 39 L 6 39 Z M 6 14 " clip-rule="nonzero"/></clipPath><clipPath id="d2f84b7ab2"><path d="M 0.855469 11.117188 L 33.085938 1.109375 L 42.875 32.621094 L 10.644531 42.632812 Z M 0.855469 11.117188 " clip-rule="nonzero"/></clipPath><clipPath id="5638381483"><path d="M 0.855469 11.117188 L 33.085938 1.109375 L 42.875 32.621094 L 10.644531 42.632812 Z M 0.855469 11.117188 " clip-rule="nonzero"/></clipPath><clipPath id="d94febdca2"><path d="M 0.855469 11.117188 L 33.085938 1.109375 L 42.875 32.621094 L 10.644531 42.632812 Z M 0.855469 11.117188 " clip-rule="nonzero"/></clipPath><clipPath id="98867c5ff1"><rect x="0" width="44" y="0" height="44"/></clipPath><mask id="a95309eb99"><g filter="url(#60352abd41)"><rect x="-40.575" width="486.9" fill="#000000" y="-39.074999" height="468.899983" fill-opacity="0.3"/></g></mask><clipPath id="360604f752"><path d="M 32 1.066406 L 37 1.066406 L 37 11 L 32 11 Z M 32 1.066406 " clip-rule="nonzero"/></clipPath><clipPath id="e7c3299e61"><path d="M 31 1.066406 L 37 1.066406 L 37 11 L 31 11 Z M 31 1.066406 " clip-rule="nonzero"/></clipPath><clipPath id="5d92f599f7"><path d="M 1 13 L 56.386719 13 L 56.386719 31 L 1 31 Z M 1 13 " clip-rule="nonzero"/></clipPath><clipPath id="edd39f3c44"><path d="M 0.886719 13 L 56.386719 13 L 56.386719 31.066406 L 0.886719 31.066406 Z M 0.886719 13 " clip-rule="nonzero"/></clipPath><clipPath id="15b65b7b78"><rect x="0" width="57" y="0" height="33"/></clipPath><mask id="06cc0f8894"><g filter="url(#60352abd41)"><rect x="-40.575" width="486.9" fill="#000000" y="-39.074999" height="468.899983" fill-opacity="0.3"/></g></mask><clipPath id="0f15eb0b3d"><path d="M 7 8 L 51 8 L 51 50 L 7 50 Z M 7 8 " clip-rule="nonzero"/></clipPath><clipPath id="8c4a6ee5e7"><path d="M 16.605469 0.402344 L 56.214844 16.488281 L 40.128906 56.09375 L 0.519531 40.011719 Z M 16.605469 0.402344 " clip-rule="nonzero"/></clipPath><clipPath id="7310e5cf5e"><path d="M 16.605469 0.402344 L 56.214844 16.488281 L 40.128906 56.09375 L 0.519531 40.011719 Z M 16.605469 0.402344 " clip-rule="nonzero"/></clipPath><clipPath id="37a6cac90a"><path d="M 16.605469 0.402344 L 56.214844 16.488281 L 40.128906 56.09375 L 0.519531 40.011719 Z M 16.605469 0.402344 " clip-rule="nonzero"/></clipPath><clipPath id="d1074c973f"><rect x="0" width="57" y="0" height="57"/></clipPath><mask id="4ae1bfbd97"><g filter="url(#60352abd41)"><rect x="-40.575" width="486.9" fill="#000000" y="-39.074999" height="468.899983" fill-opacity="0.3"/></g></mask><clipPath id="f313879474"><path d="M 5 9 L 18 9 L 18 22 L 5 22 Z M 5 9 " clip-rule="nonzero"/></clipPath><clipPath id="c11c8950b6"><path d="M 0.167969 12.371094 L 39.738281 0.714844 L 48.847656 31.652344 L 9.28125 43.304688 Z M 0.167969 12.371094 " clip-rule="nonzero"/></clipPath><clipPath id="aaab03369a"><path d="M 0.167969 12.371094 L 39.738281 0.714844 L 48.847656 31.652344 L 9.28125 43.304688 Z M 0.167969 12.371094 " clip-rule="nonzero"/></clipPath><clipPath id="7d8d580878"><path d="M 0.167969 12.371094 L 39.738281 0.714844 L 48.847656 31.652344 L 9.28125 43.304688 Z M 0.167969 12.371094 " clip-rule="nonzero"/></clipPath><clipPath id="9c1d74c4c9"><path d="M 24 3 L 37 3 L 37 14 L 24 14 Z M 24 3 " clip-rule="nonzero"/></clipPath><clipPath id="45d2537eeb"><path d="M 0.167969 12.371094 L 39.738281 0.714844 L 48.847656 31.652344 L 9.28125 43.304688 Z M 0.167969 12.371094 " clip-rule="nonzero"/></clipPath><clipPath id="6a1bee7810"><path d="M 0.167969 12.371094 L 39.738281 0.714844 L 48.847656 31.652344 L 9.28125 43.304688 Z M 0.167969 12.371094 " clip-rule="nonzero"/></clipPath><clipPath id="e1c3377808"><path d="M 0.167969 12.371094 L 39.738281 0.714844 L 48.847656 31.652344 L 9.28125 43.304688 Z M 0.167969 12.371094 " clip-rule="nonzero"/></clipPath><clipPath id="49eeef995b"><path d="M 5 14 L 45 14 L 45 39 L 5 39 Z M 5 14 " clip-rule="nonzero"/></clipPath><clipPath id="25bd52f657"><path d="M 0.167969 12.371094 L 39.738281 0.714844 L 48.847656 31.652344 L 9.28125 43.304688 Z M 0.167969 12.371094 " clip-rule="nonzero"/></clipPath><clipPath id="d61c6f89a2"><path d="M 0.167969 12.371094 L 39.738281 0.714844 L 48.847656 31.652344 L 9.28125 43.304688 Z M 0.167969 12.371094 " clip-rule="nonzero"/></clipPath><clipPath id="697027c38b"><path d="M 0.167969 12.371094 L 39.738281 0.714844 L 48.847656 31.652344 L 9.28125 43.304688 Z M 0.167969 12.371094 " clip-rule="nonzero"/></clipPath><clipPath id="4aa589bdf2"><rect x="0" width="51" y="0" height="45"/></clipPath><mask id="995baf8977"><g filter="url(#60352abd41)"><rect x="-40.575" width="486.9" fill="#000000" y="-39.074999" height="468.899983" fill-opacity="0.3"/></g></mask><clipPath id="51b29b3408"><path d="M 0.183594 12 L 45.183594 12 L 45.183594 30.8125 L 0.183594 30.8125 Z M 0.183594 12 " clip-rule="nonzero"/></clipPath><clipPath id="7023d9c060"><rect x="0" width="46" y="0" height="32"/></clipPath><mask id="36c2f284d7"><g filter="url(#60352abd41)"><rect x="-40.575" width="486.9" fill="#000000" y="-39.074999" height="468.899983" fill-opacity="0.3"/></g></mask><clipPath id="d3e84adb46"><path d="M 4 15 L 47 15 L 47 33 L 4 33 Z M 4 15 " clip-rule="nonzero"/></clipPath><clipPath id="e6f1fbb0a8"><path d="M 8.917969 0.566406 L 49.097656 12.792969 L 41.234375 38.621094 L 1.054688 26.394531 Z M 8.917969 0.566406 " clip-rule="nonzero"/></clipPath><clipPath id="1ba320cf66"><path d="M 8.917969 0.566406 L 49.097656 12.792969 L 41.234375 38.621094 L 1.054688 26.394531 Z M 8.917969 0.566406 " clip-rule="nonzero"/></clipPath><clipPath id="a1288c24e4"><path d="M 8.917969 0.566406 L 49.097656 12.792969 L 41.234375 38.621094 L 1.054688 26.394531 Z M 8.917969 0.566406 " clip-rule="nonzero"/></clipPath><clipPath id="411cd8ab84"><path d="M 14 5 L 23 5 L 23 11 L 14 11 Z M 14 5 " clip-rule="nonzero"/></clipPath><clipPath id="852f8dae75"><path d="M 8.917969 0.566406 L 49.097656 12.792969 L 41.234375 38.621094 L 1.054688 26.394531 Z M 8.917969 0.566406 " clip-rule="nonzero"/></clipPath><clipPath id="c5ff123e28"><path d="M 8.917969 0.566406 L 49.097656 12.792969 L 41.234375 38.621094 L 1.054688 26.394531 Z M 8.917969 0.566406 " clip-rule="nonzero"/></clipPath><clipPath id="5830c9c5a1"><path d="M 8.917969 0.566406 L 49.097656 12.792969 L 41.234375 38.621094 L 1.054688 26.394531 Z M 8.917969 0.566406 " clip-rule="nonzero"/></clipPath><clipPath id="4df8d9bc58"><path d="M 31 9 L 39 9 L 39 15 L 31 15 Z M 31 9 " clip-rule="nonzero"/></clipPath><clipPath id="4e9d1aa541"><path d="M 8.917969 0.566406 L 49.097656 12.792969 L 41.234375 38.621094 L 1.054688 26.394531 Z M 8.917969 0.566406 " clip-rule="nonzero"/></clipPath><clipPath id="b97acadc86"><path d="M 8.917969 0.566406 L 49.097656 12.792969 L 41.234375 38.621094 L 1.054688 26.394531 Z M 8.917969 0.566406 " clip-rule="nonzero"/></clipPath><clipPath id="e52dafc421"><path d="M 8.917969 0.566406 L 49.097656 12.792969 L 41.234375 38.621094 L 1.054688 26.394531 Z M 8.917969 0.566406 " clip-rule="nonzero"/></clipPath><clipPath id="e2a446d904"><rect x="0" width="51" y="0" height="40"/></clipPath><mask id="316cdc5141"><g filter="url(#60352abd41)"><rect x="-40.575" width="486.9" fill="#000000" y="-39.074999" height="468.899983" fill-opacity="0.3"/></g></mask><clipPath id="ebcf38446b"><path d="M 0.535156 0.761719 L 36 0.761719 L 36 33 L 0.535156 33 Z M 0.535156 0.761719 " clip-rule="nonzero"/></clipPath><clipPath id="787a8fab88"><rect x="0" width="38" y="0" height="34"/></clipPath><mask id="5a6df102c4"><g filter="url(#60352abd41)"><rect x="-40.575" width="486.9" fill="#000000" y="-39.074999" height="468.899983" fill-opacity="0.3"/></g></mask><clipPath id="d5e117a62f"><path d="M 19 4 L 24 4 L 24 13 L 19 13 Z M 19 4 " clip-rule="nonzero"/></clipPath><clipPath id="ffe8bf8003"><path d="M 14.988281 0.496094 L 45.644531 14.609375 L 31.84375 44.585938 L 1.1875 30.472656 Z M 14.988281 0.496094 " clip-rule="nonzero"/></clipPath><clipPath id="7d3dd80537"><path d="M 14.988281 0.496094 L 45.644531 14.609375 L 31.84375 44.585938 L 1.1875 30.472656 Z M 14.988281 0.496094 " clip-rule="nonzero"/></clipPath><clipPath id="252be78bc1"><path d="M 14.988281 0.496094 L 45.644531 14.609375 L 31.84375 44.585938 L 1.1875 30.472656 Z M 14.988281 0.496094 " clip-rule="nonzero"/></clipPath><clipPath id="91190285c7"><path d="M 33 11 L 38 11 L 38 19 L 33 19 Z M 33 11 " clip-rule="nonzero"/></clipPath><clipPath id="9089bcc53c"><path d="M 14.988281 0.496094 L 45.644531 14.609375 L 31.84375 44.585938 L 1.1875 30.472656 Z M 14.988281 0.496094 " clip-rule="nonzero"/></clipPath><clipPath id="71f833a05a"><path d="M 14.988281 0.496094 L 45.644531 14.609375 L 31.84375 44.585938 L 1.1875 30.472656 Z M 14.988281 0.496094 " clip-rule="nonzero"/></clipPath><clipPath id="e5090d7127"><path d="M 14.988281 0.496094 L 45.644531 14.609375 L 31.84375 44.585938 L 1.1875 30.472656 Z M 14.988281 0.496094 " clip-rule="nonzero"/></clipPath><clipPath id="5c6a471f62"><path d="M 6 15 L 40 15 L 40 39 L 6 39 Z M 6 15 " clip-rule="nonzero"/></clipPath><clipPath id="41ec5b8696"><path d="M 14.988281 0.496094 L 45.644531 14.609375 L 31.84375 44.585938 L 1.1875 30.472656 Z M 14.988281 0.496094 " clip-rule="nonzero"/></clipPath><clipPath id="fa518e428a"><path d="M 14.988281 0.496094 L 45.644531 14.609375 L 31.84375 44.585938 L 1.1875 30.472656 Z M 14.988281 0.496094 " clip-rule="nonzero"/></clipPath><clipPath id="5ae7eda2f7"><path d="M 14.988281 0.496094 L 45.644531 14.609375 L 31.84375 44.585938 L 1.1875 30.472656 Z M 14.988281 0.496094 " clip-rule="nonzero"/></clipPath><clipPath id="079e43234d"><rect x="0" width="46" y="0" height="46"/></clipPath><clipPath id="c10ecad80e"><path d="M 355 132 L 405.496094 132 L 405.496094 181 L 355 181 Z M 355 132 " clip-rule="nonzero"/></clipPath><mask id="3242a2ed76"><g filter="url(#60352abd41)"><rect x="-40.575" width="486.9" fill="#000000" y="-39.074999" height="468.899983" fill-opacity="0.3"/></g></mask><clipPath id="e056cb7f18"><path d="M 10 7 L 42 7 L 42 41 L 10 41 Z M 10 7 " clip-rule="nonzero"/></clipPath><clipPath id="9249b055b7"><path d="M 0.773438 26.648438 L 34.03125 1 L 50.519531 22.378906 L 17.261719 48.027344 Z M 0.773438 26.648438 " clip-rule="nonzero"/></clipPath><clipPath id="9861dc7497"><path d="M 0.773438 26.648438 L 34.03125 1 L 50.519531 22.378906 L 17.261719 48.027344 Z M 0.773438 26.648438 " clip-rule="nonzero"/></clipPath><clipPath id="0ef78b3a2d"><path d="M 0.773438 26.648438 L 34.03125 1 L 50.519531 22.378906 L 17.261719 48.027344 Z M 0.773438 26.648438 " clip-rule="nonzero"/></clipPath><clipPath id="75836bdbfc"><path d="M 8 19 L 15 19 L 15 27 L 8 27 Z M 8 19 " clip-rule="nonzero"/></clipPath><clipPath id="6fd168d74a"><path d="M 0.773438 26.648438 L 34.03125 1 L 50.519531 22.378906 L 17.261719 48.027344 Z M 0.773438 26.648438 " clip-rule="nonzero"/></clipPath><clipPath id="bc28b6fe30"><path d="M 0.773438 26.648438 L 34.03125 1 L 50.519531 22.378906 L 17.261719 48.027344 Z M 0.773438 26.648438 " clip-rule="nonzero"/></clipPath><clipPath id="cb3accf025"><path d="M 0.773438 26.648438 L 34.03125 1 L 50.519531 22.378906 L 17.261719 48.027344 Z M 0.773438 26.648438 " clip-rule="nonzero"/></clipPath><clipPath id="860cffbddd"><path d="M 21 8 L 28 8 L 28 16 L 21 16 Z M 21 8 " clip-rule="nonzero"/></clipPath><clipPath id="691962b7b6"><path d="M 0.773438 26.648438 L 34.03125 1 L 50.519531 22.378906 L 17.261719 48.027344 Z M 0.773438 26.648438 " clip-rule="nonzero"/></clipPath><clipPath id="1326b3e443"><path d="M 0.773438 26.648438 L 34.03125 1 L 50.519531 22.378906 L 17.261719 48.027344 Z M 0.773438 26.648438 " clip-rule="nonzero"/></clipPath><clipPath id="a418c223ec"><path d="M 0.773438 26.648438 L 34.03125 1 L 50.519531 22.378906 L 17.261719 48.027344 Z M 0.773438 26.648438 " clip-rule="nonzero"/></clipPath><clipPath id="2d283836e0"><rect x="0" width="51" y="0" height="49"/></clipPath><mask id="35e40673b2"><g filter="url(#60352abd41)"><rect x="-40.575" width="486.9" fill="#000000" y="-39.074999" height="468.899983" fill-opacity="0.3"/></g></mask><clipPath id="4a10f897d6"><path d="M 30 19 L 37 19 L 37 28 L 30 28 Z M 30 19 " clip-rule="nonzero"/></clipPath><clipPath id="d747a9abd3"><path d="M 20.109375 0.421875 L 44.523438 28.882812 L 25.171875 45.488281 L 0.753906 17.023438 Z M 20.109375 0.421875 " clip-rule="nonzero"/></clipPath><clipPath id="fe41874e72"><path d="M 20.109375 0.421875 L 44.523438 28.882812 L 25.171875 45.488281 L 0.753906 17.023438 Z M 20.109375 0.421875 " clip-rule="nonzero"/></clipPath><clipPath id="c4d958cdae"><path d="M 20.109375 0.421875 L 44.523438 28.882812 L 25.171875 45.488281 L 0.753906 17.023438 Z M 20.109375 0.421875 " clip-rule="nonzero"/></clipPath><clipPath id="67c04275c7"><path d="M 7 10 L 37 10 L 37 39 L 7 39 Z M 7 10 " clip-rule="nonzero"/></clipPath><clipPath id="c08eeb2518"><path d="M 20.109375 0.421875 L 44.523438 28.882812 L 25.171875 45.488281 L 0.753906 17.023438 Z M 20.109375 0.421875 " clip-rule="nonzero"/></clipPath><clipPath id="3fa5fb0a69"><path d="M 20.109375 0.421875 L 44.523438 28.882812 L 25.171875 45.488281 L 0.753906 17.023438 Z M 20.109375 0.421875 " clip-rule="nonzero"/></clipPath><clipPath id="d0487d020a"><path d="M 20.109375 0.421875 L 44.523438 28.882812 L 25.171875 45.488281 L 0.753906 17.023438 Z M 20.109375 0.421875 " clip-rule="nonzero"/></clipPath><clipPath id="3370cc29a8"><path d="M 20 8 L 26 8 L 26 14 L 20 14 Z M 20 8 " clip-rule="nonzero"/></clipPath><clipPath id="0e81c66a66"><path d="M 20.109375 0.421875 L 44.523438 28.882812 L 25.171875 45.488281 L 0.753906 17.023438 Z M 20.109375 0.421875 " clip-rule="nonzero"/></clipPath><clipPath id="9213d22e8d"><path d="M 20.109375 0.421875 L 44.523438 28.882812 L 25.171875 45.488281 L 0.753906 17.023438 Z M 20.109375 0.421875 " clip-rule="nonzero"/></clipPath><clipPath id="cf69226284"><path d="M 20.109375 0.421875 L 44.523438 28.882812 L 25.171875 45.488281 L 0.753906 17.023438 Z M 20.109375 0.421875 " clip-rule="nonzero"/></clipPath><clipPath id="19ddef6898"><rect x="0" width="46" y="0" height="47"/></clipPath><clipPath id="73d86f8053"><path d="M 0.00390625 346 L 45 346 L 45 390.5 L 0.00390625 390.5 Z M 0.00390625 346 " clip-rule="nonzero"/></clipPath><mask id="a1516ecf6b"><g filter="url(#60352abd41)"><rect x="-40.575" width="486.9" fill="#000000" y="-39.074999" height="468.899983" fill-opacity="0.3"/></g></mask><clipPath id="824214ffbf"><path d="M 6 7 L 40 7 L 40 40 L 6 40 Z M 6 7 " clip-rule="nonzero"/></clipPath><clipPath id="8d48f49be4"><path d="M 13.355469 1.050781 L 44.625 13.75 L 31.925781 45.019531 L 0.65625 32.320312 Z M 13.355469 1.050781 " clip-rule="nonzero"/></clipPath><clipPath id="51e83cd8aa"><path d="M 13.355469 1.050781 L 44.625 13.75 L 31.925781 45.019531 L 0.65625 32.320312 Z M 13.355469 1.050781 " clip-rule="nonzero"/></clipPath><clipPath id="85017c93db"><path d="M 13.355469 1.050781 L 44.625 13.75 L 31.925781 45.019531 L 0.65625 32.320312 Z M 13.355469 1.050781 " clip-rule="nonzero"/></clipPath><clipPath id="53f77c45a1"><rect x="0" width="45" y="0" height="45"/></clipPath><mask id="e06d309c20"><g filter="url(#60352abd41)"><rect x="-40.575" width="486.9" fill="#000000" y="-39.074999" height="468.899983" fill-opacity="0.3"/></g></mask><clipPath id="0508711030"><path d="M 8 0.117188 L 11 0.117188 L 11 8 L 8 8 Z M 8 0.117188 " clip-rule="nonzero"/></clipPath><clipPath id="75ba58bde7"><path d="M 20 0.117188 L 23 0.117188 L 23 7 L 20 7 Z M 20 0.117188 " clip-rule="nonzero"/></clipPath><clipPath id="7a91ad9c3f"><path d="M 0.285156 6 L 32.535156 6 L 32.535156 25.617188 L 0.285156 25.617188 Z M 0.285156 6 " clip-rule="nonzero"/></clipPath><clipPath id="9724d98809"><rect x="0" width="34" y="0" height="27"/></clipPath><mask id="0688f24eb8"><g filter="url(#60352abd41)"><rect x="-40.575" width="486.9" fill="#000000" y="-39.074999" height="468.899983" fill-opacity="0.3"/></g></mask><clipPath id="e5834f3fac"><path d="M 16 3 L 21 3 L 21 11 L 16 11 Z M 16 3 " clip-rule="nonzero"/></clipPath><clipPath id="d18eda175f"><path d="M 13.824219 0.1875 L 38.269531 13.316406 L 25.144531 37.761719 L 0.695312 24.636719 Z M 13.824219 0.1875 " clip-rule="nonzero"/></clipPath><clipPath id="b7324d995a"><path d="M 13.824219 0.1875 L 38.269531 13.316406 L 25.144531 37.761719 L 0.695312 24.636719 Z M 13.824219 0.1875 " clip-rule="nonzero"/></clipPath><clipPath id="812c74762c"><path d="M 13.824219 0.1875 L 38.269531 13.316406 L 25.144531 37.761719 L 0.695312 24.636719 Z M 13.824219 0.1875 " clip-rule="nonzero"/></clipPath><clipPath id="60acc89dcb"><path d="M 28 10 L 32 10 L 32 16 L 28 16 Z M 28 10 " clip-rule="nonzero"/></clipPath><clipPath id="baf4e5ce87"><path d="M 13.824219 0.1875 L 38.269531 13.316406 L 25.144531 37.761719 L 0.695312 24.636719 Z M 13.824219 0.1875 " clip-rule="nonzero"/></clipPath><clipPath id="c23bc21178"><path d="M 13.824219 0.1875 L 38.269531 13.316406 L 25.144531 37.761719 L 0.695312 24.636719 Z M 13.824219 0.1875 " clip-rule="nonzero"/></clipPath><clipPath id="f5b5c44838"><path d="M 13.824219 0.1875 L 38.269531 13.316406 L 25.144531 37.761719 L 0.695312 24.636719 Z M 13.824219 0.1875 " clip-rule="nonzero"/></clipPath><clipPath id="86a9fda57d"><path d="M 5 12 L 33 12 L 33 32 L 5 32 Z M 5 12 " clip-rule="nonzero"/></clipPath><clipPath id="941c8da592"><path d="M 13.824219 0.1875 L 38.269531 13.316406 L 25.144531 37.761719 L 0.695312 24.636719 Z M 13.824219 0.1875 " clip-rule="nonzero"/></clipPath><clipPath id="998ee18676"><path d="M 13.824219 0.1875 L 38.269531 13.316406 L 25.144531 37.761719 L 0.695312 24.636719 Z M 13.824219 0.1875 " clip-rule="nonzero"/></clipPath><clipPath id="2cb20e8f0b"><path d="M 13.824219 0.1875 L 38.269531 13.316406 L 25.144531 37.761719 L 0.695312 24.636719 Z M 13.824219 0.1875 " clip-rule="nonzero"/></clipPath><clipPath id="2d82393e07"><rect x="0" width="40" y="0" height="39"/></clipPath></defs><g clip-path="url(#23f53e3604)"><path fill="#ffffff" d="M 0.00390625 0 L 405.746094 0 L 405.746094 390.742188 L 0.00390625 390.742188 Z M 0.00390625 0 " fill-opacity="1" fill-rule="nonzero"/></g><g mask="url(#af03fbef8b)"><g transform="matrix(1, 0, 0, 1, 22, 100)"><g clip-path="url(#a7abf311ff)"><g clip-path="url(#01d2ad6f78)"><path fill="#000000" d="M 34.660156 12.808594 C 33.445312 9.835938 31.53125 7.136719 28.976562 5.160156 C 26.277344 3.070312 22.949219 1.820312 19.523438 1.742188 C 18.667969 1.730469 17.820312 1.789062 16.972656 1.917969 C 16.617188 1.972656 16.386719 2.441406 16.492188 2.765625 C 16.621094 3.152344 16.957031 3.300781 17.339844 3.246094 C 17.394531 3.238281 17.449219 3.226562 17.503906 3.21875 C 17.324219 3.238281 17.511719 3.21875 17.539062 3.214844 C 17.632812 3.203125 17.722656 3.195312 17.816406 3.1875 C 18.015625 3.164062 18.21875 3.148438 18.417969 3.136719 C 18.824219 3.113281 19.226562 3.109375 19.632812 3.121094 C 20.039062 3.132812 20.441406 3.160156 20.839844 3.207031 C 20.894531 3.214844 20.953125 3.222656 21.007812 3.226562 L 21.027344 3.230469 C 21.121094 3.242188 21.21875 3.257812 21.3125 3.273438 C 21.515625 3.304688 21.714844 3.34375 21.910156 3.382812 C 22.707031 3.542969 23.488281 3.765625 24.25 4.050781 C 24.421875 4.117188 24.597656 4.175781 24.761719 4.253906 C 24.609375 4.183594 24.777344 4.261719 24.804688 4.269531 L 24.953125 4.339844 C 25.054688 4.382812 25.15625 4.429688 25.257812 4.476562 C 25.625 4.648438 25.984375 4.835938 26.335938 5.039062 C 26.691406 5.238281 27.035156 5.453125 27.371094 5.679688 C 27.515625 5.78125 27.664062 5.882812 27.808594 5.988281 C 27.878906 6.042969 27.949219 6.09375 28.015625 6.144531 L 28.046875 6.167969 C 28.09375 6.203125 28.140625 6.242188 28.1875 6.277344 C 28.78125 6.75 29.335938 7.257812 29.855469 7.804688 C 30.121094 8.082031 30.375 8.367188 30.621094 8.660156 C 30.742188 8.808594 30.859375 8.953125 30.976562 9.105469 C 31.007812 9.140625 31.035156 9.179688 31.0625 9.214844 C 31.125 9.300781 31.1875 9.382812 31.25 9.46875 C 31.699219 10.089844 32.109375 10.734375 32.480469 11.40625 C 32.664062 11.742188 32.839844 12.082031 33 12.429688 C 33.074219 12.585938 33.148438 12.746094 33.21875 12.90625 L 33.28125 13.050781 L 33.285156 13.0625 L 33.292969 13.078125 C 33.332031 13.175781 33.371094 13.269531 33.410156 13.367188 C 33.710938 14.121094 33.957031 14.890625 34.152344 15.675781 C 34.253906 16.082031 34.339844 16.492188 34.410156 16.910156 C 34.425781 17.015625 34.441406 17.121094 34.457031 17.226562 C 34.457031 17.226562 34.46875 17.304688 34.472656 17.332031 L 34.480469 17.390625 C 34.507812 17.613281 34.527344 17.835938 34.546875 18.058594 C 34.605469 18.882812 34.617188 19.746094 34.484375 20.566406 C 34.480469 20.59375 34.476562 20.617188 34.476562 20.625 C 34.46875 20.675781 34.460938 20.722656 34.453125 20.769531 C 34.433594 20.875 34.417969 20.976562 34.394531 21.082031 C 34.355469 21.289062 34.308594 21.496094 34.253906 21.699219 C 34.148438 22.109375 34.015625 22.511719 33.859375 22.902344 L 33.839844 22.949219 C 33.828125 22.972656 33.8125 23.011719 33.808594 23.019531 C 33.765625 23.113281 33.726562 23.203125 33.679688 23.296875 C 33.597656 23.464844 33.515625 23.628906 33.425781 23.792969 C 33.246094 24.117188 33.050781 24.429688 32.835938 24.734375 C 32.789062 24.804688 32.738281 24.875 32.6875 24.941406 C 32.660156 24.980469 32.628906 25.023438 32.597656 25.0625 L 32.554688 25.121094 L 32.519531 25.164062 C 32.488281 25.207031 32.457031 25.246094 32.425781 25.285156 C 32.359375 25.363281 32.296875 25.441406 32.230469 25.515625 C 31.984375 25.800781 31.730469 26.070312 31.460938 26.332031 C 31.191406 26.59375 30.914062 26.84375 30.625 27.085938 C 30.496094 27.191406 30.367188 27.308594 30.226562 27.40625 L 30.238281 27.398438 L 30.203125 27.421875 L 30.097656 27.5 C 30.007812 27.566406 29.917969 27.632812 29.828125 27.695312 C 29.226562 28.121094 28.597656 28.507812 27.949219 28.855469 C 27.609375 29.035156 27.265625 29.207031 26.914062 29.367188 C 26.746094 29.445312 26.574219 29.523438 26.402344 29.59375 L 26.378906 29.601562 L 26.257812 29.652344 C 26.160156 29.691406 26.0625 29.730469 25.964844 29.769531 C 24.519531 30.324219 23.03125 30.714844 21.5 30.9375 L 21.367188 30.953125 L 21.363281 30.953125 C 21.277344 30.964844 21.195312 30.976562 21.109375 30.984375 C 20.898438 31.011719 20.691406 31.03125 20.480469 31.050781 C 20.09375 31.085938 19.710938 31.109375 19.324219 31.121094 C 18.5625 31.144531 17.796875 31.132812 17.035156 31.078125 C 16.652344 31.050781 16.265625 31.011719 15.882812 30.960938 L 15.847656 30.957031 L 15.726562 30.941406 C 15.640625 30.929688 15.550781 30.914062 15.464844 30.898438 C 15.273438 30.871094 15.085938 30.839844 14.894531 30.804688 C 14.136719 30.664062 13.386719 30.484375 12.644531 30.261719 C 12.277344 30.152344 11.910156 30.03125 11.550781 29.898438 C 11.367188 29.832031 11.1875 29.765625 11.007812 29.695312 C 10.925781 29.664062 10.847656 29.628906 10.765625 29.597656 L 10.664062 29.558594 L 10.589844 29.527344 C 9.882812 29.21875 9.191406 28.875 8.523438 28.488281 C 7.871094 28.109375 7.242188 27.691406 6.640625 27.238281 L 6.628906 27.230469 L 6.535156 27.15625 C 6.46875 27.105469 6.402344 27.050781 6.335938 26.996094 C 6.175781 26.867188 6.019531 26.734375 5.867188 26.597656 C 5.59375 26.355469 5.324219 26.105469 5.070312 25.84375 C 4.8125 25.582031 4.566406 25.3125 4.335938 25.035156 C 4.269531 24.957031 4.207031 24.875 4.140625 24.796875 C 4.117188 24.773438 4.097656 24.746094 4.078125 24.714844 L 4.128906 24.777344 L 4.066406 24.695312 C 3.953125 24.546875 3.847656 24.398438 3.742188 24.246094 C 3.53125 23.941406 3.339844 23.625 3.160156 23.304688 C 3.070312 23.140625 2.984375 22.976562 2.90625 22.8125 C 2.871094 22.738281 2.832031 22.660156 2.800781 22.585938 C 2.777344 22.539062 2.757812 22.492188 2.738281 22.445312 L 2.730469 22.433594 C 2.730469 22.429688 2.730469 22.429688 2.730469 22.425781 C 2.4375 21.710938 2.230469 20.972656 2.109375 20.210938 C 2.109375 20.199219 2.105469 20.179688 2.101562 20.15625 C 2.097656 20.128906 2.09375 20.097656 2.089844 20.070312 C 2.078125 19.972656 2.070312 19.875 2.0625 19.777344 C 2.042969 19.570312 2.03125 19.363281 2.023438 19.15625 C 2.011719 18.761719 2.023438 18.367188 2.054688 17.976562 C 2.066406 17.796875 2.089844 17.617188 2.109375 17.4375 C 2.109375 17.429688 2.109375 17.425781 2.109375 17.417969 C 2.109375 17.414062 2.109375 17.410156 2.109375 17.40625 C 2.121094 17.351562 2.128906 17.296875 2.136719 17.242188 C 2.152344 17.136719 2.171875 17.027344 2.191406 16.921875 C 2.261719 16.527344 2.351562 16.136719 2.457031 15.75 C 2.5625 15.371094 2.683594 14.996094 2.820312 14.625 C 2.886719 14.441406 2.953125 14.257812 3.027344 14.078125 L 3.089844 13.925781 C 3.089844 13.917969 3.09375 13.914062 3.097656 13.910156 C 3.140625 13.808594 3.183594 13.707031 3.230469 13.601562 C 3.894531 12.121094 4.757812 10.730469 5.738281 9.4375 C 5.78125 9.375 5.828125 9.316406 5.875 9.257812 L 5.933594 9.183594 C 5.96875 9.140625 6 9.09375 6.035156 9.050781 C 6.160156 8.894531 6.289062 8.738281 6.417969 8.582031 C 6.675781 8.269531 6.941406 7.960938 7.210938 7.660156 C 7.753906 7.058594 8.320312 6.476562 8.910156 5.921875 C 9.5 5.363281 10.113281 4.832031 10.746094 4.328125 C 10.816406 4.269531 10.890625 4.210938 10.964844 4.15625 C 11 4.125 11.035156 4.097656 11.070312 4.070312 L 11.078125 4.066406 L 11.085938 4.058594 C 11.253906 3.929688 11.421875 3.804688 11.59375 3.679688 C 11.914062 3.445312 12.238281 3.21875 12.566406 2.996094 C 13.226562 2.554688 13.898438 2.140625 14.589844 1.75 C 14.90625 1.574219 15.035156 1.121094 14.839844 0.8125 C 14.632812 0.492188 14.230469 0.375 13.894531 0.5625 C 10.941406 2.226562 8.339844 4.320312 6.09375 6.855469 C 3.847656 9.390625 1.90625 12.339844 1.0625 15.652344 C 0.636719 17.316406 0.519531 19.042969 0.808594 20.738281 C 1.074219 22.292969 1.730469 23.777344 2.636719 25.0625 C 4.5 27.703125 7.25 29.605469 10.203125 30.84375 C 13.136719 32.074219 16.359375 32.625 19.535156 32.488281 C 22.769531 32.347656 25.976562 31.503906 28.820312 29.945312 C 31.613281 28.414062 34.089844 26.128906 35.25 23.109375 C 36.519531 19.808594 35.972656 16.011719 34.660156 12.808594 Z M 34.660156 12.808594 " fill-opacity="1" fill-rule="nonzero"/></g><path fill="#000000" d="M 14.285156 12.992188 C 14.28125 12.859375 14.273438 12.722656 14.265625 12.585938 C 14.253906 12.265625 14.019531 11.957031 13.695312 11.90625 C 13.605469 11.863281 13.511719 11.84375 13.414062 11.847656 C 13.234375 11.855469 13.050781 11.914062 12.929688 12.046875 C 12.796875 12.191406 12.746094 12.34375 12.726562 12.535156 C 12.605469 13.625 12.730469 14.6875 13.105469 15.722656 C 13.164062 15.890625 13.257812 16.039062 13.421875 16.132812 C 13.566406 16.21875 13.785156 16.253906 13.949219 16.199219 C 14.285156 16.09375 14.5625 15.714844 14.429688 15.355469 C 14.382812 15.222656 14.339844 15.085938 14.300781 14.953125 C 14.347656 14.859375 14.367188 14.761719 14.363281 14.660156 L 14.316406 13.609375 C 14.320312 13.578125 14.328125 13.546875 14.332031 13.511719 C 14.355469 13.335938 14.339844 13.164062 14.285156 12.992188 Z M 14.285156 12.992188 " fill-opacity="1" fill-rule="nonzero"/><path fill="#000000" d="M 17.882812 12.1875 L 18.140625 13.042969 C 18.140625 13.050781 18.144531 13.054688 18.144531 13.0625 C 18.164062 13.164062 18.1875 13.261719 18.21875 13.363281 L 18.417969 14.21875 C 18.496094 14.554688 18.847656 14.753906 19.171875 14.710938 C 19.277344 14.695312 19.375 14.660156 19.464844 14.601562 C 19.785156 14.472656 20.007812 14.121094 19.898438 13.773438 L 19.660156 13.011719 L 19.539062 11.878906 C 19.519531 11.699219 19.476562 11.523438 19.335938 11.394531 C 19.234375 11.296875 19.113281 11.234375 18.972656 11.210938 C 18.792969 11.054688 18.589844 11.007812 18.359375 11.078125 C 18.1875 11.128906 18.054688 11.230469 17.960938 11.382812 C 17.867188 11.539062 17.835938 11.703125 17.871094 11.878906 C 17.847656 11.984375 17.855469 12.085938 17.882812 12.1875 Z M 17.882812 12.1875 " fill-opacity="1" fill-rule="nonzero"/><path fill="#000000" d="M 15.554688 21.683594 C 14.867188 21.582031 14.203125 21.402344 13.5625 21.140625 C 13.113281 20.945312 12.683594 20.710938 12.273438 20.441406 C 11.972656 20.242188 11.5 20.375 11.332031 20.6875 C 11.148438 21.035156 11.257812 21.417969 11.578125 21.628906 C 13.109375 22.644531 14.984375 23.171875 16.820312 23.117188 C 18.628906 23.066406 20.269531 22.519531 21.746094 21.476562 C 22.578125 20.886719 23.292969 20.175781 23.894531 19.351562 C 23.996094 19.214844 24.007812 18.976562 23.964844 18.820312 C 23.914062 18.644531 23.808594 18.507812 23.648438 18.410156 C 23.488281 18.328125 23.296875 18.285156 23.117188 18.34375 C 22.941406 18.398438 22.816406 18.503906 22.707031 18.65625 C 22.679688 18.699219 22.648438 18.734375 22.621094 18.773438 L 22.617188 18.777344 C 22.558594 18.851562 22.5 18.925781 22.4375 18.996094 C 22.324219 19.132812 22.203125 19.265625 22.078125 19.394531 C 21.816406 19.664062 21.539062 19.914062 21.242188 20.144531 L 21.136719 20.226562 C 21.058594 20.28125 20.980469 20.339844 20.902344 20.390625 C 20.75 20.496094 20.59375 20.59375 20.433594 20.6875 C 20.132812 20.863281 19.824219 21.023438 19.503906 21.160156 C 18.886719 21.410156 18.25 21.585938 17.589844 21.6875 C 16.910156 21.765625 16.230469 21.765625 15.554688 21.683594 Z M 15.554688 21.683594 " fill-opacity="1" fill-rule="nonzero"/></g></g></g><g mask="url(#e3998889b6)"><g transform="matrix(1, 0, 0, 1, 66, 170)"><g clip-path="url(#355ef70ddc)"><g clip-path="url(#1bb491af42)"><g clip-path="url(#8acac94a28)"><g clip-path="url(#83be9f4607)"><g clip-path="url(#34c20ff441)"><path fill="#000000" d="M 29.976562 32.445312 C 32.457031 31.765625 34.898438 30.46875 37.050781 28.648438 C 40.0625 26.097656 42.097656 22.953125 42.78125 19.015625 C 42.996094 17.804688 43.011719 16.589844 42.90625 15.367188 C 42.875 14.988281 42.707031 14.746094 42.324219 14.660156 C 42.070312 14.609375 41.8125 14.554688 41.574219 14.457031 C 41.109375 14.265625 40.867188 13.855469 40.914062 13.410156 C 40.960938 12.917969 41.335938 12.519531 41.851562 12.460938 C 42.179688 12.425781 42.519531 12.453125 42.851562 12.460938 C 43.667969 12.484375 44.480469 12.507812 45.296875 12.546875 C 45.589844 12.558594 45.890625 12.59375 46.171875 12.679688 C 46.585938 12.808594 46.863281 13.105469 46.941406 13.546875 C 47.019531 14.023438 46.859375 14.421875 46.46875 14.71875 C 46.351562 14.804688 46.214844 14.867188 46.078125 14.921875 C 45.394531 15.222656 45.382812 15.21875 45.410156 15.945312 C 45.582031 20.699219 43.945312 24.796875 40.839844 28.34375 C 38.550781 30.957031 35.734375 32.820312 32.523438 34.136719 C 28.171875 35.921875 23.691406 36.320312 19.105469 35.496094 C 15.421875 34.839844 12.109375 33.328125 9.25 30.886719 C 9.167969 30.8125 9.085938 30.738281 9 30.664062 C 8.648438 30.394531 8.539062 30.398438 8.242188 30.6875 C 8.113281 30.816406 8.003906 30.96875 7.863281 31.085938 C 7.460938 31.421875 6.972656 31.449219 6.519531 31.183594 C 6.066406 30.914062 5.886719 30.488281 5.992188 29.945312 C 6.066406 29.578125 6.25 29.253906 6.445312 28.9375 C 6.941406 28.113281 7.441406 27.289062 7.953125 26.472656 C 8.109375 26.222656 8.285156 25.980469 8.5 25.78125 C 8.878906 25.421875 9.414062 25.40625 9.828125 25.695312 C 10.214844 25.960938 10.359375 26.386719 10.222656 26.867188 C 10.191406 26.976562 10.152344 27.082031 10.097656 27.175781 C 9.585938 27.996094 9.917969 28.171875 10.449219 28.667969 C 12.929688 30.980469 15.890625 32.355469 19.183594 33.039062 C 22.734375 33.773438 26.261719 33.597656 29.976562 32.445312 Z M 14 15.574219 C 13.84375 15.046875 13.722656 14.660156 13.613281 14.269531 C 13.550781 14.058594 13.484375 13.84375 13.457031 13.625 C 13.378906 13.035156 13.660156 12.535156 14.136719 12.371094 C 14.609375 12.203125 15.140625 12.421875 15.464844 12.921875 C 15.542969 13.042969 15.621094 13.175781 15.671875 13.3125 C 16.410156 15.28125 17.351562 17.171875 17.984375 19.183594 C 18.070312 19.464844 18.171875 19.746094 18.21875 20.035156 C 18.320312 20.632812 18.074219 21.117188 17.601562 21.332031 C 17.101562 21.5625 16.492188 21.398438 16.140625 20.878906 C 15.914062 20.542969 15.730469 20.175781 15.582031 19.796875 C 15.023438 18.351562 14.492188 16.894531 14 15.574219 Z M 26.675781 8.105469 C 26.570312 7.757812 26.453125 7.445312 26.386719 7.121094 C 26.273438 6.574219 26.476562 6.109375 26.898438 5.886719 C 27.347656 5.644531 27.914062 5.769531 28.292969 6.21875 C 28.4375 6.382812 28.5625 6.574219 28.648438 6.777344 C 29.234375 8.171875 29.8125 9.570312 30.382812 10.972656 C 30.617188 11.550781 30.828125 12.144531 31.066406 12.726562 C 31.191406 13.035156 31.304688 13.34375 31.304688 13.683594 C 31.308594 14.289062 31.027344 14.757812 30.558594 14.929688 C 30.085938 15.105469 29.5625 14.933594 29.195312 14.449219 C 29.042969 14.246094 28.917969 14.011719 28.828125 13.773438 C 28.097656 11.878906 27.386719 9.980469 26.675781 8.105469 Z M 26.675781 8.105469 " fill-opacity="1" fill-rule="nonzero"/></g></g></g></g></g></g></g><g mask="url(#783647ca4f)"><g transform="matrix(1, 0, 0, 1, 304, 218)"><g clip-path="url(#db8d064f0e)"><g clip-path="url(#88c97db14f)"><path fill="#000000" d="M 8.996094 2.242188 C 8.84375 3.0625 8.941406 3.976562 8.953125 4.8125 C 8.964844 5.695312 8.996094 6.558594 9.074219 7.429688 C 9.148438 8.265625 10.582031 8.386719 10.753906 7.546875 C 10.960938 6.601562 11.0625 5.71875 11.039062 4.761719 C 11.007812 3.824219 10.972656 2.808594 10.613281 1.9375 C 10.472656 1.601562 10.035156 1.414062 9.695312 1.480469 C 9.292969 1.558594 9.074219 1.875 8.996094 2.242188 Z M 8.996094 2.242188 " fill-opacity="1" fill-rule="nonzero"/></g><g clip-path="url(#b271de9426)"><path fill="#000000" d="M 20.867188 1.960938 C 20.539062 2.613281 20.671875 3.582031 20.703125 4.300781 C 20.738281 5.140625 20.835938 5.914062 21.054688 6.71875 C 21.347656 7.820312 22.746094 7.65625 22.964844 6.613281 C 23.148438 5.742188 23.160156 4.945312 23.0625 4.0625 C 22.976562 3.269531 22.898438 2.320312 22.386719 1.667969 C 21.925781 1.089844 21.140625 1.40625 20.867188 1.960938 Z M 20.867188 1.960938 " fill-opacity="1" fill-rule="nonzero"/></g><g clip-path="url(#5c08d4029d)"><path fill="#000000" d="M 0.761719 15.78125 C 0.730469 17.429688 1.558594 18.976562 2.476562 20.292969 C 3.382812 21.589844 4.542969 22.722656 5.839844 23.625 C 8.320312 25.347656 11.355469 26.328125 14.371094 26.457031 C 17.425781 26.589844 20.5625 25.957031 23.25 24.476562 C 25.925781 23.003906 28.183594 20.835938 29.832031 18.265625 C 30.738281 16.851562 31.472656 15.304688 31.984375 13.703125 C 32.257812 12.875 32.476562 12.015625 32.617188 11.152344 C 32.75 10.304688 32.925781 9.335938 32.652344 8.507812 C 32.390625 7.722656 31.429688 7.613281 31.054688 8.386719 C 30.761719 9.007812 30.730469 9.695312 30.585938 10.371094 C 30.445312 11.035156 30.292969 11.699219 30.09375 12.351562 C 29.722656 13.605469 29.222656 14.824219 28.578125 15.957031 C 27.277344 18.253906 25.488281 20.316406 23.257812 21.773438 C 18.847656 24.648438 12.886719 25.042969 8.167969 22.625 C 6.792969 21.914062 5.511719 20.96875 4.464844 19.847656 C 3.273438 18.570312 2.597656 17.089844 1.777344 15.578125 C 1.539062 15.152344 0.773438 15.226562 0.761719 15.78125 Z M 0.761719 15.78125 " fill-opacity="1" fill-rule="nonzero"/></g></g></g></g><g mask="url(#effd34c8a6)"><g transform="matrix(1, 0, 0, 1, 37, 253)"><g clip-path="url(#98867c5ff1)"><g clip-path="url(#1d0bbce66c)"><g clip-path="url(#5c83c0df49)"><g clip-path="url(#3a8fa62f0f)"><g clip-path="url(#e837a8a7df)"><path fill="#000000" d="M 9.261719 9.507812 C 9.382812 11.761719 9.675781 14.035156 10.839844 16.011719 C 11.394531 16.953125 12.898438 16.417969 12.667969 15.320312 C 12.253906 13.277344 11.4375 11.355469 10.867188 9.347656 C 10.652344 8.519531 9.210938 8.542969 9.261719 9.507812 Z M 9.261719 9.507812 " fill-opacity="1" fill-rule="nonzero"/></g></g></g></g><g clip-path="url(#e357260b34)"><g clip-path="url(#3cf2ee70c1)"><g clip-path="url(#284b23d018)"><g clip-path="url(#af6e3bbffe)"><path fill="#000000" d="M 24.378906 4.949219 C 24.195312 5.371094 24.328125 5.898438 24.386719 6.34375 C 24.441406 6.882812 24.574219 7.398438 24.722656 7.921875 C 25.003906 8.867188 25.347656 9.792969 25.761719 10.683594 C 26.203125 11.621094 27.882812 11.03125 27.527344 10.027344 C 27.230469 9.15625 26.976562 8.253906 26.730469 7.367188 C 26.59375 6.882812 26.441406 6.398438 26.265625 5.921875 C 26.105469 5.484375 26.015625 4.980469 25.6875 4.636719 C 25.257812 4.183594 24.605469 4.429688 24.378906 4.949219 Z M 24.378906 4.949219 " fill-opacity="1" fill-rule="nonzero"/></g></g></g></g><g clip-path="url(#67e572a095)"><g clip-path="url(#d2f84b7ab2)"><g clip-path="url(#5638381483)"><g clip-path="url(#d94febdca2)"><path fill="#000000" d="M 6.8125 25.992188 C 7.535156 32.628906 13.371094 37.960938 20.066406 38.351562 C 23.496094 38.550781 26.933594 37.550781 29.71875 35.546875 C 32.542969 33.5 34.53125 30.53125 35.820312 27.363281 C 37.363281 23.582031 37.800781 19.574219 37.449219 15.554688 C 37.410156 15.027344 36.921875 14.347656 36.265625 14.59375 C 32.039062 16.164062 27.828125 17.785156 23.570312 19.308594 C 21.453125 20.074219 19.3125 20.820312 17.179688 21.550781 C 16.109375 21.925781 15.050781 22.324219 13.980469 22.695312 C 12.886719 23.089844 11.933594 23.65625 10.890625 24.15625 C 10.015625 24.578125 10.554688 25.878906 11.460938 25.691406 C 12.574219 25.453125 13.679688 25.328125 14.753906 24.96875 C 15.828125 24.605469 16.902344 24.246094 17.953125 23.863281 C 20.09375 23.078125 22.234375 22.277344 24.367188 21.464844 C 28.578125 19.847656 32.78125 18.199219 36.914062 16.359375 C 36.449219 16.152344 35.972656 15.945312 35.507812 15.738281 C 36.421875 21.753906 34.246094 28.855469 29.585938 32.992188 C 25.125 36.957031 18.128906 37.257812 13.351562 33.769531 C 10.695312 31.835938 8.9375 28.839844 8.324219 25.660156 C 8.144531 24.644531 6.707031 25.035156 6.8125 25.992188 Z M 6.8125 25.992188 " fill-opacity="1" fill-rule="nonzero"/></g></g></g></g></g></g></g><g mask="url(#a95309eb99)"><g transform="matrix(1, 0, 0, 1, 218, 274)"><g clip-path="url(#15b65b7b78)"><g clip-path="url(#360604f752)"><path fill="#000000" d="M 32.902344 1.28125 C 32.742188 1.339844 32.597656 1.421875 32.472656 1.523438 C 32.351562 1.648438 32.226562 1.808594 32.148438 2.035156 C 32.066406 2.257812 32.003906 2.503906 32.003906 2.808594 C 32.003906 3.113281 32.066406 3.503906 32.167969 4.03125 C 32.269531 4.542969 32.472656 5.316406 32.78125 6.316406 C 33.089844 7.316406 33.355469 8.132812 33.601562 8.746094 C 33.824219 9.355469 34.007812 9.722656 34.152344 9.867188 C 34.277344 10.007812 34.398438 10.109375 34.480469 10.152344 C 34.5625 10.214844 34.664062 10.234375 34.746094 10.273438 C 34.828125 10.292969 34.992188 10.316406 35.238281 10.292969 C 35.464844 10.273438 35.648438 10.253906 35.789062 10.191406 C 35.914062 10.132812 36.035156 10.070312 36.160156 9.96875 C 36.28125 9.867188 36.363281 9.765625 36.425781 9.640625 C 36.488281 9.519531 36.546875 9.375 36.589844 9.171875 C 36.628906 8.988281 36.628906 8.640625 36.589844 8.171875 C 36.546875 7.703125 36.464844 7.132812 36.324219 6.5 C 36.179688 5.867188 35.976562 5.15625 35.6875 4.339844 C 35.402344 3.523438 35.15625 2.929688 34.953125 2.542969 C 34.746094 2.15625 34.5625 1.871094 34.398438 1.707031 C 34.234375 1.542969 34.089844 1.421875 33.949219 1.359375 C 33.804688 1.300781 33.640625 1.257812 33.4375 1.238281 C 33.230469 1.21875 33.046875 1.238281 32.902344 1.28125 Z M 32.902344 1.28125 " fill-opacity="1" fill-rule="evenodd"/></g><g clip-path="url(#e7c3299e61)"><path stroke-linecap="round" transform="matrix(0.204717, 0, 0, 0.203966, -2.470986, -14.26281)" fill="none" stroke-linejoin="round" d="M 172.791662 76.209189 C 172.009331 76.496462 171.303325 76.898644 170.692725 77.396583 C 170.101206 78.009431 169.490606 78.794643 169.108981 79.90543 C 168.708274 80.997066 168.402974 82.20361 168.402974 83.697428 C 168.402974 85.191245 168.708274 87.106396 169.204387 89.691849 C 169.700499 92.200696 170.692725 95.992694 172.200143 100.895479 C 173.707562 105.798264 175.005088 109.800929 176.207206 112.807715 C 177.294838 115.79535 178.191657 117.595591 178.897663 118.304197 C 179.508263 118.993651 180.099782 119.49159 180.500488 119.702257 C 180.901194 120.008681 181.397307 120.104438 181.798013 120.295953 C 182.19872 120.391711 183.000132 120.50662 184.202251 120.391711 C 185.308964 120.295953 186.205783 120.200196 186.892708 119.893772 C 187.503308 119.606499 188.094827 119.300075 188.705427 118.802136 C 189.296945 118.304197 189.697652 117.806258 190.002952 117.193409 C 190.308252 116.599713 190.594471 115.891107 190.804364 114.895229 C 190.995177 113.995108 190.995177 112.290624 190.804364 109.992444 C 190.594471 107.694263 190.193764 104.898143 189.506839 101.7956 C 188.800833 98.693056 187.808608 95.207482 186.396595 91.204818 C 185.003664 87.202153 183.801545 84.291124 182.80932 82.395125 C 181.798013 80.499126 180.901194 79.101067 180.099782 78.296703 C 179.298369 77.49234 178.592363 76.898644 177.905438 76.592219 C 177.199432 76.304947 176.398019 76.09428 175.405794 75.998523 C 174.394487 75.902765 173.497669 75.998523 172.791662 76.209189 Z M 172.791662 76.209189 " stroke="#000000" stroke-width="1" stroke-opacity="1" stroke-miterlimit="10"/></g><path stroke-linecap="round" transform="matrix(0.204717, 0, 0, 0.203966, -2.470986, -14.26281)" fill-opacity="1" fill="#000000" fill-rule="evenodd" stroke-linejoin="round" d="M 97.096335 94.192452 C 96.600222 94.403119 96.008704 94.8053 95.302697 95.30324 C 94.596691 95.896936 94.100578 96.490633 93.699872 97.199239 C 93.299166 97.907844 93.108353 98.597298 92.898459 99.190995 C 92.803053 99.803843 92.707647 101.201903 92.707647 103.308569 C 92.707647 105.396083 93.108353 108.594384 93.890685 113.094987 C 94.692097 117.499834 95.607997 121.406741 96.695629 124.605042 C 97.706935 127.803343 98.794566 130.503705 99.805873 132.706128 C 100.893504 134.908551 101.694917 136.191702 102.400923 136.900308 C 102.992442 137.494005 103.603042 137.991944 104.099154 138.20261 C 104.595267 138.509034 105.09138 138.604792 105.70198 138.796307 C 106.293498 138.892064 106.904099 139.006973 107.591024 138.892064 C 108.29703 138.796307 109.098443 138.604792 110.205155 138.106853 C 111.19738 137.704671 111.998793 137.206732 112.494905 136.593884 C 112.991018 136.000187 113.391724 135.291581 113.697024 134.50637 C 114.002324 133.702007 114.097731 132.399704 114.002324 130.69522 C 113.906918 128.990736 113.296318 125.505163 112.208687 120.295953 C 111.101974 115.105895 110.090668 110.796807 109.193849 107.406991 C 108.29703 103.998023 107.304805 101.508327 106.407986 99.593177 C 105.492086 97.792935 104.595267 96.394875 103.603042 95.590512 C 102.591736 94.8053 101.408698 94.307361 99.996685 94.192452 C 98.508348 93.90518 97.592447 94.000937 97.096335 94.192452 Z M 97.096335 94.192452 " stroke="#000000" stroke-width="1" stroke-opacity="1" stroke-miterlimit="10"/><g clip-path="url(#5d92f599f7)"><path fill="#000000" d="M 54.582031 13.515625 C 54.378906 13.621094 53.988281 14.007812 53.4375 14.660156 C 52.882812 15.3125 52.332031 15.925781 51.757812 16.476562 C 51.207031 17.027344 50.695312 17.515625 50.203125 17.945312 C 49.730469 18.371094 49.097656 18.882812 48.320312 19.492188 C 47.542969 20.105469 46.722656 20.695312 45.84375 21.269531 C 44.960938 21.839844 43.9375 22.449219 42.769531 23.082031 C 41.605469 23.714844 40.539062 24.246094 39.558594 24.675781 C 38.59375 25.101562 37.652344 25.46875 36.730469 25.796875 C 35.832031 26.121094 34.828125 26.429688 33.722656 26.734375 C 32.617188 27.039062 31.554688 27.304688 30.507812 27.53125 C 29.464844 27.753906 28.359375 27.9375 27.214844 28.101562 C 26.066406 28.265625 24.878906 28.367188 23.652344 28.449219 C 22.441406 28.527344 21.214844 28.550781 19.988281 28.550781 C 18.757812 28.527344 17.507812 28.488281 16.261719 28.367188 C 15.011719 28.265625 13.824219 28.121094 12.71875 27.957031 C 11.613281 27.792969 10.652344 27.613281 9.792969 27.429688 C 8.933594 27.246094 8.113281 27.0625 7.335938 26.855469 C 6.535156 26.652344 5.882812 26.449219 5.328125 26.285156 C 4.777344 26.101562 4.347656 25.980469 4 25.917969 C 3.648438 25.855469 3.199219 25.816406 2.667969 25.796875 C 2.113281 25.777344 1.726562 25.796875 1.460938 25.855469 C 1.195312 25.917969 1.050781 25.980469 1.03125 26.039062 C 1.007812 26.121094 1.070312 26.265625 1.234375 26.488281 C 1.398438 26.714844 1.5625 26.898438 1.746094 27.0625 C 1.910156 27.222656 2.195312 27.40625 2.566406 27.652344 C 2.933594 27.898438 3.21875 28.058594 3.425781 28.160156 C 3.609375 28.242188 4.140625 28.425781 5.023438 28.691406 C 5.882812 28.957031 6.78125 29.183594 7.683594 29.40625 C 8.582031 29.628906 9.546875 29.835938 10.570312 30.019531 C 11.59375 30.203125 12.617188 30.363281 13.621094 30.507812 C 14.621094 30.628906 15.726562 30.730469 16.914062 30.8125 C 18.101562 30.894531 19.597656 30.914062 21.359375 30.894531 C 23.140625 30.875 24.777344 30.773438 26.292969 30.609375 C 27.804688 30.445312 29.21875 30.222656 30.53125 29.976562 C 31.839844 29.710938 33.191406 29.386719 34.582031 29 C 35.976562 28.589844 37.386719 28.121094 38.820312 27.570312 C 40.253906 27.019531 41.585938 26.40625 42.851562 25.777344 C 44.121094 25.121094 45.351562 24.429688 46.519531 23.695312 C 47.703125 22.941406 48.605469 22.328125 49.242188 21.859375 C 49.875 21.390625 50.570312 20.800781 51.347656 20.144531 C 52.125 19.472656 52.824219 18.839844 53.4375 18.230469 C 54.050781 17.617188 54.644531 16.984375 55.21875 16.3125 C 55.792969 15.636719 56.117188 15.230469 56.179688 15.085938 C 56.242188 14.945312 56.28125 14.78125 56.28125 14.578125 C 56.28125 14.394531 56.261719 14.230469 56.199219 14.109375 C 56.140625 13.988281 56.078125 13.882812 55.996094 13.78125 C 55.914062 13.679688 55.8125 13.597656 55.730469 13.558594 C 55.648438 13.496094 55.484375 13.476562 55.238281 13.4375 C 54.992188 13.375 54.789062 13.414062 54.582031 13.515625 Z M 54.582031 13.515625 " fill-opacity="1" fill-rule="evenodd"/></g><g clip-path="url(#edd39f3c44)"><path stroke-linecap="round" transform="matrix(0.204717, 0, 0, 0.203966, -2.470986, -14.26281)" fill="none" stroke-linejoin="round" d="M 278.692612 136.191702 C 277.700387 136.708793 275.792262 138.604792 273.101805 141.803093 C 270.392267 145.001394 267.701811 148.008181 264.896867 150.708543 C 262.20641 153.408905 259.706766 155.802843 257.302528 157.909509 C 254.993697 159.997023 251.902534 162.50587 248.105365 165.493504 C 244.308195 168.500291 240.301132 171.392168 236.007851 174.207439 C 231.695488 177.003559 226.6962 179.991193 220.990905 183.093737 C 215.304692 186.196281 210.09551 188.800886 205.306116 190.907551 C 200.593047 192.995065 195.994465 194.795307 191.491289 196.404033 C 187.102601 197.993608 182.19872 199.506577 176.798725 201.000394 C 171.398731 202.494212 166.20863 203.796514 161.094855 204.907301 C 156.00016 205.998937 150.600166 206.899058 145.009359 207.703421 C 139.399471 208.507784 133.59877 209.005723 127.607257 209.407905 C 121.692069 209.790935 115.700556 209.905844 109.709043 209.905844 C 103.698448 209.790935 97.592447 209.59942 91.505528 209.005723 C 85.399527 208.507784 79.598827 207.799178 74.198832 206.994815 C 68.798838 206.190452 64.10485 205.309483 59.906974 204.409362 C 55.709099 203.509241 51.702036 202.609121 47.904867 201.594091 C 43.99321 200.598213 40.806641 199.602334 38.097103 198.797971 C 35.406647 197.89785 33.307709 197.304154 31.609477 196.99773 C 29.892165 196.691306 27.697821 196.499791 25.10277 196.404033 C 22.393233 196.308276 20.504189 196.404033 19.206664 196.691306 C 17.909138 196.99773 17.203132 197.304154 17.107726 197.591426 C 16.993238 197.993608 17.298538 198.702214 18.099951 199.793849 C 18.901363 200.904637 19.702776 201.804757 20.599595 202.609121 C 21.401008 203.394332 22.793939 204.294453 24.606658 205.500998 C 26.400296 206.707543 27.793227 207.492754 28.804533 207.990693 C 29.701352 208.392875 32.296402 209.292996 36.608765 210.595298 C 40.806641 211.8976 45.195329 213.008388 49.603098 214.100023 C 53.991786 215.191659 58.704856 216.206689 63.704144 217.10681 C 68.703432 218.00693 73.70272 218.792142 78.606602 219.500748 C 83.491402 220.094444 88.891396 220.592384 94.692097 220.994565 C 100.492798 221.396747 107.800917 221.492504 116.406562 221.396747 C 125.107613 221.300989 133.102658 220.80305 140.506184 219.998687 C 147.890628 219.194324 154.798041 218.102688 161.209342 216.896143 C 167.601562 215.593841 174.203675 214.004266 180.996601 212.108267 C 187.808608 210.097359 194.69694 207.799178 201.699759 205.098816 C 208.702579 202.398454 215.209286 199.391668 221.391612 196.308276 C 227.593019 193.090823 233.603613 189.701006 239.308907 186.100523 C 245.090527 182.404283 249.498296 179.397497 252.60854 177.099316 C 255.699703 174.801136 259.096166 171.909258 262.893335 168.691806 C 266.690504 165.397747 270.106048 162.295203 273.101805 159.307568 C 276.097562 156.300782 278.997912 153.198238 281.802856 149.90418 C 284.6078 146.590969 286.191544 144.599213 286.496844 143.890607 C 286.802144 143.201153 286.992957 142.39679 286.992957 141.400911 C 286.992957 140.500791 286.89755 139.696428 286.59225 139.102731 C 286.306031 138.509034 286.000731 137.991944 285.600025 137.494005 C 285.199319 136.996065 284.703206 136.593884 284.3025 136.402369 C 283.901794 136.095945 283.100381 136.000187 281.898262 135.808672 C 280.696143 135.502248 279.703918 135.693763 278.692612 136.191702 Z M 278.692612 136.191702 " stroke="#000000" stroke-width="1" stroke-opacity="1" stroke-miterlimit="10"/></g></g></g></g><g mask="url(#06cc0f8894)"><g transform="matrix(1, 0, 0, 1, 176, 163)"><g clip-path="url(#d1074c973f)"><g clip-path="url(#0f15eb0b3d)"><g clip-path="url(#8c4a6ee5e7)"><g clip-path="url(#7310e5cf5e)"><g clip-path="url(#37a6cac90a)"><path fill="#000000" d="M 50.3125 26.738281 C 50.222656 23.351562 49.257812 21.625 48.007812 18.6875 C 46.488281 15.109375 45.589844 13.765625 42.261719 11.566406 C 41.839844 11.285156 41.449219 10.980469 41.039062 10.75 C 40.621094 10.511719 40.191406 10.359375 39.6875 10.332031 C 36.75 8.582031 32.582031 8.328125 29.308594 8.667969 C 19.339844 9.71875 10.453125 15.585938 8.179688 25.816406 C 6.371094 33.957031 11.710938 41.894531 18.46875 45.917969 C 25.71875 50.242188 35.609375 50.929688 42.285156 45.214844 C 44.90625 42.972656 46.488281 39.871094 47.84375 36.78125 C 49.265625 33.5625 50.414062 30.320312 50.3125 26.738281 Z M 46.699219 36.273438 C 45.410156 39.199219 43.949219 42.136719 41.472656 44.261719 C 35.210938 49.621094 25.925781 48.902344 19.121094 44.835938 C 12.796875 41.066406 7.722656 33.695312 9.414062 26.085938 C 11.5625 16.414062 20.007812 10.902344 29.445312 9.925781 C 32.414062 9.617188 36.183594 9.789062 38.894531 11.324219 C 39.011719 11.503906 39.222656 11.613281 39.464844 11.601562 C 39.925781 11.566406 40.289062 11.746094 40.640625 11.980469 C 40.953125 12.171875 41.253906 12.40625 41.578125 12.625 C 44.640625 14.636719 45.453125 15.890625 46.855469 19.1875 C 48.035156 21.960938 48.976562 23.582031 49.054688 26.773438 C 49.144531 30.164062 48.039062 33.21875 46.699219 36.273438 Z M 30.328125 17.621094 C 30.597656 17.507812 30.769531 17.222656 30.703125 16.917969 C 30.628906 16.574219 30.304688 16.355469 29.960938 16.425781 C 29.707031 16.480469 29.492188 16.625 29.335938 16.839844 C 29.214844 17.003906 29.128906 17.210938 29.042969 17.367188 C 28.03125 19.339844 27.140625 21.394531 26.230469 23.417969 C 25.476562 25.105469 24.246094 26.730469 23.894531 28.582031 C 23.824219 28.921875 24.050781 29.246094 24.390625 29.316406 C 24.734375 29.378906 25.0625 29.15625 25.128906 28.828125 C 25.457031 27.078125 26.664062 25.542969 27.382812 23.941406 C 28.273438 21.933594 29.152344 19.90625 30.160156 17.953125 Z M 37.652344 18.925781 C 36.824219 19.949219 36.460938 21.75 36.015625 22.984375 C 34.867188 26.113281 33.648438 29.3125 32.398438 32.390625 C 32.269531 32.707031 32.421875 33.078125 32.746094 33.210938 C 33.0625 33.339844 33.4375 33.191406 33.570312 32.867188 C 34.828125 29.769531 36.050781 26.558594 37.203125 23.421875 C 37.613281 22.304688 37.878906 20.65625 38.636719 19.726562 C 38.855469 19.460938 38.816406 19.066406 38.546875 18.84375 C 38.269531 18.621094 37.871094 18.660156 37.652344 18.925781 Z M 16.667969 28.117188 C 16.269531 28.734375 16.246094 29.652344 16.519531 30.683594 C 17.058594 32.6875 18.6875 35.207031 19.355469 36.15625 C 22.96875 41.308594 30.113281 42.976562 35.789062 40.59375 C 36.910156 40.125 38.351562 39.605469 39.21875 38.710938 C 39.453125 38.460938 39.445312 38.070312 39.199219 37.824219 C 38.945312 37.589844 38.550781 37.597656 38.308594 37.839844 C 37.550781 38.625 36.269531 39.027344 35.292969 39.445312 C 30.15625 41.601562 23.664062 40.121094 20.394531 35.445312 C 19.855469 34.679688 18.652344 32.84375 18.007812 31.15625 C 17.804688 30.628906 17.652344 30.121094 17.613281 29.671875 C 17.570312 29.332031 17.59375 29.027344 17.734375 28.796875 C 17.917969 28.503906 17.839844 28.117188 17.546875 27.929688 C 17.242188 27.75 16.847656 27.835938 16.667969 28.117188 Z M 39 39.605469 C 39.027344 39.816406 39.167969 40.015625 39.390625 40.105469 C 39.714844 40.238281 40.082031 40.085938 40.210938 39.761719 C 40.222656 39.734375 40.292969 39.5625 40.214844 39.285156 C 40.089844 38.800781 39.367188 36.523438 39.261719 36.316406 C 39.109375 36.007812 38.734375 35.878906 38.417969 36.027344 C 38.109375 36.179688 37.980469 36.550781 38.132812 36.867188 C 38.230469 37.066406 38.886719 39.144531 39.003906 39.59375 Z M 14.9375 28.050781 C 14.601562 28.136719 14.394531 28.476562 14.480469 28.8125 C 14.570312 29.148438 14.910156 29.355469 15.25 29.269531 L 15.289062 29.25 C 15.339844 29.238281 15.4375 29.210938 15.496094 29.210938 C 15.597656 29.207031 15.699219 29.171875 15.777344 29.125 C 15.839844 29.105469 15.890625 29.09375 15.941406 29.082031 C 17.046875 28.75 18.066406 28.472656 19.140625 28.03125 C 19.464844 27.894531 19.613281 27.53125 19.472656 27.210938 C 19.335938 26.886719 18.972656 26.738281 18.648438 26.875 C 17.625 27.304688 16.640625 27.574219 15.578125 27.875 C 15.359375 27.945312 14.9375 28.050781 14.9375 28.050781 Z M 14.9375 28.050781 " fill-opacity="1" fill-rule="nonzero"/></g></g></g></g></g></g></g><g mask="url(#4ae1bfbd97)"><g transform="matrix(1, 0, 0, 1, 139, 62)"><g clip-path="url(#4aa589bdf2)"><g clip-path="url(#f313879474)"><g clip-path="url(#c11c8950b6)"><g clip-path="url(#aaab03369a)"><g clip-path="url(#7d8d580878)"><path fill="#000000" d="M 13.503906 20.335938 C 13.042969 19.90625 12.527344 19.679688 11.984375 19.359375 C 11.402344 19.015625 10.871094 18.609375 10.347656 18.183594 C 9.40625 17.417969 8.390625 16.507812 7.722656 15.480469 C 7.519531 15.175781 7.097656 14.375 7.582031 14.097656 C 7.980469 13.867188 8.660156 14.492188 8.894531 14.722656 C 9.75 15.597656 10.363281 16.558594 11.589844 16.941406 C 12.121094 17.117188 12.832031 16.707031 12.820312 16.101562 C 12.777344 15.003906 13.117188 13.957031 13.847656 13.113281 C 14.230469 12.671875 14.691406 12.320312 15.21875 12.082031 C 15.292969 12.042969 15.691406 11.824219 15.671875 11.816406 C 15.898438 11.847656 15.894531 12.675781 15.902344 12.824219 C 15.875 14.140625 15.085938 15.566406 14.488281 16.699219 C 13.839844 17.933594 13.082031 19.085938 12.226562 20.179688 C 11.429688 21.195312 13.179688 22.335938 13.941406 21.265625 C 15.117188 19.628906 16.105469 17.847656 16.847656 15.972656 C 17.472656 14.378906 18.332031 12.109375 17.070312 10.59375 C 15.894531 9.183594 13.667969 10.585938 12.699219 11.582031 C 11.570312 12.757812 10.898438 14.363281 10.953125 16.019531 C 11.367188 15.734375 11.765625 15.449219 12.183594 15.179688 C 11.425781 14.921875 10.972656 14.175781 10.472656 13.597656 C 9.917969 12.964844 9.21875 12.390625 8.421875 12.164062 C 6.570312 11.617188 5.023438 13.179688 5.277344 15.007812 C 5.523438 16.742188 7.25 18.152344 8.507812 19.207031 C 9.691406 20.183594 11.570312 21.617188 13.210938 21.265625 C 13.601562 21.183594 13.824219 20.636719 13.503906 20.335938 Z M 13.503906 20.335938 " fill-opacity="1" fill-rule="nonzero"/></g></g></g></g><g clip-path="url(#9c1d74c4c9)"><g clip-path="url(#45d2537eeb)"><g clip-path="url(#6a1bee7810)"><g clip-path="url(#e1c3377808)"><path fill="#000000" d="M 32.3125 13.039062 C 30.429688 11.492188 28.148438 10.507812 26.683594 8.457031 C 26.539062 8.25 26.007812 7.511719 26.269531 7.222656 C 26.519531 6.949219 27.113281 7.21875 27.355469 7.363281 C 28.351562 7.980469 28.878906 9.152344 29.929688 9.785156 C 30.613281 10.195312 31.414062 9.59375 31.308594 8.832031 C 31.144531 7.773438 31.464844 6.667969 32.175781 5.863281 C 32.425781 5.589844 32.851562 5.117188 33.25 5.113281 C 33.84375 5.105469 34.09375 5.84375 34.164062 6.300781 C 34.546875 8.671875 33.097656 10.855469 31.71875 12.601562 C 31.117188 13.375 32.335938 14.355469 33.035156 13.6875 C 34.292969 12.488281 35.234375 10.839844 35.707031 9.175781 C 36.160156 7.554688 36.359375 5.308594 35.035156 4.027344 C 33.707031 2.726562 31.984375 3.351562 30.871094 4.589844 C 29.753906 5.863281 29.28125 7.527344 29.535156 9.1875 C 29.992188 8.871094 30.445312 8.554688 30.914062 8.234375 C 30.1875 7.789062 29.734375 7.042969 29.15625 6.4375 C 28.605469 5.855469 27.949219 5.433594 27.15625 5.269531 C 25.515625 4.941406 24.015625 6.164062 24.339844 7.886719 C 24.640625 9.472656 26.113281 10.742188 27.328125 11.660156 C 28.652344 12.660156 30.339844 13.769531 32.070312 13.789062 C 32.515625 13.839844 32.640625 13.308594 32.3125 13.039062 Z M 32.3125 13.039062 " fill-opacity="1" fill-rule="nonzero"/></g></g></g></g><g clip-path="url(#49eeef995b)"><g clip-path="url(#25bd52f657)"><g clip-path="url(#d61c6f89a2)"><g clip-path="url(#697027c38b)"><path fill="#000000" d="M 5.066406 28.945312 C 6.445312 33.390625 10.304688 36.921875 14.753906 38.226562 C 18.074219 39.1875 21.773438 38.890625 25.101562 38.140625 C 31.796875 36.636719 38.445312 32.789062 42.027344 26.800781 C 43.980469 23.511719 45.175781 19.183594 44.0625 15.40625 C 43.847656 14.675781 42.664062 14.660156 42.65625 15.523438 C 42.628906 17.1875 42.648438 18.820312 42.335938 20.46875 C 42.066406 21.921875 41.59375 23.351562 40.898438 24.664062 C 39.460938 27.441406 37.277344 29.722656 34.789062 31.582031 C 29.867188 35.214844 23.382812 37.207031 17.242188 36.699219 C 12.476562 36.296875 8.007812 32.898438 6.058594 28.585938 C 5.816406 28.046875 4.882812 28.371094 5.066406 28.945312 Z M 5.066406 28.945312 " fill-opacity="1" fill-rule="nonzero"/></g></g></g></g></g></g></g><g mask="url(#995baf8977)"><g transform="matrix(1, 0, 0, 1, 64, 10)"><g clip-path="url(#7023d9c060)"><path fill="#000000" d="M 30.8125 1.191406 C 29.210938 2.316406 28.320312 4.308594 27.703125 6.09375 C 27.449219 6.816406 27.972656 7.726562 28.78125 7.742188 C 30.097656 7.773438 31.414062 7.789062 32.714844 7.804688 C 33.886719 7.835938 35.457031 8.070312 36.519531 7.523438 C 37.152344 7.191406 37.167969 6.394531 36.628906 5.96875 C 35.648438 5.21875 33.949219 5.265625 32.761719 5.21875 C 31.382812 5.171875 30.003906 5.1875 28.636719 5.296875 C 29.113281 5.828125 29.589844 6.378906 30.050781 6.910156 C 30.476562 5.171875 31.367188 3.617188 31.890625 1.910156 C 32.109375 1.238281 31.351562 0.8125 30.8125 1.191406 Z M 30.8125 1.191406 " fill-opacity="1" fill-rule="nonzero"/><g clip-path="url(#51b29b3408)"><path fill="#000000" d="M 0.558594 18.710938 C 1.984375 22.003906 4.871094 24.339844 7.976562 26.03125 C 11.433594 27.914062 15.242188 29.167969 19.140625 29.730469 C 26.703125 30.8125 34.679688 28.820312 40.101562 23.335938 C 42.78125 20.625 44.890625 17.066406 45.066406 13.210938 C 45.113281 12.238281 43.71875 11.925781 43.367188 12.867188 C 42.320312 15.671875 40.894531 18.304688 38.816406 20.515625 C 36.757812 22.695312 34.265625 24.355469 31.460938 25.46875 C 24.800781 28.117188 16.90625 27.222656 10.453125 24.433594 C 7.074219 22.945312 4.140625 20.703125 1.683594 17.976562 C 1.144531 17.394531 0.257812 18.023438 0.558594 18.710938 Z M 0.558594 18.710938 " fill-opacity="1" fill-rule="nonzero"/></g><path fill="#000000" d="M 11.417969 2.992188 C 10.5 5.015625 10.355469 7.664062 11.054688 9.777344 C 11.355469 10.671875 12.925781 10.828125 12.910156 9.667969 C 12.910156 8.554688 12.78125 7.441406 12.71875 6.332031 C 12.65625 5.234375 12.640625 4.152344 12.511719 3.070312 C 12.449219 2.476562 11.625 2.539062 11.417969 2.992188 Z M 11.417969 2.992188 " fill-opacity="1" fill-rule="nonzero"/></g></g></g><g mask="url(#36c2f284d7)"><g transform="matrix(1, 0, 0, 1, 109, 330)"><g clip-path="url(#e2a446d904)"><g clip-path="url(#d3e84adb46)"><g clip-path="url(#e6f1fbb0a8)"><g clip-path="url(#1ba320cf66)"><g clip-path="url(#a1288c24e4)"><path fill="#000000" d="M 4.523438 15.597656 C 4.722656 17.449219 5.496094 19.085938 6.449219 20.6875 C 7.402344 22.292969 8.542969 23.789062 9.824219 25.144531 C 12.359375 27.816406 15.550781 29.949219 18.984375 31.289062 C 25.753906 33.90625 33.339844 33.011719 39.371094 29.070312 C 42.46875 27.046875 45.734375 23.84375 46.53125 20.113281 C 46.707031 19.300781 45.472656 18.898438 45.039062 19.535156 C 44.136719 20.828125 43.386719 22.179688 42.394531 23.402344 C 41.394531 24.648438 40.234375 25.722656 38.960938 26.652344 C 36.453125 28.492188 33.492188 29.730469 30.421875 30.265625 C 23.78125 31.433594 17.101562 28.9375 12.25 24.371094 C 10.84375 23.046875 9.609375 21.582031 8.476562 20.019531 C 7.351562 18.472656 6.472656 16.765625 5.367188 15.199219 C 5.082031 14.789062 4.476562 15.152344 4.523438 15.597656 Z M 4.523438 15.597656 " fill-opacity="1" fill-rule="nonzero"/></g></g></g></g><g clip-path="url(#411cd8ab84)"><g clip-path="url(#852f8dae75)"><g clip-path="url(#c5ff123e28)"><g clip-path="url(#5830c9c5a1)"><path fill="#000000" d="M 14.359375 5.738281 C 13.652344 7.6875 15.433594 9.824219 17.324219 10.246094 C 19.28125 10.675781 21.714844 9.359375 22.058594 7.308594 C 22.210938 6.390625 20.941406 6.242188 20.570312 6.953125 C 20.257812 7.558594 19.980469 8.0625 19.359375 8.433594 C 18.820312 8.757812 18.175781 8.925781 17.554688 8.835938 C 16.015625 8.605469 15.332031 7.179688 15.066406 5.824219 C 15.007812 5.472656 14.496094 5.386719 14.359375 5.738281 Z M 14.359375 5.738281 " fill-opacity="1" fill-rule="nonzero"/></g></g></g></g><g clip-path="url(#4df8d9bc58)"><g clip-path="url(#4e9d1aa541)"><g clip-path="url(#b97acadc86)"><g clip-path="url(#e52dafc421)"><path fill="#000000" d="M 31.433594 9.730469 C 30.84375 10.5 31.167969 11.664062 31.628906 12.417969 C 32.164062 13.308594 33.007812 13.929688 34.03125 14.128906 C 36.304688 14.597656 38.535156 12.785156 38.542969 10.492188 C 38.550781 9.585938 37.246094 9.414062 37.105469 10.335938 C 36.882812 11.863281 35.835938 13.070312 34.160156 12.78125 C 33.503906 12.667969 32.921875 12.253906 32.578125 11.671875 C 32.21875 11.085938 32.214844 10.402344 31.996094 9.773438 C 31.921875 9.554688 31.570312 9.546875 31.433594 9.730469 Z M 31.433594 9.730469 " fill-opacity="1" fill-rule="nonzero"/></g></g></g></g></g></g></g><g mask="url(#316cdc5141)"><g transform="matrix(1, 0, 0, 1, 286, 24)"><g clip-path="url(#787a8fab88)"><g clip-path="url(#ebcf38446b)"><path fill="#000000" d="M 34.675781 13.195312 C 33.460938 10.222656 31.546875 7.519531 28.992188 5.546875 C 26.292969 3.457031 22.96875 2.203125 19.539062 2.128906 C 18.683594 2.113281 17.835938 2.171875 16.988281 2.304688 C 16.632812 2.359375 16.402344 2.824219 16.507812 3.148438 C 16.636719 3.539062 16.972656 3.6875 17.355469 3.628906 C 17.410156 3.621094 17.464844 3.609375 17.519531 3.605469 C 17.339844 3.621094 17.527344 3.605469 17.554688 3.601562 C 17.648438 3.589844 17.738281 3.578125 17.832031 3.570312 C 18.03125 3.550781 18.234375 3.535156 18.433594 3.523438 C 18.839844 3.5 19.242188 3.492188 19.648438 3.507812 C 20.054688 3.519531 20.457031 3.546875 20.855469 3.59375 C 20.910156 3.597656 20.96875 3.605469 21.023438 3.613281 L 21.042969 3.617188 C 21.136719 3.628906 21.234375 3.644531 21.332031 3.660156 C 21.53125 3.691406 21.730469 3.726562 21.929688 3.765625 C 22.722656 3.929688 23.503906 4.152344 24.265625 4.4375 C 24.4375 4.5 24.613281 4.5625 24.777344 4.640625 C 24.625 4.566406 24.792969 4.644531 24.820312 4.65625 L 24.96875 4.722656 C 25.070312 4.769531 25.171875 4.816406 25.273438 4.863281 C 25.640625 5.035156 26 5.222656 26.351562 5.421875 C 26.707031 5.625 27.050781 5.835938 27.386719 6.066406 C 27.535156 6.167969 27.679688 6.269531 27.824219 6.375 C 27.894531 6.425781 27.964844 6.476562 28.035156 6.53125 L 28.0625 6.550781 C 28.109375 6.585938 28.15625 6.625 28.203125 6.664062 C 28.796875 7.136719 29.351562 7.644531 29.871094 8.191406 C 30.136719 8.46875 30.390625 8.753906 30.636719 9.046875 C 30.757812 9.191406 30.875 9.339844 30.996094 9.488281 C 31.023438 9.527344 31.050781 9.5625 31.078125 9.601562 C 31.140625 9.683594 31.203125 9.769531 31.265625 9.851562 C 31.714844 10.472656 32.125 11.121094 32.496094 11.792969 C 32.679688 12.128906 32.855469 12.46875 33.015625 12.816406 C 33.09375 12.972656 33.164062 13.132812 33.234375 13.289062 L 33.296875 13.433594 L 33.300781 13.445312 L 33.308594 13.464844 C 33.347656 13.558594 33.386719 13.65625 33.425781 13.753906 C 33.726562 14.503906 33.972656 15.273438 34.167969 16.0625 C 34.269531 16.46875 34.355469 16.878906 34.425781 17.292969 C 34.441406 17.398438 34.457031 17.503906 34.472656 17.613281 C 34.472656 17.613281 34.484375 17.691406 34.488281 17.71875 L 34.496094 17.777344 C 34.523438 18 34.542969 18.222656 34.5625 18.445312 C 34.621094 19.269531 34.632812 20.132812 34.5 20.953125 C 34.496094 20.976562 34.492188 21.003906 34.492188 21.011719 C 34.484375 21.058594 34.476562 21.105469 34.46875 21.15625 C 34.453125 21.257812 34.433594 21.363281 34.410156 21.464844 C 34.371094 21.675781 34.324219 21.878906 34.269531 22.085938 C 34.164062 22.496094 34.03125 22.894531 33.875 23.289062 L 33.855469 23.332031 C 33.84375 23.355469 33.828125 23.398438 33.824219 23.40625 C 33.785156 23.496094 33.742188 23.589844 33.695312 23.679688 C 33.617188 23.847656 33.53125 24.015625 33.441406 24.175781 C 33.261719 24.503906 33.066406 24.816406 32.851562 25.121094 C 32.804688 25.191406 32.753906 25.257812 32.707031 25.328125 C 32.675781 25.367188 32.644531 25.40625 32.613281 25.449219 L 32.570312 25.503906 L 32.535156 25.550781 C 32.503906 25.589844 32.472656 25.628906 32.441406 25.667969 C 32.375 25.746094 32.3125 25.824219 32.246094 25.902344 C 32 26.183594 31.746094 26.457031 31.476562 26.71875 C 31.207031 26.976562 30.929688 27.230469 30.644531 27.46875 C 30.511719 27.578125 30.382812 27.695312 30.242188 27.789062 L 30.253906 27.78125 L 30.21875 27.808594 L 30.113281 27.886719 C 30.023438 27.953125 29.933594 28.015625 29.84375 28.082031 C 29.242188 28.507812 28.613281 28.894531 27.964844 29.238281 C 27.625 29.421875 27.28125 29.59375 26.929688 29.753906 C 26.761719 29.828125 26.589844 29.910156 26.417969 29.976562 L 26.394531 29.988281 L 26.273438 30.039062 C 26.175781 30.078125 26.078125 30.117188 25.980469 30.152344 C 24.535156 30.710938 23.046875 31.101562 21.515625 31.320312 L 21.382812 31.339844 L 21.378906 31.339844 C 21.296875 31.351562 21.210938 31.359375 21.125 31.371094 C 20.914062 31.394531 20.707031 31.417969 20.496094 31.433594 C 20.109375 31.46875 19.726562 31.492188 19.339844 31.503906 C 18.578125 31.53125 17.8125 31.515625 17.050781 31.460938 C 16.667969 31.433594 16.28125 31.394531 15.898438 31.347656 L 15.863281 31.34375 L 15.742188 31.324219 C 15.65625 31.3125 15.566406 31.300781 15.480469 31.285156 C 15.289062 31.253906 15.101562 31.222656 14.910156 31.1875 C 14.152344 31.050781 13.402344 30.867188 12.664062 30.648438 C 12.292969 30.535156 11.925781 30.414062 11.566406 30.28125 C 11.382812 30.21875 11.203125 30.148438 11.023438 30.082031 C 10.945312 30.046875 10.863281 30.015625 10.78125 29.984375 L 10.679688 29.941406 L 10.605469 29.910156 C 9.898438 29.605469 9.207031 29.257812 8.539062 28.875 C 7.886719 28.492188 7.257812 28.078125 6.65625 27.621094 L 6.644531 27.617188 L 6.550781 27.542969 C 6.484375 27.488281 6.417969 27.4375 6.351562 27.378906 C 6.191406 27.25 6.035156 27.117188 5.882812 26.984375 C 5.609375 26.742188 5.34375 26.488281 5.085938 26.226562 C 4.828125 25.964844 4.582031 25.695312 4.351562 25.417969 C 4.285156 25.339844 4.222656 25.261719 4.160156 25.183594 C 4.132812 25.15625 4.113281 25.128906 4.09375 25.101562 L 4.144531 25.160156 L 4.082031 25.082031 C 3.96875 24.933594 3.863281 24.78125 3.757812 24.628906 C 3.546875 24.324219 3.355469 24.011719 3.175781 23.6875 C 3.085938 23.527344 3.003906 23.363281 2.921875 23.199219 C 2.886719 23.121094 2.851562 23.046875 2.816406 22.96875 C 2.792969 22.925781 2.773438 22.878906 2.753906 22.832031 L 2.746094 22.816406 C 2.746094 22.816406 2.746094 22.8125 2.746094 22.8125 C 2.453125 22.097656 2.246094 21.359375 2.125 20.59375 C 2.125 20.585938 2.121094 20.5625 2.117188 20.542969 C 2.113281 20.511719 2.109375 20.484375 2.109375 20.457031 C 2.097656 20.359375 2.085938 20.261719 2.078125 20.160156 C 2.058594 19.957031 2.046875 19.75 2.039062 19.542969 C 2.027344 19.148438 2.039062 18.753906 2.070312 18.359375 C 2.082031 18.179688 2.105469 18 2.125 17.820312 C 2.125 17.816406 2.125 17.808594 2.125 17.804688 C 2.125 17.800781 2.125 17.796875 2.128906 17.789062 C 2.136719 17.738281 2.144531 17.683594 2.152344 17.628906 C 2.167969 17.519531 2.1875 17.414062 2.207031 17.308594 C 2.277344 16.914062 2.367188 16.523438 2.476562 16.136719 C 2.582031 15.757812 2.699219 15.378906 2.835938 15.007812 C 2.902344 14.824219 2.96875 14.644531 3.042969 14.464844 L 3.105469 14.308594 C 3.105469 14.304688 3.109375 14.300781 3.113281 14.296875 C 3.15625 14.191406 3.199219 14.089844 3.246094 13.988281 C 3.910156 12.503906 4.773438 11.117188 5.753906 9.824219 C 5.800781 9.761719 5.84375 9.703125 5.890625 9.640625 L 5.949219 9.566406 C 5.984375 9.523438 6.015625 9.480469 6.050781 9.4375 C 6.175781 9.277344 6.304688 9.121094 6.433594 8.964844 C 6.691406 8.652344 6.957031 8.347656 7.226562 8.046875 C 7.769531 7.441406 8.335938 6.863281 8.925781 6.304688 C 9.515625 5.75 10.128906 5.21875 10.761719 4.710938 C 10.835938 4.65625 10.90625 4.597656 10.980469 4.539062 C 11.015625 4.511719 11.050781 4.484375 11.085938 4.457031 L 11.09375 4.453125 L 11.101562 4.445312 C 11.269531 4.316406 11.4375 4.1875 11.609375 4.0625 C 11.929688 3.828125 12.253906 3.601562 12.582031 3.382812 C 13.242188 2.9375 13.914062 2.523438 14.605469 2.136719 C 14.921875 1.960938 15.050781 1.503906 14.855469 1.195312 C 14.648438 0.878906 14.246094 0.761719 13.910156 0.949219 C 10.957031 2.609375 8.355469 4.707031 6.109375 7.242188 C 3.863281 9.773438 1.921875 12.726562 1.078125 16.039062 C 0.652344 17.699219 0.535156 19.425781 0.824219 21.121094 C 1.089844 22.675781 1.746094 24.160156 2.652344 25.449219 C 4.515625 28.089844 7.265625 29.988281 10.222656 31.230469 C 13.152344 32.460938 16.375 33.011719 19.550781 32.871094 C 22.785156 32.730469 25.996094 31.890625 28.835938 30.328125 C 31.628906 28.796875 34.105469 26.511719 35.265625 23.492188 C 36.535156 20.191406 35.988281 16.394531 34.675781 13.195312 Z M 34.675781 13.195312 " fill-opacity="1" fill-rule="nonzero"/></g><path fill="#000000" d="M 14.300781 13.378906 C 14.296875 13.242188 14.289062 13.109375 14.28125 12.972656 C 14.269531 12.652344 14.035156 12.339844 13.710938 12.292969 C 13.621094 12.25 13.527344 12.230469 13.429688 12.230469 C 13.25 12.238281 13.066406 12.296875 12.945312 12.433594 C 12.8125 12.574219 12.765625 12.726562 12.742188 12.917969 C 12.621094 14.011719 12.75 15.074219 13.121094 16.105469 C 13.179688 16.277344 13.273438 16.421875 13.4375 16.515625 C 13.582031 16.601562 13.800781 16.636719 13.96875 16.585938 C 14.300781 16.480469 14.578125 16.101562 14.449219 15.742188 C 14.398438 15.605469 14.355469 15.472656 14.316406 15.335938 C 14.363281 15.246094 14.382812 15.148438 14.378906 15.042969 L 14.332031 13.992188 C 14.335938 13.960938 14.34375 13.929688 14.347656 13.898438 C 14.371094 13.722656 14.355469 13.546875 14.300781 13.378906 Z M 14.300781 13.378906 " fill-opacity="1" fill-rule="nonzero"/><path fill="#000000" d="M 17.902344 12.570312 L 18.160156 13.429688 C 18.160156 13.433594 18.160156 13.441406 18.164062 13.445312 C 18.179688 13.546875 18.203125 13.648438 18.234375 13.75 L 18.433594 14.605469 C 18.511719 14.9375 18.863281 15.140625 19.191406 15.097656 C 19.296875 15.082031 19.390625 15.042969 19.480469 14.984375 C 19.800781 14.855469 20.023438 14.507812 19.914062 14.15625 L 19.675781 13.398438 L 19.554688 12.265625 C 19.535156 12.085938 19.492188 11.90625 19.351562 11.777344 C 19.25 11.683594 19.128906 11.621094 18.988281 11.597656 C 18.808594 11.4375 18.605469 11.394531 18.375 11.460938 C 18.203125 11.511719 18.070312 11.617188 17.976562 11.769531 C 17.882812 11.921875 17.851562 12.085938 17.886719 12.265625 C 17.863281 12.367188 17.871094 12.46875 17.902344 12.570312 Z M 17.902344 12.570312 " fill-opacity="1" fill-rule="nonzero"/><path fill="#000000" d="M 15.570312 22.066406 C 14.882812 21.964844 14.21875 21.785156 13.578125 21.527344 C 13.128906 21.332031 12.699219 21.097656 12.289062 20.828125 C 11.988281 20.628906 11.515625 20.757812 11.347656 21.074219 C 11.164062 21.417969 11.273438 21.800781 11.59375 22.015625 C 13.128906 23.03125 15 23.554688 16.835938 23.503906 C 18.644531 23.449219 20.285156 22.902344 21.761719 21.859375 C 22.59375 21.269531 23.3125 20.5625 23.910156 19.738281 C 24.011719 19.601562 24.023438 19.363281 23.980469 19.207031 C 23.929688 19.027344 23.824219 18.890625 23.664062 18.796875 C 23.503906 18.710938 23.3125 18.667969 23.132812 18.726562 C 22.957031 18.785156 22.832031 18.890625 22.722656 19.042969 C 22.695312 19.082031 22.667969 19.121094 22.636719 19.15625 L 22.632812 19.164062 C 22.574219 19.238281 22.515625 19.308594 22.453125 19.382812 C 22.339844 19.519531 22.21875 19.652344 22.09375 19.78125 C 21.832031 20.046875 21.554688 20.300781 21.257812 20.53125 L 21.152344 20.613281 C 21.074219 20.667969 20.996094 20.722656 20.917969 20.777344 C 20.765625 20.882812 20.609375 20.980469 20.449219 21.074219 C 20.148438 21.25 19.839844 21.40625 19.519531 21.546875 C 18.902344 21.796875 18.265625 21.972656 17.605469 22.070312 C 16.925781 22.152344 16.246094 22.152344 15.570312 22.066406 Z M 15.570312 22.066406 " fill-opacity="1" fill-rule="nonzero"/></g></g></g><g mask="url(#5a6df102c4)"><g transform="matrix(1, 0, 0, 1, 251, 94)"><g clip-path="url(#079e43234d)"><g clip-path="url(#d5e117a62f)"><g clip-path="url(#ffe8bf8003)"><g clip-path="url(#7d3dd80537)"><g clip-path="url(#252be78bc1)"><path fill="#000000" d="M 22.316406 4.921875 C 20.894531 6.683594 19.59375 8.566406 19.136719 10.8125 C 18.921875 11.882812 20.394531 12.492188 20.957031 11.523438 C 22.015625 9.726562 22.691406 7.753906 23.613281 5.878906 C 24.007812 5.117188 22.921875 4.171875 22.316406 4.921875 Z M 22.316406 4.921875 " fill-opacity="1" fill-rule="nonzero"/></g></g></g></g><g clip-path="url(#91190285c7)"><g clip-path="url(#9089bcc53c)"><g clip-path="url(#71f833a05a)"><g clip-path="url(#e5090d7127)"><path fill="#000000" d="M 36.601562 11.644531 C 36.179688 11.835938 35.929688 12.316406 35.671875 12.683594 C 35.355469 13.125 35.109375 13.597656 34.867188 14.085938 C 34.445312 14.976562 34.078125 15.894531 33.792969 16.832031 C 33.496094 17.824219 35.136719 18.507812 35.546875 17.523438 C 35.90625 16.675781 36.320312 15.839844 36.730469 15.015625 C 36.953125 14.5625 37.164062 14.101562 37.355469 13.628906 C 37.523438 13.195312 37.796875 12.765625 37.785156 12.285156 C 37.765625 11.664062 37.117188 11.40625 36.601562 11.644531 Z M 36.601562 11.644531 " fill-opacity="1" fill-rule="nonzero"/></g></g></g></g><g clip-path="url(#5c6a471f62)"><g clip-path="url(#41ec5b8696)"><g clip-path="url(#fa518e428a)"><g clip-path="url(#5ae7eda2f7)"><path fill="#000000" d="M 9.46875 15.542969 C 5.566406 20.957031 6.339844 28.824219 11.058594 33.59375 C 13.472656 36.035156 16.699219 37.589844 20.109375 37.960938 C 23.578125 38.332031 27.039062 37.453125 30.117188 35.957031 C 33.792969 34.179688 36.796875 31.496094 39.222656 28.269531 C 39.550781 27.847656 39.640625 27.019531 38.992188 26.765625 C 34.796875 25.105469 30.582031 23.492188 26.398438 21.78125 C 24.308594 20.933594 22.21875 20.054688 20.144531 19.175781 C 19.101562 18.734375 18.046875 18.320312 17 17.882812 C 15.925781 17.445312 14.835938 17.230469 13.726562 16.902344 C 12.792969 16.632812 12.328125 17.957031 13.125 18.425781 C 14.109375 18.996094 15.015625 19.640625 16.058594 20.089844 C 17.097656 20.539062 18.136719 20.988281 19.175781 21.410156 C 21.292969 22.257812 23.414062 23.09375 25.542969 23.914062 C 29.761719 25.527344 33.988281 27.117188 38.289062 28.511719 C 38.082031 28.042969 37.863281 27.574219 37.660156 27.105469 C 34.316406 32.195312 27.945312 36.015625 21.71875 35.976562 C 15.746094 35.941406 10.347656 31.484375 9.128906 25.695312 C 8.445312 22.484375 9.144531 19.078125 10.8125 16.304688 C 11.359375 15.429688 10.03125 14.757812 9.46875 15.542969 Z M 9.46875 15.542969 " fill-opacity="1" fill-rule="nonzero"/></g></g></g></g></g></g></g><g clip-path="url(#c10ecad80e)"><g mask="url(#3242a2ed76)"><g transform="matrix(1, 0, 0, 1, 355, 132)"><g clip-path="url(#2d283836e0)"><g clip-path="url(#e056cb7f18)"><g clip-path="url(#9249b055b7)"><g clip-path="url(#9861dc7497)"><g clip-path="url(#0ef78b3a2d)"><path fill="#000000" d="M 10.476562 38.941406 C 12.097656 39.851562 13.878906 40.171875 15.738281 40.324219 C 17.597656 40.480469 19.476562 40.417969 21.324219 40.15625 C 24.972656 39.644531 28.558594 38.28125 31.640625 36.257812 C 37.703125 32.261719 41.371094 25.5625 41.65625 18.363281 C 41.804688 14.664062 41.085938 10.148438 38.507812 7.335938 C 37.949219 6.722656 36.90625 7.492188 37.171875 8.214844 C 37.703125 9.699219 38.371094 11.09375 38.789062 12.613281 C 39.226562 14.152344 39.429688 15.71875 39.449219 17.292969 C 39.492188 20.402344 38.785156 23.535156 37.4375 26.347656 C 34.542969 32.433594 28.632812 36.429688 22.101562 37.734375 C 20.207031 38.113281 18.296875 38.265625 16.367188 38.285156 C 14.457031 38.308594 12.554688 38.03125 10.636719 38.023438 C 10.140625 38.019531 10.082031 38.71875 10.476562 38.941406 Z M 10.476562 38.941406 " fill-opacity="1" fill-rule="nonzero"/></g></g></g></g><g clip-path="url(#75836bdbfc)"><g clip-path="url(#6fd168d74a)"><g clip-path="url(#bc28b6fe30)"><g clip-path="url(#cb3accf025)"><path fill="#000000" d="M 8.144531 25.210938 C 9.324219 26.917969 12.09375 26.707031 13.535156 25.410156 C 15.019531 24.0625 15.359375 21.316406 13.886719 19.851562 C 13.226562 19.195312 12.371094 20.140625 12.734375 20.855469 C 13.046875 21.460938 13.292969 21.980469 13.238281 22.703125 C 13.191406 23.328125 12.953125 23.949219 12.519531 24.402344 C 11.4375 25.523438 9.882812 25.253906 8.625 24.6875 C 8.300781 24.53125 7.933594 24.898438 8.144531 25.210938 Z M 8.144531 25.210938 " fill-opacity="1" fill-rule="nonzero"/></g></g></g></g><g clip-path="url(#860cffbddd)"><g clip-path="url(#691962b7b6)"><g clip-path="url(#1326b3e443)"><g clip-path="url(#a418c223ec)"><path fill="#000000" d="M 21.292969 13.617188 C 21.582031 14.542969 22.714844 14.953125 23.601562 15.015625 C 24.632812 15.09375 25.628906 14.769531 26.386719 14.046875 C 28.085938 12.46875 27.902344 9.601562 26.039062 8.265625 C 25.304688 7.734375 24.40625 8.695312 25.078125 9.34375 C 26.191406 10.414062 26.570312 11.964844 25.363281 13.164062 C 24.886719 13.632812 24.214844 13.863281 23.539062 13.808594 C 22.855469 13.761719 22.296875 13.367188 21.660156 13.183594 C 21.4375 13.117188 21.226562 13.398438 21.292969 13.617188 Z M 21.292969 13.617188 " fill-opacity="1" fill-rule="nonzero"/></g></g></g></g></g></g></g></g><g mask="url(#35e40673b2)"><g transform="matrix(1, 0, 0, 1, 348, 333)"><g clip-path="url(#19ddef6898)"><g clip-path="url(#4a10f897d6)"><g clip-path="url(#d747a9abd3)"><g clip-path="url(#fe41874e72)"><g clip-path="url(#c4d958cdae)"><path fill="#000000" d="M 36.484375 20.003906 C 34.886719 19.613281 33.121094 20.152344 31.632812 20.75 C 31.03125 20.988281 30.726562 21.824219 31.15625 22.34375 C 31.851562 23.195312 32.554688 24.035156 33.25 24.867188 C 33.867188 25.625 34.566406 26.75 35.496094 27.117188 C 36.054688 27.335938 36.578125 26.90625 36.558594 26.328125 C 36.511719 25.292969 35.558594 24.242188 34.945312 23.464844 C 34.226562 22.566406 33.46875 21.703125 32.65625 20.902344 C 32.570312 21.496094 32.476562 22.101562 32.378906 22.6875 C 33.734375 21.996094 35.21875 21.699219 36.605469 21.082031 C 37.160156 20.851562 37.019531 20.136719 36.484375 20.003906 Z M 36.484375 20.003906 " fill-opacity="1" fill-rule="nonzero"/></g></g></g></g><g clip-path="url(#67c04275c7)"><g clip-path="url(#c08eeb2518)"><g clip-path="url(#3fa5fb0a69)"><g clip-path="url(#d0487d020a)"><path fill="#000000" d="M 8.761719 10.558594 C 7.410156 13.285156 7.46875 16.402344 8.066406 19.304688 C 8.726562 22.535156 9.984375 25.636719 11.738281 28.414062 C 15.144531 33.796875 20.757812 37.742188 27.238281 38.136719 C 30.441406 38.332031 33.882812 37.699219 36.464844 35.675781 C 37.117188 35.167969 36.5625 34.109375 35.765625 34.410156 C 33.390625 35.300781 30.914062 35.855469 28.363281 35.765625 C 25.839844 35.664062 23.414062 35.011719 21.175781 33.851562 C 15.851562 31.101562 12.140625 25.613281 10.4375 19.984375 C 9.566406 17.023438 9.421875 13.929688 9.847656 10.863281 C 9.929688 10.203125 9.042969 9.988281 8.761719 10.558594 Z M 8.761719 10.558594 " fill-opacity="1" fill-rule="nonzero"/></g></g></g></g><g clip-path="url(#3370cc29a8)"><g clip-path="url(#0e81c66a66)"><g clip-path="url(#9213d22e8d)"><g clip-path="url(#cf69226284)"><path fill="#000000" d="M 24.796875 8.730469 C 22.992188 9.269531 21.207031 10.644531 20.21875 12.257812 C 19.808594 12.941406 20.558594 14.019531 21.296875 13.371094 C 22.015625 12.753906 22.664062 12.058594 23.347656 11.402344 C 24.023438 10.753906 24.710938 10.144531 25.339844 9.464844 C 25.691406 9.097656 25.203125 8.609375 24.796875 8.730469 Z M 24.796875 8.730469 " fill-opacity="1" fill-rule="nonzero"/></g></g></g></g></g></g></g><g clip-path="url(#73d86f8053)"><g mask="url(#a1516ecf6b)"><g transform="matrix(1, 0, 0, 1, -0.000000000000000056, 346)"><g clip-path="url(#53f77c45a1)"><g clip-path="url(#824214ffbf)"><g clip-path="url(#8d48f49be4)"><g clip-path="url(#51e83cd8aa)"><g clip-path="url(#85017c93db)"><path fill="#000000" d="M 39.964844 21.84375 C 39.894531 19.167969 39.132812 17.804688 38.148438 15.488281 C 36.945312 12.664062 36.238281 11.601562 33.609375 9.867188 C 33.277344 9.644531 32.96875 9.402344 32.644531 9.21875 C 32.316406 9.03125 31.976562 8.914062 31.578125 8.890625 C 29.257812 7.511719 25.96875 7.308594 23.382812 7.578125 C 15.511719 8.40625 8.5 13.039062 6.703125 21.117188 C 5.277344 27.542969 9.492188 33.808594 14.824219 36.984375 C 20.550781 40.398438 28.359375 40.941406 33.628906 36.429688 C 35.699219 34.660156 36.949219 32.210938 38.015625 29.773438 C 39.136719 27.230469 40.046875 24.671875 39.964844 21.84375 Z M 37.113281 29.371094 C 36.09375 31.679688 34.941406 34 32.988281 35.675781 C 28.042969 39.910156 20.714844 39.339844 15.339844 36.128906 C 10.347656 33.152344 6.34375 27.335938 7.675781 21.328125 C 9.375 13.691406 16.042969 9.34375 23.492188 8.570312 C 25.835938 8.328125 28.8125 8.460938 30.949219 9.675781 C 31.042969 9.816406 31.210938 9.902344 31.402344 9.890625 C 31.765625 9.863281 32.050781 10.007812 32.332031 10.191406 C 32.578125 10.34375 32.8125 10.527344 33.070312 10.703125 C 35.488281 12.289062 36.128906 13.28125 37.234375 15.882812 C 38.167969 18.074219 38.910156 19.351562 38.972656 21.871094 C 39.042969 24.546875 38.171875 26.960938 37.113281 29.371094 Z M 24.1875 14.644531 C 24.402344 14.558594 24.539062 14.332031 24.484375 14.089844 C 24.425781 13.820312 24.171875 13.644531 23.898438 13.703125 C 23.699219 13.742188 23.527344 13.859375 23.40625 14.027344 C 23.308594 14.15625 23.242188 14.324219 23.175781 14.445312 C 22.375 16 21.671875 17.625 20.953125 19.222656 C 20.359375 20.554688 19.386719 21.835938 19.109375 23.300781 C 19.054688 23.566406 19.234375 23.824219 19.503906 23.878906 C 19.773438 23.929688 20.03125 23.75 20.082031 23.492188 C 20.34375 22.113281 21.296875 20.898438 21.863281 19.632812 C 22.566406 18.050781 23.261719 16.449219 24.054688 14.910156 Z M 29.972656 15.675781 C 29.316406 16.484375 29.03125 17.90625 28.679688 18.878906 C 27.773438 21.347656 26.808594 23.875 25.824219 26.304688 C 25.722656 26.554688 25.839844 26.847656 26.097656 26.953125 C 26.347656 27.054688 26.644531 26.9375 26.746094 26.679688 C 27.738281 24.238281 28.707031 21.703125 29.617188 19.222656 C 29.9375 18.34375 30.148438 17.039062 30.75 16.308594 C 30.921875 16.097656 30.890625 15.785156 30.675781 15.609375 C 30.457031 15.433594 30.144531 15.464844 29.972656 15.675781 Z M 13.402344 22.933594 C 13.089844 23.421875 13.070312 24.140625 13.285156 24.960938 C 13.714844 26.539062 15 28.53125 15.527344 29.28125 C 18.378906 33.347656 24.019531 34.664062 28.5 32.78125 C 29.386719 32.410156 30.523438 32.003906 31.207031 31.296875 C 31.394531 31.097656 31.386719 30.789062 31.191406 30.59375 C 30.992188 30.410156 30.679688 30.414062 30.488281 30.609375 C 29.890625 31.226562 28.878906 31.546875 28.109375 31.875 C 24.054688 33.578125 18.925781 32.410156 16.347656 28.714844 C 15.917969 28.113281 14.972656 26.664062 14.460938 25.332031 C 14.304688 24.914062 14.183594 24.515625 14.152344 24.160156 C 14.117188 23.890625 14.136719 23.652344 14.246094 23.46875 C 14.394531 23.238281 14.332031 22.929688 14.097656 22.785156 C 13.855469 22.640625 13.546875 22.710938 13.402344 22.933594 Z M 31.035156 32 C 31.054688 32.167969 31.167969 32.328125 31.34375 32.398438 C 31.601562 32.503906 31.886719 32.382812 31.992188 32.125 C 32 32.101562 32.054688 31.964844 31.996094 31.75 C 31.894531 31.363281 31.324219 29.570312 31.242188 29.402344 C 31.121094 29.160156 30.824219 29.058594 30.574219 29.175781 C 30.332031 29.296875 30.230469 29.589844 30.347656 29.839844 C 30.425781 29.996094 30.945312 31.636719 31.039062 31.992188 Z M 12.039062 22.878906 C 11.773438 22.945312 11.609375 23.214844 11.679688 23.480469 C 11.75 23.746094 12.019531 23.910156 12.285156 23.839844 L 12.316406 23.828125 C 12.355469 23.816406 12.433594 23.796875 12.480469 23.796875 C 12.558594 23.792969 12.640625 23.765625 12.699219 23.726562 C 12.75 23.714844 12.789062 23.703125 12.828125 23.691406 C 13.703125 23.433594 14.507812 23.214844 15.355469 22.863281 C 15.613281 22.757812 15.730469 22.46875 15.621094 22.214844 C 15.511719 21.960938 15.222656 21.84375 14.96875 21.949219 C 14.160156 22.289062 13.382812 22.503906 12.542969 22.742188 C 12.371094 22.796875 12.039062 22.878906 12.039062 22.878906 Z M 12.039062 22.878906 " fill-opacity="1" fill-rule="nonzero"/></g></g></g></g></g></g></g></g><g mask="url(#e06d309c20)"><g transform="matrix(1, 0, 0, 1, 204, 0)"><g clip-path="url(#9724d98809)"><g clip-path="url(#0508711030)"><path fill="#000000" d="M 8.582031 1.273438 C 8.429688 2.089844 8.527344 3.003906 8.539062 3.84375 C 8.546875 4.726562 8.582031 5.585938 8.65625 6.457031 C 8.734375 7.296875 10.164062 7.417969 10.339844 6.578125 C 10.546875 5.628906 10.644531 4.75 10.625 3.789062 C 10.589844 2.851562 10.558594 1.839844 10.199219 0.96875 C 10.054688 0.632812 9.617188 0.445312 9.28125 0.511719 C 8.875 0.585938 8.65625 0.902344 8.582031 1.273438 Z M 8.582031 1.273438 " fill-opacity="1" fill-rule="nonzero"/></g><g clip-path="url(#75ba58bde7)"><path fill="#000000" d="M 20.453125 0.992188 C 20.125 1.644531 20.253906 2.613281 20.289062 3.332031 C 20.320312 4.171875 20.417969 4.945312 20.636719 5.75 C 20.933594 6.851562 22.332031 6.6875 22.546875 5.640625 C 22.734375 4.769531 22.746094 3.976562 22.648438 3.09375 C 22.558594 2.296875 22.484375 1.351562 21.96875 0.695312 C 21.511719 0.117188 20.726562 0.433594 20.453125 0.992188 Z M 20.453125 0.992188 " fill-opacity="1" fill-rule="nonzero"/></g><g clip-path="url(#7a91ad9c3f)"><path fill="#000000" d="M 0.347656 14.8125 C 0.3125 16.457031 1.144531 18.003906 2.0625 19.324219 C 2.96875 20.617188 4.125 21.75 5.425781 22.65625 C 7.902344 24.375 10.941406 25.355469 13.953125 25.488281 C 17.011719 25.617188 20.144531 24.988281 22.832031 23.503906 C 25.507812 22.035156 27.769531 19.867188 29.417969 17.296875 C 30.324219 15.878906 31.054688 14.332031 31.570312 12.734375 C 31.84375 11.90625 32.058594 11.042969 32.203125 10.183594 C 32.332031 9.335938 32.507812 8.363281 32.234375 7.535156 C 31.972656 6.753906 31.011719 6.644531 30.640625 7.417969 C 30.347656 8.039062 30.3125 8.722656 30.171875 9.398438 C 30.027344 10.0625 29.875 10.726562 29.679688 11.382812 C 29.308594 12.632812 28.804688 13.855469 28.160156 14.988281 C 26.863281 17.285156 25.070312 19.34375 22.84375 20.804688 C 18.429688 23.679688 12.46875 24.070312 7.75 21.652344 C 6.375 20.945312 5.097656 19.996094 4.050781 18.875 C 2.859375 17.601562 2.183594 16.121094 1.363281 14.605469 C 1.121094 14.179688 0.359375 14.257812 0.347656 14.8125 Z M 0.347656 14.8125 " fill-opacity="1" fill-rule="nonzero"/></g></g></g></g><g mask="url(#0688f24eb8)"><g transform="matrix(1, 0, 0, 1, 267, 350)"><g clip-path="url(#2d82393e07)"><g clip-path="url(#e5834f3fac)"><g clip-path="url(#d18eda175f)"><g clip-path="url(#b7324d995a)"><g clip-path="url(#812c74762c)"><path fill="#000000" d="M 19.605469 4.199219 C 18.332031 5.609375 17.148438 7.128906 16.644531 8.988281 C 16.402344 9.871094 17.582031 10.445312 18.101562 9.660156 C 19.078125 8.203125 19.753906 6.582031 20.621094 5.054688 C 20.992188 4.4375 20.148438 3.601562 19.605469 4.199219 Z M 19.605469 4.199219 " fill-opacity="1" fill-rule="nonzero"/></g></g></g></g><g clip-path="url(#60acc89dcb)"><g clip-path="url(#baf4e5ce87)"><g clip-path="url(#c23bc21178)"><g clip-path="url(#f5b5c44838)"><path fill="#000000" d="M 30.992188 10.4375 C 30.632812 10.578125 30.398438 10.972656 30.164062 11.269531 C 29.875 11.621094 29.644531 12.007812 29.417969 12.40625 C 29.019531 13.128906 28.664062 13.882812 28.371094 14.652344 C 28.070312 15.46875 29.382812 16.113281 29.777344 15.308594 C 30.125 14.617188 30.515625 13.933594 30.902344 13.261719 C 31.113281 12.894531 31.3125 12.519531 31.496094 12.132812 C 31.660156 11.777344 31.910156 11.425781 31.929688 11.027344 C 31.949219 10.507812 31.429688 10.265625 30.992188 10.4375 Z M 30.992188 10.4375 " fill-opacity="1" fill-rule="nonzero"/></g></g></g></g><g clip-path="url(#86a9fda57d)"><g clip-path="url(#941c8da592)"><g clip-path="url(#998ee18676)"><g clip-path="url(#2cb20e8f0b)"><path fill="#000000" d="M 8.394531 12.519531 C 4.863281 16.875 5.035156 23.484375 8.648438 27.675781 C 10.496094 29.820312 13.0625 31.261719 15.851562 31.71875 C 18.691406 32.179688 21.597656 31.597656 24.222656 30.480469 C 27.355469 29.152344 29.992188 27.039062 32.179688 24.449219 C 32.472656 24.113281 32.597656 23.421875 32.074219 23.179688 C 28.714844 21.613281 25.335938 20.082031 21.984375 18.46875 C 20.3125 17.667969 18.640625 16.847656 16.984375 16.019531 C 16.148438 15.605469 15.300781 15.214844 14.46875 14.800781 C 13.605469 14.390625 12.722656 14.164062 11.824219 13.84375 C 11.070312 13.574219 10.609375 14.664062 11.242188 15.089844 C 12.019531 15.605469 12.730469 16.183594 13.558594 16.605469 C 14.390625 17.027344 15.222656 17.449219 16.050781 17.847656 C 17.75 18.644531 19.449219 19.433594 21.15625 20.214844 C 24.539062 21.746094 27.929688 23.257812 31.394531 24.609375 C 31.253906 24.210938 31.101562 23.808594 30.957031 23.410156 C 27.90625 27.515625 22.429688 30.433594 17.296875 30.128906 C 12.375 29.839844 8.1875 25.882812 7.519531 20.992188 C 7.144531 18.277344 7.921875 15.460938 9.457031 13.214844 C 9.960938 12.507812 8.902344 11.890625 8.394531 12.519531 Z M 8.394531 12.519531 " fill-opacity="1" fill-rule="nonzero"/></g></g></g></g></g></g></g></svg>