<svg xmlns="http://www.w3.org/2000/svg" xmlns:xlink="http://www.w3.org/1999/xlink" width="500" zoomAndPan="magnify" viewBox="0 0 425.25 263.99999" height="352" preserveAspectRatio="xMidYMid meet" version="1.0"><defs><g/></defs><g fill="#000000" fill-opacity="1"><g transform="translate(147.933587, 177.642158)"><g><path d="M 23.359375 -14.921875 C 24.265625 -15.085938 24.71875 -15.546875 24.71875 -16.296875 C 24.71875 -17.046875 24.476562 -17.890625 24 -18.828125 C 23.519531 -19.773438 22.816406 -20.671875 21.890625 -21.515625 C 19.453125 -23.703125 16.160156 -24.796875 12.015625 -24.796875 C 9.960938 -24.796875 8.046875 -24.457031 6.265625 -23.78125 C 4.378906 -24.726562 2.875 -26.238281 1.75 -28.3125 C 0.632812 -30.394531 0.078125 -32.640625 0.078125 -35.046875 C 0.078125 -41.335938 2.703125 -46.1875 7.953125 -49.59375 C 12.460938 -52.519531 18.023438 -53.984375 24.640625 -53.984375 C 29.554688 -53.984375 33.691406 -53.457031 37.046875 -52.40625 C 40.410156 -51.351562 43.160156 -50.007812 45.296875 -48.375 C 45.921875 -46.570312 46.234375 -44.695312 46.234375 -42.75 C 46.234375 -40.8125 45.972656 -39.050781 45.453125 -37.46875 C 44.941406 -35.882812 44.191406 -34.613281 43.203125 -33.65625 C 42.273438 -34.34375 40.59375 -35.039062 38.15625 -35.75 C 35.726562 -36.457031 33.515625 -36.8125 31.515625 -36.8125 C 29.523438 -36.8125 28.191406 -36.6875 27.515625 -36.4375 C 26.847656 -36.195312 26.515625 -35.816406 26.515625 -35.296875 C 26.515625 -35.046875 26.554688 -34.8125 26.640625 -34.59375 C 27.597656 -34.84375 28.828125 -34.96875 30.328125 -34.96875 C 35.660156 -34.96875 40.007812 -33.710938 43.375 -31.203125 C 47.332031 -28.191406 49.3125 -23.679688 49.3125 -17.671875 C 49.3125 -12.367188 47.164062 -7.96875 42.875 -4.46875 C 38.226562 -0.726562 31.984375 1.140625 24.140625 1.140625 C 19.828125 1.140625 16.082031 0.816406 12.90625 0.171875 C 9.738281 -0.460938 6.648438 -1.585938 3.640625 -3.203125 C 1.597656 -6.179688 0.578125 -9.207031 0.578125 -12.28125 C 0.578125 -15.351562 1.628906 -17.898438 3.734375 -19.921875 C 5.835938 -21.941406 8.425781 -22.953125 11.5 -22.953125 C 14.570312 -22.953125 17.082031 -22.320312 19.03125 -21.0625 C 20.988281 -19.8125 22.429688 -17.765625 23.359375 -14.921875 Z M 23.359375 -14.921875 "/></g></g><g transform="translate(196.098834, 177.642158)"><g><path d="M 51.359375 -43.453125 L 51.359375 -2.703125 C 48.296875 -0.410156 44.375 0.734375 39.59375 0.734375 C 35.90625 0.734375 32.984375 -0.015625 30.828125 -1.515625 C 28.554688 -3.046875 27.421875 -5.257812 27.421875 -8.15625 L 27.421875 -16.28125 L 30.328125 -16.28125 C 31.453125 -16.28125 32.15625 -16.421875 32.4375 -16.703125 C 32.726562 -16.992188 32.875 -17.46875 32.875 -18.125 L 20 -18.125 C 20 -17.46875 20.125 -16.992188 20.375 -16.703125 C 20.625 -16.421875 21.210938 -16.28125 22.140625 -16.28125 L 25.25 -16.28125 L 25.25 -2.703125 C 23.144531 -1.335938 21.148438 -0.425781 19.265625 0.03125 C 17.378906 0.5 15.453125 0.734375 13.484375 0.734375 C 9.796875 0.734375 6.875 -0.015625 4.71875 -1.515625 C 2.445312 -3.046875 1.3125 -5.257812 1.3125 -8.15625 L 1.3125 -48.953125 C 2.726562 -50.453125 4.484375 -51.601562 6.578125 -52.40625 C 8.671875 -53.21875 10.851562 -53.625 13.125 -53.625 C 16.425781 -53.625 19.222656 -52.800781 21.515625 -51.15625 C 24.003906 -49.300781 25.25 -46.734375 25.25 -43.453125 L 25.25 -36.15625 L 30.453125 -36.15625 C 30.453125 -36.863281 30.320312 -37.347656 30.0625 -37.609375 C 29.800781 -37.867188 29.382812 -38 28.8125 -38 L 27.421875 -38 L 27.421875 -48.953125 C 28.847656 -50.453125 30.601562 -51.601562 32.6875 -52.40625 C 34.78125 -53.21875 36.960938 -53.625 39.234375 -53.625 C 42.535156 -53.625 45.335938 -52.800781 47.640625 -51.15625 C 50.117188 -49.300781 51.359375 -46.734375 51.359375 -43.453125 Z M 51.359375 -43.453125 "/></g></g><g transform="translate(248.773167, 177.642158)"><g><path d="M 29.46875 -28.28125 C 29.46875 -31.019531 29.34375 -32.898438 29.09375 -33.921875 C 28.851562 -34.941406 28.40625 -35.453125 27.75 -35.453125 C 27.34375 -35.453125 26.972656 -35.316406 26.640625 -35.046875 C 26.703125 -34.554688 26.785156 -33.898438 26.890625 -33.078125 C 27.003906 -32.253906 27.0625 -30.503906 27.0625 -27.828125 L 27.0625 -25.171875 C 27.0625 -23.304688 27.019531 -21.953125 26.9375 -21.109375 C 26.851562 -20.265625 26.785156 -19.539062 26.734375 -18.9375 C 26.703125 -18.613281 26.671875 -18.285156 26.640625 -17.953125 C 26.972656 -17.679688 27.34375 -17.546875 27.75 -17.546875 C 28.40625 -17.546875 28.851562 -18.054688 29.09375 -19.078125 C 29.34375 -20.109375 29.46875 -21.988281 29.46875 -24.71875 Z M 27.828125 1.3125 C 22.960938 1.3125 18.5 0.304688 14.4375 -1.703125 C 10.382812 -3.710938 7.113281 -6.785156 4.625 -10.921875 C 2.144531 -15.066406 0.90625 -20.238281 0.90625 -26.4375 C 0.90625 -35.425781 3.609375 -42.453125 9.015625 -47.515625 C 13.828125 -51.960938 20.019531 -54.1875 27.59375 -54.1875 C 35.8125 -54.1875 42.316406 -51.640625 47.109375 -46.546875 C 51.910156 -41.453125 54.3125 -34.75 54.3125 -26.4375 C 54.3125 -17.195312 51.742188 -10.144531 46.609375 -5.28125 C 41.929688 -0.882812 35.671875 1.3125 27.828125 1.3125 Z M 27.828125 1.3125 "/></g></g><g transform="translate(303.988985, 177.642158)"><g><path d="M 24.234375 -27.5 C 24.335938 -27.425781 24.648438 -27.390625 25.171875 -27.390625 C 25.691406 -27.390625 26.085938 -27.59375 26.359375 -28 C 26.628906 -28.40625 26.765625 -29.070312 26.765625 -30 L 26.765625 -33.125 C 26.765625 -34.101562 26.648438 -34.804688 26.421875 -35.234375 C 26.191406 -35.660156 25.804688 -35.875 25.265625 -35.875 C 24.734375 -35.875 24.375 -35.816406 24.1875 -35.703125 C 24.21875 -35.566406 24.234375 -35.332031 24.234375 -35 Z M 25.25 -8.984375 L 25.25 -2.703125 C 24.050781 -1.691406 22.359375 -0.863281 20.171875 -0.21875 C 17.984375 0.414062 15.703125 0.734375 13.328125 0.734375 C 9.929688 0.734375 7.15625 0.078125 5 -1.234375 C 2.539062 -2.734375 1.3125 -4.90625 1.3125 -7.75 L 1.3125 -46.6875 C 1.3125 -47.5625 1.90625 -48.4375 3.09375 -49.3125 C 4.28125 -50.1875 5.925781 -50.976562 8.03125 -51.6875 C 12.539062 -53.21875 17.691406 -53.984375 23.484375 -53.984375 C 31.492188 -53.984375 37.875 -51.988281 42.625 -48 C 47.382812 -44.007812 49.765625 -38.644531 49.765625 -31.90625 C 49.765625 -25.175781 47.617188 -19.9375 43.328125 -16.1875 C 39.203125 -12.632812 33.476562 -10.859375 26.15625 -10.859375 C 24.488281 -10.859375 22.703125 -11.054688 20.796875 -11.453125 C 18.898438 -11.847656 17.625 -12.195312 16.96875 -12.5 C 16.75 -12.28125 16.640625 -11.976562 16.640625 -11.59375 C 16.640625 -10.207031 19.507812 -9.335938 25.25 -8.984375 Z M 25.25 -8.984375 "/></g></g></g><path stroke-linecap="butt" transform="matrix(0.699592, 0, 0, 0.699592, 135.429082, 97.19072)" fill="none" stroke-linejoin="miter" d="M 55.395904 90.673294 C 56.685719 90.438783 57.333418 89.7855 57.333418 88.707862 C 57.333418 87.635808 56.992817 86.424164 56.306033 85.078513 C 55.624832 83.727278 54.619781 82.448631 53.290881 81.236986 C 49.812289 78.115746 45.105303 76.552334 39.169921 76.552334 C 36.238523 76.552334 33.502552 77.038108 30.967591 78.015241 C 28.270705 76.647255 26.121014 74.480813 24.518517 71.51033 C 22.916019 68.545431 22.117562 65.340436 22.117562 61.90093 C 22.117562 52.916894 25.869751 45.982045 33.368545 41.101967 C 39.812036 36.919839 47.763103 34.831568 57.216162 34.831568 C 64.245932 34.831568 70.164564 35.585356 74.966472 37.087348 C 79.773964 38.58934 83.699245 40.515687 86.747898 42.860805 C 87.64686 45.434851 88.093549 48.114986 88.093549 50.884459 C 88.093549 53.659515 87.725031 56.177725 86.98241 58.444673 C 86.239789 60.71162 85.162152 62.526295 83.755081 63.89428 C 82.431764 62.917148 80.025226 61.923264 76.552218 60.907047 C 73.073627 59.890829 69.907717 59.38272 67.060074 59.38272 C 64.206847 59.38272 62.302835 59.555812 61.348037 59.90758 C 60.387655 60.259347 59.907464 60.806541 59.907464 61.549162 C 59.907464 61.90093 59.968884 62.235947 60.08614 62.548629 C 61.454125 62.196861 63.212964 62.018186 65.357072 62.018186 C 72.978705 62.018186 79.187684 63.81611 83.989593 67.411957 C 89.656961 71.705757 92.487854 78.154831 92.487854 86.748014 C 92.487854 94.324978 89.422449 100.612128 83.291641 105.615046 C 76.64714 110.964149 67.724524 113.6387 56.512627 113.6387 C 50.337149 113.6387 44.988047 113.180844 40.459735 112.265131 C 35.925841 111.343835 31.509202 109.735754 27.215402 107.429721 C 24.284005 103.169423 22.821098 98.847706 22.821098 94.453401 C 22.821098 90.059097 24.32309 86.412997 27.332658 83.520684 C 30.342226 80.633956 34.038579 79.1878 38.432883 79.1878 C 42.832772 79.1878 46.423036 80.086762 49.214843 81.884685 C 52.012233 83.677026 54.072587 86.608423 55.395904 90.673294 Z M 164.265216 49.890575 L 164.265216 108.133256 C 159.893246 111.416422 154.287297 113.052421 147.447369 113.052421 C 142.176437 113.052421 137.99431 111.980367 134.912155 109.830675 C 131.668075 107.641898 130.048827 104.481573 130.048827 100.338531 L 130.048827 88.73578 L 134.20862 88.73578 C 135.811117 88.73578 136.816168 88.53477 137.223771 88.121583 C 137.636959 87.713979 137.837969 87.038362 137.837969 86.100314 L 119.43996 86.100314 C 119.43996 87.038362 119.618636 87.713979 119.970403 88.121583 C 120.322171 88.53477 121.159713 88.73578 122.488613 88.73578 L 126.938754 88.73578 L 126.938754 108.133256 C 123.934769 110.087521 121.081542 111.394087 118.384657 112.058537 C 115.693355 112.722987 112.935049 113.052421 110.126491 113.052421 C 104.849976 113.052421 100.673432 111.980367 97.585693 109.830675 C 94.341614 107.641898 92.722365 104.481573 92.722365 100.338531 L 92.722365 42.040014 C 94.754801 39.890322 97.261844 38.237572 100.254661 37.087348 C 103.241895 35.937123 106.357552 35.362011 109.596048 35.362011 C 114.325369 35.362011 118.328821 36.528986 121.611986 38.874104 C 125.163165 41.531905 126.938754 45.200339 126.938754 49.890575 L 126.938754 60.320767 L 134.381712 60.320767 C 134.381712 59.304549 134.197453 58.612181 133.828934 58.238079 C 133.454832 57.86956 132.857385 57.685301 132.036594 57.685301 L 130.048827 57.685301 L 130.048827 42.040014 C 132.075679 39.890322 134.588306 38.237572 137.575539 37.087348 C 140.562773 35.937123 143.67843 35.362011 146.92251 35.362011 C 151.646247 35.362011 155.649699 36.528986 158.932864 38.874104 C 162.489626 41.531905 164.265216 45.200339 164.265216 49.890575 Z M 208.26968 71.57175 C 208.26968 67.66322 208.091004 64.977501 207.74482 63.514594 C 207.393053 62.046104 206.745353 61.31465 205.807306 61.31465 C 205.221027 61.31465 204.696167 61.510077 204.227143 61.90093 C 204.305314 62.604465 204.42257 63.542512 204.578911 64.715071 C 204.735252 65.88763 204.813423 68.38909 204.813423 72.213866 L 204.813423 76.02189 C 204.813423 78.679691 204.752003 80.611621 204.634747 81.823266 C 204.517491 83.03491 204.42257 84.067879 204.344399 84.927755 C 204.305314 85.396779 204.266229 85.865802 204.227143 86.334826 C 204.696167 86.725679 205.221027 86.921106 205.807306 86.921106 C 206.745353 86.921106 207.393053 86.189652 207.74482 84.726745 C 208.091004 83.258255 208.26968 80.572536 208.26968 76.66959 Z M 205.924562 113.873212 C 198.972962 113.873212 192.596475 112.438223 186.795099 109.568245 C 180.993724 106.698267 176.314655 102.303963 172.763477 96.385332 C 169.206714 90.466701 167.431125 83.073995 167.431125 74.207216 C 167.431125 61.353736 171.294986 51.314397 179.033875 44.0892 C 185.907305 37.72388 194.75175 34.54122 205.572794 34.54122 C 217.331886 34.54122 226.639771 38.181736 233.496449 45.468353 C 240.347544 52.749386 243.775883 62.330868 243.775883 74.207216 C 243.775883 87.412464 240.107449 97.490887 232.759412 104.442487 C 226.08141 110.729637 217.13646 113.873212 205.924562 113.873212 Z M 279.695274 72.682889 C 279.851615 72.800145 280.298305 72.861565 281.040925 72.861565 C 281.783546 72.861565 282.353075 72.565633 282.743928 71.979354 C 283.134781 71.393074 283.330207 70.438276 283.330207 69.109376 L 283.330207 64.653652 C 283.330207 63.252165 283.162699 62.24153 282.827682 61.6385 C 282.498249 61.03547 281.951054 60.728371 281.191683 60.728371 C 280.426728 60.728371 279.907452 60.806541 279.639438 60.962883 C 279.678523 61.158309 279.695274 61.493326 279.695274 61.96235 Z M 281.158181 99.165972 L 281.158181 108.133256 C 279.444012 109.579412 277.020723 110.757555 273.893899 111.678851 C 270.767075 112.594564 267.506244 113.052421 264.111407 113.052421 C 259.264829 113.052421 255.300463 112.119957 252.212725 110.243863 C 248.700631 108.094171 246.941793 104.989682 246.941793 100.92481 L 246.941793 45.261759 C 246.941793 44.01103 247.790502 42.7603 249.487921 41.50957 C 251.190923 40.264424 253.541625 39.130951 256.551193 38.114733 C 262.994684 35.925956 270.359471 34.831568 278.639971 34.831568 C 290.08638 34.831568 299.204423 37.684795 306.005265 43.385665 C 312.800524 49.092119 316.200945 56.758421 316.200945 66.384572 C 316.200945 76.016307 313.13554 83.503934 306.999148 88.853036 C 301.102852 93.934125 292.917273 96.47467 282.447996 96.47467 C 280.063793 96.47467 277.517665 96.189905 274.804028 95.620377 C 272.090392 95.056432 270.258966 94.55949 269.326502 94.129552 C 269.01382 94.442234 268.857479 94.872172 268.857479 95.419367 C 268.857479 97.412717 272.955852 98.657863 281.158181 99.165972 Z M 281.158181 99.165972 " stroke="#cb4195" stroke-width="1.95" stroke-opacity="1" stroke-miterlimit="4"/><g fill="#ffffff" fill-opacity="1"><g transform="translate(171.096796, 202.779065)"><g><path d="M 23.359375 -14.921875 C 24.265625 -15.085938 24.71875 -15.546875 24.71875 -16.296875 C 24.71875 -17.046875 24.476562 -17.890625 24 -18.828125 C 23.519531 -19.773438 22.816406 -20.671875 21.890625 -21.515625 C 19.453125 -23.703125 16.160156 -24.796875 12.015625 -24.796875 C 9.960938 -24.796875 8.046875 -24.457031 6.265625 -23.78125 C 4.378906 -24.726562 2.875 -26.238281 1.75 -28.3125 C 0.632812 -30.394531 0.078125 -32.640625 0.078125 -35.046875 C 0.078125 -41.335938 2.703125 -46.1875 7.953125 -49.59375 C 12.460938 -52.519531 18.023438 -53.984375 24.640625 -53.984375 C 29.554688 -53.984375 33.691406 -53.457031 37.046875 -52.40625 C 40.410156 -51.351562 43.160156 -50.007812 45.296875 -48.375 C 45.921875 -46.570312 46.234375 -44.695312 46.234375 -42.75 C 46.234375 -40.8125 45.972656 -39.050781 45.453125 -37.46875 C 44.941406 -35.882812 44.191406 -34.613281 43.203125 -33.65625 C 42.273438 -34.34375 40.59375 -35.039062 38.15625 -35.75 C 35.726562 -36.457031 33.515625 -36.8125 31.515625 -36.8125 C 29.523438 -36.8125 28.191406 -36.6875 27.515625 -36.4375 C 26.847656 -36.195312 26.515625 -35.816406 26.515625 -35.296875 C 26.515625 -35.046875 26.554688 -34.8125 26.640625 -34.59375 C 27.597656 -34.84375 28.828125 -34.96875 30.328125 -34.96875 C 35.660156 -34.96875 40.007812 -33.710938 43.375 -31.203125 C 47.332031 -28.191406 49.3125 -23.679688 49.3125 -17.671875 C 49.3125 -12.367188 47.164062 -7.96875 42.875 -4.46875 C 38.226562 -0.726562 31.984375 1.140625 24.140625 1.140625 C 19.828125 1.140625 16.082031 0.816406 12.90625 0.171875 C 9.738281 -0.460938 6.648438 -1.585938 3.640625 -3.203125 C 1.597656 -6.179688 0.578125 -9.207031 0.578125 -12.28125 C 0.578125 -15.351562 1.628906 -17.898438 3.734375 -19.921875 C 5.835938 -21.941406 8.425781 -22.953125 11.5 -22.953125 C 14.570312 -22.953125 17.082031 -22.320312 19.03125 -21.0625 C 20.988281 -19.8125 22.429688 -17.765625 23.359375 -14.921875 Z M 23.359375 -14.921875 "/></g></g><g transform="translate(219.262042, 202.779065)"><g><path d="M 51.359375 -43.453125 L 51.359375 -2.703125 C 48.296875 -0.410156 44.375 0.734375 39.59375 0.734375 C 35.90625 0.734375 32.984375 -0.015625 30.828125 -1.515625 C 28.554688 -3.046875 27.421875 -5.257812 27.421875 -8.15625 L 27.421875 -16.28125 L 30.328125 -16.28125 C 31.453125 -16.28125 32.15625 -16.421875 32.4375 -16.703125 C 32.726562 -16.992188 32.875 -17.46875 32.875 -18.125 L 20 -18.125 C 20 -17.46875 20.125 -16.992188 20.375 -16.703125 C 20.625 -16.421875 21.210938 -16.28125 22.140625 -16.28125 L 25.25 -16.28125 L 25.25 -2.703125 C 23.144531 -1.335938 21.148438 -0.425781 19.265625 0.03125 C 17.378906 0.5 15.453125 0.734375 13.484375 0.734375 C 9.796875 0.734375 6.875 -0.015625 4.71875 -1.515625 C 2.445312 -3.046875 1.3125 -5.257812 1.3125 -8.15625 L 1.3125 -48.953125 C 2.726562 -50.453125 4.484375 -51.601562 6.578125 -52.40625 C 8.671875 -53.21875 10.851562 -53.625 13.125 -53.625 C 16.425781 -53.625 19.222656 -52.800781 21.515625 -51.15625 C 24.003906 -49.300781 25.25 -46.734375 25.25 -43.453125 L 25.25 -36.15625 L 30.453125 -36.15625 C 30.453125 -36.863281 30.320312 -37.347656 30.0625 -37.609375 C 29.800781 -37.867188 29.382812 -38 28.8125 -38 L 27.421875 -38 L 27.421875 -48.953125 C 28.847656 -50.453125 30.601562 -51.601562 32.6875 -52.40625 C 34.78125 -53.21875 36.960938 -53.625 39.234375 -53.625 C 42.535156 -53.625 45.335938 -52.800781 47.640625 -51.15625 C 50.117188 -49.300781 51.359375 -46.734375 51.359375 -43.453125 Z M 51.359375 -43.453125 "/></g></g><g transform="translate(271.936375, 202.779065)"><g><path d="M 29.46875 -28.28125 C 29.46875 -31.019531 29.34375 -32.898438 29.09375 -33.921875 C 28.851562 -34.941406 28.40625 -35.453125 27.75 -35.453125 C 27.34375 -35.453125 26.972656 -35.316406 26.640625 -35.046875 C 26.703125 -34.554688 26.785156 -33.898438 26.890625 -33.078125 C 27.003906 -32.253906 27.0625 -30.503906 27.0625 -27.828125 L 27.0625 -25.171875 C 27.0625 -23.304688 27.019531 -21.953125 26.9375 -21.109375 C 26.851562 -20.265625 26.785156 -19.539062 26.734375 -18.9375 C 26.703125 -18.613281 26.671875 -18.285156 26.640625 -17.953125 C 26.972656 -17.679688 27.34375 -17.546875 27.75 -17.546875 C 28.40625 -17.546875 28.851562 -18.054688 29.09375 -19.078125 C 29.34375 -20.109375 29.46875 -21.988281 29.46875 -24.71875 Z M 27.828125 1.3125 C 22.960938 1.3125 18.5 0.304688 14.4375 -1.703125 C 10.382812 -3.710938 7.113281 -6.785156 4.625 -10.921875 C 2.144531 -15.066406 0.90625 -20.238281 0.90625 -26.4375 C 0.90625 -35.425781 3.609375 -42.453125 9.015625 -47.515625 C 13.828125 -51.960938 20.019531 -54.1875 27.59375 -54.1875 C 35.8125 -54.1875 42.316406 -51.640625 47.109375 -46.546875 C 51.910156 -41.453125 54.3125 -34.75 54.3125 -26.4375 C 54.3125 -17.195312 51.742188 -10.144531 46.609375 -5.28125 C 41.929688 -0.882812 35.671875 1.3125 27.828125 1.3125 Z M 27.828125 1.3125 "/></g></g><g transform="translate(327.152193, 202.779065)"><g><path d="M 24.234375 -27.5 C 24.335938 -27.425781 24.648438 -27.390625 25.171875 -27.390625 C 25.691406 -27.390625 26.085938 -27.59375 26.359375 -28 C 26.628906 -28.40625 26.765625 -29.070312 26.765625 -30 L 26.765625 -33.125 C 26.765625 -34.101562 26.648438 -34.804688 26.421875 -35.234375 C 26.191406 -35.660156 25.804688 -35.875 25.265625 -35.875 C 24.734375 -35.875 24.375 -35.816406 24.1875 -35.703125 C 24.21875 -35.566406 24.234375 -35.332031 24.234375 -35 Z M 25.25 -8.984375 L 25.25 -2.703125 C 24.050781 -1.691406 22.359375 -0.863281 20.171875 -0.21875 C 17.984375 0.414062 15.703125 0.734375 13.328125 0.734375 C 9.929688 0.734375 7.15625 0.078125 5 -1.234375 C 2.539062 -2.734375 1.3125 -4.90625 1.3125 -7.75 L 1.3125 -46.6875 C 1.3125 -47.5625 1.90625 -48.4375 3.09375 -49.3125 C 4.28125 -50.1875 5.925781 -50.976562 8.03125 -51.6875 C 12.539062 -53.21875 17.691406 -53.984375 23.484375 -53.984375 C 31.492188 -53.984375 37.875 -51.988281 42.625 -48 C 47.382812 -44.007812 49.765625 -38.644531 49.765625 -31.90625 C 49.765625 -25.175781 47.617188 -19.9375 43.328125 -16.1875 C 39.203125 -12.632812 33.476562 -10.859375 26.15625 -10.859375 C 24.488281 -10.859375 22.703125 -11.054688 20.796875 -11.453125 C 18.898438 -11.847656 17.625 -12.195312 16.96875 -12.5 C 16.75 -12.28125 16.640625 -11.976562 16.640625 -11.59375 C 16.640625 -10.207031 19.507812 -9.335938 25.25 -8.984375 Z M 25.25 -8.984375 "/></g></g></g><path stroke-linecap="butt" transform="matrix(0.699592, 0, 0, 0.699592, 158.59229, 122.327634)" fill="none" stroke-linejoin="miter" d="M 55.397125 90.673015 C 56.686939 90.438503 57.334639 89.78522 57.334639 88.707582 C 57.334639 87.635528 56.988455 86.423884 56.307254 85.078233 C 55.620469 83.726998 54.615419 82.448351 53.286518 81.236706 C 49.81351 78.115466 45.106523 76.552054 39.165558 76.552054 C 36.239744 76.552054 33.503773 77.037828 30.963228 78.014961 C 28.271926 76.646975 26.122235 74.480533 24.519737 71.51005 C 22.91724 68.545151 22.118783 65.340156 22.118783 61.90065 C 22.118783 52.916615 25.865388 45.981766 33.369766 41.101687 C 39.813257 36.91956 47.764324 34.831288 57.217383 34.831288 C 64.247153 34.831288 70.165784 35.585076 74.967693 37.087068 C 79.775185 38.58906 83.700466 40.515407 86.743535 42.860525 C 87.642497 45.440155 88.09477 48.114706 88.09477 50.884179 C 88.09477 53.659235 87.720668 56.177445 86.978047 58.444393 C 86.24101 60.71134 85.163372 62.526015 83.756302 63.894 C 82.427401 62.916868 80.026447 61.922984 76.553439 60.906767 C 73.074847 59.890549 69.908938 59.38244 67.061295 59.38244 C 64.208068 59.38244 62.304055 59.561116 61.343674 59.912883 C 60.388876 60.259067 59.908685 60.806262 59.908685 61.548882 C 59.908685 61.90065 59.970105 62.235667 60.087361 62.548349 C 61.455346 62.196582 63.208601 62.017906 65.358293 62.017906 C 72.974342 62.017906 79.188905 63.81583 83.990813 67.411677 C 89.658182 71.705477 92.489074 78.154551 92.489074 86.747734 C 92.489074 94.324698 89.42367 100.611848 83.287278 105.614766 C 76.648361 110.963869 67.720161 113.63842 56.513847 113.63842 C 50.33837 113.63842 44.989267 113.180564 40.455373 112.264851 C 35.927061 111.343555 31.510423 109.735474 27.216623 107.429441 C 24.285226 103.169143 22.822319 98.847426 22.822319 94.453121 C 22.822319 90.058817 24.324311 86.412717 27.333879 83.525988 C 30.337864 80.633676 34.0398 79.18752 38.434104 79.18752 C 42.828409 79.18752 46.424256 80.086482 49.216064 81.884406 C 52.007871 83.682329 54.068224 86.608143 55.397125 90.673015 Z M 164.266436 49.890296 L 164.266436 108.132976 C 159.888883 111.416142 154.282934 113.052141 147.44859 113.052141 C 142.177658 113.052141 137.995531 111.980087 134.907792 109.830395 C 131.669296 107.647202 130.044464 104.481293 130.044464 100.338251 L 130.044464 88.7355 L 134.204257 88.7355 C 135.806754 88.7355 136.811805 88.53449 137.224992 88.121303 C 137.632596 87.713699 137.83919 87.038082 137.83919 86.100034 L 119.441181 86.100034 C 119.441181 87.038082 119.619856 87.713699 119.96604 88.121303 C 120.317808 88.53449 121.160934 88.7355 122.489834 88.7355 L 126.939975 88.7355 L 126.939975 108.132976 C 123.93599 110.087241 121.082763 111.393807 118.385878 112.058257 C 115.688992 112.722707 112.93627 113.052141 110.127712 113.052141 C 104.851197 113.052141 100.674653 111.980087 97.586914 109.830395 C 94.342834 107.647202 92.723586 104.481293 92.723586 100.338251 L 92.723586 42.039734 C 94.756022 39.890042 97.263065 38.242876 100.250298 37.087068 C 103.237532 35.936843 106.353189 35.361731 109.597269 35.361731 C 114.32659 35.361731 118.330041 36.528707 121.607623 38.873825 C 125.164385 41.531625 126.939975 45.205643 126.939975 49.890296 L 126.939975 60.320487 L 134.382933 60.320487 C 134.382933 59.304269 134.198673 58.611901 133.824571 58.237799 C 133.456053 57.86928 132.858606 57.685021 132.037815 57.685021 L 130.044464 57.685021 L 130.044464 42.039734 C 132.0769 39.890042 134.589526 38.242876 137.57676 37.087068 C 140.563994 35.936843 143.67965 35.361731 146.92373 35.361731 C 151.647468 35.361731 155.65092 36.528707 158.934085 38.873825 C 162.490847 41.531625 164.266436 45.205643 164.266436 49.890296 Z M 208.270901 71.57147 C 208.270901 67.66294 208.092225 64.977221 207.740457 63.514315 C 207.38869 62.051408 206.746574 61.31437 205.808527 61.31437 C 205.222247 61.31437 204.697388 61.509797 204.228364 61.90065 C 204.306535 62.604185 204.423791 63.542233 204.580132 64.714792 C 204.736473 65.887351 204.814644 68.38881 204.814644 72.213586 L 204.814644 76.021611 C 204.814644 78.679411 204.753224 80.611342 204.635968 81.822986 C 204.518712 83.03463 204.423791 84.067599 204.34562 84.927475 C 204.306535 85.396499 204.267449 85.865523 204.228364 86.334546 C 204.697388 86.725399 205.222247 86.920826 205.808527 86.920826 C 206.746574 86.920826 207.38869 86.189372 207.740457 84.726465 C 208.092225 83.257975 208.270901 80.572256 208.270901 76.66931 Z M 205.925783 113.872932 C 198.974183 113.872932 192.597695 112.437943 186.79632 109.567965 C 180.994945 106.697988 176.315876 102.303683 172.759114 96.385052 C 169.207935 90.466421 167.432346 83.073715 167.432346 74.206936 C 167.432346 61.353456 171.296207 51.314117 179.029513 44.08892 C 185.908525 37.7236 194.752971 34.54094 205.574015 34.54094 C 217.333107 34.54094 226.640992 38.181456 233.492087 45.468073 C 240.348765 52.75469 243.777104 62.330588 243.777104 74.206936 C 243.777104 87.412184 240.103086 97.490608 232.760633 104.442207 C 226.08263 110.729357 217.13768 113.872932 205.925783 113.872932 Z M 279.696495 72.682609 C 279.852836 72.799865 280.299525 72.861285 281.042146 72.861285 C 281.784767 72.861285 282.354295 72.565353 282.739565 71.979074 C 283.130418 71.392794 283.325844 70.437996 283.325844 69.109096 L 283.325844 64.658955 C 283.325844 63.251885 283.16392 62.246834 282.828903 61.63822 C 282.499469 61.03519 281.952275 60.728091 281.18732 60.728091 C 280.427949 60.728091 279.908672 60.806262 279.635075 60.962603 C 279.674161 61.158029 279.696495 61.493046 279.696495 61.96207 Z M 281.159402 99.165692 L 281.159402 108.132976 C 279.439649 109.579133 277.021944 110.757275 273.89512 111.678572 C 270.768296 112.594284 267.507465 113.052141 264.107044 113.052141 C 259.26605 113.052141 255.301684 112.119677 252.213945 110.243583 C 248.701852 108.093891 246.943014 104.989402 246.943014 100.92453 L 246.943014 45.261479 C 246.943014 44.01075 247.791723 42.76002 249.489142 41.509291 C 251.192144 40.264145 253.542846 39.130671 256.552414 38.114453 C 262.995905 35.925676 270.360692 34.831288 278.641192 34.831288 C 290.087601 34.831288 299.205643 37.684515 306.006486 43.385385 C 312.801744 49.091839 316.196582 56.758141 316.196582 66.384292 C 316.196582 76.016027 313.131178 83.503654 307.000369 88.852756 C 301.104072 93.933845 292.918494 96.47439 282.449217 96.47439 C 280.065014 96.47439 277.518886 96.189625 274.805249 95.62568 C 272.086029 95.056152 270.260187 94.55921 269.32214 94.129272 C 269.009457 94.441954 268.853116 94.871892 268.853116 95.419087 C 268.853116 97.412437 272.957073 98.657583 281.159402 99.165692 Z M 281.159402 99.165692 " stroke="#5271ff" stroke-width="1.95" stroke-opacity="1" stroke-miterlimit="4"/><g fill="#ffffff" fill-opacity="1"><g transform="translate(52.416874, 65.192937)"><g><path d="M 13.328125 -14.578125 C 13.328125 -13.566406 13.367188 -12.890625 13.453125 -12.546875 C 13.554688 -11.984375 13.847656 -11.703125 14.328125 -11.703125 L 14.5625 -11.703125 C 14.613281 -11.703125 14.691406 -11.71875 14.796875 -11.75 C 14.742188 -12.226562 14.71875 -12.910156 14.71875 -13.796875 C 14.71875 -14.691406 14.757812 -16.148438 14.84375 -18.171875 C 14.9375 -20.191406 14.984375 -23.140625 14.984375 -27.015625 C 16.703125 -28.203125 18.679688 -28.796875 20.921875 -28.796875 C 22.671875 -28.796875 24.113281 -28.457031 25.25 -27.78125 C 26.394531 -27.101562 27.1875 -26.132812 27.625 -24.875 C 27.625 -24.28125 27.5625 -23.066406 27.4375 -21.234375 C 27.070312 -16.847656 26.539062 -13.53125 25.84375 -11.28125 C 26.03125 -11.175781 26.234375 -11.125 26.453125 -11.125 C 26.671875 -11.125 26.84375 -11.195312 26.96875 -11.34375 C 27.476562 -11.914062 27.957031 -13.988281 28.40625 -17.5625 C 28.769531 -21.0625 29 -23.742188 29.09375 -25.609375 C 29.101562 -26.273438 29.128906 -26.78125 29.171875 -27.125 C 29.835938 -27.632812 30.722656 -28.039062 31.828125 -28.34375 C 32.929688 -28.644531 34.085938 -28.796875 35.296875 -28.796875 C 37.335938 -28.796875 39.003906 -28.234375 40.296875 -27.109375 C 41.585938 -25.984375 42.234375 -24.476562 42.234375 -22.59375 C 42.234375 -21.195312 41.953125 -19.285156 41.390625 -16.859375 C 40.835938 -14.429688 40.078125 -11.851562 39.109375 -9.125 C 38.148438 -6.394531 37.375 -4.488281 36.78125 -3.40625 C 35.945312 -1.90625 34.945312 -0.882812 33.78125 -0.34375 C 32.625 0.195312 30.832031 0.46875 28.40625 0.46875 C 27.675781 0.46875 26.722656 0.390625 25.546875 0.234375 C 24.378906 0.078125 23.578125 -0.0859375 23.140625 -0.265625 C 22.773438 -0.859375 22.34375 -1.726562 21.84375 -2.875 C 21.351562 -4.03125 21.003906 -4.921875 20.796875 -5.546875 C 20.128906 -5.441406 19.796875 -5.15625 19.796875 -4.6875 C 19.796875 -4.550781 19.90625 -4.160156 20.125 -3.515625 C 20.351562 -2.878906 20.523438 -2.445312 20.640625 -2.21875 C 20.578125 -2.113281 20.441406 -1.835938 20.234375 -1.390625 C 20.023438 -0.953125 19.800781 -0.566406 19.5625 -0.234375 C 18.21875 0.234375 16.273438 0.46875 13.734375 0.46875 C 11.191406 0.46875 9.023438 0.109375 7.234375 -0.609375 C 5.828125 -2.523438 4.613281 -4.816406 3.59375 -7.484375 C 2.570312 -10.160156 1.710938 -13.582031 1.015625 -17.75 C -0.128906 -19.25 -0.703125 -21.054688 -0.703125 -23.171875 C -0.703125 -25.285156 -0.179688 -27.117188 0.859375 -28.671875 L 7.203125 -28.671875 C 9.679688 -28.671875 11.410156 -28.085938 12.390625 -26.921875 C 13.140625 -26.015625 13.515625 -24.546875 13.515625 -22.515625 Z M 13.328125 -14.578125 "/></g></g></g><g fill="#ffffff" fill-opacity="1"><g transform="translate(93.385396, 65.192937)"><g><path d="M 16.265625 0.8125 C 11.421875 0.8125 7.601562 -0.53125 4.8125 -3.21875 C 1.957031 -5.925781 0.53125 -9.628906 0.53125 -14.328125 C 0.53125 -19.035156 2.003906 -22.769531 4.953125 -25.53125 C 7.671875 -28.09375 11.113281 -29.375 15.28125 -29.375 C 19.457031 -29.375 22.804688 -28.222656 25.328125 -25.921875 C 27.847656 -23.628906 29.109375 -20.8125 29.109375 -17.46875 C 29.109375 -14.476562 28.070312 -12.222656 26 -10.703125 C 24.082031 -9.273438 21.460938 -8.5625 18.140625 -8.5625 C 15.660156 -8.5625 13.566406 -9.078125 11.859375 -10.109375 C 11.722656 -10.003906 11.65625 -9.8125 11.65625 -9.53125 C 11.65625 -9.007812 12.34375 -8.53125 13.71875 -8.09375 C 15.09375 -7.625 16.65625 -7.390625 18.40625 -7.390625 C 20.164062 -7.390625 21.765625 -7.609375 23.203125 -8.046875 C 24.648438 -8.492188 25.8125 -9.023438 26.6875 -9.640625 C 27.101562 -9.265625 27.4375 -8.582031 27.6875 -7.59375 C 27.9375 -6.613281 28.0625 -5.71875 28.0625 -4.90625 C 28.0625 -4.09375 27.984375 -3.375 27.828125 -2.75 C 26.472656 -1.59375 25.078125 -0.769531 23.640625 -0.28125 C 21.617188 0.445312 19.160156 0.8125 16.265625 0.8125 Z M 15.921875 -16.921875 C 16.796875 -16.921875 17.234375 -17.25 17.234375 -17.90625 C 17.234375 -18.539062 16.769531 -18.859375 15.84375 -18.859375 C 14.914062 -18.859375 14.382812 -18.359375 14.25 -17.359375 C 14.738281 -17.066406 15.296875 -16.921875 15.921875 -16.921875 Z M 15.921875 -16.921875 "/></g></g></g><g fill="#ffffff" fill-opacity="1"><g transform="translate(123.018854, 65.192937)"><g><path d="M 14.296875 -31.609375 L 14.296875 -13.203125 C 14.296875 -10.597656 14.925781 -8.898438 16.1875 -8.109375 C 16.195312 -8.023438 16.203125 -7.863281 16.203125 -7.625 L 16.203125 -7.140625 C 16.203125 -4.648438 15.566406 -2.757812 14.296875 -1.46875 C 13.035156 -0.175781 11.242188 0.46875 8.921875 0.46875 C 6.609375 0.46875 4.769531 -0.175781 3.40625 -1.46875 C 1.78125 -3 0.96875 -5.320312 0.96875 -8.4375 L 0.96875 -35.640625 C 2.800781 -36.753906 4.898438 -37.3125 7.265625 -37.3125 C 9.628906 -37.3125 11.390625 -36.804688 12.546875 -35.796875 C 13.710938 -34.796875 14.296875 -33.398438 14.296875 -31.609375 Z M 14.296875 -31.609375 "/></g></g></g><g fill="#ffffff" fill-opacity="1"><g transform="translate(139.013596, 65.192937)"><g><path d="M 15.421875 0.8125 C 10.878906 0.8125 7.257812 -0.585938 4.5625 -3.390625 C 1.875 -6.191406 0.53125 -9.945312 0.53125 -14.65625 C 0.53125 -19.375 2.054688 -23.101562 5.109375 -25.84375 C 7.828125 -28.289062 11.226562 -29.515625 15.3125 -29.515625 C 18.945312 -29.515625 21.957031 -28.617188 24.34375 -26.828125 C 26.738281 -25.035156 27.9375 -22.601562 27.9375 -19.53125 C 27.9375 -17.40625 27.273438 -15.671875 25.953125 -14.328125 C 24.640625 -12.992188 22.910156 -12.328125 20.765625 -12.328125 C 19.015625 -12.328125 17.554688 -12.796875 16.390625 -13.734375 C 15.234375 -14.671875 14.550781 -15.890625 14.34375 -17.390625 C 13.582031 -17.390625 13.203125 -17.109375 13.203125 -16.546875 C 13.203125 -15.273438 13.828125 -14.109375 15.078125 -13.046875 C 16.523438 -11.785156 18.328125 -11.15625 20.484375 -11.15625 C 22.640625 -11.15625 24.425781 -11.617188 25.84375 -12.546875 C 26.71875 -11.203125 27.15625 -9.566406 27.15625 -7.640625 C 27.15625 -5.410156 26.191406 -3.5 24.265625 -1.90625 C 22.066406 -0.09375 19.117188 0.8125 15.421875 0.8125 Z M 15.421875 0.8125 "/></g></g></g><g fill="#ffffff" fill-opacity="1"><g transform="translate(167.128732, 65.192937)"><g><path d="M 14.609375 -14.578125 L 14.609375 -10 C 14.734375 -9.875 14.929688 -9.8125 15.203125 -9.8125 C 15.484375 -9.8125 15.6875 -9.90625 15.8125 -10.09375 C 15.9375 -10.289062 16 -10.628906 16 -11.109375 L 16 -14.84375 C 16 -16.519531 15.925781 -17.632812 15.78125 -18.1875 C 15.644531 -18.738281 15.382812 -19.015625 15 -19.015625 C 14.757812 -19.015625 14.550781 -18.925781 14.375 -18.75 C 14.53125 -17.019531 14.609375 -15.628906 14.609375 -14.578125 Z M 4.8125 -2.984375 C 1.957031 -5.742188 0.53125 -9.484375 0.53125 -14.203125 C 0.53125 -18.921875 1.875 -22.644531 4.5625 -25.375 C 7.257812 -28.113281 10.800781 -29.484375 15.1875 -29.484375 C 19.570312 -29.484375 23.113281 -28.0625 25.8125 -25.21875 C 28.5 -22.375 29.84375 -18.664062 29.84375 -14.09375 C 29.84375 -9.53125 28.546875 -5.90625 25.953125 -3.21875 C 23.367188 -0.53125 19.847656 0.8125 15.390625 0.8125 C 10.941406 0.8125 7.414062 -0.453125 4.8125 -2.984375 Z M 4.8125 -2.984375 "/></g></g></g><g fill="#ffffff" fill-opacity="1"><g transform="translate(197.495173, 65.192937)"><g><path d="M 43.234375 -12.96875 C 43.234375 -11.6875 43.367188 -10.644531 43.640625 -9.84375 C 43.921875 -9.039062 44.410156 -8.421875 45.109375 -7.984375 C 45.128906 -7.898438 45.140625 -7.753906 45.140625 -7.546875 L 45.140625 -7.140625 C 45.140625 -4.753906 44.441406 -2.890625 43.046875 -1.546875 C 41.648438 -0.203125 39.847656 0.46875 37.640625 0.46875 C 35.429688 0.46875 33.65625 -0.128906 32.3125 -1.328125 C 30.71875 -2.734375 29.921875 -4.875 29.921875 -7.75 L 29.921875 -16.03125 C 29.921875 -17.195312 29.539062 -17.78125 28.78125 -17.78125 C 28.476562 -17.78125 28.238281 -17.707031 28.0625 -17.5625 L 28.546875 -13.671875 L 28.546875 -7.75 C 28.546875 -5.375 28.9375 -3.578125 29.71875 -2.359375 C 28.882812 -1.460938 27.84375 -0.765625 26.59375 -0.265625 C 25.34375 0.222656 24.070312 0.46875 22.78125 0.46875 C 20.6875 0.46875 19.0625 -0.0351562 17.90625 -1.046875 C 16.507812 -2.265625 15.8125 -4.191406 15.8125 -6.828125 L 15.8125 -16.03125 C 15.8125 -17.195312 15.425781 -17.78125 14.65625 -17.78125 C 14.363281 -17.78125 14.128906 -17.707031 13.953125 -17.5625 L 14.421875 -13.671875 L 14.421875 -6.734375 C 14.421875 -4.773438 14.6875 -3.265625 15.21875 -2.203125 C 13.5 -0.441406 11.097656 0.4375 8.015625 0.4375 C 6.179688 0.4375 4.632812 -0.0195312 3.375 -0.9375 C 1.925781 -2.007812 1.203125 -3.441406 1.203125 -5.234375 L 1.203125 -17.75 C 0.171875 -19.195312 -0.34375 -20.976562 -0.34375 -23.09375 C -0.34375 -25.21875 0.171875 -27.0625 1.203125 -28.625 L 7.515625 -28.625 C 8.753906 -28.625 9.8125 -28.160156 10.6875 -27.234375 C 9.914062 -26.515625 9.53125 -25.921875 9.53125 -25.453125 C 9.53125 -24.910156 9.835938 -24.640625 10.453125 -24.640625 C 11.210938 -25.960938 12.265625 -27.019531 13.609375 -27.8125 C 15.179688 -28.695312 17.023438 -29.140625 19.140625 -29.140625 C 20.742188 -29.140625 22.148438 -28.796875 23.359375 -28.109375 C 24.578125 -27.429688 25.484375 -26.648438 26.078125 -25.765625 C 26.898438 -26.878906 27.96875 -27.71875 29.28125 -28.28125 C 30.601562 -28.851562 31.976562 -29.140625 33.40625 -29.140625 C 36.570312 -29.140625 39.023438 -28.160156 40.765625 -26.203125 C 42.472656 -24.253906 43.328125 -21.578125 43.328125 -18.171875 Z M 43.234375 -12.96875 "/></g></g></g><g fill="#ffffff" fill-opacity="1"><g transform="translate(242.416562, 65.192937)"><g><path d="M 16.265625 0.8125 C 11.421875 0.8125 7.601562 -0.53125 4.8125 -3.21875 C 1.957031 -5.925781 0.53125 -9.628906 0.53125 -14.328125 C 0.53125 -19.035156 2.003906 -22.769531 4.953125 -25.53125 C 7.671875 -28.09375 11.113281 -29.375 15.28125 -29.375 C 19.457031 -29.375 22.804688 -28.222656 25.328125 -25.921875 C 27.847656 -23.628906 29.109375 -20.8125 29.109375 -17.46875 C 29.109375 -14.476562 28.070312 -12.222656 26 -10.703125 C 24.082031 -9.273438 21.460938 -8.5625 18.140625 -8.5625 C 15.660156 -8.5625 13.566406 -9.078125 11.859375 -10.109375 C 11.722656 -10.003906 11.65625 -9.8125 11.65625 -9.53125 C 11.65625 -9.007812 12.34375 -8.53125 13.71875 -8.09375 C 15.09375 -7.625 16.65625 -7.390625 18.40625 -7.390625 C 20.164062 -7.390625 21.765625 -7.609375 23.203125 -8.046875 C 24.648438 -8.492188 25.8125 -9.023438 26.6875 -9.640625 C 27.101562 -9.265625 27.4375 -8.582031 27.6875 -7.59375 C 27.9375 -6.613281 28.0625 -5.71875 28.0625 -4.90625 C 28.0625 -4.09375 27.984375 -3.375 27.828125 -2.75 C 26.472656 -1.59375 25.078125 -0.769531 23.640625 -0.28125 C 21.617188 0.445312 19.160156 0.8125 16.265625 0.8125 Z M 15.921875 -16.921875 C 16.796875 -16.921875 17.234375 -17.25 17.234375 -17.90625 C 17.234375 -18.539062 16.769531 -18.859375 15.84375 -18.859375 C 14.914062 -18.859375 14.382812 -18.359375 14.25 -17.359375 C 14.738281 -17.066406 15.296875 -16.921875 15.921875 -16.921875 Z M 15.921875 -16.921875 "/></g></g></g><path stroke-linecap="butt" transform="matrix(0.74868, 0, 0, 0.74868, 21.283662, 29.414092)" fill="none" stroke-linejoin="miter" d="M 61.845253 26.520612 C 61.845253 27.871949 61.902645 28.785015 62.022648 29.249374 C 62.163521 29.995479 62.5444 30.365923 63.17572 30.365923 L 63.488771 30.365923 C 63.561817 30.365923 63.666167 30.345053 63.80704 30.298096 C 63.733995 29.666776 63.70269 28.758927 63.70269 27.569333 C 63.70269 26.379739 63.760082 24.433604 63.874868 21.730929 C 63.989653 19.028254 64.052263 15.083809 64.052263 9.90803 C 66.358407 8.327122 69.003689 7.534059 71.98811 7.534059 C 74.320341 7.534059 76.250824 7.987983 77.774339 8.895831 C 79.303072 9.80368 80.357011 11.097625 80.941374 12.777666 C 80.941374 13.570729 80.857893 15.193377 80.69615 17.640394 C 80.205703 23.489233 79.496121 27.918907 78.562185 30.929415 C 78.817843 31.065071 79.094372 31.138116 79.386553 31.138116 C 79.678734 31.138116 79.903087 31.044201 80.06483 30.85637 C 80.743108 30.089395 81.384863 27.313675 81.990095 22.534427 C 82.480542 17.869965 82.783158 14.290746 82.897943 11.796772 C 82.924031 10.915011 82.955336 10.236734 83.002294 9.772375 C 83.889272 9.094097 85.073649 8.551475 86.555424 8.144509 C 88.031982 7.737542 89.576368 7.534059 91.188581 7.534059 C 93.917344 7.534059 96.140007 8.285382 97.867006 9.788027 C 99.594005 11.290673 100.454896 13.304635 100.454896 15.819479 C 100.454896 17.687351 100.079234 20.238718 99.333129 23.478798 C 98.587024 26.718877 97.574825 30.16244 96.291315 33.814704 C 95.013023 37.46175 93.974737 40.007899 93.181674 41.453152 C 92.059907 43.456679 90.72944 44.823669 89.174619 45.543687 C 87.625016 46.268922 85.230174 46.628931 81.990095 46.628931 C 81.009201 46.628931 79.741344 46.524581 78.176088 46.31588 C 76.61605 46.107179 75.541241 45.882826 74.962096 45.648037 C 74.47165 44.860192 73.892505 43.691468 73.22988 42.1523 C 72.567255 40.613131 72.092461 39.423537 71.815932 38.588734 C 70.928954 38.724389 70.485465 39.110486 70.485465 39.741806 C 70.485465 39.924419 70.636773 40.446171 70.939389 41.296626 C 71.242005 42.147082 71.466358 42.726227 71.602014 43.028843 C 71.534186 43.169716 71.356791 43.534942 71.080262 44.129739 C 70.798516 44.724537 70.4959 45.241071 70.172414 45.68456 C 68.372369 46.31588 65.779262 46.628931 62.387875 46.628931 C 58.996487 46.628931 56.100764 46.154137 53.700705 45.194113 C 51.832833 42.632311 50.22062 39.56441 48.85363 36.000844 C 47.491857 32.432061 46.344003 27.861514 45.410067 22.289203 C 43.870899 20.285676 43.103923 17.869965 43.103923 15.052504 C 43.103923 12.229826 43.803071 9.78281 45.201366 7.706237 L 53.664182 7.706237 C 56.97209 7.706237 59.283451 8.488865 60.587831 10.048903 C 61.589594 11.264585 62.090476 13.221155 62.090476 15.92383 Z M 120.484952 47.082855 C 114.025664 47.082855 108.933365 45.288029 105.202838 41.698375 C 101.378397 38.082634 99.468785 33.136426 99.468785 26.854533 C 99.468785 20.57264 101.435789 15.584691 105.375016 11.901122 C 109.016845 8.47843 113.618697 6.761866 119.191008 6.761866 C 124.763318 6.761866 129.234732 8.295817 132.600032 11.363718 C 135.97055 14.426402 137.655809 18.198668 137.655809 22.6753 C 137.655809 26.661485 136.267948 29.666776 133.492228 31.696391 C 130.930426 33.61122 127.434688 34.566026 123.005014 34.566026 C 119.69189 34.566026 116.895299 33.877314 114.610026 32.499889 C 114.422195 32.640762 114.32828 32.89642 114.32828 33.272082 C 114.32828 33.971229 115.251781 34.612984 117.093565 35.192129 C 118.935349 35.823449 121.027574 36.1365 123.370241 36.1365 C 125.712907 36.1365 127.846872 35.839101 129.766919 35.244304 C 131.692184 34.649507 133.23657 33.945142 134.405294 33.131209 C 134.963569 33.621655 135.412275 34.524286 135.751414 35.839101 C 136.085335 37.159134 136.257513 38.359163 136.257513 39.444407 C 136.257513 40.529651 136.153163 41.489675 135.939245 42.329695 C 134.123548 43.868863 132.255676 44.964542 130.346064 45.616732 C 127.643389 46.592408 124.356352 47.082855 120.484952 47.082855 Z M 120.031028 23.41097 C 121.194535 23.41097 121.778897 22.967481 121.778897 22.080503 C 121.778897 21.240482 121.16323 20.823081 119.926678 20.823081 C 118.690126 20.823081 117.980543 21.485705 117.792712 22.816173 C 118.444902 23.212704 119.191008 23.41097 120.031028 23.41097 Z M 157.440642 3.78788 L 157.440642 28.372831 C 157.440642 31.847699 158.280662 34.112102 159.960704 35.160824 C 159.981574 35.275609 159.997226 35.494745 159.997226 35.823449 L 159.997226 36.454768 C 159.997226 39.788763 159.151988 42.314043 157.461512 44.041042 C 155.771036 45.76804 153.376194 46.628931 150.27177 46.628931 C 147.172564 46.628931 144.715112 45.76804 142.894198 44.041042 C 140.728927 41.990556 139.643683 38.89135 139.643683 34.738205 L 139.643683 -1.5966 C 142.0907 -3.088811 144.892508 -3.834916 148.054325 -3.834916 C 151.210924 -3.834916 153.569242 -3.161856 155.118846 -1.820953 C 156.668449 -0.480051 157.440642 1.387821 157.440642 3.78788 Z M 180.309029 47.082855 C 174.251489 47.082855 169.414849 45.214983 165.81476 41.468804 C 162.214672 37.727843 160.414628 32.70859 160.414628 26.416261 C 160.414628 20.123933 162.454678 15.14642 166.52956 11.483721 C 170.171389 8.217554 174.715848 6.589688 180.168156 6.589688 C 185.020449 6.589688 189.043156 7.7845 192.236278 10.174124 C 195.4294 12.563747 197.025961 15.809044 197.025961 19.910015 C 197.025961 22.753563 196.1442 25.070141 194.385896 26.854533 C 192.627592 28.638924 190.311014 29.53112 187.446595 29.53112 C 185.114364 29.53112 183.173447 28.905018 181.623844 27.658031 C 180.069023 26.411044 179.155957 24.783178 178.874211 22.77965 C 177.851577 22.77965 177.340261 23.150094 177.340261 23.896199 C 177.340261 25.602328 178.175064 27.162367 179.855105 28.586749 C 181.790805 30.261573 184.196081 31.101594 187.076152 31.101594 C 189.956222 31.101594 192.340629 30.485926 194.229371 29.249374 C 195.392877 31.044201 195.97724 33.225124 195.97724 35.786926 C 195.97724 38.771347 194.69373 41.327931 192.131928 43.446244 C 189.194464 45.872391 185.255237 47.082855 180.309029 47.082855 Z M 216.779489 26.520612 L 216.779489 32.640762 C 216.941232 32.802505 217.212543 32.885985 217.582987 32.885985 C 217.958648 32.885985 218.224742 32.755547 218.386485 32.499889 C 218.553446 32.24423 218.631708 31.800741 218.631708 31.174639 L 218.631708 26.171038 C 218.631708 23.932722 218.537793 22.445729 218.35518 21.715276 C 218.167349 20.979606 217.817775 20.609162 217.306459 20.609162 C 216.977755 20.609162 216.696009 20.729165 216.466438 20.958736 C 216.675139 23.270097 216.779489 25.122316 216.779489 26.520612 Z M 203.699168 42.011426 C 199.874726 38.327858 197.965114 33.334692 197.965114 27.026711 C 197.965114 20.723948 199.765159 15.746434 203.370464 12.094171 C 206.970553 8.447125 211.697625 6.620993 217.546464 6.620993 C 223.400521 6.620993 228.132811 8.525387 231.748552 12.323742 C 235.338205 16.122096 237.133032 21.073521 237.133032 27.167584 C 237.133032 33.266864 235.400816 38.108722 231.9416 41.698375 C 228.477167 45.288029 223.770965 47.082855 217.82821 47.082855 C 211.885456 47.082855 207.174036 45.392379 203.699168 42.011426 Z M 295.564031 28.6911 C 295.564031 30.392011 295.746644 31.779871 296.122305 32.849463 C 296.492749 33.924272 297.150157 34.74864 298.078875 35.333002 C 298.104963 35.453005 298.115398 35.65127 298.115398 35.927799 L 298.115398 36.454768 C 298.115398 39.64789 297.181462 42.141864 295.318807 43.936691 C 293.450936 45.731518 291.045659 46.628931 288.097761 46.628931 C 285.144645 46.628931 282.775891 45.825433 280.981064 44.218437 C 278.857534 42.350565 277.798378 39.496582 277.798378 35.65127 L 277.798378 24.595347 C 277.798378 23.035309 277.281843 22.252681 276.259209 22.252681 C 275.862678 22.252681 275.549627 22.346596 275.314838 22.534427 L 275.946158 27.746729 L 275.946158 35.65127 C 275.946158 38.818305 276.46791 41.218364 277.516632 42.851447 C 276.400082 44.041042 275.007005 44.96976 273.337399 45.632385 C 271.67301 46.29501 269.977316 46.628931 268.250317 46.628931 C 265.453727 46.628931 263.283239 45.955871 261.744071 44.599316 C 259.881416 42.97145 258.94748 40.393996 258.94748 36.87217 L 258.94748 24.595347 C 258.94748 23.035309 258.436163 22.252681 257.408312 22.252681 C 257.011781 22.252681 256.698729 22.346596 256.463941 22.534427 L 257.095261 27.746729 L 257.095261 37.013043 C 257.095261 39.621803 257.444835 41.640983 258.143982 43.060148 C 255.858709 45.418467 252.655152 46.592408 248.528094 46.592408 C 246.081078 46.592408 244.01494 45.976741 242.334899 44.740189 C 240.404417 43.321024 239.433958 41.406194 239.433958 39.006135 L 239.433958 22.289203 C 238.056533 20.353504 237.373038 17.969097 237.373038 15.135984 C 237.373038 12.308089 238.056533 9.850637 239.433958 7.779282 L 247.860252 7.779282 C 249.519423 7.779282 250.928153 8.394949 252.09166 9.631502 C 251.069026 10.586308 250.557709 11.379371 250.557709 12.01069 C 250.557709 12.730708 250.964676 13.090717 251.778609 13.090717 C 252.80646 11.321978 254.21519 9.90803 256.010017 8.859309 C 258.10746 7.669714 260.570129 7.080135 263.387589 7.080135 C 265.53199 7.080135 267.415514 7.534059 269.038163 8.441907 C 270.655594 9.349756 271.866058 10.398477 272.659121 11.588071 C 273.7548 10.095861 275.179183 8.974094 276.942704 8.212336 C 278.701008 7.455796 280.537575 7.080135 282.447187 7.080135 C 286.66816 7.080135 289.944763 8.384514 292.276994 10.993274 C 294.562267 13.607251 295.704904 17.18647 295.704904 21.730929 Z M 319.54375 47.082855 C 313.084461 47.082855 307.992162 45.288029 304.261636 41.698375 C 300.437194 38.082634 298.527582 33.136426 298.527582 26.854533 C 298.527582 20.57264 300.494587 15.584691 304.433814 11.901122 C 308.070425 8.47843 312.677494 6.761866 318.249805 6.761866 C 323.822116 6.761866 328.29353 8.295817 331.65883 11.363718 C 335.029347 14.426402 336.714606 18.198668 336.714606 22.6753 C 336.714606 26.661485 335.326746 29.666776 332.551025 31.696391 C 329.989223 33.61122 326.493485 34.566026 322.063812 34.566026 C 318.750687 34.566026 315.954096 33.877314 313.668823 32.499889 C 313.480992 32.640762 313.387077 32.89642 313.387077 33.272082 C 313.387077 33.971229 314.310578 34.612984 316.152362 35.192129 C 317.994146 35.823449 320.086372 36.1365 322.429038 36.1365 C 324.771704 36.1365 326.905669 35.839101 328.825717 35.244304 C 330.750981 34.649507 332.295367 33.945142 333.464091 33.131209 C 334.022366 33.621655 334.471072 34.524286 334.810211 35.839101 C 335.144132 37.159134 335.316311 38.359163 335.316311 39.444407 C 335.316311 40.529651 335.21196 41.489675 334.998042 42.329695 C 333.182345 43.868863 331.314473 44.964542 329.404861 45.616732 C 326.702186 46.592408 323.415149 47.082855 319.54375 47.082855 Z M 319.089826 23.41097 C 320.253332 23.41097 320.837694 22.967481 320.837694 22.080503 C 320.837694 21.240482 320.222027 20.823081 318.985475 20.823081 C 317.748923 20.823081 317.03934 21.485705 316.85151 22.816173 C 317.5037 23.212704 318.249805 23.41097 319.089826 23.41097 Z M 319.089826 23.41097 " stroke="#161616" stroke-width="1.163913" stroke-opacity="1" stroke-miterlimit="4"/><g fill="#ffffff" fill-opacity="1"><g transform="translate(272.060739, 65.192937)"><g/></g></g><g fill="#ffffff" fill-opacity="1"><g transform="translate(94.027079, 109.36503)"><g><path d="M 3.875 -16.546875 L 5.5 -16.546875 C 6.375 -16.546875 6.8125 -16.832031 6.8125 -17.40625 C 6.8125 -17.476562 6.789062 -17.585938 6.75 -17.734375 L 0.890625 -17.734375 C 0.503906 -18.953125 0.3125 -20.316406 0.3125 -21.828125 C 0.3125 -23.335938 0.425781 -24.5625 0.65625 -25.5 C 1.644531 -26.132812 3.015625 -27.097656 4.765625 -28.390625 C 5.253906 -29.578125 5.890625 -31.460938 6.671875 -34.046875 C 6.773438 -34.390625 6.898438 -34.726562 7.046875 -35.0625 C 8.398438 -35.40625 9.953125 -35.578125 11.703125 -35.578125 C 13.453125 -35.578125 15.171875 -35.394531 16.859375 -35.03125 L 16.859375 -28.625 L 21.390625 -28.625 C 22.398438 -27.082031 22.90625 -25.273438 22.90625 -23.203125 C 22.90625 -22.253906 22.773438 -21.28125 22.515625 -20.28125 C 22.253906 -19.289062 21.878906 -18.445312 21.390625 -17.75 L 17.640625 -17.75 L 17.640625 -13.796875 C 17.640625 -11.566406 18.578125 -10.453125 20.453125 -10.453125 L 21.578125 -10.453125 C 21.941406 -9.117188 22.125 -7.960938 22.125 -6.984375 C 22.125 -4.578125 21.367188 -2.734375 19.859375 -1.453125 C 18.347656 -0.171875 16.15625 0.46875 13.28125 0.46875 C 10.414062 0.46875 8.128906 -0.328125 6.421875 -1.921875 C 4.722656 -3.523438 3.875 -5.878906 3.875 -8.984375 Z M 3.875 -16.546875 "/></g></g></g><g fill="#ffffff" fill-opacity="1"><g transform="translate(117.246941, 109.36503)"><g><path d="M 14.609375 -14.578125 L 14.609375 -10 C 14.734375 -9.875 14.929688 -9.8125 15.203125 -9.8125 C 15.484375 -9.8125 15.6875 -9.90625 15.8125 -10.09375 C 15.9375 -10.289062 16 -10.628906 16 -11.109375 L 16 -14.84375 C 16 -16.519531 15.925781 -17.632812 15.78125 -18.1875 C 15.644531 -18.738281 15.382812 -19.015625 15 -19.015625 C 14.757812 -19.015625 14.550781 -18.925781 14.375 -18.75 C 14.53125 -17.019531 14.609375 -15.628906 14.609375 -14.578125 Z M 4.8125 -2.984375 C 1.957031 -5.742188 0.53125 -9.484375 0.53125 -14.203125 C 0.53125 -18.921875 1.875 -22.644531 4.5625 -25.375 C 7.257812 -28.113281 10.800781 -29.484375 15.1875 -29.484375 C 19.570312 -29.484375 23.113281 -28.0625 25.8125 -25.21875 C 28.5 -22.375 29.84375 -18.664062 29.84375 -14.09375 C 29.84375 -9.53125 28.546875 -5.90625 25.953125 -3.21875 C 23.367188 -0.53125 19.847656 0.8125 15.390625 0.8125 C 10.941406 0.8125 7.414062 -0.453125 4.8125 -2.984375 Z M 4.8125 -2.984375 "/></g></g></g><g fill="#ffffff" fill-opacity="1"><g transform="translate(147.613382, 109.36503)"><g/></g></g><g fill="#ffffff" fill-opacity="1"><g transform="translate(160.178805, 109.36503)"><g><path d="M 3.875 -16.546875 L 5.5 -16.546875 C 6.375 -16.546875 6.8125 -16.832031 6.8125 -17.40625 C 6.8125 -17.476562 6.789062 -17.585938 6.75 -17.734375 L 0.890625 -17.734375 C 0.503906 -18.953125 0.3125 -20.316406 0.3125 -21.828125 C 0.3125 -23.335938 0.425781 -24.5625 0.65625 -25.5 C 1.644531 -26.132812 3.015625 -27.097656 4.765625 -28.390625 C 5.253906 -29.578125 5.890625 -31.460938 6.671875 -34.046875 C 6.773438 -34.390625 6.898438 -34.726562 7.046875 -35.0625 C 8.398438 -35.40625 9.953125 -35.578125 11.703125 -35.578125 C 13.453125 -35.578125 15.171875 -35.394531 16.859375 -35.03125 L 16.859375 -28.625 L 21.390625 -28.625 C 22.398438 -27.082031 22.90625 -25.273438 22.90625 -23.203125 C 22.90625 -22.253906 22.773438 -21.28125 22.515625 -20.28125 C 22.253906 -19.289062 21.878906 -18.445312 21.390625 -17.75 L 17.640625 -17.75 L 17.640625 -13.796875 C 17.640625 -11.566406 18.578125 -10.453125 20.453125 -10.453125 L 21.578125 -10.453125 C 21.941406 -9.117188 22.125 -7.960938 22.125 -6.984375 C 22.125 -4.578125 21.367188 -2.734375 19.859375 -1.453125 C 18.347656 -0.171875 16.15625 0.46875 13.28125 0.46875 C 10.414062 0.46875 8.128906 -0.328125 6.421875 -1.921875 C 4.722656 -3.523438 3.875 -5.878906 3.875 -8.984375 Z M 3.875 -16.546875 "/></g></g></g><g fill="#ffffff" fill-opacity="1"><g transform="translate(183.398667, 109.36503)"><g><path d="M 28.3125 -12.96875 C 28.3125 -11.707031 28.445312 -10.691406 28.71875 -9.921875 C 29 -9.148438 29.488281 -8.546875 30.1875 -8.109375 C 30.207031 -8.023438 30.21875 -7.863281 30.21875 -7.625 L 30.21875 -7.140625 C 30.21875 -4.734375 29.519531 -2.863281 28.125 -1.53125 C 26.738281 -0.195312 24.953125 0.46875 22.765625 0.46875 C 20.578125 0.46875 18.800781 -0.148438 17.4375 -1.390625 C 15.851562 -2.804688 15.0625 -4.953125 15.0625 -7.828125 C 15.0625 -9.046875 15.113281 -10.125 15.21875 -11.0625 C 15.332031 -12 15.410156 -12.664062 15.453125 -13.0625 C 15.503906 -13.46875 15.554688 -13.84375 15.609375 -14.1875 C 15.660156 -14.539062 15.6875 -15.054688 15.6875 -15.734375 C 15.6875 -16.421875 15.59375 -16.910156 15.40625 -17.203125 C 15.226562 -17.492188 14.976562 -17.640625 14.65625 -17.640625 C 14.332031 -17.640625 14.046875 -17.570312 13.796875 -17.4375 L 14.140625 -13.171875 C 13.828125 -11.410156 13.671875 -9.539062 13.671875 -7.5625 C 13.671875 -5.59375 14.113281 -3.796875 15 -2.171875 C 13.289062 -0.410156 10.890625 0.46875 7.796875 0.46875 C 6.035156 0.46875 4.507812 0.00390625 3.21875 -0.921875 C 1.71875 -1.960938 0.96875 -3.347656 0.96875 -5.078125 L 0.96875 -35.640625 C 1.800781 -36.128906 2.804688 -36.53125 3.984375 -36.84375 C 5.171875 -37.15625 6.363281 -37.3125 7.5625 -37.3125 C 9.570312 -37.3125 11.234375 -36.921875 12.546875 -36.140625 C 14.023438 -35.210938 14.765625 -33.882812 14.765625 -32.15625 L 14.765625 -29.671875 C 13.242188 -29.578125 11.785156 -29.140625 10.390625 -28.359375 C 9.191406 -27.660156 8.59375 -27.023438 8.59375 -26.453125 C 8.59375 -26.253906 8.660156 -26.082031 8.796875 -25.9375 C 8.929688 -25.789062 9.097656 -25.695312 9.296875 -25.65625 C 10.023438 -26.507812 11.054688 -27.222656 12.390625 -27.796875 C 13.734375 -28.378906 15.320312 -28.671875 17.15625 -28.671875 C 18.988281 -28.671875 20.632812 -28.390625 22.09375 -27.828125 C 23.945312 -27.128906 25.40625 -26.066406 26.46875 -24.640625 C 27.75 -22.890625 28.390625 -20.695312 28.390625 -18.0625 Z M 28.3125 -12.96875 "/></g></g></g><g fill="#ffffff" fill-opacity="1"><g transform="translate(213.398616, 109.36503)"><g><path d="M 16.265625 0.8125 C 11.421875 0.8125 7.601562 -0.53125 4.8125 -3.21875 C 1.957031 -5.925781 0.53125 -9.628906 0.53125 -14.328125 C 0.53125 -19.035156 2.003906 -22.769531 4.953125 -25.53125 C 7.671875 -28.09375 11.113281 -29.375 15.28125 -29.375 C 19.457031 -29.375 22.804688 -28.222656 25.328125 -25.921875 C 27.847656 -23.628906 29.109375 -20.8125 29.109375 -17.46875 C 29.109375 -14.476562 28.070312 -12.222656 26 -10.703125 C 24.082031 -9.273438 21.460938 -8.5625 18.140625 -8.5625 C 15.660156 -8.5625 13.566406 -9.078125 11.859375 -10.109375 C 11.722656 -10.003906 11.65625 -9.8125 11.65625 -9.53125 C 11.65625 -9.007812 12.34375 -8.53125 13.71875 -8.09375 C 15.09375 -7.625 16.65625 -7.390625 18.40625 -7.390625 C 20.164062 -7.390625 21.765625 -7.609375 23.203125 -8.046875 C 24.648438 -8.492188 25.8125 -9.023438 26.6875 -9.640625 C 27.101562 -9.265625 27.4375 -8.582031 27.6875 -7.59375 C 27.9375 -6.613281 28.0625 -5.71875 28.0625 -4.90625 C 28.0625 -4.09375 27.984375 -3.375 27.828125 -2.75 C 26.472656 -1.59375 25.078125 -0.769531 23.640625 -0.28125 C 21.617188 0.445312 19.160156 0.8125 16.265625 0.8125 Z M 15.921875 -16.921875 C 16.796875 -16.921875 17.234375 -17.25 17.234375 -17.90625 C 17.234375 -18.539062 16.769531 -18.859375 15.84375 -18.859375 C 14.914062 -18.859375 14.382812 -18.359375 14.25 -17.359375 C 14.738281 -17.066406 15.296875 -16.921875 15.921875 -16.921875 Z M 15.921875 -16.921875 "/></g></g></g><path stroke-linecap="butt" transform="matrix(0.74868, 0, 0, 0.74868, 21.283662, 29.414092)" fill="none" stroke-linejoin="miter" d="M 104.801089 82.895908 L 106.96636 82.895908 C 108.135084 82.895908 108.719446 82.515029 108.719446 81.742836 C 108.719446 81.648921 108.693359 81.513265 108.646401 81.325435 L 100.814905 81.325435 C 100.303588 79.692351 100.042712 77.866219 100.042712 75.852257 C 100.042712 73.833077 100.19402 72.199993 100.501853 70.937354 C 101.827103 70.097333 103.658453 68.819041 105.990684 67.092042 C 106.642874 65.505916 107.493329 62.991072 108.542051 59.537074 C 108.682924 59.072715 108.844667 58.618791 109.032498 58.175301 C 110.848194 57.705725 112.924767 57.476154 115.256998 57.476154 C 117.589229 57.476154 119.884938 57.721377 122.144124 58.206606 L 122.144124 66.778991 L 128.196446 66.778991 C 129.547784 68.829476 130.226061 71.23997 130.226061 74.01569 C 130.226061 75.273112 130.048665 76.567057 129.699092 77.897524 C 129.349518 79.227992 128.848636 80.354976 128.196446 81.288912 L 123.192845 81.288912 L 123.192845 86.569042 C 123.192845 89.553463 124.44505 91.045673 126.939024 91.045673 L 128.441669 91.045673 C 128.932116 92.81963 129.17734 94.358798 129.17734 95.663178 C 129.17734 98.882387 128.165141 101.345056 126.151178 103.06162 C 124.131998 104.772966 121.210188 105.62864 117.370093 105.62864 C 113.535217 105.62864 110.482968 104.564266 108.208129 102.4303 C 105.938509 100.296335 104.801089 97.155388 104.801089 93.00746 Z M 150.151767 85.52032 L 150.151767 91.64047 C 150.318728 91.802213 150.584821 91.885694 150.955265 91.885694 C 151.330927 91.885694 151.59702 91.755256 151.763981 91.499597 C 151.925724 91.243939 152.003987 90.80045 152.003987 90.174347 L 152.003987 85.170746 C 152.003987 82.932431 151.915289 81.445438 151.727458 80.714985 C 151.539627 79.979315 151.190054 79.608871 150.678737 79.608871 C 150.350033 79.608871 150.073505 79.728874 149.838716 79.958445 C 150.047417 82.269806 150.151767 84.122025 150.151767 85.52032 Z M 137.071446 101.011135 C 133.252222 97.327566 131.337393 92.3344 131.337393 86.02642 C 131.337393 79.723656 133.137437 74.746143 136.742743 71.093879 C 140.342831 67.446833 145.069904 65.620701 150.92396 65.620701 C 156.772799 65.620701 161.505089 67.525096 165.12083 71.32345 C 168.710484 75.121804 170.50531 80.07323 170.50531 86.167293 C 170.50531 92.266573 168.773094 97.108431 165.313878 100.698084 C 161.849446 104.287737 157.148461 106.082564 151.200489 106.082564 C 145.257734 106.082564 140.546314 104.392088 137.071446 101.011135 Z M 193.159779 82.895908 L 195.32505 82.895908 C 196.493774 82.895908 197.072919 82.515029 197.072919 81.742836 C 197.072919 81.648921 197.052049 81.513265 197.005091 81.325435 L 189.173594 81.325435 C 188.65706 79.692351 188.401401 77.866219 188.401401 75.852257 C 188.401401 73.833077 188.55271 72.199993 188.855326 70.937354 C 190.185793 70.097333 192.017142 68.819041 194.349374 67.092042 C 195.001563 65.505916 195.852019 62.991072 196.90074 59.537074 C 197.041613 59.072715 197.203357 58.618791 197.391187 58.175301 C 199.206884 57.705725 201.283457 57.476154 203.615688 57.476154 C 205.947919 57.476154 208.243627 57.721377 210.502813 58.206606 L 210.502813 66.778991 L 216.555136 66.778991 C 217.906473 68.829476 218.584751 71.23997 218.584751 74.01569 C 218.584751 75.273112 218.407355 76.567057 218.057781 77.897524 C 217.708208 79.227992 217.207326 80.354976 216.555136 81.288912 L 211.551535 81.288912 L 211.551535 86.569042 C 211.551535 89.553463 212.798522 91.045673 215.292496 91.045673 L 216.800359 91.045673 C 217.290806 92.81963 217.530812 94.358798 217.530812 95.663178 C 217.530812 98.882387 216.523831 101.345056 214.509868 103.06162 C 212.490688 104.772966 209.56366 105.62864 205.728783 105.62864 C 201.893906 105.62864 198.841658 104.564266 196.566819 102.4303 C 194.297198 100.296335 193.159779 97.155388 193.159779 93.00746 Z M 256.80308 87.690808 C 256.80308 89.365632 256.985693 90.722187 257.361354 91.744821 C 257.731798 92.772672 258.383988 93.57617 259.317924 94.160532 C 259.344012 94.275318 259.354447 94.499671 259.354447 94.823157 L 259.354447 95.454477 C 259.354447 98.668469 258.425728 101.172878 256.573509 102.952052 C 254.72129 104.736444 252.331666 105.62864 249.404637 105.62864 C 246.477609 105.62864 244.108855 104.804272 242.287941 103.1451 C 240.164411 101.256358 239.105254 98.39194 239.105254 94.541411 C 239.105254 92.913545 239.183517 91.47351 239.334825 90.226523 C 239.486133 88.979535 239.590484 88.08734 239.647876 87.549935 C 239.705269 87.012531 239.767879 86.511649 239.840925 86.04729 C 239.908752 85.577713 239.945275 84.894218 239.945275 83.981152 C 239.945275 83.073304 239.820054 82.421114 239.580049 82.024582 C 239.334825 81.628051 238.995686 81.429785 238.562632 81.429785 C 238.129578 81.429785 237.753917 81.5237 237.425213 81.711531 L 237.879137 87.409062 C 237.461736 89.762163 237.253035 92.261355 237.253035 94.890985 C 237.253035 97.525832 237.847832 99.931109 239.037427 102.096379 C 236.752153 104.454698 233.543379 105.62864 229.416321 105.62864 C 227.06322 105.62864 225.02317 105.012972 223.296171 103.77642 C 221.292643 102.378125 220.29088 100.525906 220.29088 98.214545 L 220.29088 57.403109 C 221.412646 56.750919 222.758766 56.213514 224.32924 55.796113 C 225.90493 55.378711 227.496274 55.164793 229.10327 55.164793 C 231.785075 55.164793 233.997303 55.691762 235.750389 56.740484 C 237.727829 57.977036 238.719158 59.745775 238.719158 62.057136 L 238.719158 65.380696 C 236.69476 65.495481 234.743408 66.079843 232.880754 67.128565 C 231.273758 68.057283 230.47026 68.907739 230.47026 69.679931 C 230.47026 69.93559 230.558958 70.165161 230.746788 70.363427 C 230.934619 70.561692 231.153755 70.681695 231.409413 70.728653 C 232.390307 69.586016 233.77295 68.63121 235.557341 67.859017 C 237.341733 67.092042 239.454828 66.705945 241.901845 66.705945 C 244.348861 66.705945 246.555872 67.081607 248.512442 67.827712 C 250.985546 68.756431 252.93168 70.180813 254.350846 72.090425 C 256.056975 74.422657 256.90743 77.349685 256.90743 80.87151 Z M 280.782799 106.082564 C 274.328727 106.082564 269.231211 104.287737 265.500685 100.698084 C 261.68146 97.08756 259.766631 92.136135 259.766631 85.854241 C 259.766631 79.572348 261.738853 74.589617 265.67808 70.906049 C 269.314691 67.478138 273.916543 65.761574 279.488854 65.761574 C 285.061164 65.761574 289.532579 67.295525 292.903096 70.363427 C 296.268396 73.42611 297.953655 77.198377 297.953655 81.675008 C 297.953655 85.661193 296.565795 88.666484 293.795292 90.696099 C 291.228272 92.610929 287.732534 93.565735 283.30286 93.565735 C 279.989736 93.565735 277.193145 92.877022 274.907872 91.499597 C 274.725259 91.64047 274.631343 91.896129 274.631343 92.27179 C 274.631343 92.970938 275.549627 93.612693 277.391411 94.191837 C 279.233195 94.823157 281.325421 95.136208 283.668087 95.136208 C 286.010753 95.136208 288.144718 94.83881 290.069983 94.244012 C 291.995248 93.654433 293.539633 92.94485 294.70314 92.130917 C 295.261415 92.621364 295.710121 93.523995 296.04926 94.83881 C 296.388399 96.158842 296.55536 97.358871 296.55536 98.444116 C 296.55536 99.52936 296.451009 100.489383 296.242308 101.329404 C 294.421394 102.868572 292.55874 103.964251 290.64391 104.616441 C 287.941235 105.592117 284.654198 106.082564 280.782799 106.082564 Z M 280.328874 82.410679 C 281.497599 82.410679 282.076743 81.967189 282.076743 81.080211 C 282.076743 80.240191 281.461076 79.822789 280.224524 79.822789 C 278.987972 79.822789 278.278389 80.485414 278.090559 81.815881 C 278.742749 82.212413 279.488854 82.410679 280.328874 82.410679 Z M 280.328874 82.410679 " stroke="#161616" stroke-width="1.163913" stroke-opacity="1" stroke-miterlimit="4"/></svg>