<svg width="347" height="178" viewBox="0 0 347 178" fill="none" xmlns="http://www.w3.org/2000/svg">
<path d="M53.1623 87.8498C54.355 87.631 54.9539 87.0164 54.9539 86.0164C54.9539 85.0164 54.631 83.8914 53.9956 82.6414C53.3706 81.3914 52.4383 80.2039 51.2039 79.0789C47.9644 76.1623 43.5841 74.7039 38.0581 74.7039C35.3341 74.7039 32.7925 75.1623 30.4331 76.0789C27.9175 74.8029 25.9123 72.782 24.4123 70.0164C22.9227 67.256 22.1831 64.2768 22.1831 61.0789C22.1831 52.7195 25.6727 46.2664 32.6623 41.7248C38.6623 37.8393 46.0581 35.8914 54.8498 35.8914C61.3914 35.8914 66.8966 36.5945 71.3706 37.9956C75.8394 39.3862 79.5008 41.1727 82.3498 43.3498C83.1831 45.756 83.5998 48.2456 83.5998 50.8289C83.5998 53.4123 83.2508 55.7612 82.5581 57.8706C81.8602 59.9695 80.8602 61.657 79.5581 62.9331C78.3185 62.0164 76.0841 61.0893 72.8498 60.1414C69.6102 59.1987 66.6675 58.7248 64.0164 58.7248C61.3602 58.7248 59.5894 58.8914 58.7039 59.2248C57.8133 59.5477 57.3706 60.0529 57.3706 60.7456C57.3706 61.0789 57.4175 61.3914 57.5164 61.6831C58.7925 61.3498 60.4331 61.1831 62.4331 61.1831C69.5269 61.1831 75.3133 62.8602 79.7873 66.2039C85.0477 70.2039 87.6831 76.2039 87.6831 84.2039C87.6831 91.2612 84.8289 97.1154 79.1206 101.766C72.9383 106.74 64.631 109.225 54.2039 109.225C48.4539 109.225 43.4644 108.792 39.2456 107.933C35.0373 107.089 30.9331 105.595 26.9331 103.454C24.2091 99.4852 22.8498 95.4539 22.8498 91.3706C22.8498 87.2873 24.2456 83.9018 27.0373 81.2039C29.8394 78.5112 33.2873 77.1623 37.3706 77.1623C41.4644 77.1623 44.8133 78.006 47.4123 79.6831C50.006 81.3498 51.9227 84.0737 53.1623 87.8498Z" fill="black"/>
<path d="M154.491 49.8914V104.1C150.418 107.157 145.204 108.683 138.845 108.683C133.928 108.683 130.032 107.683 127.157 105.683C124.142 103.657 122.636 100.714 122.636 96.8497V86.058H126.511C127.996 86.058 128.928 85.8705 129.303 85.4955C129.688 85.1101 129.886 84.4747 129.886 83.5997H112.761C112.761 84.4747 112.928 85.1101 113.261 85.4955C113.595 85.8705 114.376 86.058 115.616 86.058H119.741V104.1C116.949 105.923 114.293 107.136 111.782 107.746C109.282 108.371 106.72 108.683 104.095 108.683C99.1885 108.683 95.3031 107.683 92.4281 105.683C89.4124 103.657 87.9072 100.714 87.9072 96.8497V42.5789C89.7926 40.5945 92.126 39.0685 94.9072 37.9955C97.6833 36.9122 100.584 36.3705 103.616 36.3705C108.001 36.3705 111.725 37.4643 114.782 39.6414C118.084 42.1153 119.741 45.532 119.741 49.8914V59.5997H126.678C126.678 58.657 126.501 58.0112 126.157 57.6622C125.808 57.3185 125.251 57.1414 124.491 57.1414H122.636V42.5789C124.522 40.5945 126.855 39.0685 129.636 37.9955C132.428 36.9122 135.329 36.3705 138.345 36.3705C142.746 36.3705 146.475 37.4643 149.532 39.6414C152.834 42.1153 154.491 45.532 154.491 49.8914Z" fill="black"/>
<path d="M195.443 70.0789C195.443 66.4435 195.276 63.9435 194.943 62.5789C194.62 61.2195 194.026 60.5372 193.151 60.5372C192.61 60.5372 192.115 60.7195 191.672 61.0789C191.755 61.7351 191.865 62.6101 192.005 63.7039C192.156 64.7872 192.235 67.1154 192.235 70.6831V74.2247C192.235 76.6987 192.177 78.4956 192.068 79.6206C191.953 80.7456 191.865 81.7143 191.797 82.5164C191.755 82.9487 191.714 83.381 191.672 83.8081C192.115 84.1831 192.61 84.3706 193.151 84.3706C194.026 84.3706 194.62 83.6935 194.943 82.3289C195.276 80.9539 195.443 78.4539 195.443 74.8289V70.0789ZM193.255 109.454C186.781 109.454 180.844 108.121 175.443 105.454C170.052 102.777 165.703 98.6831 162.401 93.1831C159.094 87.6726 157.443 80.7872 157.443 72.5372C157.443 60.5685 161.037 51.2195 168.235 44.4956C174.636 38.5685 182.87 35.5997 192.943 35.5997C203.886 35.5997 212.547 38.9956 218.922 45.7872C225.297 52.5685 228.485 61.4852 228.485 72.5372C228.485 84.8185 225.068 94.1935 218.235 100.662C212.026 106.527 203.698 109.454 193.255 109.454Z" fill="black"/>
<path d="M261.922 71.1206C262.073 71.2195 262.489 71.2664 263.172 71.2664C263.864 71.2664 264.39 70.9956 264.755 70.4539C265.114 69.9123 265.297 69.0268 265.297 67.7873V63.6414C265.297 62.3393 265.14 61.407 264.838 60.8498C264.531 60.282 264.026 59.9956 263.317 59.9956C262.609 59.9956 262.119 60.0685 261.859 60.2039C261.901 60.3862 261.922 60.6987 261.922 61.1414V71.1206ZM263.276 95.7664V104.1C261.677 105.449 259.422 106.553 256.505 107.412C253.599 108.256 250.573 108.683 247.422 108.683C242.906 108.683 239.213 107.808 236.338 106.058C233.073 104.058 231.442 101.173 231.442 97.3914V45.5789C231.442 44.4279 232.234 43.2664 233.817 42.0998C235.401 40.9331 237.588 39.881 240.38 38.9331C246.38 36.907 253.234 35.8914 260.942 35.8914C271.593 35.8914 280.078 38.5477 286.401 43.8498C292.734 49.157 295.901 56.2873 295.901 65.2456C295.901 74.2039 293.047 81.1779 287.338 86.1623C281.849 90.8862 274.234 93.2456 264.484 93.2456C262.26 93.2456 259.885 92.9852 257.359 92.4539C254.843 91.9279 253.151 91.4695 252.276 91.0789C251.984 91.3706 251.838 91.7664 251.838 92.2664C251.838 94.131 255.651 95.2977 263.276 95.7664Z" fill="black"/>
<path d="M57.005 85.0624C58.2029 84.8437 58.8019 84.2343 58.8019 83.2343C58.8019 82.2343 58.4842 81.1093 57.8488 79.8541C57.2134 78.5989 56.2759 77.4114 55.0415 76.2812C51.8071 73.375 47.4217 71.9218 41.8957 71.9218C39.1717 71.9218 36.6248 72.375 34.2602 73.2812C31.755 72.0104 29.755 69.9947 28.2655 67.2291C26.7759 64.4687 26.0259 61.4843 26.0259 58.2864C26.0259 49.927 29.5207 43.4739 36.4998 38.9271C42.4998 35.0364 49.8957 33.0937 58.6925 33.0937C65.2394 33.0937 70.7446 33.7916 75.2186 35.1927C79.6925 36.5885 83.3436 38.3802 86.1821 40.5625C87.0154 42.9635 87.4321 45.4531 87.4321 48.0364C87.4321 50.6146 87.0883 52.9583 86.3956 55.0677C85.7081 57.177 84.7081 58.8698 83.4008 60.1406C82.1613 59.2343 79.9269 58.3073 76.6925 57.3593C73.4529 56.4166 70.5102 55.9427 67.854 55.9427C65.2029 55.9427 63.4321 56.1041 62.5415 56.4323C61.6509 56.7604 61.2029 57.2708 61.2029 57.9583C61.2029 58.2864 61.255 58.5937 61.3644 58.8854C62.6404 58.5573 64.2759 58.3958 66.2759 58.3958C73.3644 58.3958 79.1456 60.0677 83.6144 63.4114C88.8904 67.4114 91.5258 73.4114 91.5258 81.4114C91.5258 88.4635 88.6717 94.3177 82.9633 98.9687C76.7811 103.948 68.4738 106.443 58.0415 106.443C52.2967 106.443 47.3123 106.016 43.0988 105.161C38.88 104.307 34.7707 102.807 30.7707 100.661C28.0467 96.6979 26.6821 92.6718 26.6821 88.5781C26.6821 84.4895 28.0832 81.0989 30.88 78.4114C33.6821 75.7187 37.1248 74.375 41.2134 74.375C45.3071 74.375 48.6509 75.2083 51.2498 76.8854C53.8488 78.5572 55.7654 81.2812 57.005 85.0624ZM158.328 47.1093V101.312C154.255 104.37 149.041 105.896 142.677 105.896C137.771 105.896 133.88 104.896 131.005 102.896C127.989 100.859 126.479 97.9166 126.479 94.0624V83.2656H130.354C131.844 83.2656 132.781 83.0729 133.161 82.6927C133.541 82.3072 133.734 81.6822 133.734 80.8072H116.609C116.609 81.6822 116.776 82.3072 117.099 82.6927C117.427 83.0729 118.208 83.2656 119.448 83.2656H123.588V101.312C120.791 103.13 118.135 104.349 115.63 104.969C113.12 105.588 110.557 105.896 107.937 105.896C103.031 105.896 99.1404 104.896 96.2706 102.896C93.2498 100.859 91.7446 97.9166 91.7446 94.0624V39.7968C93.6352 37.8021 95.9685 36.2656 98.7498 35.1927C101.531 34.1198 104.432 33.5833 107.448 33.5833C111.849 33.5833 115.573 34.6719 118.63 36.8541C121.937 39.3281 123.588 42.7448 123.588 47.1093V56.8125H130.515C130.515 55.8698 130.344 55.2239 130 54.8802C129.651 54.5312 129.099 54.3593 128.333 54.3593H126.479V39.7968C128.37 37.8021 130.708 36.2656 133.489 35.1927C136.271 34.1198 139.172 33.5833 142.187 33.5833C146.588 33.5833 150.312 34.6719 153.364 36.8541C156.677 39.3281 158.328 42.7448 158.328 47.1093ZM199.286 67.2864C199.286 63.651 199.12 61.151 198.791 59.7864C198.468 58.4218 197.864 57.7395 196.995 57.7395C196.448 57.7395 195.958 57.9218 195.521 58.2864C195.593 58.9427 195.703 59.8125 195.849 60.9062C195.995 61.9947 196.067 64.3229 196.067 67.8854V71.427C196.067 73.901 196.01 75.7031 195.906 76.8281C195.797 77.9531 195.703 78.9166 195.63 79.7187C195.593 80.1562 195.557 80.5937 195.521 81.026C195.958 81.3906 196.448 81.5729 196.995 81.5729C197.864 81.5729 198.468 80.8906 198.791 79.526C199.12 78.1666 199.286 75.6666 199.286 72.0312V67.2864ZM197.104 106.661C190.63 106.661 184.698 105.323 179.297 102.651C173.901 99.9791 169.547 95.8906 166.234 90.3801C162.927 84.8697 161.276 77.9895 161.276 69.7395C161.276 57.776 164.875 48.4323 172.073 41.7083C178.468 35.7812 186.703 32.8177 196.776 32.8177C207.718 32.8177 216.38 36.2083 222.76 42.9896C229.14 49.7708 232.333 58.6875 232.333 69.7395C232.333 82.026 228.916 91.4062 222.078 97.8801C215.864 103.734 207.536 106.661 197.104 106.661ZM265.76 68.3229C265.906 68.4323 266.328 68.4843 267.015 68.4843C267.708 68.4843 268.234 68.2135 268.599 67.6666C268.963 67.1197 269.146 66.2291 269.146 64.9947V60.8489C269.146 59.5416 268.989 58.6041 268.682 58.0416C268.369 57.4791 267.864 57.1979 267.151 57.1979C266.442 57.1979 265.963 57.2708 265.708 57.4166C265.744 57.5937 265.76 57.9062 265.76 58.3437V68.3229ZM267.125 92.9687V101.312C265.526 102.661 263.271 103.76 260.364 104.615C257.453 105.469 254.422 105.896 251.255 105.896C246.75 105.896 243.057 105.021 240.187 103.276C236.911 101.276 235.276 98.3853 235.276 94.6093V42.7968C235.276 41.6354 236.067 40.4739 237.651 39.3073C239.229 38.1458 241.422 37.0885 244.224 36.1458C250.218 34.1094 257.073 33.0937 264.781 33.0937C275.432 33.0937 283.922 35.7448 290.25 41.0521C296.573 46.3593 299.739 53.4948 299.739 62.4583C299.739 71.4218 296.885 78.3906 291.177 83.3749C285.687 88.0989 278.067 90.4635 268.328 90.4635C266.109 90.4635 263.734 90.1979 261.208 89.6718C258.682 89.1458 256.984 88.6822 256.109 88.2812C255.817 88.5729 255.672 88.9739 255.672 89.4791C255.672 91.3333 259.489 92.4999 267.125 92.9687Z" stroke="#CB4195" stroke-width="1.81491"/>
<path d="M83.9782 121.292C85.1709 121.073 85.7699 120.458 85.7699 119.458C85.7699 118.458 85.4469 117.333 84.8115 116.083C84.1865 114.833 83.2542 113.646 82.0199 112.521C78.7803 109.604 74.4001 108.146 68.874 108.146C66.1501 108.146 63.6084 108.604 61.249 109.521C58.7334 108.245 56.7282 106.224 55.2282 103.458C53.7386 100.698 52.999 97.7186 52.999 94.5207C52.999 86.1613 56.4886 79.7082 63.4782 75.1665C69.4782 71.2811 76.874 69.3332 85.6657 69.3332C92.2074 69.3332 97.7126 70.0363 102.187 71.4374C106.655 72.828 110.317 74.6144 113.166 76.7915C113.999 79.1978 114.416 81.6874 114.416 84.2707C114.416 86.854 114.067 89.203 113.374 91.3124C112.676 93.4113 111.676 95.0988 110.374 96.3749C109.134 95.4582 106.9 94.5311 103.666 93.5832C100.426 92.6405 97.4834 92.1665 94.8324 92.1665C92.1761 92.1665 90.4053 92.3332 89.5199 92.6665C88.6292 92.9894 88.1865 93.4947 88.1865 94.1874C88.1865 94.5207 88.2334 94.8332 88.3324 95.1249C89.6084 94.7915 91.249 94.6249 93.249 94.6249C100.343 94.6249 106.129 96.3019 110.603 99.6457C115.864 103.646 118.499 109.646 118.499 117.646C118.499 124.703 115.645 130.557 109.937 135.208C103.754 140.182 95.4469 142.667 85.0199 142.667C79.2699 142.667 74.2803 142.234 70.0615 141.375C65.8532 140.531 61.749 139.036 57.749 136.896C55.0251 132.927 53.6657 128.896 53.6657 124.812C53.6657 120.729 55.0615 117.344 57.8532 114.646C60.6553 111.953 64.1032 110.604 68.1865 110.604C72.2803 110.604 75.6292 111.448 78.2282 113.125C80.8219 114.792 82.7386 117.515 83.9782 121.292Z" fill="white"/>
<path d="M185.306 83.3332V137.541C181.234 140.599 176.02 142.125 169.661 142.125C164.744 142.125 160.848 141.125 157.973 139.125C154.958 137.099 153.452 134.156 153.452 130.291V119.5H157.327C158.812 119.5 159.744 119.312 160.119 118.937C160.504 118.552 160.702 117.916 160.702 117.041H143.577C143.577 117.916 143.744 118.552 144.077 118.937C144.411 119.312 145.192 119.5 146.431 119.5H150.556V137.541C147.765 139.364 145.109 140.578 142.598 141.187C140.098 141.812 137.536 142.125 134.911 142.125C130.004 142.125 126.119 141.125 123.244 139.125C120.228 137.099 118.723 134.156 118.723 130.291V76.0207C120.609 74.0363 122.942 72.5102 125.723 71.4373C128.499 70.354 131.4 69.8123 134.431 69.8123C138.817 69.8123 142.541 70.9061 145.598 73.0832C148.9 75.5571 150.556 78.9738 150.556 83.3332V93.0415H157.494C157.494 92.0988 157.317 91.4529 156.973 91.104C156.624 90.7602 156.067 90.5832 155.306 90.5832H153.452V76.0207C155.338 74.0363 157.671 72.5102 160.452 71.4373C163.244 70.354 166.145 69.8123 169.161 69.8123C173.562 69.8123 177.291 70.9061 180.348 73.0832C183.65 75.5571 185.306 78.9738 185.306 83.3332Z" fill="white"/>
<path d="M226.259 103.521C226.259 99.8853 226.092 97.3853 225.759 96.0207C225.436 94.6613 224.842 93.979 223.967 93.979C223.425 93.979 222.931 94.1613 222.488 94.5207C222.571 95.1769 222.681 96.0519 222.821 97.1457C222.972 98.229 223.05 100.557 223.05 104.125V107.667C223.05 110.14 222.993 111.937 222.884 113.062C222.769 114.187 222.681 115.156 222.613 115.958C222.571 116.39 222.53 116.823 222.488 117.25C222.931 117.625 223.425 117.812 223.967 117.812C224.842 117.812 225.436 117.135 225.759 115.771C226.092 114.396 226.259 111.896 226.259 108.271V103.521ZM224.071 142.896C217.597 142.896 211.66 141.562 206.259 138.896C200.868 136.219 196.519 132.125 193.217 126.625C189.91 121.114 188.259 114.229 188.259 105.979C188.259 94.0103 191.853 84.6613 199.05 77.9373C205.451 72.0103 213.686 69.0415 223.759 69.0415C234.701 69.0415 243.363 72.4373 249.738 79.229C256.113 86.0103 259.3 94.9269 259.3 105.979C259.3 118.26 255.884 127.635 249.05 134.104C242.842 139.969 234.514 142.896 224.071 142.896Z" fill="white"/>
<path d="M292.738 104.562C292.889 104.661 293.306 104.708 293.988 104.708C294.681 104.708 295.207 104.437 295.571 103.896C295.931 103.354 296.113 102.469 296.113 101.229V97.0832C296.113 95.7811 295.957 94.8488 295.655 94.2915C295.347 93.7238 294.842 93.4374 294.134 93.4374C293.425 93.4374 292.936 93.5103 292.675 93.6457C292.717 93.828 292.738 94.1405 292.738 94.5832V104.562ZM294.092 129.208V137.542C292.493 138.89 290.238 139.995 287.321 140.854C284.415 141.698 281.389 142.125 278.238 142.125C273.722 142.125 270.03 141.25 267.155 139.5C263.889 137.5 262.259 134.614 262.259 130.833V79.0207C262.259 77.8696 263.05 76.7082 264.634 75.5415C266.217 74.3749 268.405 73.3228 271.196 72.3749C277.196 70.3488 284.05 69.3332 291.759 69.3332C302.41 69.3332 310.894 71.9894 317.217 77.2915C323.55 82.5988 326.717 89.729 326.717 98.6874C326.717 107.646 323.863 114.62 318.155 119.604C312.665 124.328 305.05 126.687 295.3 126.687C293.076 126.687 290.701 126.427 288.175 125.896C285.66 125.37 283.967 124.911 283.092 124.521C282.8 124.812 282.655 125.208 282.655 125.708C282.655 127.573 286.467 128.739 294.092 129.208Z" fill="white"/>
<path d="M87.8177 118.505C89.0208 118.286 89.6198 117.677 89.6198 116.677C89.6198 115.677 89.3021 114.552 88.6666 113.297C88.0312 112.042 87.0937 110.854 85.8541 109.724C82.6198 106.818 78.2396 105.365 72.7135 105.365C69.9896 105.365 67.4427 105.818 65.0781 106.724C62.5729 105.453 60.5729 103.437 59.0781 100.672C57.5885 97.9114 56.8438 94.927 56.8438 91.7291C56.8438 83.3645 60.3333 76.9114 67.3125 72.3697C73.3125 68.4791 80.7135 66.5312 89.5104 66.5312C96.0521 66.5312 101.562 67.2343 106.036 68.6354C110.505 70.0312 114.161 71.8229 116.995 74.0052C117.833 76.4062 118.25 78.8958 118.25 81.4739C118.25 84.0572 117.906 86.401 117.214 88.5104C116.521 90.6197 115.526 92.3124 114.214 93.5833C112.979 92.6718 110.745 91.7447 107.505 90.802C104.271 89.8541 101.328 89.3854 98.6719 89.3854C96.0208 89.3854 94.2448 89.5468 93.3541 89.8749C92.4635 90.2031 92.0208 90.7083 92.0208 91.401C92.0208 91.7291 92.0729 92.0364 92.1823 92.3281C93.4531 91.9999 95.0937 91.8385 97.0885 91.8385C104.182 91.8385 109.964 93.5104 114.432 96.8541C119.703 100.854 122.339 106.854 122.339 114.849C122.339 121.906 119.484 127.755 113.776 132.411C107.599 137.391 99.2916 139.88 88.8541 139.88C83.1094 139.88 78.1302 139.453 73.9115 138.599C69.6979 137.745 65.5885 136.245 61.5885 134.104C58.8594 130.141 57.5 126.115 57.5 122.021C57.5 117.932 58.8958 114.542 61.6979 111.854C64.4948 109.161 67.9427 107.818 72.0312 107.818C76.1198 107.818 79.4687 108.651 82.0677 110.323C84.6667 111.995 86.5833 114.724 87.8177 118.505ZM189.146 80.5468V134.755C185.073 137.812 179.854 139.338 173.495 139.338C168.583 139.338 164.698 138.338 161.823 136.338C158.807 134.302 157.297 131.359 157.297 127.505V116.703H161.167C162.661 116.703 163.594 116.516 163.979 116.13C164.359 115.75 164.552 115.125 164.552 114.25H147.427C147.427 115.125 147.588 115.75 147.917 116.13C148.245 116.516 149.026 116.703 150.26 116.703H154.406V134.755C151.609 136.573 148.953 137.792 146.443 138.411C143.937 139.026 141.375 139.338 138.755 139.338C133.849 139.338 129.958 138.338 127.083 136.338C124.068 134.302 122.557 131.359 122.557 127.505V73.2395C124.448 71.2395 126.786 69.7031 129.568 68.6354C132.349 67.5625 135.245 67.026 138.266 67.026C142.661 67.026 146.391 68.1145 149.443 70.2968C152.75 72.7708 154.406 76.1875 154.406 80.5468V90.2552H161.333C161.333 89.3124 161.161 88.6666 160.812 88.3177C160.469 87.9739 159.917 87.802 159.151 87.802H157.297V73.2395C159.187 71.2395 161.526 69.7031 164.307 68.6354C167.088 67.5625 169.984 67.026 173.005 67.026C177.401 67.026 181.13 68.1145 184.182 70.2968C187.49 72.7708 189.146 76.1875 189.146 80.5468ZM230.099 100.729C230.099 97.0885 229.937 94.5937 229.609 93.2291C229.281 91.8645 228.682 91.1822 227.812 91.1822C227.266 91.1822 226.776 91.3645 226.338 91.7291C226.411 92.3854 226.521 93.2552 226.667 94.3437C226.812 95.4374 226.885 97.7656 226.885 101.328V104.87C226.885 107.344 226.828 109.141 226.719 110.271C226.609 111.396 226.521 112.359 226.448 113.161C226.411 113.599 226.375 114.031 226.338 114.469C226.776 114.833 227.266 115.016 227.812 115.016C228.682 115.016 229.281 114.333 229.609 112.969C229.937 111.604 230.099 109.109 230.099 105.469V100.729ZM227.922 140.099C221.448 140.099 215.51 138.766 210.114 136.094C204.713 133.422 200.359 129.328 197.052 123.823C193.745 118.312 192.088 111.432 192.088 103.182C192.088 91.2187 195.687 81.875 202.891 75.151C209.286 69.2239 217.521 66.2604 227.594 66.2604C238.536 66.2604 247.198 69.651 253.578 76.4322C259.958 83.2135 263.151 92.1302 263.151 103.182C263.151 115.469 259.729 124.849 252.896 131.323C246.677 137.172 238.354 140.099 227.922 140.099ZM296.578 101.76C296.724 101.87 297.14 101.927 297.833 101.927C298.526 101.927 299.052 101.656 299.417 101.109C299.776 100.562 299.958 99.6718 299.958 98.4374V94.2916C299.958 92.9843 299.807 92.0468 299.495 91.4843C299.187 90.9218 298.677 90.6354 297.969 90.6354C297.26 90.6354 296.781 90.7083 296.526 90.8541C296.562 91.0364 296.578 91.3489 296.578 91.7812V101.76ZM297.943 126.411V134.755C296.344 136.099 294.088 137.203 291.182 138.057C288.271 138.911 285.234 139.338 282.073 139.338C277.562 139.338 273.875 138.463 271 136.719C267.729 134.719 266.094 131.828 266.094 128.047V76.2395C266.094 75.0781 266.885 73.9114 268.469 72.75C270.047 71.5885 272.239 70.5312 275.036 69.5885C281.036 67.552 287.89 66.5312 295.599 66.5312C306.25 66.5312 314.739 69.1875 321.062 74.4947C327.39 79.802 330.552 86.9374 330.552 95.901C330.552 104.865 327.698 111.833 321.989 116.812C316.5 121.542 308.885 123.906 299.141 123.906C296.922 123.906 294.552 123.641 292.026 123.115C289.5 122.588 287.797 122.125 286.927 121.724C286.635 122.016 286.489 122.411 286.489 122.922C286.489 124.776 290.307 125.937 297.943 126.411Z" stroke="#5271FF" stroke-width="1.81491"/>
</svg>
