<svg xmlns="http://www.w3.org/2000/svg" xmlns:xlink="http://www.w3.org/1999/xlink" width="431" zoomAndPan="magnify" viewBox="0 0 323.25 188.249992" height="251" preserveAspectRatio="xMidYMid meet" version="1.0"><defs><g/></defs><g fill="#000000" fill-opacity="1"><g transform="translate(45.809235, 101.777924)"><g><path d="M 23.3125 -14.890625 C 24.207031 -15.054688 24.65625 -15.515625 24.65625 -16.265625 C 24.65625 -17.015625 24.414062 -17.859375 23.9375 -18.796875 C 23.46875 -19.734375 22.769531 -20.625 21.84375 -21.46875 C 19.414062 -23.65625 16.128906 -24.75 11.984375 -24.75 C 9.941406 -24.75 8.035156 -24.40625 6.265625 -23.71875 C 4.378906 -24.675781 2.875 -26.191406 1.75 -28.265625 C 0.632812 -30.335938 0.078125 -32.570312 0.078125 -34.96875 C 0.078125 -41.238281 2.695312 -46.078125 7.9375 -49.484375 C 12.4375 -52.398438 17.984375 -53.859375 24.578125 -53.859375 C 29.484375 -53.859375 33.613281 -53.332031 36.96875 -52.28125 C 40.320312 -51.238281 43.066406 -49.898438 45.203125 -48.265625 C 45.828125 -46.460938 46.140625 -44.59375 46.140625 -42.65625 C 46.140625 -40.71875 45.878906 -38.957031 45.359375 -37.375 C 44.835938 -35.800781 44.085938 -34.535156 43.109375 -33.578125 C 42.179688 -34.265625 40.503906 -34.960938 38.078125 -35.671875 C 35.648438 -36.378906 33.441406 -36.734375 31.453125 -36.734375 C 29.460938 -36.734375 28.132812 -36.609375 27.46875 -36.359375 C 26.800781 -36.117188 26.46875 -35.738281 26.46875 -35.21875 C 26.46875 -34.96875 26.503906 -34.734375 26.578125 -34.515625 C 27.535156 -34.765625 28.765625 -34.890625 30.265625 -34.890625 C 35.585938 -34.890625 39.925781 -33.632812 43.28125 -31.125 C 47.226562 -28.125 49.203125 -23.625 49.203125 -17.625 C 49.203125 -12.332031 47.0625 -7.941406 42.78125 -4.453125 C 38.144531 -0.722656 31.914062 1.140625 24.09375 1.140625 C 19.78125 1.140625 16.039062 0.816406 12.875 0.171875 C 9.71875 -0.460938 6.640625 -1.582031 3.640625 -3.1875 C 1.597656 -6.164062 0.578125 -9.1875 0.578125 -12.25 C 0.578125 -15.3125 1.625 -17.851562 3.71875 -19.875 C 5.820312 -21.894531 8.40625 -22.90625 11.46875 -22.90625 C 14.539062 -22.90625 17.050781 -22.273438 19 -21.015625 C 20.945312 -19.765625 22.382812 -17.722656 23.3125 -14.890625 Z M 23.3125 -14.890625 "/></g></g><g transform="translate(93.867957, 101.777924)"><g><path d="M 51.25 -43.359375 L 51.25 -2.703125 C 48.195312 -0.410156 44.285156 0.734375 39.515625 0.734375 C 35.828125 0.734375 32.90625 -0.015625 30.75 -1.515625 C 28.488281 -3.035156 27.359375 -5.242188 27.359375 -8.140625 L 27.359375 -16.234375 L 30.265625 -16.234375 C 31.378906 -16.234375 32.078125 -16.375 32.359375 -16.65625 C 32.648438 -16.945312 32.796875 -17.421875 32.796875 -18.078125 L 19.953125 -18.078125 C 19.953125 -17.421875 20.078125 -16.945312 20.328125 -16.65625 C 20.578125 -16.375 21.164062 -16.234375 22.09375 -16.234375 L 25.1875 -16.234375 L 25.1875 -2.703125 C 23.09375 -1.335938 21.101562 -0.425781 19.21875 0.03125 C 17.34375 0.5 15.421875 0.734375 13.453125 0.734375 C 9.773438 0.734375 6.859375 -0.015625 4.703125 -1.515625 C 2.441406 -3.035156 1.3125 -5.242188 1.3125 -8.140625 L 1.3125 -48.84375 C 2.726562 -50.332031 4.476562 -51.476562 6.5625 -52.28125 C 8.644531 -53.09375 10.820312 -53.5 13.09375 -53.5 C 16.382812 -53.5 19.175781 -52.679688 21.46875 -51.046875 C 23.945312 -49.191406 25.1875 -46.628906 25.1875 -43.359375 L 25.1875 -36.078125 L 30.390625 -36.078125 C 30.390625 -36.785156 30.257812 -37.269531 30 -37.53125 C 29.738281 -37.789062 29.320312 -37.921875 28.75 -37.921875 L 27.359375 -37.921875 L 27.359375 -48.84375 C 28.773438 -50.332031 30.523438 -51.476562 32.609375 -52.28125 C 34.703125 -53.09375 36.878906 -53.5 39.140625 -53.5 C 42.441406 -53.5 45.238281 -52.679688 47.53125 -51.046875 C 50.007812 -49.191406 51.25 -46.628906 51.25 -43.359375 Z M 51.25 -43.359375 "/></g></g><g transform="translate(146.425795, 101.777924)"><g><path d="M 29.40625 -28.21875 C 29.40625 -30.945312 29.28125 -32.820312 29.03125 -33.84375 C 28.789062 -34.863281 28.34375 -35.375 27.6875 -35.375 C 27.28125 -35.375 26.910156 -35.238281 26.578125 -34.96875 C 26.640625 -34.476562 26.722656 -33.820312 26.828125 -33 C 26.941406 -32.1875 27 -30.441406 27 -27.765625 L 27 -25.109375 C 27 -23.253906 26.957031 -21.90625 26.875 -21.0625 C 26.789062 -20.21875 26.722656 -19.492188 26.671875 -18.890625 C 26.640625 -18.566406 26.609375 -18.242188 26.578125 -17.921875 C 26.910156 -17.640625 27.28125 -17.5 27.6875 -17.5 C 28.34375 -17.5 28.789062 -18.007812 29.03125 -19.03125 C 29.28125 -20.0625 29.40625 -21.9375 29.40625 -24.65625 Z M 27.765625 1.3125 C 22.910156 1.3125 18.457031 0.3125 14.40625 -1.6875 C 10.363281 -3.695312 7.101562 -6.765625 4.625 -10.890625 C 2.144531 -15.023438 0.90625 -20.1875 0.90625 -26.375 C 0.90625 -35.351562 3.601562 -42.363281 9 -47.40625 C 13.800781 -51.851562 19.976562 -54.078125 27.53125 -54.078125 C 35.738281 -54.078125 42.234375 -51.53125 47.015625 -46.4375 C 51.796875 -41.351562 54.1875 -34.664062 54.1875 -26.375 C 54.1875 -17.164062 51.625 -10.132812 46.5 -5.28125 C 41.84375 -0.882812 35.597656 1.3125 27.765625 1.3125 Z M 27.765625 1.3125 "/></g></g><g transform="translate(201.519496, 101.777924)"><g><path d="M 24.171875 -27.4375 C 24.285156 -27.363281 24.597656 -27.328125 25.109375 -27.328125 C 25.628906 -27.328125 26.023438 -27.53125 26.296875 -27.9375 C 26.566406 -28.34375 26.703125 -29.007812 26.703125 -29.9375 L 26.703125 -33.046875 C 26.703125 -34.023438 26.585938 -34.722656 26.359375 -35.140625 C 26.128906 -35.566406 25.75 -35.78125 25.21875 -35.78125 C 24.6875 -35.78125 24.320312 -35.726562 24.125 -35.625 C 24.15625 -35.488281 24.171875 -35.253906 24.171875 -34.921875 Z M 25.1875 -8.953125 L 25.1875 -2.703125 C 23.988281 -1.691406 22.296875 -0.863281 20.109375 -0.21875 C 17.929688 0.414062 15.660156 0.734375 13.296875 0.734375 C 9.910156 0.734375 7.140625 0.078125 4.984375 -1.234375 C 2.535156 -2.734375 1.3125 -4.898438 1.3125 -7.734375 L 1.3125 -46.59375 C 1.3125 -47.457031 1.90625 -48.328125 3.09375 -49.203125 C 4.28125 -50.078125 5.921875 -50.867188 8.015625 -51.578125 C 12.515625 -53.097656 17.65625 -53.859375 23.4375 -53.859375 C 31.425781 -53.859375 37.789062 -51.867188 42.53125 -47.890625 C 47.28125 -43.910156 49.65625 -38.5625 49.65625 -31.84375 C 49.65625 -25.125 47.515625 -19.894531 43.234375 -16.15625 C 39.117188 -12.613281 33.40625 -10.84375 26.09375 -10.84375 C 24.425781 -10.84375 22.644531 -11.039062 20.75 -11.4375 C 18.863281 -11.832031 17.59375 -12.175781 16.9375 -12.46875 C 16.71875 -12.25 16.609375 -11.953125 16.609375 -11.578125 C 16.609375 -10.179688 19.46875 -9.304688 25.1875 -8.953125 Z M 25.1875 -8.953125 "/></g></g></g><path stroke-linecap="butt" transform="matrix(0.698044, 0, 0, 0.698044, 33.332379, 21.504417)" fill="none" stroke-linejoin="miter" d="M 55.399809 90.671103 C 56.686887 90.436071 57.330426 89.78134 57.330426 88.70691 C 57.330426 87.63248 56.98907 86.423746 56.306359 85.075112 C 55.623648 83.726478 54.61637 82.450593 53.29012 81.236263 C 49.81501 78.1137 45.103186 76.552419 39.16584 76.552419 C 36.239137 76.552419 33.502698 77.03927 30.962118 78.012972 C 28.270447 76.64755 26.121586 74.481902 24.521133 71.510431 C 22.92068 68.544556 22.114857 65.338054 22.114857 61.902115 C 22.114857 52.92055 25.869767 45.987118 33.368394 41.101818 C 39.814975 36.921614 47.761282 34.834309 57.21291 34.834309 C 64.24707 34.834309 70.162032 35.584172 74.968988 37.089493 C 79.775944 38.589219 83.698733 40.514239 86.748548 42.858959 C 87.643906 45.438711 88.091586 48.113595 88.091586 50.889206 C 88.091586 53.659221 87.72225 56.177417 86.977983 58.443793 C 86.239313 60.710169 85.164883 62.528866 83.760289 63.894288 C 82.428443 62.920586 80.027763 61.924499 76.552653 60.906029 C 73.071947 59.893155 69.910212 59.38392 67.056257 59.38392 C 64.207898 59.38392 62.305261 59.557395 61.348347 59.909943 C 60.391432 60.26249 59.910177 60.810897 59.910177 61.549568 C 59.910177 61.902115 59.966137 62.232279 60.083653 62.545654 C 61.454671 62.193107 63.211812 62.019631 65.360672 62.019631 C 72.976815 62.019631 79.188365 63.815944 83.989725 67.40857 C 89.658463 71.706291 92.490034 78.152872 92.490034 86.748313 C 92.490034 94.325285 89.423431 100.615178 83.290226 105.612397 C 76.647785 110.962164 67.72218 113.642644 56.513411 113.642644 C 50.341033 113.642644 44.98567 113.183773 40.458514 112.26603 C 35.925762 111.348288 31.510525 109.736642 27.212805 107.431094 C 24.286101 103.172546 22.819952 98.846845 22.819952 94.448396 C 22.819952 90.055544 24.325273 86.412554 27.33032 83.525023 C 30.340963 80.631896 34.039913 79.18813 38.432766 79.18813 C 42.831214 79.18813 46.42384 80.083489 49.216239 81.885398 C 52.008639 83.68171 54.067963 86.608414 55.399809 90.671103 Z M 164.264209 49.89312 L 164.264209 108.130593 C 159.888144 111.41544 154.286558 113.055065 147.448257 113.055065 C 142.176834 113.055065 137.996629 111.980635 134.907642 109.831774 C 131.667564 107.643742 130.044727 104.482007 130.044727 100.340974 L 130.044727 88.740486 L 134.208144 88.740486 C 135.808597 88.740486 136.815875 88.533434 137.224383 88.124927 C 137.63289 87.710824 137.839942 87.039305 137.839942 86.099178 L 119.440325 86.099178 C 119.440325 87.039305 119.619396 87.710824 119.966348 88.124927 C 120.318895 88.533434 121.158294 88.740486 122.490139 88.740486 L 126.938952 88.740486 L 126.938952 108.130593 C 123.933905 110.083594 121.07995 111.393056 118.388278 112.058979 C 115.691011 112.724901 112.937784 113.055065 110.123 113.055065 C 104.851577 113.055065 100.671372 111.980635 97.587982 109.831774 C 94.342307 107.643742 92.725066 104.482007 92.725066 100.340974 L 92.725066 42.036349 C 94.75641 39.893085 97.263414 38.242267 100.251673 37.089493 C 103.239932 35.936719 106.356899 35.360332 109.596977 35.360332 C 114.325589 35.360332 118.326723 36.529894 121.611569 38.874614 C 125.165023 41.53271 126.938952 45.20368 126.938952 49.89312 L 126.938952 60.31845 L 134.381619 60.31845 C 134.381619 59.305576 134.196952 58.611673 133.827616 58.242337 C 133.452685 57.867406 132.85951 57.682738 132.036899 57.682738 L 130.044727 57.682738 L 130.044727 42.036349 C 132.076071 39.893085 134.588671 38.242267 137.57693 37.089493 C 140.565189 35.936719 143.682156 35.360332 146.922234 35.360332 C 151.650846 35.360332 155.651979 36.529894 158.93123 38.874614 C 162.49028 41.53271 164.264209 45.20368 164.264209 49.89312 Z M 208.271078 71.571987 C 208.271078 67.665986 208.092007 64.97991 207.739459 63.513761 C 207.392508 62.047611 206.743373 61.314536 205.808843 61.314536 C 205.221264 61.314536 204.695241 61.510396 204.225177 61.902115 C 204.303521 62.60721 204.421037 63.541741 204.577725 64.716899 C 204.734412 65.886461 204.812756 68.387868 204.812756 72.215526 L 204.812756 76.020799 C 204.812756 78.678895 204.7512 80.615108 204.639281 81.823842 C 204.521765 83.032576 204.421037 84.067834 204.342693 84.929616 C 204.303521 85.39968 204.264349 85.869743 204.225177 86.33421 C 204.695241 86.725929 205.221264 86.921789 205.808843 86.921789 C 206.743373 86.921789 207.392508 86.188714 207.739459 84.722565 C 208.092007 83.262011 208.271078 80.575936 208.271078 76.669934 Z M 205.926358 113.877675 C 198.970542 113.877675 192.596709 112.439506 186.793667 109.568763 C 180.996221 106.69802 176.317972 102.305167 172.758923 96.384609 C 169.205469 90.464051 167.43154 83.071748 167.43154 74.207699 C 167.43154 61.353708 171.298369 51.314501 179.032028 44.090077 C 185.903904 37.72184 194.751165 34.537722 205.573811 34.537722 C 217.330987 34.537722 226.637119 38.180711 233.492208 45.466691 C 240.347296 52.752671 243.777638 62.333007 243.777638 74.207699 C 243.777638 87.40864 240.106669 97.487019 232.759133 104.442835 C 226.083116 110.732729 217.135128 113.877675 205.926358 113.877675 Z M 279.692706 72.685589 C 279.849394 72.803105 280.302669 72.859065 281.041339 72.859065 C 281.785606 72.859065 282.350801 72.568073 282.742521 71.980494 C 283.13424 71.392915 283.3301 70.436001 283.3301 69.109751 L 283.3301 64.655343 C 283.3301 63.250749 283.16222 62.243471 282.832056 61.639104 C 282.496297 61.034737 281.953486 60.732553 281.186835 60.732553 C 280.425781 60.732553 279.910949 60.810897 279.636746 60.967585 C 279.675918 61.157849 279.692706 61.493608 279.692706 61.963671 Z M 281.158855 99.165816 L 281.158855 108.130593 C 279.440886 109.579955 277.017822 110.760709 273.89526 111.678451 C 270.767101 112.596194 267.510234 113.055065 264.107872 113.055065 C 259.26734 113.055065 255.299783 112.114938 252.216392 110.240282 C 248.696514 108.091421 246.939373 104.985646 246.939373 100.928553 L 246.939373 45.259639 C 246.939373 44.011734 247.789964 42.763828 249.491145 41.510326 C 251.18673 40.26242 253.542642 39.126434 256.553285 38.11356 C 262.99427 35.925527 270.358594 34.834309 278.64066 34.834309 C 290.08446 34.834309 299.205925 37.682668 306.005053 43.384983 C 312.798586 49.087297 316.200948 56.753804 316.200948 66.384504 C 316.200948 76.015203 313.134345 83.502639 307.00114 88.858002 C 301.102966 93.933565 292.916031 96.474145 282.451529 96.474145 C 280.067637 96.474145 277.515865 96.188749 274.80181 95.623554 C 272.087755 95.058359 270.263462 94.560316 269.323335 94.129425 C 269.00996 94.4428 268.853272 94.873692 268.853272 95.416503 C 268.853272 97.408675 272.955133 98.662177 281.158855 99.165816 Z M 281.158855 99.165816 " stroke="#cb4195" stroke-width="1.95" stroke-opacity="1" stroke-miterlimit="4"/><g fill="#ffffff" fill-opacity="1"><g transform="translate(68.921211, 126.859235)"><g><path d="M 23.3125 -14.890625 C 24.207031 -15.054688 24.65625 -15.515625 24.65625 -16.265625 C 24.65625 -17.015625 24.414062 -17.859375 23.9375 -18.796875 C 23.46875 -19.734375 22.769531 -20.625 21.84375 -21.46875 C 19.414062 -23.65625 16.128906 -24.75 11.984375 -24.75 C 9.941406 -24.75 8.035156 -24.40625 6.265625 -23.71875 C 4.378906 -24.675781 2.875 -26.191406 1.75 -28.265625 C 0.632812 -30.335938 0.078125 -32.570312 0.078125 -34.96875 C 0.078125 -41.238281 2.695312 -46.078125 7.9375 -49.484375 C 12.4375 -52.398438 17.984375 -53.859375 24.578125 -53.859375 C 29.484375 -53.859375 33.613281 -53.332031 36.96875 -52.28125 C 40.320312 -51.238281 43.066406 -49.898438 45.203125 -48.265625 C 45.828125 -46.460938 46.140625 -44.59375 46.140625 -42.65625 C 46.140625 -40.71875 45.878906 -38.957031 45.359375 -37.375 C 44.835938 -35.800781 44.085938 -34.535156 43.109375 -33.578125 C 42.179688 -34.265625 40.503906 -34.960938 38.078125 -35.671875 C 35.648438 -36.378906 33.441406 -36.734375 31.453125 -36.734375 C 29.460938 -36.734375 28.132812 -36.609375 27.46875 -36.359375 C 26.800781 -36.117188 26.46875 -35.738281 26.46875 -35.21875 C 26.46875 -34.96875 26.503906 -34.734375 26.578125 -34.515625 C 27.535156 -34.765625 28.765625 -34.890625 30.265625 -34.890625 C 35.585938 -34.890625 39.925781 -33.632812 43.28125 -31.125 C 47.226562 -28.125 49.203125 -23.625 49.203125 -17.625 C 49.203125 -12.332031 47.0625 -7.941406 42.78125 -4.453125 C 38.144531 -0.722656 31.914062 1.140625 24.09375 1.140625 C 19.78125 1.140625 16.039062 0.816406 12.875 0.171875 C 9.71875 -0.460938 6.640625 -1.582031 3.640625 -3.1875 C 1.597656 -6.164062 0.578125 -9.1875 0.578125 -12.25 C 0.578125 -15.3125 1.625 -17.851562 3.71875 -19.875 C 5.820312 -21.894531 8.40625 -22.90625 11.46875 -22.90625 C 14.539062 -22.90625 17.050781 -22.273438 19 -21.015625 C 20.945312 -19.765625 22.382812 -17.722656 23.3125 -14.890625 Z M 23.3125 -14.890625 "/></g></g><g transform="translate(116.979934, 126.859235)"><g><path d="M 51.25 -43.359375 L 51.25 -2.703125 C 48.195312 -0.410156 44.285156 0.734375 39.515625 0.734375 C 35.828125 0.734375 32.90625 -0.015625 30.75 -1.515625 C 28.488281 -3.035156 27.359375 -5.242188 27.359375 -8.140625 L 27.359375 -16.234375 L 30.265625 -16.234375 C 31.378906 -16.234375 32.078125 -16.375 32.359375 -16.65625 C 32.648438 -16.945312 32.796875 -17.421875 32.796875 -18.078125 L 19.953125 -18.078125 C 19.953125 -17.421875 20.078125 -16.945312 20.328125 -16.65625 C 20.578125 -16.375 21.164062 -16.234375 22.09375 -16.234375 L 25.1875 -16.234375 L 25.1875 -2.703125 C 23.09375 -1.335938 21.101562 -0.425781 19.21875 0.03125 C 17.34375 0.5 15.421875 0.734375 13.453125 0.734375 C 9.773438 0.734375 6.859375 -0.015625 4.703125 -1.515625 C 2.441406 -3.035156 1.3125 -5.242188 1.3125 -8.140625 L 1.3125 -48.84375 C 2.726562 -50.332031 4.476562 -51.476562 6.5625 -52.28125 C 8.644531 -53.09375 10.820312 -53.5 13.09375 -53.5 C 16.382812 -53.5 19.175781 -52.679688 21.46875 -51.046875 C 23.945312 -49.191406 25.1875 -46.628906 25.1875 -43.359375 L 25.1875 -36.078125 L 30.390625 -36.078125 C 30.390625 -36.785156 30.257812 -37.269531 30 -37.53125 C 29.738281 -37.789062 29.320312 -37.921875 28.75 -37.921875 L 27.359375 -37.921875 L 27.359375 -48.84375 C 28.773438 -50.332031 30.523438 -51.476562 32.609375 -52.28125 C 34.703125 -53.09375 36.878906 -53.5 39.140625 -53.5 C 42.441406 -53.5 45.238281 -52.679688 47.53125 -51.046875 C 50.007812 -49.191406 51.25 -46.628906 51.25 -43.359375 Z M 51.25 -43.359375 "/></g></g><g transform="translate(169.537771, 126.859235)"><g><path d="M 29.40625 -28.21875 C 29.40625 -30.945312 29.28125 -32.820312 29.03125 -33.84375 C 28.789062 -34.863281 28.34375 -35.375 27.6875 -35.375 C 27.28125 -35.375 26.910156 -35.238281 26.578125 -34.96875 C 26.640625 -34.476562 26.722656 -33.820312 26.828125 -33 C 26.941406 -32.1875 27 -30.441406 27 -27.765625 L 27 -25.109375 C 27 -23.253906 26.957031 -21.90625 26.875 -21.0625 C 26.789062 -20.21875 26.722656 -19.492188 26.671875 -18.890625 C 26.640625 -18.566406 26.609375 -18.242188 26.578125 -17.921875 C 26.910156 -17.640625 27.28125 -17.5 27.6875 -17.5 C 28.34375 -17.5 28.789062 -18.007812 29.03125 -19.03125 C 29.28125 -20.0625 29.40625 -21.9375 29.40625 -24.65625 Z M 27.765625 1.3125 C 22.910156 1.3125 18.457031 0.3125 14.40625 -1.6875 C 10.363281 -3.695312 7.101562 -6.765625 4.625 -10.890625 C 2.144531 -15.023438 0.90625 -20.1875 0.90625 -26.375 C 0.90625 -35.351562 3.601562 -42.363281 9 -47.40625 C 13.800781 -51.851562 19.976562 -54.078125 27.53125 -54.078125 C 35.738281 -54.078125 42.234375 -51.53125 47.015625 -46.4375 C 51.796875 -41.351562 54.1875 -34.664062 54.1875 -26.375 C 54.1875 -17.164062 51.625 -10.132812 46.5 -5.28125 C 41.84375 -0.882812 35.597656 1.3125 27.765625 1.3125 Z M 27.765625 1.3125 "/></g></g><g transform="translate(224.631472, 126.859235)"><g><path d="M 24.171875 -27.4375 C 24.285156 -27.363281 24.597656 -27.328125 25.109375 -27.328125 C 25.628906 -27.328125 26.023438 -27.53125 26.296875 -27.9375 C 26.566406 -28.34375 26.703125 -29.007812 26.703125 -29.9375 L 26.703125 -33.046875 C 26.703125 -34.023438 26.585938 -34.722656 26.359375 -35.140625 C 26.128906 -35.566406 25.75 -35.78125 25.21875 -35.78125 C 24.6875 -35.78125 24.320312 -35.726562 24.125 -35.625 C 24.15625 -35.488281 24.171875 -35.253906 24.171875 -34.921875 Z M 25.1875 -8.953125 L 25.1875 -2.703125 C 23.988281 -1.691406 22.296875 -0.863281 20.109375 -0.21875 C 17.929688 0.414062 15.660156 0.734375 13.296875 0.734375 C 9.910156 0.734375 7.140625 0.078125 4.984375 -1.234375 C 2.535156 -2.734375 1.3125 -4.898438 1.3125 -7.734375 L 1.3125 -46.59375 C 1.3125 -47.457031 1.90625 -48.328125 3.09375 -49.203125 C 4.28125 -50.078125 5.921875 -50.867188 8.015625 -51.578125 C 12.515625 -53.097656 17.65625 -53.859375 23.4375 -53.859375 C 31.425781 -53.859375 37.789062 -51.867188 42.53125 -47.890625 C 47.28125 -43.910156 49.65625 -38.5625 49.65625 -31.84375 C 49.65625 -25.125 47.515625 -19.894531 43.234375 -16.15625 C 39.117188 -12.613281 33.40625 -10.84375 26.09375 -10.84375 C 24.425781 -10.84375 22.644531 -11.039062 20.75 -11.4375 C 18.863281 -11.832031 17.59375 -12.175781 16.9375 -12.46875 C 16.71875 -12.25 16.609375 -11.953125 16.609375 -11.578125 C 16.609375 -10.179688 19.46875 -9.304688 25.1875 -8.953125 Z M 25.1875 -8.953125 "/></g></g></g><path stroke-linecap="butt" transform="matrix(0.698044, 0, 0, 0.698044, 56.444356, 46.585728)" fill="none" stroke-linejoin="miter" d="M 55.396081 90.672135 C 56.688755 90.437104 57.332294 89.782373 57.332294 88.707943 C 57.332294 87.633513 56.990939 86.424779 56.308228 85.076145 C 55.625517 83.727511 54.618239 82.451625 53.286393 81.237295 C 49.811283 78.114733 45.105055 76.553451 39.167709 76.553451 C 36.241006 76.553451 33.504566 77.040302 30.963987 78.014005 C 28.272315 76.648583 26.123455 74.482935 24.517406 71.511464 C 22.916952 68.545589 22.116726 65.339086 22.116726 61.903148 C 22.116726 52.915987 25.866039 45.982555 33.364667 41.102851 C 39.811248 36.922646 47.76315 34.829746 57.214778 34.829746 C 64.243342 34.829746 70.1639 35.585204 74.970856 37.090526 C 79.772216 38.590251 83.700601 40.515272 86.74482 42.859992 C 87.645775 45.439744 88.093454 48.114627 88.093454 50.884643 C 88.093454 53.660254 87.724119 56.17845 86.979852 58.444826 C 86.235585 60.711202 85.166751 62.529899 83.756561 63.895321 C 82.430312 62.916022 80.029632 61.919936 76.548926 60.907062 C 73.073815 59.888591 69.912081 59.384952 67.058126 59.384952 C 64.209766 59.384952 62.301534 59.558428 61.344619 59.910975 C 60.387705 60.263523 59.912046 60.806334 59.912046 61.550601 C 59.912046 61.903148 59.968006 62.233311 60.085521 62.546687 C 61.450943 62.194139 63.21368 62.020664 65.356944 62.020664 C 72.978684 62.020664 79.190233 63.816977 83.991593 67.409603 C 89.654735 71.707323 92.486307 78.153905 92.486307 86.74375 C 92.486307 94.326317 89.419704 100.610615 83.286498 105.61343 C 76.649653 110.963197 67.724048 113.638081 56.509683 113.638081 C 50.337306 113.638081 44.987539 113.179209 40.454787 112.261467 C 35.92763 111.343724 31.512394 109.732079 27.214673 107.432127 C 24.282374 103.173578 22.82182 98.847878 22.82182 94.449429 C 22.82182 90.056576 24.321546 86.413587 27.332189 83.526055 C 30.337236 80.632928 34.041781 79.189163 38.434634 79.189163 C 42.827487 79.189163 46.425708 80.084521 49.218108 81.880834 C 52.010507 83.677147 54.069832 86.609446 55.396081 90.672135 Z M 164.266077 49.888556 L 164.266077 108.131626 C 159.890013 111.416472 154.28283 113.056098 147.450126 113.056098 C 142.173107 113.056098 137.998498 111.981667 134.909511 109.832807 C 131.669432 107.644775 130.046595 104.48304 130.046595 100.342007 L 130.046595 88.735923 L 134.204416 88.735923 C 135.810465 88.735923 136.812148 88.534467 137.226251 88.120364 C 137.634758 87.711856 137.84181 87.040338 137.84181 86.100211 L 119.442193 86.100211 C 119.442193 87.040338 119.615669 87.711856 119.968216 88.120364 C 120.320764 88.534467 121.160162 88.735923 122.486412 88.735923 L 126.94082 88.735923 L 126.94082 108.131626 C 123.935773 110.084627 121.081818 111.394088 118.384551 112.060011 C 115.692879 112.720338 112.939652 113.056098 110.124869 113.056098 C 104.853446 113.056098 100.673241 111.981667 97.584254 109.832807 C 94.344176 107.644775 92.721338 104.48304 92.721338 100.342007 L 92.721338 42.037382 C 94.752683 39.888521 97.265283 38.237704 100.253542 37.090526 C 103.2418 35.937752 106.353171 35.361365 109.598846 35.361365 C 114.321862 35.361365 118.328591 36.530927 121.607841 38.875647 C 125.161295 41.533742 126.94082 45.204712 126.94082 49.888556 L 126.94082 60.319483 L 134.383488 60.319483 C 134.383488 59.306608 134.19882 58.612706 133.823889 58.237774 C 133.454553 57.868439 132.861378 57.683771 132.038768 57.683771 L 130.046595 57.683771 L 130.046595 42.037382 C 132.07794 39.888521 134.590539 38.237704 137.578798 37.090526 C 140.567057 35.937752 143.678428 35.361365 146.924103 35.361365 C 151.647119 35.361365 155.653848 36.530927 158.933098 38.875647 C 162.486552 41.533742 164.266077 45.204712 164.266077 49.888556 Z M 208.267351 71.57302 C 208.267351 67.661422 208.093875 64.980943 207.741328 63.514793 C 207.38878 62.048644 206.745242 61.315569 205.810711 61.315569 C 205.223132 61.315569 204.697109 61.511429 204.227046 61.903148 C 204.30539 62.608243 204.422905 63.542773 204.579593 64.712335 C 204.736281 65.887493 204.814625 68.388901 204.814625 72.216559 L 204.814625 76.021832 C 204.814625 78.679928 204.753069 80.610544 204.635553 81.824874 C 204.518037 83.033608 204.422905 84.068867 204.344562 84.930649 C 204.30539 85.400712 204.266218 85.865179 204.227046 86.335243 C 204.697109 86.726962 205.223132 86.922822 205.810711 86.922822 C 206.745242 86.922822 207.38878 86.189747 207.741328 84.723597 C 208.093875 83.257448 208.267351 80.576968 208.267351 76.665371 Z M 205.928227 113.873112 C 198.972411 113.873112 192.592981 112.440539 186.795535 109.569795 C 180.992493 106.699052 176.314245 102.300604 172.760791 96.385642 C 169.207337 90.465084 167.427812 83.07278 167.427812 74.208731 C 167.427812 61.354741 171.294641 51.315534 179.033896 44.09111 C 185.905773 37.722873 194.753034 34.538754 205.575679 34.538754 C 217.332856 34.538754 226.638988 38.181744 233.494076 45.467724 C 240.349165 52.753703 243.779507 62.334039 243.779507 74.208731 C 243.779507 87.409673 240.102941 97.488052 232.761002 104.443868 C 226.079389 110.728165 217.136996 113.873112 205.928227 113.873112 Z M 279.694574 72.681026 C 279.851262 72.798542 280.298941 72.860097 281.043208 72.860097 C 281.787475 72.860097 282.35267 72.569106 282.744389 71.981527 C 283.130512 71.393948 283.326372 70.437034 283.326372 69.110784 L 283.326372 64.656375 C 283.326372 63.251782 283.164088 62.244503 282.828329 61.640136 C 282.498165 61.035769 281.949758 60.72799 281.188704 60.72799 C 280.427649 60.72799 279.912818 60.806334 279.638614 60.963022 C 279.677786 61.158881 279.694574 61.494641 279.694574 61.959108 Z M 281.160724 99.166849 L 281.160724 108.131626 C 279.442755 109.575391 277.019691 110.761741 273.897128 111.679484 C 270.768969 112.597226 267.506507 113.056098 264.109741 113.056098 C 259.263613 113.056098 255.301651 112.115971 252.212665 110.241314 C 248.698383 108.092454 246.941242 104.986679 246.941242 100.92399 L 246.941242 45.260672 C 246.941242 44.012766 247.791832 42.759264 249.493013 41.511358 C 251.188598 40.263453 253.54451 39.127466 256.549557 38.114592 C 262.996138 35.92656 270.360462 34.829746 278.642528 34.829746 C 290.086329 34.829746 299.207793 37.683701 306.001326 43.386015 C 312.800454 49.08833 316.197221 56.754837 316.197221 66.385536 C 316.197221 76.016236 313.130618 83.503671 306.997412 88.853438 C 301.099238 93.934598 292.9179 96.475178 282.447802 96.475178 C 280.06391 96.475178 277.517734 96.189782 274.803678 95.624587 C 272.089623 95.059392 270.259734 94.561349 269.325204 94.130458 C 269.011828 94.443833 268.855141 94.869128 268.855141 95.417535 C 268.855141 97.409708 272.957002 98.657614 281.160724 99.166849 Z M 281.160724 99.166849 " stroke="#5271ff" stroke-width="1.95" stroke-opacity="1" stroke-miterlimit="4"/></svg>