<svg xmlns="http://www.w3.org/2000/svg" xmlns:xlink="http://www.w3.org/1999/xlink" width="121" zoomAndPan="magnify" viewBox="0 0 90.75 90.75" height="121" preserveAspectRatio="xMidYMid meet" version="1.0"><defs><clipPath id="b58356111a"><path d="M 6.566406 7.042969 L 83.515625 7.042969 L 83.515625 83.992188 L 6.566406 83.992188 Z M 6.566406 7.042969 " clip-rule="nonzero"/></clipPath><clipPath id="bf993dd1ed"><path d="M 0.0429688 0.519531 L 90.042969 0.519531 L 90.042969 90.5 L 0.0429688 90.5 Z M 0.0429688 0.519531 " clip-rule="nonzero"/></clipPath></defs><g clip-path="url(#b58356111a)"><path fill="#ffffff" d="M 83.515625 45.519531 C 83.515625 46.777344 83.453125 48.035156 83.332031 49.289062 C 83.207031 50.542969 83.023438 51.789062 82.777344 53.023438 C 82.53125 54.257812 82.226562 55.480469 81.859375 56.6875 C 81.492188 57.890625 81.070312 59.078125 80.585938 60.242188 C 80.105469 61.40625 79.566406 62.542969 78.972656 63.65625 C 78.378906 64.765625 77.730469 65.84375 77.03125 66.894531 C 76.332031 67.941406 75.582031 68.953125 74.78125 69.925781 C 73.984375 70.898438 73.136719 71.832031 72.246094 72.722656 C 71.355469 73.613281 70.425781 74.460938 69.449219 75.257812 C 68.476562 76.058594 67.464844 76.808594 66.417969 77.507812 C 65.371094 78.207031 64.289062 78.855469 63.179688 79.449219 C 62.066406 80.042969 60.929688 80.582031 59.765625 81.0625 C 58.601562 81.546875 57.417969 81.96875 56.210938 82.335938 C 55.003906 82.703125 53.785156 83.007812 52.546875 83.253906 C 51.3125 83.5 50.066406 83.683594 48.8125 83.808594 C 47.558594 83.929688 46.300781 83.992188 45.042969 83.992188 C 43.78125 83.992188 42.523438 83.929688 41.269531 83.808594 C 40.015625 83.683594 38.769531 83.5 37.535156 83.253906 C 36.300781 83.007812 35.078125 82.703125 33.871094 82.335938 C 32.667969 81.96875 31.480469 81.546875 30.316406 81.0625 C 29.152344 80.582031 28.015625 80.042969 26.90625 79.449219 C 25.792969 78.855469 24.714844 78.207031 23.664062 77.507812 C 22.617188 76.808594 21.605469 76.058594 20.632812 75.257812 C 19.660156 74.460938 18.726562 73.613281 17.835938 72.722656 C 16.945312 71.832031 16.097656 70.898438 15.300781 69.925781 C 14.5 68.953125 13.75 67.941406 13.050781 66.894531 C 12.351562 65.84375 11.703125 64.765625 11.109375 63.65625 C 10.515625 62.542969 9.976562 61.40625 9.496094 60.242188 C 9.011719 59.078125 8.589844 57.890625 8.222656 56.6875 C 7.859375 55.480469 7.550781 54.257812 7.304688 53.023438 C 7.058594 51.789062 6.875 50.542969 6.75 49.289062 C 6.628906 48.035156 6.566406 46.777344 6.566406 45.519531 C 6.566406 44.257812 6.628906 43 6.75 41.746094 C 6.875 40.492188 7.058594 39.246094 7.304688 38.011719 C 7.550781 36.777344 7.859375 35.554688 8.222656 34.347656 C 8.589844 33.144531 9.011719 31.957031 9.496094 30.792969 C 9.976562 29.628906 10.515625 28.492188 11.109375 27.378906 C 11.703125 26.269531 12.351562 25.191406 13.050781 24.140625 C 13.75 23.09375 14.5 22.082031 15.300781 21.109375 C 16.097656 20.136719 16.945312 19.203125 17.835938 18.3125 C 18.726562 17.421875 19.660156 16.574219 20.632812 15.777344 C 21.605469 14.976562 22.617188 14.226562 23.664062 13.527344 C 24.714844 12.828125 25.792969 12.179688 26.90625 11.585938 C 28.015625 10.992188 29.152344 10.453125 30.316406 9.972656 C 31.480469 9.488281 32.667969 9.066406 33.871094 8.699219 C 35.078125 8.332031 36.300781 8.027344 37.535156 7.78125 C 38.769531 7.535156 40.015625 7.351562 41.269531 7.226562 C 42.523438 7.105469 43.78125 7.042969 45.042969 7.042969 C 46.300781 7.042969 47.558594 7.105469 48.8125 7.226562 C 50.066406 7.351562 51.3125 7.535156 52.546875 7.78125 C 53.785156 8.027344 55.003906 8.332031 56.210938 8.699219 C 57.417969 9.066406 58.601562 9.488281 59.765625 9.972656 C 60.929688 10.453125 62.066406 10.992188 63.179688 11.585938 C 64.289062 12.179688 65.371094 12.828125 66.417969 13.527344 C 67.464844 14.226562 68.476562 14.976562 69.449219 15.777344 C 70.425781 16.574219 71.355469 17.421875 72.246094 18.3125 C 73.136719 19.203125 73.984375 20.136719 74.78125 21.109375 C 75.582031 22.082031 76.332031 23.09375 77.03125 24.140625 C 77.730469 25.191406 78.378906 26.269531 78.972656 27.378906 C 79.566406 28.492188 80.105469 29.628906 80.585938 30.792969 C 81.070312 31.957031 81.492188 33.144531 81.859375 34.347656 C 82.226562 35.554688 82.53125 36.777344 82.777344 38.011719 C 83.023438 39.246094 83.207031 40.492188 83.332031 41.746094 C 83.453125 43 83.515625 44.257812 83.515625 45.519531 Z M 83.515625 45.519531 " fill-opacity="1" fill-rule="nonzero"/></g><g clip-path="url(#bf993dd1ed)"><path fill="#000000" d="M 45.042969 0.519531 C 43.566406 0.519531 42.097656 0.589844 40.632812 0.734375 C 39.164062 0.878906 37.707031 1.09375 36.261719 1.382812 C 34.816406 1.671875 33.390625 2.027344 31.980469 2.457031 C 30.570312 2.882812 29.183594 3.378906 27.820312 3.945312 C 26.460938 4.507812 25.128906 5.136719 23.828125 5.832031 C 22.527344 6.527344 21.265625 7.28125 20.042969 8.101562 C 18.816406 8.921875 17.632812 9.796875 16.492188 10.734375 C 15.355469 11.667969 14.265625 12.65625 13.222656 13.699219 C 12.179688 14.742188 11.191406 15.832031 10.257812 16.96875 C 9.320312 18.109375 8.445312 19.292969 7.625 20.515625 C 6.808594 21.742188 6.050781 23.003906 5.355469 24.304688 C 4.660156 25.605469 4.03125 26.9375 3.46875 28.296875 C 2.902344 29.660156 2.40625 31.042969 1.980469 32.457031 C 1.550781 33.867188 1.195312 35.292969 0.90625 36.738281 C 0.617188 38.183594 0.402344 39.640625 0.257812 41.105469 C 0.113281 42.574219 0.0429688 44.042969 0.0429688 45.519531 C 0.0429688 46.992188 0.113281 48.460938 0.257812 49.929688 C 0.402344 51.394531 0.617188 52.851562 0.90625 54.296875 C 1.195312 55.742188 1.550781 57.171875 1.980469 58.582031 C 2.40625 59.992188 2.902344 61.378906 3.46875 62.738281 C 4.03125 64.101562 4.660156 65.429688 5.355469 66.730469 C 6.050781 68.03125 6.808594 69.292969 7.625 70.519531 C 8.445312 71.746094 9.320312 72.925781 10.257812 74.066406 C 11.191406 75.203125 12.179688 76.296875 13.222656 77.335938 C 14.265625 78.378906 15.355469 79.367188 16.492188 80.304688 C 17.632812 81.238281 18.816406 82.117188 20.042969 82.933594 C 21.265625 83.753906 22.527344 84.511719 23.828125 85.203125 C 25.128906 85.898438 26.460938 86.527344 27.820312 87.09375 C 29.183594 87.65625 30.570312 88.152344 31.980469 88.582031 C 33.390625 89.007812 34.816406 89.367188 36.261719 89.652344 C 37.707031 89.941406 39.164062 90.15625 40.632812 90.300781 C 42.097656 90.445312 43.566406 90.519531 45.042969 90.519531 C 46.515625 90.519531 47.984375 90.445312 49.453125 90.300781 C 50.917969 90.15625 52.375 89.941406 53.820312 89.652344 C 55.265625 89.367188 56.695312 89.007812 58.105469 88.582031 C 59.515625 88.152344 60.902344 87.65625 62.261719 87.09375 C 63.625 86.527344 64.953125 85.898438 66.253906 85.203125 C 67.554688 84.511719 68.816406 83.753906 70.042969 82.933594 C 71.269531 82.117188 72.449219 81.238281 73.589844 80.304688 C 74.730469 79.367188 75.820312 78.378906 76.863281 77.335938 C 77.902344 76.296875 78.890625 75.203125 79.828125 74.066406 C 80.761719 72.925781 81.640625 71.746094 82.457031 70.519531 C 83.277344 69.292969 84.035156 68.03125 84.726562 66.730469 C 85.421875 65.429688 86.050781 64.101562 86.617188 62.738281 C 87.179688 61.378906 87.675781 59.992188 88.105469 58.582031 C 88.53125 57.171875 88.890625 55.742188 89.175781 54.296875 C 89.464844 52.851562 89.679688 51.394531 89.824219 49.929688 C 89.96875 48.460938 90.042969 46.992188 90.042969 45.519531 C 90.042969 44.042969 89.96875 42.574219 89.824219 41.109375 C 89.679688 39.640625 89.464844 38.183594 89.175781 36.738281 C 88.886719 35.292969 88.53125 33.867188 88.101562 32.457031 C 87.675781 31.046875 87.179688 29.660156 86.613281 28.296875 C 86.050781 26.9375 85.421875 25.605469 84.726562 24.304688 C 84.03125 23.007812 83.273438 21.742188 82.457031 20.519531 C 81.636719 19.292969 80.761719 18.109375 79.824219 16.972656 C 78.890625 15.832031 77.902344 14.742188 76.859375 13.699219 C 75.816406 12.65625 74.726562 11.667969 73.589844 10.734375 C 72.449219 9.800781 71.265625 8.921875 70.042969 8.105469 C 68.816406 7.285156 67.554688 6.527344 66.253906 5.832031 C 64.953125 5.136719 63.625 4.507812 62.261719 3.945312 C 60.898438 3.382812 59.515625 2.886719 58.105469 2.457031 C 56.695312 2.027344 55.265625 1.671875 53.820312 1.382812 C 52.375 1.097656 50.917969 0.878906 49.453125 0.734375 C 47.984375 0.589844 46.515625 0.519531 45.042969 0.519531 Z M 60.707031 44.898438 C 59.921875 44.902344 59.167969 44.757812 58.445312 44.457031 C 57.71875 44.15625 57.082031 43.726562 56.53125 43.167969 L 50.960938 37.613281 L 50.960938 67.722656 C 50.960938 68.113281 50.925781 68.496094 50.847656 68.878906 C 50.773438 69.257812 50.660156 69.628906 50.511719 69.988281 C 50.363281 70.347656 50.179688 70.6875 49.964844 71.011719 C 49.75 71.335938 49.503906 71.632812 49.226562 71.910156 C 48.953125 72.183594 48.652344 72.429688 48.332031 72.644531 C 48.007812 72.859375 47.667969 73.042969 47.308594 73.191406 C 46.949219 73.339844 46.578125 73.453125 46.195312 73.53125 C 45.816406 73.605469 45.429688 73.644531 45.042969 73.644531 C 44.652344 73.644531 44.269531 73.605469 43.886719 73.53125 C 43.503906 73.453125 43.136719 73.339844 42.777344 73.191406 C 42.417969 73.042969 42.074219 72.859375 41.753906 72.644531 C 41.429688 72.429688 41.128906 72.183594 40.855469 71.910156 C 40.582031 71.632812 40.335938 71.335938 40.121094 71.011719 C 39.902344 70.6875 39.722656 70.347656 39.570312 69.988281 C 39.421875 69.628906 39.3125 69.257812 39.234375 68.878906 C 39.160156 68.496094 39.121094 68.113281 39.121094 67.722656 L 39.121094 37.613281 L 33.554688 43.167969 C 33 43.726562 32.363281 44.15625 31.640625 44.457031 C 30.914062 44.757812 30.160156 44.902344 29.375 44.898438 C 28.792969 44.894531 28.222656 44.804688 27.667969 44.632812 C 27.113281 44.457031 26.59375 44.210938 26.109375 43.882812 C 25.625 43.558594 25.199219 43.171875 24.832031 42.71875 C 24.464844 42.269531 24.167969 41.773438 23.945312 41.234375 C 23.722656 40.699219 23.578125 40.140625 23.519531 39.558594 C 23.460938 38.980469 23.488281 38.40625 23.597656 37.832031 C 23.707031 37.261719 23.898438 36.714844 24.167969 36.199219 C 24.4375 35.683594 24.777344 35.21875 25.1875 34.800781 L 40.851562 19.136719 C 41.125 18.859375 41.425781 18.613281 41.746094 18.398438 C 42.070312 18.179688 42.414062 17.996094 42.773438 17.847656 C 43.132812 17.695312 43.503906 17.582031 43.882812 17.507812 C 44.265625 17.429688 44.652344 17.394531 45.042969 17.394531 C 45.429688 17.394531 45.816406 17.429688 46.199219 17.507812 C 46.582031 17.582031 46.953125 17.695312 47.3125 17.847656 C 47.671875 17.996094 48.011719 18.179688 48.335938 18.398438 C 48.660156 18.613281 48.957031 18.859375 49.234375 19.136719 L 64.898438 34.800781 C 65.304688 35.21875 65.644531 35.683594 65.914062 36.199219 C 66.183594 36.714844 66.375 37.261719 66.484375 37.832031 C 66.597656 38.40625 66.621094 38.980469 66.5625 39.558594 C 66.503906 40.140625 66.363281 40.699219 66.140625 41.234375 C 65.917969 41.773438 65.621094 42.269531 65.25 42.71875 C 64.882812 43.171875 64.457031 43.558594 63.972656 43.882812 C 63.492188 44.210938 62.972656 44.457031 62.414062 44.632812 C 61.859375 44.804688 61.289062 44.894531 60.707031 44.898438 Z M 60.707031 44.898438 " fill-opacity="1" fill-rule="nonzero"/></g></svg>