<svg xmlns="http://www.w3.org/2000/svg" xmlns:xlink="http://www.w3.org/1999/xlink" width="1500" zoomAndPan="magnify" viewBox="0 0 1125 299.999988" height="400" preserveAspectRatio="xMidYMid meet" version="1.0"><defs><g/><clipPath id="e74ed07bdb"><path d="M 779 199 L 1125 199 L 1125 300 L 779 300 Z M 779 199 " clip-rule="nonzero"/></clipPath><clipPath id="ad61b1549d"><path d="M 1321.933594 339.953125 L 1127.613281 624.117188 L 750.589844 366.296875 L 944.90625 82.132812 Z M 1321.933594 339.953125 " clip-rule="nonzero"/></clipPath><clipPath id="a1ed9f2111"><path d="M 1321.933594 339.953125 L 1127.613281 624.117188 L 750.589844 366.296875 L 944.90625 82.132812 Z M 1321.933594 339.953125 " clip-rule="nonzero"/></clipPath><clipPath id="3d3f45426b"><path d="M 84.484375 212.480469 L 124.984375 212.480469 L 124.984375 265.707031 L 84.484375 265.707031 Z M 84.484375 212.480469 " clip-rule="nonzero"/></clipPath><clipPath id="15858eb2fc"><path d="M 302 0 L 434 0 L 434 68 L 302 68 Z M 302 0 " clip-rule="nonzero"/></clipPath><clipPath id="34db02d734"><path d="M 441.488281 58.363281 L 307.285156 73.003906 L 294.679688 -42.5625 L 428.882812 -57.199219 Z M 441.488281 58.363281 " clip-rule="nonzero"/></clipPath><clipPath id="a351fb036b"><path d="M 441.488281 58.363281 L 307.285156 73.003906 L 294.679688 -42.5625 L 428.882812 -57.199219 Z M 441.488281 58.363281 " clip-rule="nonzero"/></clipPath><clipPath id="b26b87c0a5"><path d="M 0 90 L 80 90 L 80 234 L 0 234 Z M 0 90 " clip-rule="nonzero"/></clipPath><clipPath id="9e0bcc2906"><path d="M 24.152344 58.84375 L 98.335938 201.171875 L -24.042969 264.953125 L -98.222656 122.625 Z M 24.152344 58.84375 " clip-rule="nonzero"/></clipPath><clipPath id="bf71b8d5ac"><path d="M 24.152344 58.84375 L 98.335938 201.171875 L -24.042969 264.953125 L -98.222656 122.625 Z M 24.152344 58.84375 " clip-rule="nonzero"/></clipPath></defs><rect x="-112.5" width="1350" fill="#ffffff" y="-29.999999" height="359.999986" fill-opacity="1"/><rect x="-112.5" width="1350" fill="#253d56" y="-29.999999" height="359.999986" fill-opacity="1"/><g fill="#dee3f3" fill-opacity="1"><g transform="translate(84.4843, 94.00816)"><g><path d="M 26.578125 0 L 39.789062 0 L 26.972656 -37.644531 L 12.941406 -37.644531 L 0.125 0 L 12.796875 0 L 14.371094 -5.84375 L 25 -5.84375 Z M 17.058594 -15.753906 L 19.527344 -24.800781 L 19.847656 -24.800781 L 22.3125 -15.753906 Z M 17.058594 -15.753906 "/></g></g></g><g fill="#dee3f3" fill-opacity="1"><g transform="translate(125.201496, 94.00816)"><g><path d="M 20.511719 0.984375 C 24.035156 0.984375 26.921875 0.171875 29.609375 -1.160156 L 29.878906 -13.410156 C 27.957031 -11.488281 24.777344 -10.058594 21.351562 -10.058594 C 16.445312 -10.058594 12.769531 -13.78125 12.769531 -18.859375 C 12.769531 -23.863281 16.417969 -27.613281 21.300781 -27.613281 C 24.75 -27.613281 27.414062 -26.328125 29.140625 -25.097656 L 29.117188 -36.757812 C 26.722656 -37.917969 24.035156 -38.65625 21.027344 -38.65625 C 9.566406 -38.65625 0.691406 -30.175781 0.691406 -18.882812 C 0.691406 -7.542969 9.539062 0.984375 20.511719 0.984375 Z M 20.511719 0.984375 "/></g></g></g><g fill="#dee3f3" fill-opacity="1"><g transform="translate(156.551476, 94.00816)"><g><path d="M 20.511719 0.984375 C 24.035156 0.984375 26.921875 0.171875 29.609375 -1.160156 L 29.878906 -13.410156 C 27.957031 -11.488281 24.777344 -10.058594 21.351562 -10.058594 C 16.445312 -10.058594 12.769531 -13.78125 12.769531 -18.859375 C 12.769531 -23.863281 16.417969 -27.613281 21.300781 -27.613281 C 24.75 -27.613281 27.414062 -26.328125 29.140625 -25.097656 L 29.117188 -36.757812 C 26.722656 -37.917969 24.035156 -38.65625 21.027344 -38.65625 C 9.566406 -38.65625 0.691406 -30.175781 0.691406 -18.882812 C 0.691406 -7.542969 9.539062 0.984375 20.511719 0.984375 Z M 20.511719 0.984375 "/></g></g></g><g fill="#dee3f3" fill-opacity="1"><g transform="translate(187.901458, 94.00816)"><g><path d="M 1.898438 0 L 27.191406 0 L 27.191406 -10.75 L 13.976562 -10.75 L 13.976562 -14.347656 L 25.074219 -14.347656 L 25.074219 -23.273438 L 13.976562 -23.273438 L 13.976562 -26.898438 L 26.945312 -26.898438 L 26.945312 -37.644531 L 1.898438 -37.644531 Z M 1.898438 0 "/></g></g></g><g fill="#dee3f3" fill-opacity="1"><g transform="translate(217.106835, 94.00816)"><g><path d="M 13.78125 0.984375 C 22.140625 0.984375 28.203125 -3.351562 28.203125 -11.585938 C 28.203125 -19.15625 22.238281 -22.164062 16.492188 -23.914062 C 13.410156 -24.875 12.574219 -25.246094 12.574219 -26.503906 C 12.574219 -27.363281 13.191406 -28.007812 15.410156 -28.007812 C 18.441406 -28.007812 23.148438 -26.453125 25.886719 -24.210938 L 25.886719 -36.09375 C 22.335938 -37.746094 18.785156 -38.632812 15.136719 -38.632812 C 6.679688 -38.632812 0.714844 -34.367188 0.714844 -26.898438 C 0.714844 -20.042969 3.847656 -17.207031 10.722656 -14.695312 C 13.460938 -13.707031 16.097656 -13.558594 16.097656 -11.613281 C 16.097656 -10.355469 15.160156 -9.761719 13.78125 -9.761719 C 10.476562 -9.761719 5.128906 -12.472656 1.480469 -15.160156 L 1.480469 -2.464844 C 4.78125 -0.640625 8.75 0.984375 13.78125 0.984375 Z M 13.78125 0.984375 "/></g></g></g><g fill="#dee3f3" fill-opacity="1"><g transform="translate(246.608019, 94.00816)"><g><path d="M 13.78125 0.984375 C 22.140625 0.984375 28.203125 -3.351562 28.203125 -11.585938 C 28.203125 -19.15625 22.238281 -22.164062 16.492188 -23.914062 C 13.410156 -24.875 12.574219 -25.246094 12.574219 -26.503906 C 12.574219 -27.363281 13.191406 -28.007812 15.410156 -28.007812 C 18.441406 -28.007812 23.148438 -26.453125 25.886719 -24.210938 L 25.886719 -36.09375 C 22.335938 -37.746094 18.785156 -38.632812 15.136719 -38.632812 C 6.679688 -38.632812 0.714844 -34.367188 0.714844 -26.898438 C 0.714844 -20.042969 3.847656 -17.207031 10.722656 -14.695312 C 13.460938 -13.707031 16.097656 -13.558594 16.097656 -11.613281 C 16.097656 -10.355469 15.160156 -9.761719 13.78125 -9.761719 C 10.476562 -9.761719 5.128906 -12.472656 1.480469 -15.160156 L 1.480469 -2.464844 C 4.78125 -0.640625 8.75 0.984375 13.78125 0.984375 Z M 13.78125 0.984375 "/></g></g></g><g fill="#dee3f3" fill-opacity="1"><g transform="translate(276.109284, 94.00816)"><g/></g></g><g fill="#dee3f3" fill-opacity="1"><g transform="translate(84.4843, 148.758156)"><g><path d="M 9.367188 0 L 21.421875 0 L 21.421875 -26.898438 L 30.199219 -26.898438 L 30.199219 -37.644531 L 0.320312 -37.644531 L 0.320312 -26.898438 L 9.367188 -26.898438 Z M 9.367188 0 "/></g></g></g><g fill="#dee3f3" fill-opacity="1"><g transform="translate(115.809629, 148.758156)"><g><path d="M 21.175781 0.984375 C 32.714844 0.984375 41.613281 -7.617188 41.613281 -18.882812 C 41.613281 -30.078125 32.714844 -38.65625 21.175781 -38.65625 C 9.589844 -38.65625 0.691406 -30.078125 0.691406 -18.882812 C 0.691406 -7.617188 9.589844 0.984375 21.175781 0.984375 Z M 21.175781 -10.058594 C 16.417969 -10.058594 12.769531 -13.804688 12.769531 -18.859375 C 12.769531 -23.839844 16.417969 -27.613281 21.175781 -27.613281 C 25.910156 -27.613281 29.535156 -23.839844 29.535156 -18.859375 C 29.535156 -13.804688 25.910156 -10.058594 21.175781 -10.058594 Z M 21.175781 -10.058594 "/></g></g></g><g fill="#dee3f3" fill-opacity="1"><g transform="translate(158.917931, 148.758156)"><g/></g></g><g fill="#dee3f3" fill-opacity="1"><g transform="translate(173.678079, 148.758156)"><g><path d="M 20.511719 0.984375 C 24.035156 0.984375 26.921875 0.171875 29.609375 -1.160156 L 29.878906 -13.410156 C 27.957031 -11.488281 24.777344 -10.058594 21.351562 -10.058594 C 16.445312 -10.058594 12.769531 -13.78125 12.769531 -18.859375 C 12.769531 -23.863281 16.417969 -27.613281 21.300781 -27.613281 C 24.75 -27.613281 27.414062 -26.328125 29.140625 -25.097656 L 29.117188 -36.757812 C 26.722656 -37.917969 24.035156 -38.65625 21.027344 -38.65625 C 9.566406 -38.65625 0.691406 -30.175781 0.691406 -18.882812 C 0.691406 -7.542969 9.539062 0.984375 20.511719 0.984375 Z M 20.511719 0.984375 "/></g></g></g><g fill="#dee3f3" fill-opacity="1"><g transform="translate(205.028056, 148.758156)"><g><path d="M 26.578125 0 L 39.789062 0 L 26.972656 -37.644531 L 12.941406 -37.644531 L 0.125 0 L 12.796875 0 L 14.371094 -5.84375 L 25 -5.84375 Z M 17.058594 -15.753906 L 19.527344 -24.800781 L 19.847656 -24.800781 L 22.3125 -15.753906 Z M 17.058594 -15.753906 "/></g></g></g><g fill="#dee3f3" fill-opacity="1"><g transform="translate(245.745251, 148.758156)"><g><path d="M 13.78125 0.984375 C 22.140625 0.984375 28.203125 -3.351562 28.203125 -11.585938 C 28.203125 -19.15625 22.238281 -22.164062 16.492188 -23.914062 C 13.410156 -24.875 12.574219 -25.246094 12.574219 -26.503906 C 12.574219 -27.363281 13.191406 -28.007812 15.410156 -28.007812 C 18.441406 -28.007812 23.148438 -26.453125 25.886719 -24.210938 L 25.886719 -36.09375 C 22.335938 -37.746094 18.785156 -38.632812 15.136719 -38.632812 C 6.679688 -38.632812 0.714844 -34.367188 0.714844 -26.898438 C 0.714844 -20.042969 3.847656 -17.207031 10.722656 -14.695312 C 13.460938 -13.707031 16.097656 -13.558594 16.097656 -11.613281 C 16.097656 -10.355469 15.160156 -9.761719 13.78125 -9.761719 C 10.476562 -9.761719 5.128906 -12.472656 1.480469 -15.160156 L 1.480469 -2.464844 C 4.78125 -0.640625 8.75 0.984375 13.78125 0.984375 Z M 13.78125 0.984375 "/></g></g></g><g fill="#dee3f3" fill-opacity="1"><g transform="translate(275.246435, 148.758156)"><g><path d="M 1.898438 0 L 13.976562 0 L 13.976562 -13.460938 L 23.542969 -13.460938 L 23.542969 0 L 35.671875 0 L 35.671875 -37.644531 L 23.542969 -37.644531 L 23.542969 -24.210938 L 13.976562 -24.210938 L 13.976562 -37.644531 L 1.898438 -37.644531 Z M 1.898438 0 "/></g></g></g><g clip-path="url(#e74ed07bdb)"><g clip-path="url(#ad61b1549d)"><g clip-path="url(#a1ed9f2111)"><path fill="#f6e080" d="M 1201.097656 399.964844 C 1178.394531 415.078125 1148.425781 414.164062 1122.117188 406.992188 C 1095.835938 399.835938 1071.308594 387.121094 1045.027344 379.964844 C 1018.746094 372.808594 988.789062 371.871094 966.066406 386.96875 C 947.878906 399.0625 935.625 420.46875 914.742188 426.792969 C 902.097656 430.632812 888.449219 428.121094 875.699219 424.691406 C 854.238281 418.957031 833.464844 410.71875 813.90625 400.210938 C 800.875 393.210938 787.601562 384.269531 782.300781 370.445312 C 775.785156 353.46875 783.132812 334.644531 790.378906 317.972656 C 796.324219 304.296875 802.800781 289.992188 814.894531 281.273438 C 826.496094 272.933594 841.476562 271.101562 855.742188 270.722656 C 896.320312 269.675781 939.601562 277.78125 975.648438 259.101562 C 1004.515625 244.144531 1024.234375 213.859375 1054.96875 203.25 C 1090.378906 191.027344 1129.859375 209.222656 1156.578125 235.476562 C 1182.019531 260.449219 1205.804688 293.535156 1225.203125 323.3125 C 1240.972656 347.433594 1223.03125 385.382812 1201.097656 399.964844 Z M 1201.097656 399.964844 " fill-opacity="1" fill-rule="nonzero"/></g></g></g><g fill="#dee3f3" fill-opacity="1"><g transform="translate(855.98872, 199.742312)"><g><path d="M 1.898438 0 L 13.980469 0 L 13.980469 -37.652344 L 1.898438 -37.652344 Z M 1.898438 0 "/></g></g></g><g fill="#dee3f3" fill-opacity="1"><g transform="translate(872.675375, 199.742312)"><g><path d="M 25.816406 -37.652344 L 25.816406 -17.703125 L 14.277344 -37.652344 L 1.898438 -37.652344 L 1.898438 0 L 13.980469 0 L 13.808594 -18.34375 L 25.542969 0 L 37.847656 0 L 37.847656 -37.652344 Z M 25.816406 -37.652344 "/></g></g></g><g fill="#dee3f3" fill-opacity="1"><g transform="translate(913.229322, 199.742312)"><g/></g></g><g fill="#dee3f3" fill-opacity="1"><g transform="translate(927.992789, 199.742312)"><g><path d="M 7.347656 0.984375 C 13.757812 0.984375 19.554688 -3.5 19.554688 -12.871094 L 19.554688 -37.652344 L 7.519531 -37.652344 L 7.496094 -13.363281 C 7.496094 -10.75 6.410156 -10.011719 4.734375 -10.011719 C 3.746094 -10.011719 2.195312 -10.207031 0.542969 -11.121094 L 0.320312 -0.148438 C 2.195312 0.46875 4.4375 0.984375 7.347656 0.984375 Z M 7.347656 0.984375 "/></g></g></g><g fill="#dee3f3" fill-opacity="1"><g transform="translate(950.0052, 199.742312)"><g><path d="M 18.664062 0.984375 C 28.847656 0.984375 35.726562 -5.449219 35.726562 -14.917969 L 35.726562 -37.652344 L 23.644531 -37.652344 L 23.644531 -14.769531 C 23.644531 -11.835938 21.648438 -9.9375 18.664062 -9.9375 C 15.730469 -9.9375 13.734375 -11.859375 13.734375 -14.820312 L 13.734375 -37.652344 L 1.652344 -37.652344 L 1.652344 -14.917969 C 1.652344 -5.449219 8.507812 0.984375 18.664062 0.984375 Z M 18.664062 0.984375 "/></g></g></g><g fill="#dee3f3" fill-opacity="1"><g transform="translate(988.19214, 199.742312)"><g><path d="M 13.785156 0.984375 C 22.140625 0.984375 28.207031 -3.351562 28.207031 -11.589844 C 28.207031 -19.160156 22.242188 -22.167969 16.496094 -23.917969 C 13.414062 -24.878906 12.574219 -25.25 12.574219 -26.507812 C 12.574219 -27.371094 13.191406 -28.011719 15.410156 -28.011719 C 18.445312 -28.011719 23.152344 -26.457031 25.890625 -24.214844 L 25.890625 -36.097656 C 22.339844 -37.75 18.789062 -38.636719 15.140625 -38.636719 C 6.683594 -38.636719 0.714844 -34.371094 0.714844 -26.902344 C 0.714844 -20.046875 3.847656 -17.210938 10.726562 -14.695312 C 13.460938 -13.710938 16.101562 -13.5625 16.101562 -11.613281 C 16.101562 -10.355469 15.164062 -9.765625 13.785156 -9.765625 C 10.480469 -9.765625 5.128906 -12.476562 1.480469 -15.164062 L 1.480469 -2.464844 C 4.785156 -0.640625 8.753906 0.984375 13.785156 0.984375 Z M 13.785156 0.984375 "/></g></g></g><g fill="#dee3f3" fill-opacity="1"><g transform="translate(1017.700065, 199.742312)"><g><path d="M 9.371094 0 L 21.425781 0 L 21.425781 -26.902344 L 30.203125 -26.902344 L 30.203125 -37.652344 L 0.320312 -37.652344 L 0.320312 -26.902344 L 9.371094 -26.902344 Z M 9.371094 0 "/></g></g></g><g fill="#dee3f3" fill-opacity="1"><g transform="translate(817.141067, 254.492307)"><g><path d="M 21.179688 0.984375 C 32.71875 0.984375 41.621094 -7.617188 41.621094 -18.886719 C 41.621094 -30.082031 32.71875 -38.664062 21.179688 -38.664062 C 9.589844 -38.664062 0.691406 -30.082031 0.691406 -18.886719 C 0.691406 -7.617188 9.589844 0.984375 21.179688 0.984375 Z M 21.179688 -10.058594 C 16.421875 -10.058594 12.773438 -13.808594 12.773438 -18.863281 C 12.773438 -23.84375 16.421875 -27.617188 21.179688 -27.617188 C 25.914062 -27.617188 29.539062 -23.84375 29.539062 -18.863281 C 29.539062 -13.808594 25.914062 -10.058594 21.179688 -10.058594 Z M 21.179688 -10.058594 "/></g></g></g><g fill="#dee3f3" fill-opacity="1"><g transform="translate(860.259269, 254.492307)"><g><path d="M 25.816406 -37.652344 L 25.816406 -17.703125 L 14.277344 -37.652344 L 1.898438 -37.652344 L 1.898438 0 L 13.980469 0 L 13.808594 -18.34375 L 25.542969 0 L 37.847656 0 L 37.847656 -37.652344 Z M 25.816406 -37.652344 "/></g></g></g><g fill="#dee3f3" fill-opacity="1"><g transform="translate(900.813216, 254.492307)"><g><path d="M 1.898438 0 L 27.195312 0 L 27.195312 -10.75 L 13.980469 -10.75 L 13.980469 -14.351562 L 25.074219 -14.351562 L 25.074219 -23.277344 L 13.980469 -23.277344 L 13.980469 -26.902344 L 26.949219 -26.902344 L 26.949219 -37.652344 L 1.898438 -37.652344 Z M 1.898438 0 "/></g></g></g><g fill="#dee3f3" fill-opacity="1"><g transform="translate(930.02527, 254.492307)"><g/></g></g><g fill="#dee3f3" fill-opacity="1"><g transform="translate(944.788731, 254.492307)"><g><path d="M 9.371094 0 L 21.425781 0 L 21.425781 -26.902344 L 30.203125 -26.902344 L 30.203125 -37.652344 L 0.320312 -37.652344 L 0.320312 -26.902344 L 9.371094 -26.902344 Z M 9.371094 0 "/></g></g></g><g fill="#dee3f3" fill-opacity="1"><g transform="translate(976.121221, 254.492307)"><g><path d="M 26.582031 0 L 39.796875 0 L 26.976562 -37.652344 L 12.945312 -37.652344 L 0.125 0 L 12.796875 0 L 14.375 -5.84375 L 25.003906 -5.84375 Z M 17.0625 -15.753906 L 19.527344 -24.804688 L 19.847656 -24.804688 L 22.316406 -15.753906 Z M 17.0625 -15.753906 "/></g></g></g><g fill="#dee3f3" fill-opacity="1"><g transform="translate(1016.847776, 254.492307)"><g><path d="M 1.898438 0 L 13.980469 0 L 13.980469 -11.316406 L 17.0625 -11.316406 C 25.46875 -11.316406 31.140625 -16.472656 31.140625 -24.433594 C 31.140625 -32.472656 25.421875 -37.652344 16.890625 -37.652344 L 1.898438 -37.652344 Z M 13.980469 -21.550781 L 13.980469 -27.417969 L 16.347656 -27.417969 C 18.589844 -27.417969 19.628906 -26.113281 19.628906 -24.484375 C 19.628906 -22.855469 18.566406 -21.550781 16.296875 -21.550781 Z M 13.980469 -21.550781 "/></g></g></g><path fill="#dee3f3" d="M 973.359375 100.421875 L 1041.234375 100.421875 C 1044.070312 100.421875 1046.367188 102.71875 1046.367188 105.550781 L 1046.367188 127.359375 C 1046.367188 130.195312 1044.070312 132.492188 1041.234375 132.492188 L 973.359375 132.492188 C 970.523438 132.492188 968.226562 130.195312 968.226562 127.359375 L 968.226562 105.550781 C 968.226562 102.71875 970.523438 100.421875 973.359375 100.421875 Z M 973.359375 100.421875 " fill-opacity="1" fill-rule="nonzero"/><g fill="#000000" fill-opacity="1"><g transform="translate(981.53929, 121.331224)"><g><path d="M 14.460938 1.980469 L 14.460938 -11.566406 L 11.132812 -11.566406 L 7.886719 -3.644531 L 7.671875 -3.644531 L 4.425781 -11.566406 L 1.082031 -11.566406 L 1.082031 1.980469 L 3.996094 1.980469 L 3.996094 -4.875 L 3.976562 -5.726562 L 4.226562 -5.726562 L 4.527344 -4.925781 L 6.789062 0.398438 L 8.804688 0.398438 L 10.96875 -4.511719 L 11.382812 -5.707031 L 11.582031 -5.707031 L 11.582031 1.980469 Z M 14.460938 1.980469 "/></g></g></g><g fill="#000000" fill-opacity="1"><g transform="translate(997.148172, 121.331224)"><g><path d="M 8.121094 2.148438 C 9.867188 2.148438 11.167969 1.664062 11.167969 -0.0351562 L 11.167969 -9.585938 C 11.167969 -11.152344 10.003906 -11.734375 8.121094 -11.734375 L 4.0625 -11.734375 C 2.179688 -11.734375 1 -11.152344 1 -9.585938 L 1 -0.0351562 C 1 1.664062 2.296875 2.148438 4.0625 2.148438 Z M 8.222656 -0.25 L 3.960938 -0.265625 L 3.925781 -9.335938 L 8.203125 -9.320312 Z M 8.222656 -0.25 "/></g></g></g><g fill="#000000" fill-opacity="1"><g transform="translate(1009.34573, 121.331224)"><g><path d="M 11.25 1.980469 L 11.25 -3.3125 C 11.25 -3.894531 10.699219 -4.609375 10.167969 -4.828125 C 10.734375 -4.960938 11.25 -5.726562 11.25 -6.40625 L 11.25 -9.417969 C 11.25 -10.984375 10.085938 -11.566406 8.1875 -11.566406 L 1.082031 -11.566406 L 1.082031 1.980469 L 3.996094 1.980469 L 3.996094 -3.878906 L 8.289062 -3.878906 L 8.304688 1.980469 Z M 8.289062 -6.058594 L 3.996094 -6.058594 L 3.996094 -9.335938 L 8.289062 -9.335938 Z M 8.289062 -6.058594 "/></g></g></g><g fill="#000000" fill-opacity="1"><g transform="translate(1021.626498, 121.331224)"><g><path d="M 10.367188 1.980469 L 10.367188 -0.28125 L 4.109375 -0.28125 L 4.078125 -3.726562 L 9.402344 -3.710938 L 9.402344 -5.992188 L 4.109375 -5.992188 L 4.078125 -9.320312 L 10.367188 -9.304688 L 10.367188 -11.566406 L 1.082031 -11.566406 L 1.082031 1.980469 Z M 10.367188 1.980469 "/></g></g></g><g clip-path="url(#3d3f45426b)"><path fill="#dee3f3" d="M 148.949219 262.191406 C 139.792969 262.191406 132.058594 258.015625 132.058594 253.070312 L 132.058594 251.53125 C 135.664062 254.871094 141.824219 257.035156 148.949219 257.035156 C 156.078125 257.035156 162.238281 254.871094 165.84375 251.53125 L 165.84375 253.070312 C 165.84375 258.015625 158.109375 262.191406 148.949219 262.191406 Z M 148.949219 200.886719 C 158.046875 200.886719 165.734375 205.015625 165.835938 209.921875 C 165.8125 211.007812 165.410156 212.089844 164.636719 213.132812 C 163.519531 214.617188 161.730469 215.925781 159.453125 216.914062 C 156.398438 218.25 152.769531 218.957031 148.949219 218.957031 C 145.125 218.957031 141.488281 218.25 138.433594 216.914062 C 136.148438 215.914062 134.363281 214.609375 133.273438 213.136719 C 132.492188 212.089844 132.089844 211.007812 132.066406 209.921875 C 132.167969 205.015625 139.851562 200.886719 148.949219 200.886719 Z M 148.949219 227.601562 C 139.792969 227.601562 132.058594 223.421875 132.058594 218.480469 L 132.058594 217.03125 C 133.398438 218.28125 135.097656 219.371094 137.082031 220.242188 C 140.558594 221.761719 144.664062 222.566406 148.949219 222.566406 C 153.230469 222.566406 157.328125 221.761719 160.800781 220.242188 C 162.789062 219.378906 164.492188 218.285156 165.84375 217.023438 L 165.84375 218.480469 C 165.84375 223.421875 158.109375 227.601562 148.949219 227.601562 Z M 148.949219 244.875 C 139.792969 244.875 132.058594 240.699219 132.058594 235.757812 L 132.058594 234.214844 C 135.664062 237.554688 141.824219 239.71875 148.949219 239.71875 C 156.078125 239.71875 162.238281 237.554688 165.84375 234.214844 L 165.84375 235.757812 C 165.84375 240.699219 158.109375 244.875 148.949219 244.875 Z M 165.84375 244.414062 C 165.84375 245.53125 165.4375 246.648438 164.636719 247.71875 C 163.519531 249.207031 161.734375 250.515625 159.453125 251.507812 C 156.398438 252.84375 152.769531 253.550781 148.949219 253.550781 C 145.125 253.550781 141.488281 252.84375 138.433594 251.507812 C 136.148438 250.507812 134.359375 249.199219 133.273438 247.726562 C 132.46875 246.644531 132.058594 245.53125 132.058594 244.414062 L 132.058594 242.867188 C 133.398438 244.109375 135.097656 245.199219 137.085938 246.066406 C 140.558594 247.585938 144.664062 248.394531 148.949219 248.394531 C 153.226562 248.394531 157.328125 247.585938 160.800781 246.066406 C 162.785156 245.207031 164.492188 244.113281 165.84375 242.863281 Z M 165.84375 227.09375 C 165.84375 228.214844 165.4375 229.332031 164.636719 230.40625 C 163.519531 231.890625 161.734375 233.199219 159.453125 234.191406 C 156.398438 235.527344 152.769531 236.234375 148.949219 236.234375 C 145.125 236.234375 141.488281 235.527344 138.433594 234.191406 C 136.148438 233.191406 134.359375 231.882812 133.273438 230.410156 C 132.46875 229.328125 132.058594 228.214844 132.058594 227.09375 L 132.058594 225.550781 C 133.398438 226.796875 135.097656 227.886719 137.085938 228.75 C 140.558594 230.269531 144.664062 231.078125 148.949219 231.078125 C 153.226562 231.078125 157.328125 230.269531 160.800781 228.75 C 162.785156 227.886719 164.492188 226.796875 165.84375 225.546875 Z M 169.222656 209.691406 C 168.949219 202.816406 160.148438 197.472656 148.949219 197.472656 C 137.753906 197.472656 128.953125 202.816406 128.683594 209.691406 C 128.679688 209.734375 128.671875 209.777344 128.671875 209.824219 L 128.671875 218.480469 C 128.671875 218.492188 128.671875 218.503906 128.671875 218.515625 C 128.671875 218.515625 128.671875 218.523438 128.671875 218.527344 L 128.671875 235.757812 C 128.671875 235.777344 128.671875 235.796875 128.671875 235.820312 C 128.671875 235.828125 128.671875 235.835938 128.671875 235.84375 L 128.671875 253.070312 C 128.671875 260.097656 137.578125 265.601562 148.949219 265.601562 C 160.324219 265.601562 169.234375 260.097656 169.234375 253.070312 L 169.234375 235.84375 C 169.234375 235.835938 169.230469 235.828125 169.230469 235.820312 C 169.230469 235.796875 169.234375 235.777344 169.234375 235.757812 L 169.234375 218.527344 C 169.234375 218.523438 169.230469 218.515625 169.230469 218.515625 C 169.230469 218.503906 169.234375 218.492188 169.234375 218.480469 L 169.234375 209.824219 C 169.234375 209.777344 169.222656 209.734375 169.222656 209.691406 Z M 104.769531 262.191406 C 95.609375 262.191406 87.875 258.015625 87.875 253.070312 L 87.875 251.53125 C 91.480469 254.871094 97.640625 257.035156 104.769531 257.035156 C 111.894531 257.035156 118.054688 254.871094 121.660156 251.53125 L 121.660156 253.070312 C 121.660156 258.015625 113.925781 262.191406 104.769531 262.191406 Z M 104.769531 218.199219 C 113.867188 218.199219 121.550781 222.328125 121.652344 227.238281 C 121.628906 228.320312 121.226562 229.40625 120.449219 230.449219 C 119.335938 231.933594 117.546875 233.242188 115.269531 234.230469 C 112.214844 235.566406 108.585938 236.273438 104.769531 236.273438 C 100.941406 236.273438 97.304688 235.566406 94.25 234.230469 C 91.960938 233.230469 90.179688 231.925781 89.085938 230.453125 C 88.308594 229.40625 87.90625 228.324219 87.882812 227.238281 C 87.984375 222.328125 95.671875 218.199219 104.769531 218.199219 Z M 104.769531 244.917969 C 95.609375 244.917969 87.875 240.738281 87.875 235.796875 L 87.875 234.347656 C 89.214844 235.59375 90.910156 236.6875 92.898438 237.558594 C 96.375 239.078125 100.476562 239.882812 104.769531 239.882812 C 109.046875 239.882812 113.148438 239.078125 116.617188 237.558594 C 118.601562 236.695312 120.308594 235.601562 121.660156 234.339844 L 121.660156 235.796875 C 121.660156 240.738281 113.925781 244.917969 104.769531 244.917969 Z M 121.660156 244.414062 C 121.660156 245.53125 121.25 246.644531 120.449219 247.71875 C 119.335938 249.207031 117.546875 250.515625 115.269531 251.507812 C 112.214844 252.84375 108.585938 253.550781 104.769531 253.550781 C 100.941406 253.550781 97.304688 252.84375 94.25 251.507812 C 91.960938 250.507812 90.179688 249.199219 89.085938 247.722656 C 88.28125 246.648438 87.875 245.53125 87.875 244.414062 L 87.875 242.867188 C 89.210938 244.109375 90.914062 245.199219 92.898438 246.066406 C 96.375 247.585938 100.476562 248.394531 104.769531 248.394531 C 109.046875 248.394531 113.144531 247.585938 116.617188 246.066406 C 118.597656 245.207031 120.3125 244.113281 121.660156 242.863281 Z M 104.769531 214.789062 C 93.570312 214.789062 84.769531 220.128906 84.496094 227.007812 C 84.496094 227.050781 84.484375 227.09375 84.484375 227.140625 L 84.484375 235.796875 C 84.484375 235.804688 84.488281 235.820312 84.488281 235.828125 C 84.488281 235.832031 84.484375 235.839844 84.484375 235.84375 L 84.484375 253.070312 C 84.484375 260.097656 93.394531 265.601562 104.769531 265.601562 C 116.140625 265.601562 125.046875 260.097656 125.046875 253.070312 L 125.046875 235.84375 C 125.046875 235.839844 125.046875 235.832031 125.046875 235.828125 C 125.046875 235.820312 125.046875 235.804688 125.046875 235.796875 L 125.046875 227.140625 C 125.046875 227.09375 125.039062 227.050781 125.035156 227.007812 C 124.765625 220.128906 115.964844 214.789062 104.769531 214.789062 " fill-opacity="1" fill-rule="nonzero"/></g><g fill="#dee3f3" fill-opacity="1"><g transform="translate(141.302457, 251.934911)"><g><path d="M 13.558594 -10.640625 C 13.558594 -11.558594 13.324219 -12.40625 12.785156 -13.183594 L 14.242188 -13.183594 L 14.242188 -16.171875 L 9.675781 -16.171875 L 9.675781 -18.199219 L 5.273438 -18.199219 L 5.273438 -16.171875 L 0.351562 -16.171875 L 0.351562 -13.183594 L 1.882812 -13.183594 C 1.414062 -12.40625 1.105469 -11.535156 1.105469 -10.640625 L 1.105469 -9.15625 C 0.941406 -5.722656 4.566406 -4.472656 7.390625 -4.472656 C 10.476562 -4.472656 13.417969 -5.648438 13.558594 -9.15625 Z M 9.132812 -9.300781 C 9.132812 -7.910156 8.191406 -7.628906 7.390625 -7.628906 C 6.566406 -7.628906 5.53125 -7.957031 5.53125 -9.300781 L 5.53125 -10.664062 C 5.53125 -12.007812 6.566406 -12.3125 7.390625 -12.3125 C 8.191406 -12.3125 9.132812 -12.101562 9.132812 -10.664062 Z M 19.964844 -2.496094 L 19.964844 -9.039062 L 22.4375 -9.039062 L 22.4375 -12.523438 L 19.964844 -12.523438 L 19.964844 -16.832031 L 15.539062 -16.832031 L 15.539062 -2.496094 Z M 20.058594 3.554688 L 20.058594 0.421875 L 7.226562 0.421875 L 7.226562 -3.460938 L 2.753906 -3.460938 L 2.753906 3.554688 Z M 20.058594 3.554688 "/></g></g></g><g fill="#dee3f3" fill-opacity="1"><g transform="translate(163.892405, 251.934911)"><g><path d="M 20.480469 3.601562 L 20.480469 -4.191406 L 13.703125 -4.191406 L 13.703125 -6.167969 L 21.730469 -6.167969 L 21.730469 -9.230469 L 19.679688 -9.230469 L 20.199219 -11.417969 C 20.316406 -11.9375 20.457031 -12.429688 20.457031 -12.949219 L 20.457031 -16.832031 L 2.046875 -16.832031 L 2.046875 -13.773438 L 16.007812 -13.773438 L 16.007812 -12.007812 L 15.539062 -9.230469 L 0.941406 -9.230469 L 0.941406 -6.167969 L 9.277344 -6.167969 L 9.277344 -4.191406 L 2.046875 -4.191406 L 2.046875 -1.082031 L 16.054688 -1.082031 L 16.054688 3.601562 Z M 20.480469 3.601562 "/></g></g></g><g fill="#dee3f3" fill-opacity="1"><g transform="translate(186.482354, 251.934911)"><g><path d="M 16.171875 -8.523438 C 17.65625 -8.523438 18.859375 -8.898438 19.753906 -9.675781 C 20.625 -10.40625 21.070312 -11.417969 21.070312 -12.714844 C 21.070312 -15.398438 18.785156 -16.855469 16.171875 -16.902344 L 6.496094 -16.902344 C 4.050781 -16.902344 1.601562 -15.492188 1.601562 -12.714844 C 1.601562 -9.933594 3.8125 -8.570312 6.496094 -8.523438 Z M 15.277344 -13.726562 C 16.222656 -13.726562 16.667969 -13.441406 16.667969 -12.714844 C 16.667969 -12.007812 16.316406 -11.699219 15.375 -11.699219 L 7.4375 -11.699219 C 6.496094 -11.699219 6.003906 -12.007812 6.003906 -12.714844 C 6.003906 -13.441406 6.496094 -13.726562 7.4375 -13.726562 Z M 21.707031 -4.121094 L 21.707031 -7.15625 L 0.941406 -7.15625 L 0.941406 -4.121094 Z M 20.503906 3.554688 L 20.503906 0.472656 L 6.566406 0.472656 L 6.566406 -2.847656 L 2.140625 -2.847656 L 2.140625 3.554688 Z M 20.503906 3.554688 "/></g></g></g><g fill="#dee3f3" fill-opacity="1"><g transform="translate(209.072303, 251.934911)"><g><path d="M 10.546875 -10.757812 C 10.546875 -11.535156 10.453125 -12.242188 10.078125 -13.019531 L 10.875 -13.019531 L 10.875 -16.101562 L 7.628906 -16.101562 L 7.628906 -17.964844 L 3.648438 -17.964844 L 3.648438 -16.101562 L 0.519531 -16.101562 L 0.519531 -13.019531 L 1.414062 -13.019531 C 1.082031 -12.3125 0.964844 -11.558594 0.964844 -10.757812 L 0.964844 -9.628906 C 0.964844 -6.851562 2.777344 -5.203125 5.792969 -5.203125 C 8.734375 -5.203125 10.453125 -6.664062 10.546875 -9.628906 Z M 6.640625 -10.078125 C 6.640625 -8.710938 6.121094 -8.359375 5.792969 -8.359375 C 5.367188 -8.359375 4.875 -8.757812 4.875 -10.078125 L 4.875 -10.476562 C 4.875 -11.792969 5.367188 -12.171875 5.792969 -12.171875 C 6.121094 -12.171875 6.640625 -11.914062 6.640625 -10.476562 Z M 21.140625 -5.179688 L 21.140625 -16.808594 L 17.164062 -16.808594 L 17.164062 -13.019531 L 15.84375 -13.019531 L 15.84375 -16.808594 L 11.867188 -16.808594 L 11.867188 -5.179688 L 15.84375 -5.179688 L 15.84375 -9.652344 L 17.164062 -9.652344 L 17.164062 -5.179688 Z M 16.878906 3.578125 C 19.140625 3.578125 21.753906 2.1875 21.753906 -0.449219 C 21.753906 -3.035156 19.304688 -4.425781 16.878906 -4.472656 L 7.722656 -4.472656 C 5.460938 -4.472656 2.871094 -3.109375 2.871094 -0.449219 C 2.871094 2.09375 5.34375 3.53125 7.722656 3.578125 Z M 15.9375 -1.414062 C 16.902344 -1.414062 17.351562 -0.988281 17.351562 -0.449219 C 17.351562 0.09375 16.902344 0.519531 15.9375 0.519531 L 8.6875 0.519531 C 7.722656 0.519531 7.273438 0.09375 7.273438 -0.449219 C 7.273438 -0.988281 7.722656 -1.414062 8.6875 -1.414062 Z M 15.9375 -1.414062 "/></g></g></g><path fill="#dee3f3" d="M 580.367188 93.222656 L 546.234375 303.960938 C 544.863281 312.394531 551.226562 320.113281 559.761719 320.375 L 658.058594 323.414062 C 665.0625 323.632812 671.167969 318.683594 672.414062 311.789062 L 712.347656 91.140625 C 713.335938 85.703125 711.066406 80.183594 706.539062 77.019531 L 705.0625 75.984375 C 702.378906 74.105469 699.132812 73.21875 695.867188 73.46875 L 593.25 81.375 C 586.730469 81.871094 581.414062 86.773438 580.367188 93.222656 Z M 580.367188 93.222656 " fill-opacity="1" fill-rule="nonzero"/><path fill="#000000" d="M 689.667969 87.269531 L 651.996094 302.652344 C 651.472656 305.644531 648.867188 307.824219 645.832031 307.804688 L 556.523438 307.296875 C 552.691406 307.269531 549.792969 303.828125 550.417969 300.058594 L 584.691406 92.003906 C 585.160156 89.167969 587.511719 87.019531 590.375 86.808594 L 614.882812 85.007812 C 614.1875 87.78125 613.476562 90.542969 613.347656 93.421875 C 613.269531 95.121094 614.175781 96.496094 615.902344 96.832031 C 627.140625 99.054688 638.652344 96.292969 649.9375 95.847656 C 651.339844 95.792969 652.445312 94.828125 652.824219 93.503906 C 653.90625 89.738281 654.695312 85.882812 655.386719 82.027344 L 683.082031 79.992188 C 687.121094 79.691406 690.367188 83.277344 689.667969 87.269531 Z M 689.667969 87.269531 " fill-opacity="1" fill-rule="nonzero"/><path fill="#ffde59" d="M 538.988281 318.070312 C 535.015625 321.554688 528.484375 320.398438 523.699219 320.507812 C 512.894531 320.753906 502.128906 321.902344 491.328125 321.839844 C 491.445312 322.988281 491.203125 324.148438 490.433594 325.085938 C 489.097656 326.71875 485.886719 326.90625 483.910156 327.101562 C 477.542969 327.734375 470.285156 327.457031 463.964844 326.503906 C 451.171875 324.574219 438.011719 325.320312 425.304688 323.03125 C 422.925781 322.605469 418.167969 322.292969 416.652344 320.105469 C 415.808594 318.878906 416.457031 317.191406 416.859375 315.902344 C 418.515625 310.53125 421.996094 306.089844 424.710938 301.242188 C 424.992188 300.742188 425.453125 300.675781 425.832031 300.855469 C 425.898438 300.832031 425.964844 300.804688 426.042969 300.785156 C 427.109375 300.527344 428.027344 300.945312 429.101562 301.085938 C 430.628906 301.285156 432.183594 301.257812 433.71875 301.441406 C 436.730469 301.792969 439.789062 301.699219 442.824219 301.8125 C 446.414062 301.945312 450.003906 302.089844 453.585938 302.238281 C 457.308594 302.394531 456.894531 304.238281 459.359375 306.316406 C 461.871094 308.429688 466.125 308.648438 469.246094 309.386719 C 470.292969 309.632812 471.335938 309.902344 472.378906 310.160156 C 473.089844 307.128906 474.257812 304.140625 474.863281 301.1875 C 474.941406 300.816406 475.148438 300.582031 475.398438 300.453125 C 475.632812 299.558594 476.5625 299.089844 477.675781 298.695312 C 480.574219 297.648438 483.875 297.589844 486.90625 297.320312 C 489.8125 297.0625 493.304688 296.105469 496.210938 296.636719 C 498.53125 297.0625 499.253906 298.929688 500.765625 300.460938 C 503.359375 303.089844 507.027344 302.976562 510.433594 303.347656 C 513.933594 303.734375 517.433594 303.789062 520.945312 303.949219 C 525.890625 304.183594 533.257812 303.804688 537.410156 306.972656 C 540.296875 309.15625 542.03125 315.402344 538.988281 318.070312 Z M 603.632812 134.476562 C 603.058594 128.332031 600.875 122.152344 598.800781 116.375 C 596.613281 110.25 595.253906 104.125 593.554688 97.871094 C 589.863281 84.292969 590.070312 74.710938 574.179688 75.488281 C 562.832031 76.039062 515.589844 86.0625 505.375 89.625 C 496.316406 92.785156 484.800781 94.046875 479.839844 102.933594 C 476.460938 108.988281 479.546875 116.496094 481.101562 122.621094 C 483.078125 130.386719 484.332031 139.066406 486.289062 147.125 C 487.8125 153.40625 490.027344 165.808594 496.304688 169.28125 C 501.792969 172.3125 507.597656 169.503906 512.972656 168.164062 C 520.539062 166.285156 528.476562 165.335938 536.148438 163.929688 C 547.714844 161.808594 559.28125 159.695312 570.855469 157.574219 C 579.863281 155.925781 591.042969 154.714844 598.683594 149.160156 C 603.230469 145.859375 604.125 139.742188 603.632812 134.476562 Z M 652.511719 153.449219 C 652.390625 150.835938 652.089844 146.378906 649.152344 145.238281 C 647.1875 144.476562 644.199219 145.046875 642.128906 145.054688 C 638.742188 145.058594 635.363281 145.078125 631.976562 145.078125 C 628.304688 145.078125 624.625 144.992188 620.953125 145.105469 C 618.683594 145.171875 616.171875 145.167969 614.089844 146.1875 C 612.511719 146.964844 612.300781 147.9375 611.84375 149.5625 C 611.144531 152.042969 610.53125 154.859375 610.351562 157.4375 C 610.289062 158.265625 611.574219 158.320312 611.636719 157.496094 C 611.816406 154.992188 612.414062 152.296875 613.101562 149.894531 C 614.035156 146.609375 616.941406 146.601562 619.917969 146.445312 C 626.121094 146.128906 632.378906 146.390625 638.585938 146.367188 C 641.121094 146.355469 647.867188 145.261719 649.71875 147.324219 C 651.15625 148.914062 651.15625 152.015625 651.203125 154.015625 C 651.328125 159.5625 650.421875 165.167969 650.1875 170.710938 C 649.964844 175.894531 650.601562 182.511719 648.386719 187.351562 C 646.640625 191.171875 642.855469 190.042969 639.566406 190.355469 C 636.023438 190.691406 632.625 191.40625 629.054688 191.402344 C 626.234375 191.394531 623.023438 191.765625 620.226562 191.402344 C 618.351562 191.152344 616.582031 190.3125 614.683594 190.035156 C 613.226562 189.820312 611.628906 189.855469 610.238281 189.328125 C 608.671875 188.734375 608.117188 188.476562 607.828125 186.625 C 607.390625 183.839844 608.328125 180.589844 608.273438 177.738281 C 608.257812 176.8125 606.816406 176.757812 606.832031 177.683594 C 606.886719 180.6875 606.414062 183.621094 606.382812 186.621094 C 606.367188 188.199219 606.289062 189.851562 607.980469 190.546875 C 608.75 190.867188 610.253906 190.835938 611.199219 191.015625 C 612.429688 191.25 613.675781 191.351562 614.914062 191.550781 C 617.140625 191.90625 619.089844 192.835938 621.367188 192.84375 C 624.636719 192.847656 627.992188 192.949219 631.257812 192.800781 C 634.488281 192.65625 637.65625 191.738281 640.890625 191.539062 C 645.277344 191.273438 648.304688 191.84375 649.882812 187.011719 C 651.457031 182.195312 651.351562 176.855469 651.46875 171.84375 C 651.613281 165.738281 652.789062 159.574219 652.511719 153.449219 Z M 643.53125 234.019531 C 642.464844 234.5625 640.742188 234.425781 639.601562 234.5625 C 639.246094 234.605469 637.949219 234.5625 637.699219 234.761719 C 637.386719 235.003906 636.871094 236.300781 636.671875 236.667969 C 635.601562 238.65625 634.757812 240.683594 633.910156 242.78125 C 633.671875 243.382812 632.65625 245.25 632.714844 245.632812 C 632.75 245.875 632.660156 246.035156 632.519531 246.136719 C 631.996094 247.609375 630.734375 248.902344 630.058594 250.304688 C 628.539062 253.441406 626.691406 256.339844 625.175781 259.484375 C 624.257812 261.398438 623.453125 264.347656 621.359375 265.230469 C 622.230469 268.015625 623.898438 270.4375 625.015625 273.121094 C 625.328125 273.867188 626.4375 275.859375 625.945312 276.773438 C 625.535156 277.523438 624.875 277.355469 624.1875 277.402344 C 621.261719 277.613281 618.226562 277.296875 615.277344 277.390625 C 610.105469 277.554688 604.914062 277.464844 599.746094 277.726562 C 597.105469 277.867188 594.46875 278.226562 591.820312 278.238281 C 590.050781 278.246094 588.136719 277.921875 586.382812 278.113281 C 585.464844 278.207031 585.472656 276.628906 586.457031 276.625 C 595.039062 276.605469 603.632812 276.214844 612.242188 276.09375 C 614.515625 276.066406 616.792969 275.9375 619.074219 275.9375 C 619.570312 275.9375 624.089844 276.40625 624.433594 276.066406 C 625.277344 275.199219 621.160156 268.113281 620.183594 265.507812 C 618.347656 265.710938 616.203125 265.351562 614.421875 265.433594 C 612.554688 265.523438 610.722656 265.945312 608.863281 266 C 605.535156 266.105469 602.332031 265.542969 599.035156 265.363281 C 597.140625 265.261719 593.453125 266.273438 591.828125 264.90625 C 591.238281 264.414062 591.25 263.753906 591.125 263.050781 C 590.859375 261.546875 590.445312 260.082031 590.171875 258.582031 C 589.769531 256.40625 589.714844 254.160156 589.382812 251.976562 C 589.242188 251.003906 589.054688 250.042969 588.886719 249.082031 C 588.660156 249.015625 588.464844 248.839844 588.449219 248.5625 C 588.226562 245.382812 588.015625 243.117188 591.550781 242.5625 C 593.632812 242.238281 595.835938 242.523438 597.945312 242.449219 C 599.601562 242.394531 601.160156 242.394531 602.800781 242.691406 C 607.34375 243.511719 612.300781 243.121094 616.976562 243.050781 C 617.210938 242.5625 617.90625 242.628906 618.105469 243.03125 C 618.113281 243.03125 618.117188 243.03125 618.125 243.03125 C 620.441406 243.027344 622.78125 242.839844 625.085938 243.105469 C 627.378906 243.363281 629.703125 243.296875 631.984375 243.621094 C 632.378906 242.738281 632.914062 241.847656 633.167969 241.164062 C 633.742188 239.621094 634.414062 238.121094 635.175781 236.660156 C 635.730469 235.597656 636.222656 233.921875 637.351562 233.449219 C 638.921875 232.78125 641.394531 233.609375 642.90625 232.835938 C 643.671875 232.445312 644.292969 233.628906 643.53125 234.019531 Z M 601.941406 264.183594 C 602.265625 262.210938 602.199219 260.125 602.15625 258.070312 C 601.382812 258.082031 600.613281 258.089844 599.839844 258.105469 C 597.332031 258.160156 594.085938 257.699219 591.703125 258.515625 C 591.652344 258.535156 591.617188 258.527344 591.570312 258.535156 C 591.671875 259.121094 591.78125 259.710938 591.90625 260.304688 C 592.0625 261.027344 592.078125 262.203125 592.363281 262.859375 C 593.015625 264.367188 594.511719 264.035156 595.875 264.015625 C 597.691406 263.992188 599.4375 264.066406 601.246094 264.25 C 601.480469 264.273438 601.707031 264.28125 601.9375 264.304688 C 601.949219 264.261719 601.9375 264.226562 601.941406 264.183594 Z M 602.242188 251.554688 C 600.902344 251.5625 599.570312 251.578125 598.230469 251.597656 C 595.757812 251.632812 592.984375 251.8125 590.53125 251.277344 C 590.566406 251.476562 590.601562 251.667969 590.632812 251.867188 C 590.910156 253.675781 591.105469 255.464844 591.367188 257.253906 C 594.578125 256.203125 598.640625 256.738281 602.015625 256.707031 C 602.054688 256.707031 602.097656 256.703125 602.140625 256.703125 C 602.140625 256.277344 602.140625 255.847656 602.15625 255.429688 C 602.199219 254.132812 602.222656 252.839844 602.242188 251.554688 Z M 602.273438 244.042969 C 601.550781 243.925781 600.832031 243.832031 600.085938 243.808594 C 598.082031 243.742188 596.023438 243.890625 594.011719 243.875 C 592.164062 243.855469 590.136719 243.734375 589.707031 246.136719 C 589.796875 247.488281 590.070312 248.792969 590.320312 250.113281 C 593.140625 250.804688 596.503906 250.414062 599.355469 250.359375 C 600.320312 250.339844 601.28125 250.328125 602.246094 250.316406 C 602.273438 248.226562 602.265625 246.136719 602.273438 244.042969 Z M 603.550781 250.3125 C 605.542969 250.304688 607.542969 250.328125 609.527344 250.414062 C 611.445312 250.496094 613.375 250.605469 615.308594 250.714844 C 615.664062 248.613281 616.078125 246.503906 616.585938 244.460938 C 615.523438 244.460938 614.457031 244.460938 613.394531 244.460938 C 610.9375 244.460938 608.492188 244.472656 606.035156 244.480469 C 605.1875 244.480469 604.371094 244.378906 603.5625 244.25 C 603.566406 246.277344 603.566406 248.292969 603.550781 250.3125 Z M 614.378906 257.71875 C 612.050781 257.691406 609.722656 257.699219 607.410156 257.886719 C 606.09375 257.988281 604.78125 258.035156 603.464844 258.058594 C 603.519531 260.191406 603.621094 262.378906 603.207031 264.402344 C 606.507812 264.570312 609.738281 264.328125 613 264.167969 C 612.960938 264.035156 612.972656 263.886719 613.046875 263.722656 C 613.84375 261.957031 614.152344 259.808594 614.378906 257.71875 Z M 614.539062 256.183594 C 614.605469 255.535156 614.671875 254.898438 614.757812 254.300781 C 614.863281 253.519531 614.980469 252.726562 615.105469 251.933594 C 613.101562 251.824219 611.101562 251.722656 609.097656 251.644531 C 607.246094 251.566406 605.386719 251.550781 603.53125 251.550781 C 603.515625 252.90625 603.496094 254.269531 603.453125 255.625 C 603.441406 255.964844 603.441406 256.3125 603.441406 256.652344 C 605.632812 256.558594 607.8125 256.328125 610.003906 256.289062 C 611.480469 256.257812 613 256.214844 614.539062 256.183594 Z M 624.402344 257.964844 C 622.1875 257.699219 619.667969 257.769531 617.492188 257.753906 C 616.90625 257.746094 616.324219 257.742188 615.734375 257.734375 C 615.507812 259.925781 615.207031 262.210938 614.425781 264.101562 C 615.5625 264.054688 616.703125 264.023438 617.855469 264.027344 C 619.164062 264.035156 620.554688 264.292969 621.664062 263.308594 C 622.300781 262.742188 622.734375 261.398438 623.128906 260.605469 C 623.5625 259.71875 623.976562 258.835938 624.402344 257.964844 Z M 627.457031 252.445312 C 623.789062 252.382812 620.105469 252.199219 616.425781 252 C 616.28125 252.949219 616.15625 253.898438 616.042969 254.820312 C 615.988281 255.253906 615.9375 255.699219 615.890625 256.15625 C 618.996094 256.121094 622.132812 256.199219 625.0625 256.640625 C 625.398438 256 625.757812 255.367188 626.160156 254.757812 C 626.652344 254.011719 627.066406 253.238281 627.457031 252.445312 Z M 631.101562 245.933594 C 630.832031 244.34375 629.132812 244.9375 628.128906 244.902344 C 625.484375 244.816406 622.984375 244.394531 620.296875 244.4375 C 619.492188 244.449219 618.6875 244.449219 617.882812 244.457031 C 617.367188 246.511719 616.960938 248.652344 616.617188 250.792969 C 620.441406 251.007812 624.277344 251.195312 628.0625 251.183594 C 628.503906 250.257812 628.941406 249.332031 629.460938 248.425781 C 629.703125 248.003906 631.113281 246.019531 631.101562 245.933594 Z M 596.921875 282.082031 C 597.03125 283.78125 595.460938 285.085938 593.867188 285.199219 C 592.414062 285.300781 590.277344 284.636719 590.074219 282.90625 C 589.902344 281.441406 591.015625 280.351562 592.296875 279.859375 C 592.367188 279.765625 592.464844 279.679688 592.613281 279.636719 C 594.347656 279.167969 596.792969 279.976562 596.921875 282.082031 Z M 592.933594 281.007812 C 592.835938 281.019531 592.746094 281.015625 592.660156 280.988281 C 592.277344 281.164062 591.929688 281.421875 591.683594 281.800781 C 591.082031 282.71875 591.730469 283.621094 592.699219 283.867188 C 593.554688 284.082031 594.875 283.847656 595.34375 283.027344 C 596.394531 281.167969 593.851562 280.882812 592.933594 281.007812 Z M 623.574219 281.332031 C 624.132812 282.820312 622.902344 284.335938 621.480469 284.730469 C 619.882812 285.175781 617.972656 284.226562 617.765625 282.507812 C 617.632812 281.429688 618.105469 280.683594 618.839844 280.183594 C 618.820312 279.902344 618.917969 279.597656 619.167969 279.441406 C 620.742188 278.429688 622.992188 279.769531 623.574219 281.332031 Z M 621.996094 281.300781 C 621.628906 280.863281 621.101562 280.652344 620.5625 280.625 C 620.523438 280.648438 620.496094 280.671875 620.445312 280.6875 C 619.523438 281.011719 618.582031 281.800781 619.265625 282.875 C 619.65625 283.492188 620.8125 283.601562 621.402344 283.320312 C 622.242188 282.917969 622.632812 282.050781 621.996094 281.300781 Z M 621.996094 281.300781 " fill-opacity="1" fill-rule="nonzero"/><path fill="#000000" d="M 497.570312 300.984375 C 492.296875 304.238281 485.484375 306.113281 479.371094 306.804688 C 478.191406 306.933594 474.828125 307.90625 474 306.351562 C 473.304688 305.035156 474.390625 302.464844 474.984375 301.277344 C 475.382812 300.484375 476.359375 300.796875 476.628906 301.445312 C 477.722656 300.777344 479.773438 301.285156 480.96875 301.324219 C 486.324219 301.5 491.832031 301.257812 496.859375 299.289062 C 497.878906 298.882812 498.429688 300.453125 497.570312 300.984375 Z M 453.308594 304.359375 C 452.367188 304.492188 451.4375 304.585938 450.511719 304.671875 C 450.371094 304.554688 450.1875 304.484375 449.972656 304.484375 C 441.714844 304.585938 433.742188 304.359375 425.6875 302.167969 C 425.527344 302.125 425.375 302.125 425.230469 302.160156 C 424.851562 302.035156 424.398438 302.101562 424.101562 302.496094 C 423.789062 302.917969 423.3125 303.542969 422.894531 304.238281 C 422.332031 305.007812 421.816406 305.789062 421.472656 306.730469 C 421.300781 307.207031 421.671875 307.75 422.121094 307.878906 C 422.558594 307.996094 423.039062 308.058594 423.539062 308.089844 C 424.390625 308.335938 425.488281 308.371094 426.082031 308.464844 C 427.859375 308.742188 429.667969 308.828125 431.457031 308.867188 C 435.785156 308.972656 440.097656 308.628906 444.398438 308.179688 C 447.636719 307.84375 450.796875 307.476562 453.796875 306.152344 C 453.796875 306.152344 453.800781 306.152344 453.800781 306.152344 C 453.875 306.125 453.953125 306.09375 454.023438 306.0625 C 455.082031 305.582031 454.253906 304.230469 453.308594 304.359375 Z M 483.886719 135.511719 L 596.003906 107.214844 L 590.78125 86.773438 L 479.074219 115.054688 Z M 483.886719 135.511719 " fill-opacity="1" fill-rule="nonzero"/><path fill="#ff7f50" d="M 451.035156 99.769531 C 448.761719 95.46875 449.007812 89.230469 443.011719 88.039062 C 439.050781 87.253906 434.828125 90.984375 434.738281 94.96875 C 434.242188 94.765625 433.710938 94.664062 433.070312 94.855469 C 431.757812 95.242188 430.910156 96.785156 430.875 98.070312 C 430.832031 99.605469 431.964844 100.917969 433.058594 101.882812 C 433.957031 102.683594 434.59375 102.890625 435.363281 102.996094 C 435.160156 104.238281 435.394531 105.628906 435.699219 106.964844 C 435.835938 109.085938 436.003906 111.214844 436.601562 113.199219 C 436.757812 113.722656 437.183594 113.90625 437.597656 113.859375 C 438.464844 114.753906 439.835938 115.488281 440.8125 115.96875 C 442.871094 116.980469 444.878906 118.082031 446.917969 119.121094 C 447.597656 119.46875 448.480469 119.082031 448.484375 118.25 C 448.503906 116.273438 448.015625 114.6875 447.355469 112.832031 C 446.703125 110.980469 446.550781 109.035156 446.082031 107.15625 C 448.695312 106.316406 449.859375 103.984375 449.78125 101.359375 C 449.980469 101.3125 450.183594 101.253906 450.382812 101.210938 C 451.019531 101.066406 451.328125 100.332031 451.035156 99.769531 Z M 451.035156 99.769531 " fill-opacity="1" fill-rule="nonzero"/><path fill="#ff7f50" d="M 512.09375 134.140625 C 510.71875 133.707031 509.292969 133.574219 507.859375 133.574219 C 507.261719 133.574219 506.625 133.636719 505.980469 133.707031 C 507.324219 133.433594 508.675781 133.238281 509.746094 132.945312 C 510.878906 132.632812 512.027344 132.394531 512.65625 131.324219 C 513.027344 130.691406 512.738281 129.964844 512.074219 129.707031 C 507.746094 128.039062 502.867188 128.265625 498.394531 129.445312 C 497.613281 129.648438 496.875 129.929688 496.136719 130.21875 C 496.3125 129.886719 496.484375 129.550781 496.648438 129.214844 C 497.375 127.714844 498.023438 126.511719 497.351562 124.910156 C 497.1875 124.519531 496.605469 124.175781 496.171875 124.320312 C 492.085938 125.671875 490.085938 130.953125 487.589844 134.386719 C 486.863281 134.117188 485.832031 134.613281 485.980469 135.625 C 486.199219 137.101562 486.433594 138.40625 487.253906 139.707031 C 487.664062 140.355469 488.128906 140.832031 488.683594 141.367188 C 489.5 142.160156 490.070312 143.144531 490.789062 143.914062 C 491.960938 145.160156 493.371094 145.246094 495.019531 145.492188 C 497.894531 145.925781 500.632812 146.722656 503.429688 147.492188 C 504.722656 147.847656 506.570312 148.914062 507.902344 148.117188 C 508.785156 147.59375 509.011719 146.621094 508.640625 145.726562 C 508.308594 144.933594 507.519531 144.367188 506.730469 143.917969 C 506.917969 143.941406 507.105469 143.964844 507.296875 143.984375 C 509.191406 144.195312 512.519531 145.199219 514.433594 143.984375 C 514.8125 143.742188 515.046875 143.335938 514.941406 142.878906 C 514.5 140.910156 512.890625 139.894531 510.925781 139.292969 C 511.277344 139.269531 511.628906 139.25 511.972656 139.222656 C 513.226562 139.125 515.6875 139.035156 515.898438 137.347656 C 516.136719 135.511719 513.359375 134.535156 512.09375 134.140625 Z M 512.09375 134.140625 " fill-opacity="1" fill-rule="nonzero"/><path fill="#000000" d="M 423.773438 301.390625 C 423.339844 298.496094 424.066406 295.980469 425.019531 293.273438 C 425.890625 290.796875 426.417969 288.246094 427.535156 285.859375 C 429.980469 280.640625 432.933594 275.664062 435.6875 270.605469 C 438.203125 265.992188 440.945312 261.566406 443.917969 257.230469 C 446.804688 253.007812 449.140625 248.425781 452.050781 244.246094 C 452.878906 243.050781 454.851562 241.1875 454.65625 239.742188 C 454.566406 239.070312 453.628906 238.121094 453.308594 237.5 C 452.800781 236.527344 452.339844 235.539062 451.828125 234.558594 C 449.480469 230.058594 447.445312 225.394531 445.273438 220.816406 C 441.003906 211.828125 436.964844 202.726562 434.164062 193.160156 C 431.648438 184.570312 430.007812 174.0625 434.050781 165.71875 C 434.257812 165.285156 434.515625 164.933594 434.804688 164.632812 C 435.140625 164.183594 435.601562 163.796875 436.203125 163.519531 C 439.023438 162.222656 442.003906 162.195312 444.929688 161.214844 C 447.277344 160.429688 449.605469 159.570312 452.039062 159.09375 C 454.265625 158.664062 456.484375 158.777344 458.710938 158.417969 C 460.976562 158.042969 463.128906 158.007812 465.226562 159.039062 C 468.652344 160.730469 469.917969 164.535156 471.925781 167.503906 C 474.667969 171.550781 477.386719 175.792969 479.847656 180.023438 C 484.5 188.039062 488.640625 196.347656 492.933594 204.566406 C 497.03125 212.402344 500.679688 220.292969 502.625 228.96875 C 504.558594 237.597656 505.398438 246.359375 506.550781 255.09375 C 507.199219 260.003906 507.78125 265.027344 507.722656 269.980469 C 507.667969 274.261719 508.582031 278.351562 508.554688 282.625 C 508.53125 286.371094 509.167969 290.699219 508.472656 294.382812 C 508.136719 296.160156 507.296875 297.691406 505.796875 298.75 C 504.203125 299.867188 502.300781 299.746094 500.496094 300.316406 C 496.25 301.65625 491.941406 302.339844 487.507812 302.570312 C 483.90625 302.753906 478.628906 303.601562 475.375 301.699219 C 472.050781 299.75 472.679688 295.800781 472.679688 292.515625 C 472.679688 288.375 472.691406 284.234375 472.675781 280.09375 C 472.667969 278.535156 472.703125 277.007812 472.765625 275.496094 C 472.277344 276.570312 471.796875 277.648438 471.328125 278.730469 C 469.636719 282.648438 467.859375 286.496094 466.132812 290.394531 C 464.378906 294.339844 462.25 298.214844 461.515625 302.507812 C 461.28125 303.855469 459.8125 304.988281 458.550781 305.253906 C 457.296875 305.515625 456.199219 305.375 454.957031 305.421875 C 453.652344 305.476562 452.429688 305.882812 451.136719 306.050781 C 448.59375 306.386719 446 306.152344 443.441406 306.128906 C 437.933594 306.082031 432.273438 306.574219 426.875 305.234375 C 424.972656 304.773438 424.042969 303.21875 423.773438 301.390625 Z M 538.5625 315.578125 C 537.921875 316.074219 534.929688 315.957031 534.144531 316.050781 C 531.898438 316.320312 529.632812 315.9375 527.378906 316.09375 C 523.039062 316.394531 518.808594 316.875 514.4375 316.765625 C 510.566406 316.671875 506.390625 316.984375 502.546875 317.453125 C 498.582031 317.933594 494.386719 318.25 491.171875 320.839844 C 490.96875 321 490.824219 321.179688 490.707031 321.359375 C 489.695312 321.21875 488.59375 321.589844 488.027344 322.605469 C 487.9375 322.632812 487.8125 322.671875 487.636719 322.707031 C 487.183594 322.800781 486.625 323.132812 486.1875 323.289062 C 485.410156 323.566406 484.617188 323.835938 483.820312 324.027344 C 480.914062 324.722656 477.855469 324.753906 474.890625 324.808594 C 468.472656 324.921875 462.296875 323.488281 455.914062 323.15625 C 448.886719 322.796875 441.886719 322.476562 434.890625 321.835938 C 432.054688 321.570312 429.277344 320.941406 426.457031 320.542969 C 424.816406 320.316406 423.183594 320.128906 421.605469 319.621094 C 420.429688 319.234375 418.582031 318.929688 417.554688 318.28125 C 416.527344 317.636719 415.417969 317.945312 414.722656 318.617188 C 414.433594 318.75 414.164062 318.957031 413.941406 319.277344 C 412.871094 320.800781 411.839844 323.308594 412.902344 325.085938 C 413.957031 326.851562 416.738281 327.445312 418.640625 327.75 C 421.863281 328.273438 425.355469 327.847656 428.640625 328.148438 C 431.480469 328.40625 434 327.566406 436.75 327.558594 C 437.625 327.558594 438.203125 327.164062 438.515625 326.609375 C 444.503906 327.113281 450.496094 327.527344 456.496094 327.96875 C 460.355469 328.25 464.253906 328.996094 468.082031 329.558594 C 471.832031 330.113281 475.914062 329.878906 479.683594 329.625 C 483.21875 329.390625 491.457031 328.773438 492.734375 324.417969 C 493.238281 324.441406 493.765625 324.304688 494.253906 323.917969 C 495.585938 322.863281 497.34375 322.695312 498.964844 322.496094 C 501.550781 322.171875 504.03125 321.890625 506.636719 321.847656 C 508.851562 321.8125 511.023438 321.402344 513.238281 321.425781 C 515.421875 321.457031 517.578125 321.65625 519.761719 321.546875 C 524.191406 321.332031 528.527344 321.152344 532.957031 321.085938 C 535.667969 321.042969 539.625 321.109375 541.859375 319.386719 C 544.410156 317.410156 541.101562 313.59375 538.5625 315.578125 Z M 456.648438 313.691406 C 457.9375 313.121094 458.800781 312.050781 459.839844 311.140625 C 460.371094 310.671875 460.976562 310.296875 461.523438 309.855469 C 461.910156 309.542969 462.542969 308.660156 463.035156 308.53125 C 464.367188 308.195312 464.035156 305.84375 462.644531 306.09375 C 461.492188 306.304688 461.214844 306.660156 460.472656 307.410156 C 459.9375 307.957031 459.289062 308.363281 458.695312 308.84375 C 457.933594 309.464844 457.253906 310.167969 456.527344 310.816406 C 456.226562 310.851562 455.945312 311.011719 455.789062 311.34375 C 455.757812 311.390625 455.734375 311.4375 455.707031 311.488281 C 455.601562 311.558594 455.511719 311.644531 455.410156 311.714844 C 455.417969 311.722656 455.417969 311.726562 455.421875 311.734375 C 454.5 312.574219 455.351562 314.269531 456.648438 313.691406 Z M 463.226562 314.84375 C 464.230469 313.867188 465.464844 313.113281 466.582031 312.269531 C 467.433594 311.621094 468.425781 310.941406 468.71875 309.855469 C 469.125 308.339844 466.996094 307.546875 466.40625 309.03125 C 466.109375 309.789062 464.828125 310.476562 464.199219 310.945312 C 463.25 311.65625 462.273438 312.292969 461.417969 313.128906 C 460.273438 314.25 462.078125 315.960938 463.226562 314.84375 Z M 504.839844 305.078125 C 505.566406 304.28125 506.15625 303.375 506.90625 302.59375 C 508.023438 301.421875 506.1875 299.777344 505.050781 300.910156 C 504.085938 301.882812 503.308594 303.011719 502.277344 303.921875 C 501.40625 304.683594 500.65625 305.457031 500.277344 306.570312 C 499.902344 307.699219 501.171875 308.648438 502.183594 308.140625 C 502.46875 307.996094 502.703125 307.882812 502.945312 307.660156 C 503.113281 307.503906 503.371094 307.050781 503.5625 306.976562 C 504.097656 306.785156 504.324219 306.171875 504.234375 305.65625 C 504.449219 305.46875 504.660156 305.277344 504.839844 305.078125 Z M 508.417969 307.722656 C 509.179688 307.792969 509.5 307.34375 509.816406 306.75 C 510.128906 306.179688 510.355469 305.710938 510.8125 305.222656 C 511.4375 304.5625 512.171875 304.015625 512.8125 303.375 C 513.988281 302.203125 512.210938 300.375 511.011719 301.53125 C 509.613281 302.875 507.3125 304.28125 507.261719 306.464844 C 507.246094 307.109375 507.804688 307.667969 508.417969 307.722656 Z M 508.417969 307.722656 " fill-opacity="1" fill-rule="nonzero"/><path fill="#dee3f3" d="M 496.660156 143.875 C 495.550781 142.339844 494.28125 141.082031 492.925781 139.757812 C 491.886719 138.742188 490.867188 137.707031 489.847656 136.675781 C 488.96875 135.792969 486.839844 134.429688 486.59375 133.167969 C 486.4375 132.386719 485.597656 132.007812 484.894531 132.328125 C 483.316406 133.042969 481.574219 133.300781 479.972656 133.960938 C 478.070312 134.746094 476.292969 136.117188 474.179688 136.042969 C 472.675781 135.992188 471.089844 135.355469 469.625 135.003906 C 468.414062 134.71875 466.617188 134.832031 465.664062 134.164062 C 464.175781 133.121094 463.292969 130.765625 462.355469 129.257812 C 460.53125 126.328125 458.828125 123.316406 456.496094 120.742188 C 455.507812 119.648438 454.511719 118.601562 453.207031 117.902344 C 452.714844 117.636719 451.863281 117.515625 451.433594 117.199219 C 450.0625 116.214844 449.121094 113.691406 448.292969 112.203125 C 447.835938 111.382812 446.292969 111.28125 446.246094 112.476562 C 446.203125 113.546875 446.25 114.886719 446.136719 116.128906 C 444.925781 114.699219 443.542969 113.316406 442.144531 112.28125 C 440.164062 110.8125 437.488281 108.449219 434.90625 108.421875 C 434.308594 108.417969 434.011719 109.066406 434.007812 109.566406 C 433.996094 110.695312 433.84375 112.027344 433.492188 113.210938 C 433.472656 113.222656 433.453125 113.234375 433.4375 113.253906 C 432.441406 114.152344 431.160156 114.820312 430.125 115.746094 C 428.429688 117.246094 426.714844 118.652344 425.171875 120.328125 C 422.648438 123.070312 421.355469 125.703125 421.171875 129.484375 C 420.945312 134.171875 423.050781 138.953125 424.503906 143.300781 C 425.925781 147.558594 426.847656 151.941406 427.535156 156.367188 C 427.882812 158.613281 428.105469 160.898438 428.363281 163.15625 C 428.515625 164.488281 428.652344 166.011719 429.65625 167.039062 C 430.574219 167.988281 431.839844 168.054688 433.125 168.3125 C 435.125 168.714844 437.085938 169.300781 439.078125 169.664062 C 443.898438 170.546875 449.007812 170.195312 453.855469 169.761719 C 457.601562 169.429688 461.238281 168.089844 464.378906 166.097656 C 466.328125 164.859375 467.8125 163.136719 470.128906 163.25 C 472.46875 163.363281 474.773438 163.675781 477.097656 163.984375 C 481.25 164.535156 487.476562 166.46875 491.167969 163.558594 C 491.605469 163.207031 491.605469 162.644531 491.4375 162.175781 C 490.273438 158.890625 489.726562 155.3125 490.039062 151.820312 C 490.355469 148.277344 494.097656 147.515625 496.371094 145.503906 C 496.839844 145.101562 497.066406 144.441406 496.660156 143.875 Z M 496.660156 143.875 " fill-opacity="1" fill-rule="nonzero"/><path fill="#ff7f50" d="M 642.792969 160.847656 C 642.230469 158.777344 640.988281 153.808594 638.039062 153.964844 C 637.109375 153.371094 636.300781 153.492188 635.109375 153.871094 C 632.296875 154.777344 629.960938 155.222656 626.960938 155.195312 C 620.460938 155.148438 614.402344 155.324219 608.878906 151.335938 C 604.8125 148.398438 601.226562 144.128906 597.757812 140.496094 C 595.988281 138.640625 594.414062 136.679688 593.261719 134.378906 C 592.195312 132.261719 591.238281 130.328125 589.402344 128.769531 C 586.984375 126.71875 583.984375 123.246094 580.367188 124.847656 C 577.402344 126.164062 578.230469 130.210938 579.125 132.574219 C 579.992188 134.867188 581.277344 137.011719 582.492188 139.132812 C 584.089844 141.90625 586.472656 144.890625 582.746094 147.066406 C 580.460938 148.40625 577.390625 148.597656 574.792969 148.789062 C 571.90625 149.003906 569.113281 149.261719 566.210938 149.226562 C 561.40625 149.160156 556.886719 150.175781 552.3125 151.492188 C 550.09375 152.132812 546.707031 153.046875 546.496094 155.886719 C 546.160156 160.46875 555.148438 160.015625 557.835938 160.015625 C 561.460938 160.015625 565.09375 160.105469 568.71875 160.03125 C 571.183594 159.984375 573.582031 159.441406 576.035156 159.328125 C 576.351562 159.316406 576.675781 159.328125 577 159.335938 C 576.539062 159.582031 576.089844 159.859375 575.601562 160.0625 C 572.8125 161.226562 569.785156 161.859375 566.851562 162.554688 C 561.714844 163.765625 556.753906 165.234375 551.714844 166.777344 C 548.160156 167.863281 543.652344 168.433594 541.132812 171.558594 C 538.878906 174.34375 541.550781 176.800781 544.359375 177.542969 C 549.425781 178.878906 555.09375 176.492188 559.902344 175.179688 C 562.84375 174.375 565.878906 174.042969 568.863281 173.4375 C 558.027344 178.363281 542.378906 186.425781 547.691406 191.671875 C 551.054688 194.992188 558.472656 191.628906 561.984375 190.210938 C 564.566406 189.171875 567.09375 188.039062 569.613281 186.890625 C 567.480469 188.824219 565.261719 191.058594 563.953125 193.554688 C 562.792969 195.765625 563.070312 197.894531 565.65625 198.636719 C 571.058594 200.1875 576.210938 195.929688 580.539062 193.425781 C 586.054688 190.230469 591.425781 187.070312 597.648438 185.484375 C 603.707031 183.941406 610.472656 183.125 616.703125 183.0625 C 619.648438 183.035156 622.464844 182.296875 625.375 182.007812 C 628.453125 181.699219 631.425781 182.132812 634.488281 181.605469 C 636.492188 181.257812 638.207031 181.328125 639.761719 179.855469 C 641.273438 178.433594 642.375 176.453125 642.925781 174.457031 C 644.132812 170.074219 643.976562 165.203125 642.792969 160.847656 Z M 642.792969 160.847656 " fill-opacity="1" fill-rule="nonzero"/><path fill="#000000" d="M 428.796875 102.125 C 424.78125 96.609375 426.148438 87.503906 432.597656 84.730469 C 433.449219 84.363281 433.246094 84.527344 433.765625 83.78125 C 434.101562 83.300781 434.222656 82.6875 434.648438 82.207031 C 435.808594 80.910156 437.390625 80.394531 439.085938 80.441406 C 441.460938 80.503906 442.632812 81.589844 444.488281 82.863281 C 446.328125 84.125 448.324219 83.925781 450.488281 83.699219 C 452.523438 83.480469 456.160156 83.179688 456.703125 86.015625 C 457.234375 88.84375 452.429688 90.855469 450.433594 91.398438 C 448.394531 91.957031 446.417969 91.414062 444.421875 90.96875 C 442.992188 90.652344 441.523438 90.058594 440.65625 91.65625 C 440.125 92.660156 440.230469 93.621094 439.515625 94.542969 C 439.007812 95.203125 437.679688 96.578125 436.804688 96.617188 C 436.59375 96.621094 436.414062 96.585938 436.246094 96.527344 C 435.953125 96.585938 435.640625 96.472656 435.449219 96.269531 C 433.472656 94.683594 431.726562 96.253906 431.742188 98.007812 C 431.75 98.453125 432.398438 100.050781 432.402344 100.082031 C 433.09375 101.230469 434.074219 101.398438 435.007812 102.171875 C 435.902344 102.917969 436.359375 103.761719 435.734375 104.808594 C 433.90625 107.878906 429.890625 103.625 428.796875 102.125 Z M 444.558594 99.210938 C 444.371094 99.398438 444.164062 99.554688 443.972656 99.738281 C 443.664062 100.035156 443.414062 100.382812 443.117188 100.6875 C 442.882812 100.933594 443.304688 101.355469 443.542969 101.113281 C 443.710938 100.945312 443.867188 100.765625 444.023438 100.59375 C 444.035156 100.605469 444.035156 100.617188 444.046875 100.628906 C 444.359375 100.902344 444.476562 101.402344 444.683594 101.75 C 444.902344 102.113281 445.203125 102.429688 445.539062 102.683594 C 446.484375 103.378906 447.804688 103.257812 448.917969 103.210938 C 448.964844 103.210938 449.007812 103.191406 449.042969 103.167969 C 449.085938 103.167969 449.132812 103.164062 449.179688 103.175781 C 449.269531 103.132812 449.355469 103.085938 449.445312 103.042969 C 449.632812 102.863281 449.535156 102.484375 449.246094 102.484375 C 448.90625 102.488281 448.507812 102.398438 448.203125 102.578125 C 447.34375 102.550781 446.378906 102.476562 445.785156 101.9375 C 445.21875 101.414062 445.09375 100.597656 444.535156 100.097656 C 444.714844 99.949219 444.894531 99.800781 445.0625 99.636719 C 445.355469 99.34375 444.859375 98.917969 444.558594 99.210938 Z M 549.054688 159.496094 C 549.007812 158.109375 549.019531 156.722656 549.011719 155.339844 C 549.011719 155.039062 549.179688 154.855469 549.398438 154.78125 C 549.300781 154.535156 549.347656 154.25 549.667969 154.109375 C 551.851562 153.144531 554.601562 153.871094 554.894531 156.558594 C 555.007812 157.605469 554.605469 158.636719 553.789062 159.3125 C 553.699219 159.390625 553.605469 159.441406 553.507812 159.507812 C 563.328125 160.714844 573.683594 158.792969 582.992188 155.792969 C 583.753906 155.546875 584.078125 156.746094 583.320312 156.988281 C 573.28125 160.230469 562.078125 162.15625 551.5625 160.480469 C 551.351562 160.445312 551.226562 160.339844 551.167969 160.199219 C 550.613281 160.21875 550.050781 160.175781 549.515625 160.097656 C 549.242188 160.0625 549.066406 159.742188 549.054688 159.496094 Z M 550.296875 155.179688 C 550.273438 155.191406 550.25 155.183594 550.226562 155.195312 C 550.238281 155.246094 550.253906 155.289062 550.253906 155.339844 C 550.261719 156.542969 550.261719 157.742188 550.292969 158.945312 C 551.820312 159.039062 553.898438 158.601562 553.675781 156.675781 C 553.464844 154.945312 551.675781 154.558594 550.296875 155.179688 Z M 545.398438 177.25 C 545.117188 177.269531 544.882812 177.039062 544.800781 176.792969 C 544.378906 175.570312 544.066406 174.300781 543.507812 173.125 C 543.375 172.84375 543.460938 172.585938 543.628906 172.402344 C 543.152344 172.351562 542.859375 171.585938 543.382812 171.226562 C 545.421875 169.808594 548.296875 170.175781 549.3125 172.648438 C 549.714844 173.636719 549.65625 174.769531 549.023438 175.648438 C 548.195312 176.800781 546.738281 177.15625 545.398438 177.25 Z M 548.128906 173.023438 C 547.367188 171.351562 545.550781 171.339844 544.179688 172.195312 C 544.335938 172.210938 544.488281 172.300781 544.582031 172.5 C 545.109375 173.609375 545.453125 174.789062 545.832031 175.960938 C 547.332031 175.71875 548.929688 174.777344 548.128906 173.023438 Z M 555.902344 190.191406 C 555.507812 191.074219 554.679688 191.660156 553.738281 191.84375 C 553.105469 191.972656 552.289062 192.097656 551.894531 191.503906 C 551.257812 190.542969 550.699219 189.515625 550.148438 188.503906 C 550.121094 188.457031 550.117188 188.414062 550.105469 188.375 C 549.722656 188.210938 549.488281 187.730469 549.894531 187.40625 C 551 186.519531 552.378906 185.710938 553.851562 186.019531 C 555.675781 186.390625 556.640625 188.53125 555.902344 190.191406 Z M 554.792969 188.289062 C 554.167969 186.65625 552.421875 187.183594 551.25 187.933594 C 551.761719 188.867188 552.300781 189.777344 552.855469 190.6875 C 553.519531 190.679688 554.214844 190.523438 554.625 189.960938 C 554.96875 189.480469 554.996094 188.824219 554.792969 188.289062 Z M 572.675781 194.28125 C 572.769531 195.898438 571.804688 197.738281 569.992188 197.554688 C 568.574219 197.414062 567.242188 196.28125 566.425781 195.117188 C 565.976562 195.117188 565.5625 194.5 565.953125 194.042969 C 567.378906 192.375 572.476562 190.792969 572.675781 194.28125 Z M 571.402344 194.085938 C 570.925781 192.671875 568.640625 193.574219 567.441406 194.402344 C 567.992188 195.203125 568.855469 195.976562 569.78125 196.246094 C 570.96875 196.601562 571.753906 195.148438 571.402344 194.085938 Z M 587.882812 175.011719 C 582.128906 176.882812 577.535156 180.824219 572.492188 184.011719 C 567.433594 187.214844 561.277344 187.886719 556.300781 191.148438 C 555.632812 191.585938 556.257812 192.660156 556.921875 192.21875 C 561.625 189.136719 567.46875 188.519531 572.289062 185.59375 C 577.566406 182.398438 582.246094 178.140625 588.207031 176.207031 C 588.96875 175.960938 588.644531 174.765625 587.882812 175.011719 Z M 583.820312 168.804688 C 584.523438 168.429688 583.898438 167.359375 583.195312 167.738281 C 577.285156 170.890625 570.628906 172.15625 564.152344 173.628906 C 558.699219 174.867188 552.984375 175.359375 547.921875 177.875 C 547.207031 178.230469 547.832031 179.296875 548.542969 178.945312 C 554.035156 176.21875 560.488281 175.75 566.402344 174.375 C 572.375 172.980469 578.371094 171.714844 583.820312 168.804688 Z M 581.378906 128.664062 C 581.015625 126.96875 582.074219 125.738281 583.695312 125.390625 C 583.707031 125.390625 583.710938 125.390625 583.722656 125.390625 C 583.796875 125.371094 583.875 125.371094 583.957031 125.390625 C 583.957031 125.390625 583.964844 125.390625 583.964844 125.390625 C 583.984375 125.394531 584 125.390625 584.023438 125.390625 C 585.613281 125.796875 586.769531 127.78125 586.9375 129.316406 C 587.109375 130.914062 585.875 132.308594 584.210938 131.871094 C 582.800781 131.5 581.671875 130.050781 581.378906 128.664062 Z M 582.613281 128.5 C 582.816406 129.324219 583.453125 130.210938 584.246094 130.566406 C 585.363281 131.070312 585.890625 130.074219 585.632812 129.066406 C 585.410156 128.183594 584.75 126.976562 583.832031 126.640625 C 582.90625 126.890625 582.363281 127.472656 582.613281 128.5 Z M 481.628906 225.046875 C 482.792969 227.441406 486.558594 231.65625 485.875 234.414062 C 485.863281 234.46875 485.855469 234.515625 485.847656 234.5625 C 485.757812 234.640625 485.675781 234.75 485.617188 234.890625 C 480.128906 247.53125 478.105469 261.261719 473.648438 274.25 C 473.257812 275.386719 475.050781 275.871094 475.441406 274.742188 C 479.839844 261.914062 481.804688 248.3125 487.222656 235.832031 C 487.285156 235.695312 487.308594 235.5625 487.308594 235.433594 C 487.46875 235.328125 487.601562 235.160156 487.664062 234.914062 C 488.285156 232.394531 486.628906 230.042969 485.375 227.992188 C 482.980469 224.078125 481.292969 219.824219 479.601562 215.566406 C 476.148438 206.90625 472.46875 198.34375 468.710938 189.816406 C 468.234375 188.722656 466.625 189.664062 467.105469 190.75 C 470.640625 198.777344 474.113281 206.824219 477.375 214.96875 C 478.730469 218.355469 480.03125 221.765625 481.628906 225.046875 Z M 445.105469 174.332031 C 448.21875 179.203125 444.546875 184.757812 441.613281 188.769531 C 440.902344 189.738281 442.519531 190.667969 443.21875 189.707031 C 446.585938 185.113281 450.226562 178.890625 446.714844 173.394531 C 446.070312 172.386719 444.457031 173.316406 445.105469 174.332031 Z M 463.371094 237.578125 C 460.410156 237.765625 457.570312 238.628906 454.636719 238.980469 C 453.460938 239.117188 453.449219 240.980469 454.636719 240.839844 C 457.566406 240.5 460.417969 239.628906 463.371094 239.441406 C 464.558594 239.363281 464.570312 237.5 463.371094 237.578125 Z M 474.445312 309.59375 C 473.273438 309.359375 472.777344 311.15625 473.953125 311.390625 C 480.433594 312.683594 491.136719 317.277344 491.082031 325.167969 C 491.078125 326.371094 492.9375 326.371094 492.945312 325.167969 C 493 316.320312 481.816406 311.0625 474.445312 309.59375 Z M 454.476562 138.433594 C 457.007812 139.835938 457.757812 141.804688 460.628906 140.824219 C 464.9375 139.355469 469.847656 137.402344 474.386719 136.824219 C 475.207031 136.722656 474.882812 135.472656 474.074219 135.574219 C 470.746094 135.976562 467.265625 137.394531 464.054688 138.34375 C 463.449219 138.523438 462.792969 138.777344 462.121094 139.011719 C 460.988281 134.476562 458.246094 130.265625 456.582031 125.925781 C 456.359375 125.335938 455.421875 125.605469 455.632812 126.214844 C 457.175781 130.597656 459.9375 134.820312 461.046875 139.355469 C 459.859375 139.683594 458.675781 139.792969 457.6875 139.15625 C 456.492188 138.386719 455.328125 137.601562 454.089844 136.847656 C 451.066406 135.023438 448.371094 132.707031 445.382812 130.824219 C 441.289062 128.253906 437.308594 124.742188 432.679688 123.179688 C 432.050781 122.96875 431.75 123.914062 432.363281 124.152344 C 436.496094 125.785156 440.308594 128.890625 443.957031 131.3125 C 447.46875 133.640625 450.785156 136.398438 454.476562 138.433594 Z M 467.253906 159.136719 C 467.265625 159.148438 467.277344 159.148438 467.296875 159.160156 C 467.488281 159.574219 467.679688 159.984375 467.859375 160.386719 C 468.082031 160.878906 468.363281 161.339844 468.539062 161.851562 C 468.699219 162.3125 468.773438 162.699219 469.078125 163.09375 C 469.554688 163.714844 470.511719 163.003906 470.050781 162.375 C 469.996094 162.300781 469.957031 162.21875 469.917969 162.132812 C 469.960938 162.105469 469.996094 162.074219 470.03125 162.03125 C 470.609375 161.300781 470.800781 160.378906 471.335938 159.613281 C 472.042969 158.585938 473.101562 157.664062 474.046875 156.867188 C 475.273438 155.832031 477.078125 154.691406 478.5625 154.0625 C 478.707031 154.003906 478.808594 153.90625 478.875 153.796875 C 479.941406 153.46875 481.015625 153.144531 482.09375 152.824219 C 484.769531 152.03125 487.578125 151.613281 490.160156 150.53125 C 490.898438 150.222656 490.488281 149.042969 489.738281 149.347656 C 484.683594 151.394531 478.964844 152.445312 473.730469 154.015625 C 468.910156 155.457031 464.0625 156.824219 459.28125 158.410156 C 456.25 159.414062 454.210938 158.714844 451.417969 157.503906 C 449.132812 156.511719 446.863281 155.515625 444.546875 154.601562 C 440.429688 152.980469 437.363281 150.433594 433.742188 148.082031 C 433.226562 147.742188 432.664062 148.496094 433.171875 148.847656 C 435.71875 150.625 437.800781 152.644531 440.597656 154.105469 C 443.257812 155.496094 446.132812 156.519531 448.878906 157.714844 C 450.832031 158.558594 452.988281 159.839844 455.09375 160.253906 C 456.886719 160.613281 458.453125 159.953125 460.140625 159.40625 C 462.21875 158.734375 464.308594 158.078125 466.40625 157.441406 C 466.378906 158.117188 466.71875 158.664062 467.253906 159.136719 Z M 434.324219 113.132812 C 433.777344 112.742188 433.105469 113.539062 433.660156 113.941406 C 435.496094 115.292969 437.34375 116.398438 439.023438 117.972656 C 440.585938 119.433594 441.738281 121.277344 443.195312 122.820312 C 443.386719 123.019531 443.777344 123.035156 443.964844 122.8125 C 445.160156 121.382812 446.179688 119.246094 446.703125 117.367188 C 447.480469 117.816406 448.246094 118.277344 448.886719 118.929688 C 449.488281 119.527344 449.941406 120.265625 450.554688 120.84375 C 450.980469 121.246094 451.703125 120.574219 451.3125 120.121094 C 450.695312 119.414062 450.171875 118.664062 449.480469 118.007812 C 448.800781 117.367188 448.011719 116.886719 447.199219 116.417969 C 447.027344 116.316406 446.851562 116.328125 446.714844 116.398438 C 446.472656 116.207031 446.019531 116.261719 445.914062 116.65625 C 445.5 118.226562 444.644531 120.242188 443.574219 121.605469 C 442.296875 120.109375 441.160156 118.449219 439.695312 117.089844 C 438.003906 115.527344 436.171875 114.449219 434.324219 113.132812 Z M 701.664062 83.996094 C 701.5625 98.605469 698.542969 112.914062 696.492188 127.324219 C 695.484375 134.429688 693.796875 141.414062 692.582031 148.484375 C 691.273438 156.105469 690.410156 163.804688 689.292969 171.453125 C 687.144531 186.21875 685.070312 200.855469 681.058594 215.25 C 679.203125 221.917969 677.984375 228.785156 676.605469 235.566406 C 675.121094 242.851562 673.320312 250.078125 671.425781 257.261719 C 669.4375 264.773438 667.625 272.359375 666.882812 280.09375 C 666.429688 284.78125 665.242188 289.351562 664.824219 294.058594 C 664.578125 296.808594 663.160156 299.410156 662.582031 302.117188 C 661.953125 305.074219 660.691406 307.878906 658.574219 310.0625 C 656.136719 312.574219 651.527344 314.644531 648.011719 315.074219 C 647.066406 315.1875 647.265625 316.632812 648.207031 316.53125 C 651.949219 316.136719 656.964844 313.789062 659.589844 311.054688 C 662.445312 308.074219 663.695312 304.035156 664.90625 300.207031 C 664.925781 300.140625 664.9375 300.082031 664.9375 300.027344 C 666.507812 296.738281 666.183594 292.183594 666.792969 288.90625 C 668.113281 281.777344 668.8125 274.613281 670.367188 267.523438 C 671.898438 260.546875 674.101562 253.722656 675.433594 246.707031 C 676.804688 239.519531 678.65625 232.378906 680.148438 225.195312 C 681.636719 217.988281 683.996094 210.996094 685.378906 203.777344 C 686.875 195.984375 688.105469 188.179688 689.253906 180.332031 C 691.503906 164.914062 693.644531 149.5625 696.585938 134.261719 C 698.113281 126.320312 699.058594 118.242188 700.363281 110.261719 C 701.773438 101.613281 702.792969 92.90625 702.828125 84.136719 C 702.828125 83.367188 701.671875 83.242188 701.664062 83.996094 Z M 508.90625 132.765625 C 507.46875 132.578125 505.96875 132.574219 504.527344 132.722656 C 503.078125 132.875 501.785156 133.382812 500.375 133.683594 C 499.625 133.847656 499.734375 135.046875 500.496094 134.886719 C 501.808594 134.601562 503.046875 134.117188 504.390625 133.953125 C 505.886719 133.773438 507.386719 133.929688 508.875 133.757812 C 509.425781 133.703125 509.480469 132.84375 508.90625 132.765625 Z M 513.039062 139.445312 C 512.109375 138.542969 510.265625 138.691406 509.074219 138.621094 C 506.910156 138.484375 504.785156 138.421875 502.621094 138.421875 C 501.875 138.421875 502.007812 139.574219 502.753906 139.574219 C 504.476562 139.574219 506.179688 139.617188 507.894531 139.738281 C 509.320312 139.835938 511.160156 139.640625 512.488281 140.265625 C 513.003906 140.5 513.449219 139.835938 513.039062 139.445312 Z M 509.480469 143.828125 C 507.265625 143 504.492188 142.320312 502.121094 142.316406 C 501.378906 142.277344 501.433594 143.394531 502.152344 143.457031 C 504.460938 143.652344 506.886719 144.230469 509.121094 144.855469 C 509.707031 145.015625 510.070312 144.050781 509.480469 143.828125 Z M 509.480469 143.828125 " fill-opacity="1" fill-rule="nonzero"/><g clip-path="url(#15858eb2fc)"><g clip-path="url(#34db02d734)"><g clip-path="url(#a351fb036b)"><path fill="#fadf70" d="M 370.851562 -50.609375 C 387.429688 -52.675781 401.816406 -48.167969 414.175781 -37.429688 C 421.289062 -31.25 426.859375 -23.765625 430.679688 -15.109375 C 434.316406 -6.867188 434.144531 1.617188 431.675781 10.128906 C 428.847656 19.898438 422.65625 27.011719 414.03125 32.140625 C 408.308594 35.542969 402.167969 37.726562 395.570312 38.75 C 393.121094 39.128906 390.660156 39.542969 388.214844 39.996094 C 383.871094 40.8125 380.066406 42.859375 376.511719 45.402344 C 374.480469 46.855469 372.632812 48.511719 370.847656 50.261719 C 366.3125 54.703125 361.679688 59.027344 356.355469 62.554688 C 347.171875 68.644531 337.460938 68.8125 327.96875 64.050781 C 315.742188 57.914062 307.472656 48.023438 304.398438 34.523438 C 301.972656 23.863281 302.542969 13.113281 305.519531 2.542969 C 308.921875 -9.554688 315.582031 -19.632812 324.679688 -28.15625 C 334.925781 -37.753906 346.738281 -44.6875 360.222656 -48.671875 C 363.765625 -49.71875 367.421875 -50.289062 370.851562 -50.609375 Z M 370.851562 -50.609375 " fill-opacity="1" fill-rule="nonzero"/></g></g></g><g clip-path="url(#b26b87c0a5)"><g clip-path="url(#9e0bcc2906)"><g clip-path="url(#bf71b8d5ac)"><path fill="#fadf70" d="M -65.855469 184.058594 C -75.304688 166.589844 -76.535156 148.707031 -70 130.390625 C -66.238281 119.847656 -60.367188 110.453125 -52.445312 102.488281 C -44.898438 94.90625 -35.441406 91.441406 -24.960938 90.503906 C -12.929688 89.429688 -2.390625 93.21875 7.011719 100.558594 C 13.246094 105.429688 18.316406 111.292969 22.296875 118.15625 C 23.777344 120.707031 25.296875 123.253906 26.859375 125.761719 C 29.636719 130.226562 33.542969 133.558594 37.894531 136.398438 C 40.375 138.019531 43.007812 139.355469 45.714844 140.574219 C 52.589844 143.683594 59.375 146.953125 65.578125 151.324219 C 76.277344 158.871094 80.660156 169.554688 79.496094 182.125 C 77.988281 198.308594 70.628906 211.734375 57.019531 220.957031 C 46.277344 228.242188 34.140625 232.242188 21.167969 233.503906 C 6.3125 234.949219 -7.714844 231.917969 -21.070312 225.515625 C -36.117188 218.304688 -48.886719 208.214844 -59.121094 194.996094 C -61.8125 191.519531 -64.019531 187.71875 -65.855469 184.058594 Z M -65.855469 184.058594 " fill-opacity="1" fill-rule="nonzero"/></g></g></g></svg>