<svg xmlns="http://www.w3.org/2000/svg" xmlns:xlink="http://www.w3.org/1999/xlink" width="53" zoomAndPan="magnify" viewBox="0 0 39.75 39.749999" height="53" preserveAspectRatio="xMidYMid meet" version="1.0"><defs><clipPath id="2806b96f7d"><path d="M 11.085938 10.539062 L 29.085938 10.539062 L 29.085938 28.539062 L 11.085938 28.539062 Z M 11.085938 10.539062 " clip-rule="nonzero"/></clipPath><clipPath id="ad2f2c3e04"><path d="M 0.699219 0.015625 L 39.5 0.015625 L 39.5 39.015625 L 0.699219 39.015625 Z M 0.699219 0.015625 " clip-rule="nonzero"/></clipPath></defs><g clip-path="url(#2806b96f7d)"><path fill="#ffffff" d="M 29.085938 19.539062 C 29.085938 20.128906 29.027344 20.714844 28.910156 21.292969 C 28.796875 21.871094 28.625 22.4375 28.398438 22.980469 C 28.171875 23.527344 27.894531 24.046875 27.566406 24.539062 C 27.238281 25.027344 26.867188 25.484375 26.449219 25.902344 C 26.03125 26.320312 25.578125 26.691406 25.085938 27.019531 C 24.59375 27.347656 24.074219 27.625 23.527344 27.851562 C 22.984375 28.078125 22.421875 28.25 21.839844 28.363281 C 21.261719 28.480469 20.675781 28.539062 20.085938 28.539062 C 19.492188 28.539062 18.910156 28.480469 18.328125 28.363281 C 17.75 28.25 17.1875 28.078125 16.640625 27.851562 C 16.09375 27.625 15.574219 27.347656 15.085938 27.019531 C 14.59375 26.691406 14.140625 26.320312 13.722656 25.902344 C 13.304688 25.484375 12.929688 25.027344 12.601562 24.539062 C 12.273438 24.046875 11.996094 23.527344 11.769531 22.980469 C 11.542969 22.4375 11.375 21.871094 11.257812 21.292969 C 11.140625 20.714844 11.085938 20.128906 11.085938 19.539062 C 11.085938 18.945312 11.140625 18.359375 11.257812 17.78125 C 11.375 17.203125 11.542969 16.640625 11.769531 16.09375 C 11.996094 15.546875 12.273438 15.027344 12.601562 14.539062 C 12.929688 14.046875 13.304688 13.589844 13.722656 13.171875 C 14.140625 12.753906 14.59375 12.382812 15.085938 12.054688 C 15.574219 11.726562 16.09375 11.449219 16.640625 11.222656 C 17.1875 10.996094 17.75 10.824219 18.328125 10.710938 C 18.910156 10.59375 19.492188 10.539062 20.085938 10.539062 C 20.675781 10.539062 21.261719 10.59375 21.839844 10.710938 C 22.421875 10.824219 22.984375 10.996094 23.527344 11.222656 C 24.074219 11.449219 24.59375 11.726562 25.085938 12.054688 C 25.578125 12.382812 26.03125 12.753906 26.449219 13.171875 C 26.867188 13.589844 27.238281 14.046875 27.566406 14.539062 C 27.894531 15.027344 28.171875 15.546875 28.398438 16.09375 C 28.625 16.640625 28.796875 17.203125 28.910156 17.78125 C 29.027344 18.359375 29.085938 18.945312 29.085938 19.539062 Z M 29.085938 19.539062 " fill-opacity="1" fill-rule="nonzero"/></g><g clip-path="url(#ad2f2c3e04)"><path fill="#ffe812" d="M 41.660156 37.777344 C 41.664062 38.203125 41.582031 38.609375 41.421875 39.003906 C 41.257812 39.394531 41.027344 39.742188 40.726562 40.042969 C 40.425781 40.34375 40.082031 40.574219 39.6875 40.738281 C 39.296875 40.898438 38.886719 40.980469 38.460938 40.976562 L 3.898438 40.976562 C 3.472656 40.980469 3.066406 40.898438 2.671875 40.738281 C 2.28125 40.574219 1.933594 40.34375 1.632812 40.042969 C 1.332031 39.742188 1.101562 39.394531 0.9375 39.003906 C 0.777344 38.609375 0.695312 38.203125 0.699219 37.777344 L 0.699219 3.214844 C 0.695312 2.789062 0.777344 2.378906 0.9375 1.988281 C 1.101562 1.59375 1.332031 1.25 1.632812 0.949219 C 1.933594 0.648438 2.28125 0.417969 2.671875 0.253906 C 3.066406 0.09375 3.472656 0.0117188 3.898438 0.015625 L 38.460938 0.015625 C 38.886719 0.0117188 39.296875 0.09375 39.6875 0.253906 C 40.082031 0.417969 40.425781 0.648438 40.726562 0.949219 C 41.027344 1.25 41.257812 1.59375 41.421875 1.988281 C 41.582031 2.378906 41.664062 2.789062 41.660156 3.214844 Z M 41.660156 37.777344 " fill-opacity="1" fill-rule="nonzero"/></g><path fill="#000000" d="M 21.179688 5.777344 C 11.992188 5.777344 4.542969 11.652344 4.542969 18.902344 C 4.542969 23.589844 7.65625 27.695312 12.34375 30.027344 L 10.65625 36.058594 C 10.65625 36.058594 10.625 36.339844 10.804688 36.445312 C 10.984375 36.550781 11.203125 36.46875 11.203125 36.46875 C 11.730469 36.394531 17.265625 32.5 18.234375 31.828125 C 19.191406 31.964844 20.1875 32.03125 21.191406 32.03125 C 30.378906 32.03125 37.828125 26.15625 37.828125 18.90625 C 37.828125 11.65625 30.367188 5.777344 21.179688 5.777344 Z M 21.179688 5.777344 " fill-opacity="1" fill-rule="nonzero"/><path fill="#ffe812" d="M 11.980469 23.476562 C 11.449219 23.476562 11.015625 23.0625 11.015625 22.558594 L 11.015625 16.851562 L 9.515625 16.851562 C 9 16.851562 8.578125 16.433594 8.578125 15.914062 C 8.578125 15.394531 9.003906 14.976562 9.515625 14.976562 L 14.4375 14.976562 C 14.953125 14.976562 15.375 15.394531 15.375 15.914062 C 15.375 16.433594 14.949219 16.851562 14.4375 16.851562 L 12.9375 16.851562 L 12.9375 22.558594 C 12.9375 23.058594 12.5 23.476562 11.972656 23.476562 Z M 20.398438 23.464844 C 20 23.464844 19.691406 23.300781 19.597656 23.039062 L 19.125 21.789062 L 16.199219 21.789062 L 15.722656 23.039062 C 15.628906 23.300781 15.324219 23.464844 14.921875 23.464844 C 14.710938 23.464844 14.503906 23.421875 14.3125 23.339844 C 14.046875 23.214844 13.792969 22.882812 14.085938 21.976562 L 16.378906 15.933594 C 16.542969 15.46875 17.035156 14.996094 17.660156 14.984375 C 18.285156 14.96875 18.785156 15.46875 18.941406 15.933594 L 21.234375 21.976562 C 21.53125 22.882812 21.273438 23.226562 21.011719 23.339844 C 20.824219 23.425781 20.609375 23.464844 20.398438 23.464844 Z M 18.617188 20.089844 L 17.660156 17.363281 L 16.703125 20.089844 Z M 22.78125 23.339844 C 22.28125 23.339844 21.859375 22.945312 21.859375 22.464844 L 21.859375 15.933594 C 21.859375 15.402344 22.296875 14.96875 22.84375 14.96875 C 23.386719 14.96875 23.824219 15.40625 23.824219 15.933594 L 23.824219 21.570312 L 25.859375 21.570312 C 26.359375 21.570312 26.78125 21.964844 26.78125 22.445312 C 26.78125 22.925781 26.367188 23.320312 25.859375 23.320312 Z M 28.109375 23.464844 C 27.578125 23.464844 27.148438 23.027344 27.148438 22.5 L 27.148438 15.9375 C 27.148438 15.40625 27.585938 14.976562 28.109375 14.976562 C 28.636719 14.976562 29.074219 15.414062 29.074219 15.9375 L 29.074219 18 L 31.761719 15.3125 C 31.898438 15.175781 32.085938 15.101562 32.292969 15.101562 C 32.53125 15.101562 32.773438 15.203125 32.953125 15.382812 C 33.136719 15.5625 33.222656 15.757812 33.234375 15.988281 C 33.253906 16.21875 33.183594 16.414062 33.023438 16.578125 L 30.824219 18.765625 L 33.1875 21.890625 C 33.34375 22.089844 33.40625 22.34375 33.375 22.601562 C 33.34375 22.859375 33.203125 23.082031 33 23.226562 C 32.828125 23.351562 32.625 23.414062 32.421875 23.414062 C 32.125 23.414062 31.835938 23.277344 31.65625 23.039062 L 29.40625 20.058594 L 29.074219 20.390625 L 29.074219 22.484375 C 29.074219 23.015625 28.636719 23.4375 28.109375 23.445312 Z M 28.109375 23.464844 " fill-opacity="1" fill-rule="nonzero"/></svg>