<svg xmlns="http://www.w3.org/2000/svg" xmlns:xlink="http://www.w3.org/1999/xlink" width="121" zoomAndPan="magnify" viewBox="0 0 90.75 90.75" height="121" preserveAspectRatio="xMidYMid meet" version="1.0"><defs><clipPath id="ac4c235196"><path d="M 0.449219 0.449219 L 90.449219 0.449219 L 90.449219 90.449219 L 0.449219 90.449219 Z M 0.449219 0.449219 " clip-rule="nonzero"/></clipPath><clipPath id="f1864a4966"><path d="M 58 27 L 79.554688 27 L 79.554688 50 L 58 50 Z M 58 27 " clip-rule="nonzero"/></clipPath><clipPath id="bde4520d08"><path d="M 16.554688 35 L 57 35 L 57 43 L 16.554688 43 Z M 16.554688 35 " clip-rule="nonzero"/></clipPath><clipPath id="90f8e94dce"><path d="M 19 43 L 69 43 L 69 71.984375 L 19 71.984375 Z M 19 43 " clip-rule="nonzero"/></clipPath><clipPath id="b07cca0a15"><path d="M 23 18.734375 L 63 18.734375 L 63 35 L 23 35 Z M 23 18.734375 " clip-rule="nonzero"/></clipPath></defs><g clip-path="url(#ac4c235196)"><path fill="#ff914d" d="M 90.449219 45.449219 C 90.449219 46.925781 90.378906 48.394531 90.234375 49.863281 C 90.089844 51.328125 89.871094 52.785156 89.585938 54.230469 C 89.296875 55.675781 88.941406 57.101562 88.511719 58.511719 C 88.085938 59.925781 87.589844 61.308594 87.023438 62.671875 C 86.460938 64.03125 85.832031 65.363281 85.136719 66.664062 C 84.441406 67.964844 83.683594 69.226562 82.867188 70.453125 C 82.046875 71.675781 81.171875 72.859375 80.234375 74 C 79.300781 75.136719 78.3125 76.226562 77.269531 77.269531 C 76.226562 78.3125 75.136719 79.300781 73.996094 80.234375 C 72.859375 81.171875 71.675781 82.046875 70.449219 82.867188 C 69.226562 83.6875 67.960938 84.441406 66.664062 85.136719 C 65.363281 85.832031 64.03125 86.460938 62.671875 87.023438 C 61.308594 87.589844 59.921875 88.085938 58.511719 88.511719 C 57.101562 88.941406 55.675781 89.296875 54.230469 89.585938 C 52.785156 89.875 51.328125 90.089844 49.859375 90.234375 C 48.394531 90.378906 46.921875 90.449219 45.449219 90.449219 C 43.976562 90.449219 42.503906 90.378906 41.039062 90.234375 C 39.570312 90.089844 38.117188 89.875 36.671875 89.585938 C 35.226562 89.296875 33.796875 88.941406 32.386719 88.511719 C 30.976562 88.085938 29.589844 87.589844 28.230469 87.023438 C 26.867188 86.460938 25.535156 85.832031 24.238281 85.136719 C 22.9375 84.441406 21.675781 83.6875 20.449219 82.867188 C 19.222656 82.046875 18.042969 81.171875 16.902344 80.234375 C 15.761719 79.300781 14.671875 78.3125 13.628906 77.269531 C 12.585938 76.226562 11.597656 75.136719 10.664062 74 C 9.730469 72.859375 8.851562 71.675781 8.035156 70.453125 C 7.214844 69.226562 6.457031 67.964844 5.761719 66.664062 C 5.070312 65.363281 4.4375 64.03125 3.875 62.671875 C 3.3125 61.308594 2.816406 59.925781 2.386719 58.511719 C 1.960938 57.101562 1.601562 55.675781 1.3125 54.230469 C 1.027344 52.785156 0.8125 51.328125 0.667969 49.863281 C 0.523438 48.394531 0.449219 46.925781 0.449219 45.449219 C 0.449219 43.976562 0.523438 42.507812 0.667969 41.039062 C 0.8125 39.574219 1.027344 38.117188 1.3125 36.671875 C 1.601562 35.226562 1.960938 33.796875 2.386719 32.386719 C 2.816406 30.976562 3.3125 29.589844 3.875 28.230469 C 4.4375 26.867188 5.070312 25.539062 5.761719 24.238281 C 6.457031 22.9375 7.214844 21.675781 8.035156 20.449219 C 8.851562 19.226562 9.730469 18.042969 10.664062 16.902344 C 11.597656 15.765625 12.585938 14.671875 13.628906 13.632812 C 14.671875 12.589844 15.761719 11.601562 16.902344 10.664062 C 18.042969 9.730469 19.222656 8.851562 20.449219 8.035156 C 21.675781 7.214844 22.9375 6.460938 24.238281 5.765625 C 25.535156 5.070312 26.867188 4.441406 28.230469 3.875 C 29.589844 3.3125 30.976562 2.816406 32.386719 2.386719 C 33.796875 1.960938 35.226562 1.601562 36.671875 1.316406 C 38.117188 1.027344 39.570312 0.8125 41.039062 0.667969 C 42.503906 0.523438 43.976562 0.449219 45.449219 0.449219 C 46.921875 0.449219 48.394531 0.523438 49.859375 0.667969 C 51.328125 0.8125 52.785156 1.027344 54.230469 1.316406 C 55.675781 1.601562 57.101562 1.960938 58.511719 2.386719 C 59.921875 2.816406 61.308594 3.3125 62.671875 3.875 C 64.03125 4.441406 65.363281 5.070312 66.664062 5.765625 C 67.960938 6.460938 69.226562 7.214844 70.449219 8.035156 C 71.675781 8.851562 72.859375 9.730469 73.996094 10.664062 C 75.136719 11.601562 76.226562 12.589844 77.269531 13.632812 C 78.3125 14.671875 79.300781 15.765625 80.234375 16.902344 C 81.171875 18.042969 82.046875 19.226562 82.867188 20.449219 C 83.683594 21.675781 84.441406 22.9375 85.136719 24.238281 C 85.832031 25.539062 86.460938 26.867188 87.023438 28.230469 C 87.589844 29.589844 88.085938 30.976562 88.511719 32.386719 C 88.941406 33.796875 89.296875 35.226562 89.585938 36.671875 C 89.871094 38.117188 90.089844 39.574219 90.234375 41.039062 C 90.378906 42.507812 90.449219 43.976562 90.449219 45.449219 Z M 90.449219 45.449219 " fill-opacity="1" fill-rule="nonzero"/></g><g clip-path="url(#f1864a4966)"><path fill="#ffffff" d="M 68.699219 27.726562 C 62.835938 27.726562 58.074219 32.492188 58.074219 38.371094 C 58.074219 44.246094 62.835938 49.011719 68.699219 49.011719 C 74.566406 49.011719 79.324219 44.246094 79.324219 38.371094 C 79.324219 32.492188 74.566406 27.726562 68.699219 27.726562 Z M 74.867188 39.507812 L 69.839844 39.507812 L 69.839844 44.542969 L 67.566406 44.542969 L 67.566406 39.507812 L 62.535156 39.507812 L 62.535156 37.230469 L 67.566406 37.230469 L 67.566406 32.195312 L 69.835938 32.195312 L 69.835938 37.230469 L 74.863281 37.230469 L 74.863281 39.507812 Z M 74.867188 39.507812 " fill-opacity="1" fill-rule="nonzero"/></g><g clip-path="url(#bde4520d08)"><path fill="#ffffff" d="M 56 35.730469 L 18.132812 35.730469 C 17.386719 35.730469 16.785156 36.335938 16.785156 37.082031 L 16.785156 40.984375 C 16.785156 41.730469 17.386719 42.332031 18.132812 42.332031 L 56.351562 42.332031 C 55.953125 41.082031 55.730469 39.75 55.730469 38.367188 C 55.730469 37.460938 55.828125 36.582031 56 35.730469 Z M 56 35.730469 " fill-opacity="1" fill-rule="nonzero"/></g><g clip-path="url(#90f8e94dce)"><path fill="#ffffff" d="M 56.910156 43.753906 L 19.695312 43.753906 C 20.828125 47.828125 24.910156 62.464844 25.894531 65.363281 C 27.035156 68.742188 28.382812 71.886719 33.101562 71.886719 C 37.816406 71.886719 52.117188 71.886719 56.835938 71.886719 C 61.554688 71.886719 62.902344 68.742188 64.042969 65.363281 C 64.667969 63.519531 66.546875 56.933594 68.121094 51.332031 C 63.128906 51.109375 58.875 48.070312 56.910156 43.753906 Z M 33.804688 66.847656 L 33.640625 66.886719 C 32.917969 67.066406 32.191406 66.617188 32.015625 65.894531 L 28.65625 52.039062 C 28.480469 51.316406 28.921875 50.585938 29.644531 50.410156 L 29.808594 50.367188 C 30.53125 50.1875 31.261719 50.636719 31.4375 51.359375 L 34.792969 65.214844 C 34.972656 65.941406 34.53125 66.671875 33.804688 66.847656 Z M 46.398438 65.757812 C 46.398438 66.503906 45.796875 67.109375 45.050781 67.109375 L 44.882812 67.109375 C 44.136719 67.109375 43.535156 66.503906 43.535156 65.757812 L 43.535156 51.5 C 43.535156 50.753906 44.140625 50.152344 44.882812 50.152344 L 45.050781 50.152344 C 45.796875 50.152344 46.398438 50.757812 46.398438 51.5 Z M 60.292969 50.371094 L 60.460938 50.410156 C 61.179688 50.585938 61.625 51.316406 61.449219 52.039062 L 58.089844 65.894531 C 57.914062 66.621094 57.183594 67.066406 56.464844 66.890625 L 56.300781 66.847656 C 55.574219 66.675781 55.128906 65.941406 55.308594 65.21875 L 58.667969 51.363281 C 58.84375 50.640625 59.570312 50.191406 60.292969 50.371094 Z M 60.292969 50.371094 " fill-opacity="1" fill-rule="nonzero"/></g><g clip-path="url(#b07cca0a15)"><path fill="#ffffff" d="M 59.644531 23.164062 C 58.640625 21.539062 56.480469 20.308594 54.554688 20.242188 L 54.554688 20.085938 C 54.554688 19.339844 53.953125 18.734375 53.207031 18.734375 L 36.730469 18.734375 C 35.988281 18.734375 35.382812 19.339844 35.382812 20.082031 L 35.382812 20.238281 C 33.457031 20.308594 31.296875 21.535156 30.292969 23.160156 L 23.582031 34.035156 L 26.75 34.035156 L 32.582031 24.582031 C 33.089844 23.757812 34.386719 23.027344 35.382812 22.957031 L 35.382812 23.421875 C 35.382812 24.167969 35.988281 24.769531 36.730469 24.769531 L 53.207031 24.769531 C 53.953125 24.769531 54.554688 24.164062 54.554688 23.421875 L 54.554688 22.957031 C 55.554688 23.03125 56.84375 23.761719 57.351562 24.582031 L 59.953125 28.796875 C 60.621094 28.183594 61.34375 27.644531 62.125 27.183594 Z M 59.644531 23.164062 " fill-opacity="1" fill-rule="nonzero"/></g></svg>