<svg xmlns="http://www.w3.org/2000/svg" xmlns:xlink="http://www.w3.org/1999/xlink" width="53" zoomAndPan="magnify" viewBox="0 0 39.75 38.999999" height="52" preserveAspectRatio="xMidYMid meet" version="1.0"><defs><clipPath id="1784377cad"><path d="M 10.703125 11.964844 L 28.703125 11.964844 L 28.703125 29.964844 L 10.703125 29.964844 Z M 10.703125 11.964844 " clip-rule="nonzero"/></clipPath><clipPath id="8f4e97fd13"><path d="M 0.421875 0.417969 L 38.671875 0.417969 L 38.671875 38.667969 L 0.421875 38.667969 Z M 0.421875 0.417969 " clip-rule="nonzero"/></clipPath></defs><g clip-path="url(#1784377cad)"><path fill="#ffffff" d="M 28.703125 20.964844 C 28.703125 21.558594 28.644531 22.140625 28.53125 22.722656 C 28.414062 23.300781 28.246094 23.863281 28.019531 24.410156 C 27.792969 24.957031 27.515625 25.476562 27.1875 25.964844 C 26.859375 26.457031 26.484375 26.914062 26.066406 27.332031 C 25.648438 27.75 25.195312 28.121094 24.703125 28.449219 C 24.210938 28.777344 23.695312 29.054688 23.148438 29.28125 C 22.601562 29.507812 22.039062 29.679688 21.460938 29.792969 C 20.878906 29.910156 20.292969 29.964844 19.703125 29.964844 C 19.113281 29.964844 18.527344 29.910156 17.949219 29.792969 C 17.367188 29.679688 16.804688 29.507812 16.257812 29.28125 C 15.714844 29.054688 15.195312 28.777344 14.703125 28.449219 C 14.210938 28.121094 13.757812 27.75 13.339844 27.332031 C 12.921875 26.914062 12.546875 26.457031 12.21875 25.964844 C 11.890625 25.476562 11.613281 24.957031 11.390625 24.410156 C 11.164062 23.863281 10.992188 23.300781 10.875 22.722656 C 10.761719 22.140625 10.703125 21.558594 10.703125 20.964844 C 10.703125 20.375 10.761719 19.789062 10.875 19.210938 C 10.992188 18.632812 11.164062 18.066406 11.390625 17.523438 C 11.613281 16.976562 11.890625 16.457031 12.21875 15.964844 C 12.546875 15.476562 12.921875 15.019531 13.339844 14.601562 C 13.757812 14.183594 14.210938 13.8125 14.703125 13.484375 C 15.195312 13.15625 15.714844 12.878906 16.257812 12.652344 C 16.804688 12.425781 17.367188 12.253906 17.949219 12.140625 C 18.527344 12.023438 19.113281 11.964844 19.703125 11.964844 C 20.292969 11.964844 20.878906 12.023438 21.460938 12.140625 C 22.039062 12.253906 22.601562 12.425781 23.148438 12.652344 C 23.695312 12.878906 24.210938 13.15625 24.703125 13.484375 C 25.195312 13.8125 25.648438 14.183594 26.066406 14.601562 C 26.484375 15.019531 26.859375 15.476562 27.1875 15.964844 C 27.515625 16.457031 27.792969 16.976562 28.019531 17.523438 C 28.246094 18.066406 28.414062 18.632812 28.53125 19.210938 C 28.644531 19.789062 28.703125 20.375 28.703125 20.964844 Z M 28.703125 20.964844 " fill-opacity="1" fill-rule="nonzero"/></g><g clip-path="url(#8f4e97fd13)"><path fill="#1a4789" d="M 38.671875 32.851562 C 38.671875 36.0625 36.070312 38.664062 32.859375 38.664062 L 6.234375 38.664062 C 3.027344 38.664062 0.425781 36.0625 0.425781 32.851562 L 0.425781 6.230469 C 0.425781 3.019531 3.027344 0.417969 6.234375 0.417969 L 32.859375 0.417969 C 36.070312 0.417969 38.671875 3.019531 38.671875 6.230469 Z M 38.671875 32.851562 " fill-opacity="1" fill-rule="nonzero"/></g><path fill="#ffffff" d="M 25.765625 22.511719 L 26.386719 17.71875 L 21.636719 17.71875 L 21.636719 14.65625 C 21.636719 13.265625 22.023438 12.320312 24.015625 12.320312 L 26.550781 12.320312 L 26.550781 8.03125 C 26.113281 7.972656 24.609375 7.839844 22.851562 7.839844 C 19.191406 7.839844 16.683594 10.074219 16.683594 14.179688 L 16.683594 17.71875 L 12.542969 17.71875 L 12.542969 22.511719 L 16.683594 22.511719 L 16.683594 34.816406 L 21.636719 34.816406 L 21.636719 22.511719 Z M 25.765625 22.511719 " fill-opacity="1" fill-rule="nonzero"/></svg>