<svg xmlns="http://www.w3.org/2000/svg" xmlns:xlink="http://www.w3.org/1999/xlink" width="239" zoomAndPan="magnify" viewBox="0 0 179.25 89.249998" height="119" preserveAspectRatio="xMidYMid meet" version="1.0"><defs><g/><clipPath id="aa8470ba0d"><path d="M 83.816406 17.726562 L 121 17.726562 L 121 60 L 83.816406 60 Z M 83.816406 17.726562 " clip-rule="nonzero"/></clipPath><clipPath id="94e5f51e56"><path d="M 83.816406 17.726562 L 121 17.726562 L 121 60.121094 L 83.816406 60.121094 Z M 83.816406 17.726562 " clip-rule="nonzero"/></clipPath><clipPath id="1a136ba697"><path d="M 23 16 L 39 16 L 39 31 L 23 31 Z M 23 16 " clip-rule="nonzero"/></clipPath><clipPath id="a8b1dfd678"><path d="M 20.605469 16.777344 L 33.625 11.285156 L 39.699219 25.671875 L 26.679688 31.167969 Z M 20.605469 16.777344 " clip-rule="nonzero"/></clipPath><clipPath id="ca41a628f9"><path d="M 20.605469 16.777344 L 33.625 11.285156 L 39.699219 25.671875 L 26.679688 31.167969 Z M 20.605469 16.777344 " clip-rule="nonzero"/></clipPath><clipPath id="5ba1358e0d"><path d="M 21 18 L 24 18 L 24 21 L 21 21 Z M 21 18 " clip-rule="nonzero"/></clipPath><clipPath id="52dfce2349"><path d="M 20.605469 16.777344 L 33.625 11.285156 L 39.699219 25.671875 L 26.679688 31.167969 Z M 20.605469 16.777344 " clip-rule="nonzero"/></clipPath><clipPath id="44122a01d8"><path d="M 20.605469 16.777344 L 33.625 11.285156 L 39.699219 25.671875 L 26.679688 31.167969 Z M 20.605469 16.777344 " clip-rule="nonzero"/></clipPath><clipPath id="1278bf130b"><path d="M 26 13 L 30 13 L 30 17 L 26 17 Z M 26 13 " clip-rule="nonzero"/></clipPath><clipPath id="119fff95db"><path d="M 20.605469 16.777344 L 33.625 11.285156 L 39.699219 25.671875 L 26.679688 31.167969 Z M 20.605469 16.777344 " clip-rule="nonzero"/></clipPath><clipPath id="33669d2500"><path d="M 20.605469 16.777344 L 33.625 11.285156 L 39.699219 25.671875 L 26.679688 31.167969 Z M 20.605469 16.777344 " clip-rule="nonzero"/></clipPath><clipPath id="b185d3dae4"><path d="M 32 13 L 35 13 L 35 16 L 32 16 Z M 32 13 " clip-rule="nonzero"/></clipPath><clipPath id="a566b590ed"><path d="M 20.605469 16.777344 L 33.625 11.285156 L 39.699219 25.671875 L 26.679688 31.167969 Z M 20.605469 16.777344 " clip-rule="nonzero"/></clipPath><clipPath id="6729bb5145"><path d="M 20.605469 16.777344 L 33.625 11.285156 L 39.699219 25.671875 L 26.679688 31.167969 Z M 20.605469 16.777344 " clip-rule="nonzero"/></clipPath></defs><g fill="#545454" fill-opacity="0.4"><g transform="translate(31.964584, 61.383061)"><g><path d="M 11.585938 -29.792969 C 14.148438 -29.792969 16.179688 -29.207031 17.671875 -28.03125 C 18.046875 -27.710938 18.367188 -27.335938 18.632812 -26.964844 C 18.847656 -26.535156 18.847656 -26.054688 18.632812 -25.628906 C 18.207031 -24.828125 17.511719 -24.667969 16.605469 -25.09375 C 15.964844 -25.414062 15.164062 -25.734375 14.308594 -26.003906 C 13.347656 -26.214844 12.441406 -26.269531 11.53125 -26.269531 C 9.929688 -26.164062 8.703125 -25.949219 7.742188 -25.574219 C 6.726562 -25.148438 6.195312 -24.292969 6.195312 -23.011719 C 6.195312 -22.371094 6.355469 -21.785156 6.726562 -21.304688 C 7.046875 -20.769531 7.527344 -20.34375 8.117188 -20.023438 C 8.648438 -19.59375 9.289062 -19.273438 9.984375 -19.0625 C 10.625 -18.792969 11.210938 -18.582031 11.851562 -18.367188 L 15.429688 -16.980469 C 16.5 -16.5 17.351562 -15.964844 18.101562 -15.429688 C 18.742188 -14.789062 19.222656 -14.148438 19.542969 -13.453125 C 19.808594 -12.707031 19.863281 -11.800781 19.648438 -10.839844 C 19.433594 -10.039062 19.113281 -9.34375 18.632812 -8.808594 C 18.101562 -8.167969 17.40625 -7.6875 16.660156 -7.316406 C 15.859375 -6.886719 15.003906 -6.621094 14.097656 -6.460938 C 13.132812 -6.246094 12.171875 -6.140625 11.210938 -6.140625 C 9.878906 -6.140625 8.542969 -6.300781 7.261719 -6.621094 C 5.925781 -6.941406 4.753906 -7.421875 3.738281 -8.167969 C 3.203125 -8.488281 2.882812 -8.917969 2.828125 -9.34375 C 2.722656 -9.71875 2.777344 -10.039062 2.988281 -10.359375 C 3.203125 -10.625 3.523438 -10.839844 3.949219 -10.945312 C 4.324219 -11.050781 4.753906 -11 5.285156 -10.785156 C 6.140625 -10.359375 7.207031 -9.984375 8.488281 -9.664062 C 9.71875 -9.34375 10.890625 -9.183594 12.066406 -9.289062 C 12.972656 -9.34375 13.722656 -9.558594 14.363281 -9.929688 C 14.898438 -10.25 15.21875 -10.679688 15.324219 -11.210938 C 15.378906 -11.746094 15.21875 -12.28125 14.789062 -12.761719 C 14.363281 -13.1875 13.828125 -13.613281 13.1875 -13.988281 C 12.546875 -14.308594 11.851562 -14.578125 11.210938 -14.84375 C 10.464844 -15.058594 9.929688 -15.269531 9.503906 -15.429688 C 8.597656 -15.75 7.6875 -16.070312 6.78125 -16.5 C 5.820312 -16.820312 5.019531 -17.300781 4.269531 -17.886719 C 3.46875 -18.421875 2.828125 -19.113281 2.402344 -19.96875 C 1.867188 -20.714844 1.65625 -21.675781 1.65625 -22.851562 C 1.65625 -24.132812 1.921875 -25.203125 2.457031 -26.109375 C 2.988281 -26.964844 3.683594 -27.65625 4.644531 -28.246094 C 5.5 -28.777344 6.566406 -29.207031 7.796875 -29.472656 C 8.96875 -29.6875 10.199219 -29.792969 11.585938 -29.792969 Z M 11.585938 -29.792969 "/></g></g></g><g fill="#545454" fill-opacity="0.4"><g transform="translate(54.068327, 61.383061)"><g><path d="M 23.011719 -31.234375 C 23.011719 -27.390625 22.960938 -23.8125 22.90625 -20.394531 C 22.796875 -16.925781 22.691406 -13.507812 22.636719 -10.089844 C 22.636719 -9.023438 22.371094 -8.277344 21.835938 -7.742188 C 21.304688 -7.207031 20.609375 -6.941406 19.863281 -7.046875 C 19.007812 -7.101562 18.421875 -7.476562 18.101562 -8.222656 C 17.726562 -8.863281 17.621094 -9.71875 17.726562 -10.785156 L 18.046875 -13.613281 C 18.101562 -14.578125 18.152344 -15.539062 18.261719 -16.5 C 17.191406 -16.5 16.285156 -16.5 15.429688 -16.550781 C 14.578125 -16.550781 13.722656 -16.605469 12.921875 -16.660156 C 12.066406 -16.660156 11.265625 -16.710938 10.464844 -16.765625 C 9.609375 -16.765625 8.757812 -16.820312 7.796875 -16.871094 C 7.796875 -14.46875 7.847656 -12.226562 7.957031 -10.089844 C 8.007812 -7.902344 8.117188 -5.660156 8.328125 -3.308594 C 8.382812 -2.242188 8.222656 -1.601562 7.796875 -1.28125 C 7.367188 -0.90625 6.835938 -0.695312 6.300781 -0.640625 C 5.554688 -0.535156 5.019531 -0.746094 4.644531 -1.28125 C 4.21875 -1.761719 3.898438 -2.402344 3.789062 -3.148438 C 3.46875 -4.699219 3.308594 -6.675781 3.308594 -9.023438 C 3.203125 -11.371094 3.203125 -13.882812 3.308594 -16.605469 C 3.363281 -19.273438 3.523438 -21.996094 3.738281 -24.828125 C 3.898438 -27.605469 4.058594 -30.273438 4.269531 -32.835938 C 4.324219 -33.53125 4.484375 -34.171875 4.699219 -34.707031 C 4.914062 -35.238281 5.394531 -35.507812 6.140625 -35.558594 C 6.726562 -35.558594 7.207031 -35.347656 7.582031 -34.917969 C 7.902344 -34.4375 8.007812 -33.796875 8.007812 -32.945312 C 7.902344 -30.378906 7.847656 -28.085938 7.847656 -26.054688 C 7.796875 -23.972656 7.796875 -22.050781 7.796875 -20.234375 C 8.757812 -20.34375 9.71875 -20.394531 10.570312 -20.503906 C 11.371094 -20.503906 12.226562 -20.554688 13.082031 -20.554688 C 13.882812 -20.503906 14.738281 -20.449219 15.644531 -20.394531 C 16.5 -20.289062 17.460938 -20.234375 18.527344 -20.128906 C 18.632812 -21.835938 18.792969 -23.601562 18.902344 -25.414062 C 19.007812 -27.175781 19.113281 -29.046875 19.328125 -30.96875 C 19.433594 -32.570312 20.074219 -33.425781 21.25 -33.425781 C 21.785156 -33.425781 22.265625 -33.210938 22.585938 -32.835938 C 22.851562 -32.410156 23.011719 -31.875 23.011719 -31.234375 Z M 23.011719 -31.234375 "/></g></g></g><g fill="#000000" fill-opacity="1"><g transform="translate(29.604806, 59.023284)"><g><path d="M 11.585938 -29.792969 C 14.148438 -29.792969 16.179688 -29.207031 17.671875 -28.03125 C 18.046875 -27.710938 18.367188 -27.335938 18.632812 -26.964844 C 18.847656 -26.535156 18.847656 -26.054688 18.632812 -25.628906 C 18.207031 -24.828125 17.511719 -24.667969 16.605469 -25.09375 C 15.964844 -25.414062 15.164062 -25.734375 14.308594 -26.003906 C 13.347656 -26.214844 12.441406 -26.269531 11.53125 -26.269531 C 9.929688 -26.164062 8.703125 -25.949219 7.742188 -25.574219 C 6.726562 -25.148438 6.195312 -24.292969 6.195312 -23.011719 C 6.195312 -22.371094 6.355469 -21.785156 6.726562 -21.304688 C 7.046875 -20.769531 7.527344 -20.34375 8.117188 -20.023438 C 8.648438 -19.59375 9.289062 -19.273438 9.984375 -19.0625 C 10.625 -18.792969 11.210938 -18.582031 11.851562 -18.367188 L 15.429688 -16.980469 C 16.5 -16.5 17.351562 -15.964844 18.101562 -15.429688 C 18.742188 -14.789062 19.222656 -14.148438 19.542969 -13.453125 C 19.808594 -12.707031 19.863281 -11.800781 19.648438 -10.839844 C 19.433594 -10.039062 19.113281 -9.34375 18.632812 -8.808594 C 18.101562 -8.167969 17.40625 -7.6875 16.660156 -7.316406 C 15.859375 -6.886719 15.003906 -6.621094 14.097656 -6.460938 C 13.132812 -6.246094 12.171875 -6.140625 11.210938 -6.140625 C 9.878906 -6.140625 8.542969 -6.300781 7.261719 -6.621094 C 5.925781 -6.941406 4.753906 -7.421875 3.738281 -8.167969 C 3.203125 -8.488281 2.882812 -8.917969 2.828125 -9.34375 C 2.722656 -9.71875 2.777344 -10.039062 2.988281 -10.359375 C 3.203125 -10.625 3.523438 -10.839844 3.949219 -10.945312 C 4.324219 -11.050781 4.753906 -11 5.285156 -10.785156 C 6.140625 -10.359375 7.207031 -9.984375 8.488281 -9.664062 C 9.71875 -9.34375 10.890625 -9.183594 12.066406 -9.289062 C 12.972656 -9.34375 13.722656 -9.558594 14.363281 -9.929688 C 14.898438 -10.25 15.21875 -10.679688 15.324219 -11.210938 C 15.378906 -11.746094 15.21875 -12.28125 14.789062 -12.761719 C 14.363281 -13.1875 13.828125 -13.613281 13.1875 -13.988281 C 12.546875 -14.308594 11.851562 -14.578125 11.210938 -14.84375 C 10.464844 -15.058594 9.929688 -15.269531 9.503906 -15.429688 C 8.597656 -15.75 7.6875 -16.070312 6.78125 -16.5 C 5.820312 -16.820312 5.019531 -17.300781 4.269531 -17.886719 C 3.46875 -18.421875 2.828125 -19.113281 2.402344 -19.96875 C 1.867188 -20.714844 1.65625 -21.675781 1.65625 -22.851562 C 1.65625 -24.132812 1.921875 -25.203125 2.457031 -26.109375 C 2.988281 -26.964844 3.683594 -27.65625 4.644531 -28.246094 C 5.5 -28.777344 6.566406 -29.207031 7.796875 -29.472656 C 8.96875 -29.6875 10.199219 -29.792969 11.585938 -29.792969 Z M 11.585938 -29.792969 "/></g></g></g><g fill="#000000" fill-opacity="1"><g transform="translate(51.70855, 59.023284)"><g><path d="M 23.011719 -31.234375 C 23.011719 -27.390625 22.960938 -23.8125 22.90625 -20.394531 C 22.796875 -16.925781 22.691406 -13.507812 22.636719 -10.089844 C 22.636719 -9.023438 22.371094 -8.277344 21.835938 -7.742188 C 21.304688 -7.207031 20.609375 -6.941406 19.863281 -7.046875 C 19.007812 -7.101562 18.421875 -7.476562 18.101562 -8.222656 C 17.726562 -8.863281 17.621094 -9.71875 17.726562 -10.785156 L 18.046875 -13.613281 C 18.101562 -14.578125 18.152344 -15.539062 18.261719 -16.5 C 17.191406 -16.5 16.285156 -16.5 15.429688 -16.550781 C 14.578125 -16.550781 13.722656 -16.605469 12.921875 -16.660156 C 12.066406 -16.660156 11.265625 -16.710938 10.464844 -16.765625 C 9.609375 -16.765625 8.757812 -16.820312 7.796875 -16.871094 C 7.796875 -14.46875 7.847656 -12.226562 7.957031 -10.089844 C 8.007812 -7.902344 8.117188 -5.660156 8.328125 -3.308594 C 8.382812 -2.242188 8.222656 -1.601562 7.796875 -1.28125 C 7.367188 -0.90625 6.835938 -0.695312 6.300781 -0.640625 C 5.554688 -0.535156 5.019531 -0.746094 4.644531 -1.28125 C 4.21875 -1.761719 3.898438 -2.402344 3.789062 -3.148438 C 3.46875 -4.699219 3.308594 -6.675781 3.308594 -9.023438 C 3.203125 -11.371094 3.203125 -13.882812 3.308594 -16.605469 C 3.363281 -19.273438 3.523438 -21.996094 3.738281 -24.828125 C 3.898438 -27.605469 4.058594 -30.273438 4.269531 -32.835938 C 4.324219 -33.53125 4.484375 -34.171875 4.699219 -34.707031 C 4.914062 -35.238281 5.394531 -35.507812 6.140625 -35.558594 C 6.726562 -35.558594 7.207031 -35.347656 7.582031 -34.917969 C 7.902344 -34.4375 8.007812 -33.796875 8.007812 -32.945312 C 7.902344 -30.378906 7.847656 -28.085938 7.847656 -26.054688 C 7.796875 -23.972656 7.796875 -22.050781 7.796875 -20.234375 C 8.757812 -20.34375 9.71875 -20.394531 10.570312 -20.503906 C 11.371094 -20.503906 12.226562 -20.554688 13.082031 -20.554688 C 13.882812 -20.503906 14.738281 -20.449219 15.644531 -20.394531 C 16.5 -20.289062 17.460938 -20.234375 18.527344 -20.128906 C 18.632812 -21.835938 18.792969 -23.601562 18.902344 -25.414062 C 19.007812 -27.175781 19.113281 -29.046875 19.328125 -30.96875 C 19.433594 -32.570312 20.074219 -33.425781 21.25 -33.425781 C 21.785156 -33.425781 22.265625 -33.210938 22.585938 -32.835938 C 22.851562 -32.410156 23.011719 -31.875 23.011719 -31.234375 Z M 23.011719 -31.234375 "/></g></g></g><g fill="#545454" fill-opacity="0.4"><g transform="translate(80.981778, 61.383061)"><g/></g></g><g fill="#545454" fill-opacity="0.4"><g transform="translate(96.678659, 61.383061)"><g/></g></g><g fill="#545454" fill-opacity="0.4"><g transform="translate(112.375539, 61.383061)"><g/></g></g><g fill="#000000" fill-opacity="1"><g transform="translate(78.622001, 59.023284)"><g/></g></g><g fill="#000000" fill-opacity="1"><g transform="translate(94.318882, 59.023284)"><g/></g></g><g fill="#000000" fill-opacity="1"><g transform="translate(110.015762, 59.023284)"><g/></g></g><g fill="#545454" fill-opacity="0.4"><g transform="translate(128.073049, 61.383061)"><g><path d="M 10.25 -11.371094 C 8.917969 -11.265625 7.582031 -11.425781 6.300781 -11.960938 C 6.246094 -10.570312 6.195312 -9.289062 6.195312 -8.117188 C 6.085938 -6.886719 6.035156 -5.875 5.980469 -5.019531 C 5.875 -4.164062 5.714844 -3.523438 5.5 -3.203125 C 5.179688 -2.828125 4.753906 -2.667969 4.164062 -2.722656 C 2.988281 -2.777344 2.457031 -3.523438 2.5625 -5.019531 C 2.667969 -6.40625 2.777344 -8.0625 2.882812 -9.929688 C 2.9375 -11.746094 2.988281 -13.667969 3.097656 -15.699219 C 3.097656 -17.621094 3.148438 -19.542969 3.257812 -21.464844 C 3.308594 -23.332031 3.417969 -25.042969 3.523438 -26.535156 C 3.578125 -27.390625 3.789062 -28.03125 4.109375 -28.351562 C 4.378906 -28.617188 4.699219 -28.726562 5.125 -28.726562 C 5.445312 -28.617188 5.714844 -28.511719 5.925781 -28.351562 C 6.515625 -28.566406 7.207031 -28.726562 8.0625 -28.832031 C 8.808594 -28.886719 9.609375 -28.886719 10.464844 -28.832031 C 13.027344 -28.617188 15.003906 -27.871094 16.5 -26.589844 C 17.886719 -25.203125 18.6875 -23.332031 18.847656 -20.984375 C 18.953125 -19.382812 18.792969 -17.992188 18.421875 -16.820312 C 17.992188 -15.644531 17.351562 -14.628906 16.605469 -13.882812 C 15.804688 -13.082031 14.898438 -12.492188 13.828125 -12.121094 C 12.707031 -11.691406 11.53125 -11.425781 10.25 -11.371094 Z M 8.808594 -25.574219 L 7.742188 -25.574219 C 7.316406 -25.523438 6.886719 -25.46875 6.515625 -25.414062 L 6.515625 -20.609375 C 6.460938 -18.6875 6.40625 -16.765625 6.40625 -14.789062 C 7.046875 -14.578125 7.636719 -14.46875 8.277344 -14.46875 C 8.863281 -14.363281 9.449219 -14.363281 10.089844 -14.46875 C 11.691406 -14.578125 12.921875 -15.058594 13.828125 -16.019531 C 14.683594 -16.925781 15.109375 -18.367188 15.003906 -20.289062 C 14.898438 -22.210938 14.257812 -23.546875 13.132812 -24.347656 C 11.960938 -25.09375 10.519531 -25.46875 8.808594 -25.574219 Z M 8.808594 -25.574219 "/></g></g></g><g fill="#000000" fill-opacity="1"><g transform="translate(125.713272, 59.023284)"><g><path d="M 10.25 -11.371094 C 8.917969 -11.265625 7.582031 -11.425781 6.300781 -11.960938 C 6.246094 -10.570312 6.195312 -9.289062 6.195312 -8.117188 C 6.085938 -6.886719 6.035156 -5.875 5.980469 -5.019531 C 5.875 -4.164062 5.714844 -3.523438 5.5 -3.203125 C 5.179688 -2.828125 4.753906 -2.667969 4.164062 -2.722656 C 2.988281 -2.777344 2.457031 -3.523438 2.5625 -5.019531 C 2.667969 -6.40625 2.777344 -8.0625 2.882812 -9.929688 C 2.9375 -11.746094 2.988281 -13.667969 3.097656 -15.699219 C 3.097656 -17.621094 3.148438 -19.542969 3.257812 -21.464844 C 3.308594 -23.332031 3.417969 -25.042969 3.523438 -26.535156 C 3.578125 -27.390625 3.789062 -28.03125 4.109375 -28.351562 C 4.378906 -28.617188 4.699219 -28.726562 5.125 -28.726562 C 5.445312 -28.617188 5.714844 -28.511719 5.925781 -28.351562 C 6.515625 -28.566406 7.207031 -28.726562 8.0625 -28.832031 C 8.808594 -28.886719 9.609375 -28.886719 10.464844 -28.832031 C 13.027344 -28.617188 15.003906 -27.871094 16.5 -26.589844 C 17.886719 -25.203125 18.6875 -23.332031 18.847656 -20.984375 C 18.953125 -19.382812 18.792969 -17.992188 18.421875 -16.820312 C 17.992188 -15.644531 17.351562 -14.628906 16.605469 -13.882812 C 15.804688 -13.082031 14.898438 -12.492188 13.828125 -12.121094 C 12.707031 -11.691406 11.53125 -11.425781 10.25 -11.371094 Z M 8.808594 -25.574219 L 7.742188 -25.574219 C 7.316406 -25.523438 6.886719 -25.46875 6.515625 -25.414062 L 6.515625 -20.609375 C 6.460938 -18.6875 6.40625 -16.765625 6.40625 -14.789062 C 7.046875 -14.578125 7.636719 -14.46875 8.277344 -14.46875 C 8.863281 -14.363281 9.449219 -14.363281 10.089844 -14.46875 C 11.691406 -14.578125 12.921875 -15.058594 13.828125 -16.019531 C 14.683594 -16.925781 15.109375 -18.367188 15.003906 -20.289062 C 14.898438 -22.210938 14.257812 -23.546875 13.132812 -24.347656 C 11.960938 -25.09375 10.519531 -25.46875 8.808594 -25.574219 Z M 8.808594 -25.574219 "/></g></g></g><g clip-path="url(#aa8470ba0d)"><path fill="#dec2ba" d="M 120.683594 34.621094 C 120.640625 34.132812 120.601562 33.636719 120.5 33.160156 C 120.332031 32.375 120.144531 31.589844 119.90625 30.820312 C 119.355469 29.039062 118.535156 27.382812 117.476562 25.847656 C 116.894531 25.003906 116.242188 24.214844 115.523438 23.484375 C 115.085938 23.039062 114.617188 22.628906 114.140625 22.226562 C 113.398438 21.59375 112.621094 21 111.761719 20.53125 C 111.171875 20.210938 110.597656 19.863281 109.984375 19.601562 C 109.160156 19.246094 108.3125 18.929688 107.457031 18.652344 C 106.25 18.261719 105 18.042969 103.730469 17.972656 C 102.328125 17.890625 100.925781 17.917969 99.53125 18.132812 C 98.65625 18.269531 97.796875 18.472656 96.953125 18.734375 C 95.699219 19.125 94.496094 19.644531 93.355469 20.292969 C 92.796875 20.617188 92.238281 20.949219 91.714844 21.328125 C 90.699219 22.0625 89.734375 22.859375 88.898438 23.800781 C 88.484375 24.265625 88.082031 24.742188 87.695312 25.226562 C 87.140625 25.917969 86.675781 26.671875 86.25 27.453125 C 85.527344 28.769531 84.949219 30.140625 84.574219 31.589844 C 84.390625 32.308594 84.257812 33.039062 84.125 33.765625 C 84.042969 34.226562 83.972656 34.695312 83.964844 35.160156 C 83.941406 36.433594 83.957031 37.707031 83.957031 38.980469 C 83.945312 38.980469 83.933594 38.980469 83.921875 38.980469 C 83.921875 39.058594 83.921875 39.140625 83.921875 39.21875 C 83.945312 40.5 83.949219 41.785156 84 43.066406 C 84.019531 43.628906 84.097656 44.191406 84.203125 44.746094 C 84.535156 46.457031 85.046875 48.109375 85.835938 49.667969 C 86.34375 50.679688 86.882812 51.675781 87.59375 52.5625 C 88.113281 53.207031 88.636719 53.84375 89.199219 54.449219 C 89.621094 54.898438 90.097656 55.296875 90.570312 55.695312 C 91.480469 56.476562 92.460938 57.160156 93.519531 57.730469 C 95.144531 58.601562 96.847656 59.257812 98.65625 59.625 C 99.265625 59.75 99.886719 59.867188 100.507812 59.910156 C 101.359375 59.964844 102.210938 59.949219 103.0625 59.953125 C 103.808594 59.953125 104.554688 59.90625 105.292969 59.777344 C 106.386719 59.582031 107.460938 59.3125 108.507812 58.929688 C 110.246094 58.292969 111.875 57.460938 113.347656 56.332031 C 114.332031 55.574219 115.273438 54.769531 116.085938 53.824219 C 116.726562 53.082031 117.34375 52.324219 117.863281 51.492188 C 118.441406 50.566406 118.957031 49.601562 119.371094 48.585938 C 119.898438 47.296875 120.3125 45.972656 120.515625 44.589844 C 120.636719 43.757812 120.765625 42.917969 120.765625 42.082031 C 120.769531 39.59375 120.894531 37.105469 120.683594 34.621094 Z M 120.683594 34.621094 " fill-opacity="1" fill-rule="evenodd"/></g><path fill="#ffde59" d="M 92.394531 48.46875 C 93.277344 48.160156 94.167969 47.847656 95.074219 47.527344 C 95.136719 47.617188 95.203125 47.722656 95.285156 47.8125 C 95.402344 47.949219 95.546875 48.054688 95.734375 47.988281 C 95.910156 47.929688 95.960938 47.761719 95.984375 47.589844 C 95.996094 47.523438 96.019531 47.449219 96.003906 47.386719 C 95.949219 47.160156 96.089844 47.105469 96.257812 47.027344 C 96.933594 46.710938 97.601562 46.378906 98.265625 46.035156 C 98.433594 45.949219 98.582031 45.808594 98.714844 45.671875 C 98.84375 45.542969 98.828125 45.398438 98.71875 45.289062 C 98.230469 45.925781 97.492188 46.183594 96.804688 46.5 C 95.40625 47.140625 93.964844 47.691406 92.496094 48.15625 C 92.246094 48.234375 92.085938 48.210938 91.894531 48.003906 C 90.574219 46.582031 89.632812 44.953125 89.078125 43.097656 C 89.042969 42.984375 89.0625 42.910156 89.128906 42.816406 C 89.714844 42 90.296875 41.175781 90.882812 40.359375 C 90.914062 40.316406 90.988281 40.285156 91.046875 40.28125 C 91.289062 40.273438 91.535156 40.277344 91.796875 40.277344 C 91.796875 40.203125 91.796875 40.140625 91.796875 40.082031 C 91.796875 38.996094 91.796875 37.910156 91.796875 36.820312 C 91.800781 31.628906 95.546875 27.144531 100.660156 26.25 C 103.441406 25.761719 106.027344 26.300781 108.410156 27.816406 C 108.492188 27.867188 108.566406 27.921875 108.660156 27.988281 C 108.574219 28.082031 108.496094 28.164062 108.421875 28.25 C 107.96875 28.773438 107.582031 29.335938 107.414062 30.019531 C 107.363281 30.222656 107.386719 30.445312 107.390625 30.660156 C 107.390625 30.714844 107.449219 30.765625 107.503906 30.816406 C 107.472656 30.273438 107.652344 29.804688 107.917969 29.316406 C 107.992188 29.4375 108.058594 29.53125 108.113281 29.632812 C 108.503906 30.371094 108.707031 31.15625 108.800781 31.984375 C 108.898438 32.851562 109.011719 33.71875 109.273438 34.558594 C 109.507812 35.304688 109.734375 36.054688 109.992188 36.789062 C 110.183594 37.335938 110.511719 37.8125 110.929688 38.210938 C 111.425781 38.683594 112.042969 38.960938 112.695312 39.148438 C 112.84375 39.195312 113.007812 39.195312 113.160156 39.222656 C 113.253906 39.238281 113.324219 39.273438 113.324219 39.398438 C 113.332031 41.632812 112.835938 43.742188 111.710938 45.679688 C 111.410156 46.199219 111.050781 46.679688 110.710938 47.175781 C 110.660156 47.253906 110.589844 47.320312 110.546875 47.375 C 110.132812 47.105469 109.734375 46.84375 109.3125 46.566406 C 109.585938 46.355469 109.832031 46.160156 110.089844 45.972656 C 110.25 45.851562 110.417969 45.746094 110.585938 45.636719 C 110.710938 45.550781 110.710938 45.46875 110.582031 45.394531 C 110.488281 45.339844 110.390625 45.296875 110.269531 45.234375 C 110.367188 45.15625 110.449219 45.101562 110.523438 45.035156 C 110.691406 44.886719 110.675781 44.785156 110.484375 44.6875 C 110.132812 44.511719 109.78125 44.335938 109.414062 44.148438 C 109.453125 44.101562 109.472656 44.078125 109.496094 44.054688 C 109.941406 43.664062 110.390625 43.273438 110.832031 42.878906 C 110.882812 42.832031 110.898438 42.75 110.933594 42.683594 C 110.863281 42.65625 110.792969 42.617188 110.71875 42.613281 C 110.574219 42.601562 110.425781 42.609375 110.242188 42.609375 C 110.390625 42.429688 110.519531 42.269531 110.652344 42.109375 C 110.691406 42.0625 110.738281 42.015625 110.773438 41.964844 C 110.828125 41.882812 110.816406 41.820312 110.703125 41.820312 C 109.898438 41.828125 109.09375 41.839844 108.289062 41.847656 C 108.269531 41.847656 108.25 41.863281 108.230469 41.898438 C 108.617188 41.96875 109.003906 41.933594 109.390625 41.933594 C 109.773438 41.933594 110.160156 41.933594 110.542969 41.933594 C 110.550781 41.949219 110.554688 41.964844 110.5625 41.984375 C 110.390625 42.1875 110.234375 42.402344 110.046875 42.589844 C 109.660156 42.992188 109.257812 43.382812 108.859375 43.773438 C 108.726562 43.902344 108.839844 43.960938 108.917969 44.007812 C 109.253906 44.210938 109.59375 44.410156 109.9375 44.601562 C 110.089844 44.691406 110.25 44.761719 110.433594 44.851562 C 110.363281 44.902344 110.316406 44.945312 110.269531 44.976562 C 109.703125 45.355469 109.136719 45.730469 108.570312 46.109375 C 108.429688 46.203125 108.417969 46.292969 108.5625 46.402344 C 108.78125 46.566406 109.011719 46.71875 109.238281 46.871094 C 109.566406 47.089844 109.898438 47.300781 110.226562 47.515625 C 110.265625 47.539062 110.296875 47.574219 110.332031 47.601562 C 105.957031 52.871094 97.390625 53.386719 92.394531 48.46875 Z M 100.96875 41.898438 C 102.164062 41.894531 103.25 41.808594 104.328125 41.644531 C 105.25 41.503906 106.164062 41.332031 107.03125 40.96875 C 107.519531 40.765625 107.976562 40.515625 108.316406 40.089844 C 108.699219 39.613281 108.726562 39.035156 108.378906 38.535156 C 108.265625 38.375 108.125 38.222656 107.972656 38.097656 C 107.503906 37.707031 106.9375 37.503906 106.351562 37.359375 C 105.207031 37.082031 104.042969 37.015625 102.867188 37.019531 C 101.339844 37.019531 99.84375 37.25 98.382812 37.683594 C 97.78125 37.859375 97.199219 38.082031 96.6875 38.445312 C 96.425781 38.632812 96.171875 38.855469 95.984375 39.109375 C 95.515625 39.746094 95.683594 40.5 96.351562 40.953125 C 96.789062 41.25 97.273438 41.425781 97.78125 41.550781 C 98.863281 41.820312 99.964844 41.894531 100.96875 41.898438 Z M 98.535156 29.433594 C 98.511719 29.390625 98.476562 29.328125 98.445312 29.265625 C 98.410156 29.324219 98.355469 29.378906 98.339844 29.441406 C 98.292969 29.671875 98.253906 29.898438 98.222656 30.128906 C 98.21875 30.1875 98.265625 30.253906 98.289062 30.316406 C 98.332031 30.269531 98.398438 30.226562 98.410156 30.175781 C 98.457031 29.941406 98.492188 29.707031 98.535156 29.433594 Z M 99.394531 29.070312 C 99.371094 29.023438 99.339844 28.976562 99.3125 28.925781 C 99.273438 28.96875 99.214844 29.003906 99.199219 29.054688 C 99.136719 29.253906 99.078125 29.457031 99.03125 29.660156 C 99.023438 29.703125 99.074219 29.761719 99.097656 29.8125 C 99.140625 29.785156 99.214844 29.765625 99.222656 29.730469 C 99.289062 29.519531 99.335938 29.304688 99.394531 29.070312 Z M 99.394531 29.070312 " fill-opacity="1" fill-rule="evenodd"/><path fill="#ff914d" d="M 111.242188 27.203125 C 111.917969 27.195312 112.542969 27.300781 113.117188 27.613281 C 113.792969 27.980469 114.214844 28.582031 114.515625 29.269531 C 114.789062 29.890625 114.925781 30.539062 114.9375 31.214844 C 114.949219 31.726562 114.964844 32.242188 115.011719 32.753906 C 115.078125 33.421875 115.382812 33.992188 115.800781 34.507812 C 116.125 34.910156 116.445312 35.3125 116.621094 35.804688 C 116.742188 36.152344 116.824219 36.507812 116.769531 36.878906 C 116.683594 37.445312 116.292969 37.738281 115.808594 37.945312 C 115.164062 38.226562 114.492188 38.234375 113.816406 38.085938 C 112.917969 37.886719 112.054688 37.597656 111.3125 37.03125 C 110.402344 36.339844 109.757812 35.449219 109.492188 34.328125 C 109.296875 33.503906 109.183594 32.660156 109.039062 31.824219 C 108.898438 31.003906 108.773438 30.183594 108.621094 29.367188 C 108.585938 29.167969 108.484375 28.980469 108.398438 28.792969 C 108.359375 28.707031 108.363281 28.65625 108.421875 28.582031 C 109.15625 27.679688 110.078125 27.164062 111.242188 27.203125 Z M 113.65625 36.199219 C 113.664062 36.1875 113.671875 36.171875 113.679688 36.160156 C 113.894531 36.148438 114.109375 36.140625 114.328125 36.125 C 114.417969 36.117188 114.527344 36.101562 114.511719 35.972656 C 114.496094 35.855469 114.394531 35.855469 114.296875 35.859375 C 114.285156 35.863281 114.273438 35.863281 114.265625 35.863281 C 114.066406 35.882812 113.867188 35.894531 113.671875 35.929688 C 113.585938 35.945312 113.507812 36.015625 113.425781 36.058594 C 113.503906 36.105469 113.582031 36.152344 113.65625 36.199219 Z M 112.4375 35.328125 C 112.4375 35.355469 112.441406 35.382812 112.441406 35.414062 C 112.5 35.421875 112.5625 35.445312 112.621094 35.445312 C 112.933594 35.425781 113.246094 35.40625 113.558594 35.375 C 113.613281 35.367188 113.667969 35.3125 113.722656 35.277344 C 113.660156 35.242188 113.597656 35.175781 113.535156 35.175781 C 113.34375 35.171875 113.152344 35.1875 112.960938 35.214844 C 112.785156 35.238281 112.613281 35.289062 112.4375 35.328125 Z M 113.542969 30.585938 C 113.703125 30.566406 113.824219 30.5625 113.9375 30.53125 C 113.988281 30.515625 114.023438 30.449219 114.066406 30.40625 C 114.015625 30.378906 113.964844 30.332031 113.914062 30.332031 C 113.796875 30.335938 113.675781 30.347656 113.5625 30.378906 C 113.488281 30.398438 113.429688 30.460938 113.363281 30.5 C 113.433594 30.535156 113.5 30.566406 113.542969 30.585938 Z M 113.074219 30.003906 C 113.355469 30.050781 113.511719 29.910156 113.671875 29.78125 C 113.699219 29.761719 113.699219 29.695312 113.707031 29.652344 C 113.65625 29.648438 113.597656 29.621094 113.558594 29.640625 C 113.433594 29.707031 113.316406 29.789062 113.199219 29.871094 C 113.164062 29.894531 113.136719 29.9375 113.074219 30.003906 Z M 112.347656 28.820312 C 112.410156 28.785156 112.441406 28.777344 112.453125 28.757812 C 112.527344 28.621094 112.597656 28.488281 112.664062 28.347656 C 112.671875 28.324219 112.648438 28.257812 112.625 28.253906 C 112.589844 28.242188 112.523438 28.25 112.507812 28.277344 C 112.429688 28.402344 112.359375 28.53125 112.300781 28.664062 C 112.285156 28.699219 112.328125 28.757812 112.347656 28.820312 Z M 112.347656 28.820312 " fill-opacity="1" fill-rule="evenodd"/><path fill="#dec2ba" d="M 120.652344 38.960938 C 120.652344 39.734375 120.664062 40.507812 120.652344 41.277344 C 120.617188 43.097656 120.402344 44.898438 119.894531 46.652344 C 119.363281 48.476562 118.570312 50.179688 117.515625 51.761719 C 116.628906 53.089844 115.582031 54.277344 114.382812 55.328125 C 112.621094 56.863281 110.640625 58.03125 108.429688 58.808594 C 106.953125 59.328125 105.4375 59.660156 103.875 59.78125 C 101.980469 59.929688 100.105469 59.816406 98.25 59.382812 C 95.996094 58.859375 93.910156 57.945312 92.003906 56.628906 C 90.125 55.332031 88.535156 53.742188 87.253906 51.84375 C 85.816406 49.71875 84.855469 47.394531 84.402344 44.867188 C 84.277344 44.167969 84.210938 43.457031 84.148438 42.746094 C 83.953125 40.523438 84.023438 38.289062 84.078125 36.066406 C 84.140625 33.550781 84.664062 31.117188 85.722656 28.8125 C 86.53125 27.0625 87.5625 25.460938 88.867188 24.039062 C 90.871094 21.84375 93.265625 20.226562 96.054688 19.199219 C 97.480469 18.671875 98.949219 18.316406 100.460938 18.179688 C 101.226562 18.113281 102 18.039062 102.765625 18.0625 C 104.335938 18.117188 105.886719 18.339844 107.402344 18.785156 C 109.253906 19.324219 110.984375 20.121094 112.578125 21.207031 C 114.90625 22.796875 116.785156 24.804688 118.1875 27.257812 C 119.222656 29.066406 119.941406 30.988281 120.300781 33.039062 C 120.445312 33.847656 120.539062 34.667969 120.585938 35.484375 C 120.652344 36.644531 120.652344 37.804688 120.683594 38.960938 C 120.671875 38.960938 120.664062 38.960938 120.652344 38.960938 Z M 91.558594 40.035156 C 91.46875 40.035156 91.40625 40.035156 91.34375 40.035156 C 90.453125 40.035156 89.558594 40.035156 88.667969 40.039062 C 88.445312 40.039062 88.347656 40.136719 88.34375 40.359375 C 88.34375 40.433594 88.34375 40.507812 88.355469 40.582031 C 88.453125 41.253906 88.488281 41.929688 88.667969 42.597656 C 88.851562 43.277344 89.050781 43.949219 89.335938 44.59375 C 89.625 45.246094 89.9375 45.882812 90.351562 46.464844 C 90.546875 46.738281 90.714844 47.039062 90.929688 47.300781 C 91.398438 47.867188 91.875 48.429688 92.449219 48.894531 C 92.917969 49.277344 93.382812 49.671875 93.882812 50.019531 C 94.410156 50.382812 94.976562 50.683594 95.558594 50.960938 C 96.242188 51.28125 96.945312 51.535156 97.671875 51.722656 C 98.40625 51.914062 99.15625 52.0625 99.921875 52.085938 C 100.902344 52.121094 101.878906 52.144531 102.855469 51.992188 C 103.75 51.855469 104.621094 51.632812 105.472656 51.320312 C 106.324219 51.007812 107.136719 50.609375 107.886719 50.105469 C 108.492188 49.695312 109.066406 49.234375 109.617188 48.753906 C 110.171875 48.265625 110.667969 47.710938 111.101562 47.109375 C 111.300781 46.832031 111.515625 46.566406 111.695312 46.28125 C 111.890625 45.960938 112.070312 45.628906 112.226562 45.289062 C 112.488281 44.726562 112.746094 44.164062 112.960938 43.585938 C 113.128906 43.136719 113.257812 42.664062 113.339844 42.191406 C 113.445312 41.59375 113.511719 40.984375 113.546875 40.378906 C 113.582031 39.757812 113.558594 39.132812 113.558594 38.507812 C 113.558594 38.449219 113.558594 38.386719 113.558594 38.328125 C 113.601562 38.324219 113.617188 38.320312 113.636719 38.324219 C 113.675781 38.328125 113.714844 38.339844 113.753906 38.34375 C 114.429688 38.472656 115.101562 38.492188 115.761719 38.253906 C 116.851562 37.863281 117.246094 37.113281 116.957031 35.996094 C 116.816406 35.441406 116.515625 34.96875 116.160156 34.535156 C 115.742188 34.023438 115.371094 33.488281 115.292969 32.8125 C 115.242188 32.347656 115.222656 31.878906 115.210938 31.414062 C 115.191406 30.703125 115.089844 30.015625 114.824219 29.355469 C 114.53125 28.625 114.113281 27.984375 113.453125 27.535156 C 112.949219 27.191406 112.378906 27.042969 111.78125 26.988281 C 110.839844 26.898438 109.941406 27.019531 109.15625 27.597656 C 108.953125 27.746094 108.832031 27.808594 108.585938 27.617188 C 108.230469 27.335938 107.8125 27.117188 107.398438 26.925781 C 106.707031 26.609375 106 26.320312 105.253906 26.152344 C 104.773438 26.042969 104.285156 25.925781 103.796875 25.882812 C 103.1875 25.832031 102.574219 25.84375 101.964844 25.847656 C 101.648438 25.847656 101.324219 25.859375 101.011719 25.921875 C 100.429688 26.035156 99.84375 26.160156 99.273438 26.332031 C 98.742188 26.492188 98.214844 26.6875 97.71875 26.929688 C 97.21875 27.171875 96.75 27.480469 96.28125 27.78125 C 96 27.960938 95.738281 28.171875 95.484375 28.390625 C 95.210938 28.628906 94.945312 28.878906 94.691406 29.136719 C 94.402344 29.433594 94.109375 29.730469 93.859375 30.058594 C 93.570312 30.441406 93.292969 30.84375 93.0625 31.265625 C 92.761719 31.800781 92.476562 32.351562 92.257812 32.921875 C 92.050781 33.453125 91.910156 34.015625 91.789062 34.574219 C 91.632812 35.269531 91.539062 35.972656 91.554688 36.691406 C 91.570312 37.734375 91.558594 38.773438 91.558594 39.8125 C 91.558594 39.882812 91.558594 39.949219 91.558594 40.035156 Z M 114.699219 47.410156 C 114.785156 47.382812 114.820312 47.367188 114.859375 47.359375 C 115.800781 47.128906 116.738281 46.882812 117.683594 46.6875 C 118.066406 46.605469 118.25 46.386719 118.375 46.0625 C 118.488281 45.765625 118.421875 45.597656 118.128906 45.472656 C 116.988281 44.984375 115.84375 44.496094 114.699219 44.007812 C 114.292969 43.835938 114.132812 43.894531 113.925781 44.285156 C 113.691406 44.730469 113.753906 44.894531 114.210938 45.089844 C 114.855469 45.363281 115.5 45.640625 116.167969 45.929688 C 116.101562 45.949219 116.058594 45.96875 116.015625 45.976562 C 115.046875 46.207031 114.078125 46.4375 113.105469 46.660156 C 112.871094 46.710938 112.6875 46.816406 112.566406 47.035156 C 112.289062 47.53125 112.34375 47.703125 112.867188 47.921875 C 113.933594 48.375 114.996094 48.832031 116.0625 49.285156 C 116.566406 49.503906 116.75 49.433594 116.964844 48.929688 C 116.972656 48.902344 116.984375 48.875 116.992188 48.847656 C 117.089844 48.5625 117.039062 48.421875 116.761719 48.296875 C 116.457031 48.15625 116.144531 48.027344 115.835938 47.894531 C 115.472656 47.738281 115.105469 47.582031 114.699219 47.410156 Z M 119.289062 41.601562 C 119.296875 41.601562 119.308594 41.601562 119.320312 41.601562 C 119.320312 41.417969 119.324219 41.234375 119.316406 41.054688 C 119.308594 40.710938 119.222656 40.382812 119.042969 40.09375 C 118.53125 39.265625 117.789062 38.894531 116.816406 38.933594 C 115.59375 38.980469 114.574219 40.054688 114.453125 41.054688 C 114.386719 41.605469 114.390625 42.167969 114.378906 42.726562 C 114.371094 43.097656 114.492188 43.210938 114.863281 43.199219 C 115.675781 43.175781 116.484375 43.148438 117.292969 43.121094 C 117.765625 43.101562 118.238281 43.078125 118.710938 43.058594 C 119.144531 43.042969 119.277344 42.917969 119.289062 42.492188 C 119.292969 42.195312 119.289062 41.898438 119.289062 41.601562 Z M 112.3125 51.820312 C 112.59375 51.546875 112.914062 51.238281 113.230469 50.925781 C 113.570312 50.582031 113.558594 50.355469 113.183594 50.046875 C 113.152344 50.023438 113.121094 50 113.085938 49.976562 C 112.898438 49.84375 112.730469 49.847656 112.554688 49.992188 C 112.460938 50.074219 112.375 50.167969 112.285156 50.253906 C 112.003906 50.53125 111.726562 50.808594 111.429688 51.101562 C 111.292969 50.941406 111.15625 50.785156 111.015625 50.625 C 111.019531 50.621094 111.046875 50.59375 111.074219 50.5625 C 111.558594 50.070312 112.046875 49.582031 112.527344 49.085938 C 112.773438 48.832031 112.769531 48.644531 112.527344 48.390625 C 112.472656 48.332031 112.410156 48.277344 112.347656 48.230469 C 112.109375 48.054688 111.953125 48.058594 111.742188 48.265625 C 111.066406 48.933594 110.394531 49.601562 109.738281 50.285156 C 109.367188 50.667969 109.386719 50.816406 109.769531 51.179688 C 110.472656 51.851562 111.175781 52.519531 111.878906 53.183594 C 112.066406 53.363281 112.253906 53.539062 112.449219 53.703125 C 112.617188 53.84375 112.773438 53.839844 112.953125 53.71875 C 113.023438 53.671875 113.085938 53.609375 113.144531 53.550781 C 113.789062 52.90625 114.429688 52.261719 115.066406 51.617188 C 115.136719 51.542969 115.21875 51.46875 115.257812 51.378906 C 115.292969 51.289062 115.3125 51.171875 115.28125 51.085938 C 115.085938 50.5625 114.609375 50.460938 114.222656 50.847656 C 114.183594 50.886719 114.148438 50.921875 114.113281 50.957031 C 113.65625 51.40625 113.203125 51.859375 112.734375 52.320312 C 112.605469 52.167969 112.46875 52.007812 112.3125 51.820312 Z M 106.851562 55.722656 C 107.074219 55.976562 107.304688 56.222656 107.519531 56.480469 C 107.839844 56.867188 108.058594 56.796875 108.382812 56.519531 C 108.414062 56.492188 108.441406 56.464844 108.472656 56.4375 C 108.71875 56.179688 108.726562 56.007812 108.492188 55.738281 C 108.273438 55.492188 108.054688 55.246094 107.828125 55 C 107.753906 54.921875 107.738281 54.859375 107.789062 54.75 C 108.03125 54.222656 107.976562 53.703125 107.703125 53.203125 C 107.3125 52.492188 106.46875 52.273438 105.773438 52.472656 C 105.238281 52.621094 104.714844 52.824219 104.1875 53.015625 C 103.804688 53.15625 103.734375 53.316406 103.855469 53.71875 C 104.109375 54.546875 104.363281 55.378906 104.617188 56.207031 C 104.726562 56.570312 104.835938 56.9375 104.957031 57.300781 C 105.039062 57.539062 105.132812 57.601562 105.382812 57.574219 C 105.515625 57.558594 105.652344 57.519531 105.773438 57.464844 C 106.097656 57.332031 106.164062 57.179688 106.070312 56.84375 C 106 56.59375 105.921875 56.34375 105.84375 56.078125 C 106.183594 55.957031 106.515625 55.839844 106.851562 55.722656 Z M 96.054688 22.382812 C 96.117188 22.351562 96.164062 22.328125 96.207031 22.308594 C 96.757812 22.070312 97.308594 21.832031 97.859375 21.59375 C 98.277344 21.414062 98.34375 21.246094 98.15625 20.832031 C 98.144531 20.800781 98.128906 20.769531 98.113281 20.742188 C 97.960938 20.449219 97.8125 20.382812 97.515625 20.511719 C 96.683594 20.859375 95.851562 21.210938 95.027344 21.570312 C 94.683594 21.722656 94.613281 21.898438 94.753906 22.242188 C 95.230469 23.367188 95.707031 24.492188 96.191406 25.613281 C 96.359375 26 96.519531 26.054688 96.910156 25.886719 C 97.339844 25.707031 97.769531 25.523438 98.199219 25.339844 C 98.589844 25.171875 98.976562 25.007812 99.363281 24.835938 C 99.597656 24.734375 99.683594 24.613281 99.640625 24.402344 C 99.589844 24.140625 99.519531 23.871094 99.234375 23.753906 C 99.171875 23.726562 99.085938 23.746094 99.015625 23.761719 C 98.949219 23.773438 98.886719 23.804688 98.824219 23.832031 C 98.265625 24.070312 97.710938 24.304688 97.152344 24.542969 C 97.082031 24.570312 97.003906 24.625 96.957031 24.503906 C 96.894531 24.347656 96.824219 24.191406 96.753906 24.023438 C 96.863281 23.972656 96.953125 23.929688 97.046875 23.890625 C 97.386719 23.738281 97.730469 23.601562 98.0625 23.4375 C 98.152344 23.390625 98.257812 23.289062 98.277344 23.195312 C 98.332031 22.90625 98.207031 22.652344 98.007812 22.453125 C 97.847656 22.292969 97.65625 22.386719 97.480469 22.460938 C 97.09375 22.625 96.707031 22.792969 96.304688 22.964844 C 96.21875 22.765625 96.140625 22.578125 96.054688 22.382812 Z M 90.527344 30.691406 C 90.65625 30.417969 90.78125 30.164062 90.898438 29.902344 C 90.9375 29.8125 90.988281 29.777344 91.089844 29.785156 C 91.4375 29.8125 91.785156 29.832031 92.132812 29.847656 C 92.375 29.855469 92.53125 29.734375 92.566406 29.5 C 92.59375 29.347656 92.59375 29.191406 92.578125 29.039062 C 92.554688 28.84375 92.453125 28.738281 92.253906 28.722656 C 91.875 28.6875 91.492188 28.667969 91.109375 28.652344 C 91.003906 28.648438 90.953125 28.613281 90.910156 28.515625 C 90.613281 27.859375 90.078125 27.527344 89.386719 27.5 C 88.695312 27.472656 88.171875 27.816406 87.839844 28.421875 C 87.605469 28.839844 87.40625 29.277344 87.195312 29.710938 C 87.011719 30.089844 87.070312 30.261719 87.453125 30.449219 C 88.128906 30.785156 88.804688 31.117188 89.480469 31.449219 C 89.890625 31.652344 90.296875 31.859375 90.710938 32.050781 C 91.074219 32.222656 91.222656 32.160156 91.40625 31.796875 C 91.421875 31.769531 91.4375 31.738281 91.453125 31.707031 C 91.597656 31.347656 91.546875 31.203125 91.203125 31.03125 C 90.980469 30.917969 90.757812 30.804688 90.527344 30.691406 Z M 93.0625 28.105469 C 94.085938 28.101562 94.902344 27.476562 95.121094 26.628906 C 95.3125 25.875 95.109375 25.207031 94.652344 24.601562 C 94.472656 24.359375 94.273438 24.128906 94.082031 23.894531 C 93.828125 23.585938 93.582031 23.273438 93.324219 22.96875 C 93.132812 22.746094 92.964844 22.722656 92.722656 22.875 C 92.660156 22.917969 92.601562 22.960938 92.546875 23.011719 C 92.25 23.277344 92.234375 23.445312 92.488281 23.753906 C 92.824219 24.164062 93.164062 24.574219 93.496094 24.988281 C 93.695312 25.234375 93.914062 25.472656 94.007812 25.789062 C 94.125 26.195312 94.035156 26.519531 93.730469 26.757812 C 93.394531 27.019531 93.070312 27.046875 92.703125 26.8125 C 92.542969 26.707031 92.394531 26.578125 92.269531 26.433594 C 91.851562 25.941406 91.453125 25.433594 91.042969 24.9375 C 90.78125 24.621094 90.609375 24.605469 90.289062 24.855469 C 90.246094 24.890625 90.199219 24.925781 90.15625 24.964844 C 89.925781 25.183594 89.910156 25.355469 90.113281 25.605469 C 90.539062 26.140625 90.96875 26.675781 91.40625 27.203125 C 91.878906 27.761719 92.476562 28.078125 93.0625 28.105469 Z M 100.507812 54.453125 C 100.554688 54.449219 100.589844 54.441406 100.621094 54.441406 C 101.230469 54.421875 101.839844 54.386719 102.453125 54.386719 C 103.078125 54.390625 103.160156 54.191406 103.148438 53.664062 C 103.140625 53.316406 103.03125 53.207031 102.679688 53.210938 C 101.9375 53.226562 101.195312 53.238281 100.453125 53.257812 C 100.261719 53.261719 100.066406 53.269531 99.875 53.28125 C 99.515625 53.304688 99.371094 53.449219 99.34375 53.804688 C 99.328125 54.011719 99.320312 54.222656 99.3125 54.433594 C 99.289062 55.015625 99.265625 55.597656 99.246094 56.179688 C 99.226562 56.699219 99.210938 57.21875 99.203125 57.738281 C 99.199219 57.972656 99.304688 58.089844 99.535156 58.113281 C 99.683594 58.128906 99.835938 58.128906 99.980469 58.109375 C 100.234375 58.074219 100.355469 57.925781 100.367188 57.667969 C 100.382812 57.308594 100.394531 56.949219 100.410156 56.589844 C 100.414062 56.492188 100.429688 56.398438 100.4375 56.292969 C 100.542969 56.285156 100.632812 56.273438 100.722656 56.273438 C 101.121094 56.257812 101.519531 56.25 101.917969 56.234375 C 102.128906 56.226562 102.265625 56.128906 102.300781 55.929688 C 102.335938 55.753906 102.34375 55.566406 102.328125 55.390625 C 102.300781 55.160156 102.191406 55.074219 101.957031 55.070312 C 101.789062 55.066406 101.617188 55.074219 101.445312 55.074219 C 101.128906 55.074219 100.8125 55.074219 100.472656 55.074219 C 100.484375 54.871094 100.496094 54.664062 100.507812 54.453125 Z M 87.167969 33.453125 C 87.171875 33.371094 87.171875 33.320312 87.179688 33.269531 C 87.226562 32.902344 87.28125 32.535156 87.328125 32.167969 C 87.34375 32.015625 87.34375 31.859375 87.171875 31.769531 C 86.738281 31.554688 86.449219 31.707031 86.386719 32.175781 C 86.277344 32.984375 86.160156 33.789062 86.050781 34.597656 C 86 34.988281 85.945312 35.378906 85.910156 35.769531 C 85.898438 35.863281 85.921875 35.996094 85.984375 36.050781 C 86.15625 36.203125 86.378906 36.21875 86.597656 36.171875 C 86.78125 36.132812 86.804688 35.96875 86.832031 35.8125 C 86.84375 35.742188 86.855469 35.667969 86.863281 35.59375 C 86.910156 35.25 86.957031 34.910156 87.003906 34.558594 C 88.058594 34.703125 89.09375 34.839844 90.121094 34.988281 C 90.640625 35.0625 90.828125 34.917969 90.839844 34.390625 C 90.84375 34.371094 90.839844 34.355469 90.839844 34.335938 C 90.84375 34.074219 90.742188 33.945312 90.480469 33.90625 C 89.78125 33.808594 89.082031 33.71875 88.382812 33.621094 C 87.980469 33.566406 87.582031 33.507812 87.167969 33.453125 Z M 108.523438 51.183594 C 108.234375 51.242188 107.988281 51.371094 107.808594 51.609375 C 107.765625 51.664062 107.75 51.761719 107.765625 51.832031 C 107.785156 51.941406 107.832031 52.050781 107.890625 52.144531 C 108.492188 53.175781 109.097656 54.203125 109.707031 55.230469 C 109.921875 55.59375 110.105469 55.636719 110.46875 55.425781 C 110.507812 55.402344 110.546875 55.378906 110.582031 55.351562 C 110.921875 55.125 110.960938 54.960938 110.753906 54.609375 C 110.382812 53.984375 110.019531 53.359375 109.648438 52.734375 C 109.386719 52.289062 109.121094 51.84375 108.851562 51.394531 C 108.777344 51.273438 108.6875 51.171875 108.523438 51.183594 Z M 108.523438 51.183594 " fill-opacity="1" fill-rule="evenodd"/><path fill="#dec2ba" d="M 118.125 41.917969 C 117.261719 41.949219 116.4375 41.980469 115.613281 42.007812 C 115.484375 41.136719 115.738281 40.359375 116.644531 40.128906 C 117.441406 39.925781 118.128906 40.484375 118.125 41.308594 C 118.125 41.507812 118.125 41.703125 118.125 41.917969 Z M 118.125 41.917969 " fill-opacity="1" fill-rule="evenodd"/><path fill="#dec2ba" d="M 105.503906 54.980469 C 105.390625 54.601562 105.28125 54.25 105.171875 53.886719 C 105.449219 53.789062 105.714844 53.6875 105.984375 53.601562 C 106.300781 53.5 106.59375 53.628906 106.699219 53.894531 C 106.820312 54.199219 106.707031 54.515625 106.394531 54.652344 C 106.117188 54.777344 105.820312 54.867188 105.503906 54.980469 Z M 105.503906 54.980469 " fill-opacity="1" fill-rule="evenodd"/><path fill="#dec2ba" d="M 89.492188 30.183594 C 89.171875 30.023438 88.867188 29.878906 88.570312 29.722656 C 88.539062 29.707031 88.515625 29.625 88.527344 29.589844 C 88.636719 29.359375 88.742188 29.121094 88.875 28.902344 C 89.035156 28.632812 89.347656 28.5625 89.617188 28.707031 C 89.890625 28.855469 89.992188 29.148438 89.859375 29.441406 C 89.75 29.683594 89.625 29.921875 89.492188 30.183594 Z M 89.492188 30.183594 " fill-opacity="1" fill-rule="evenodd"/><g clip-path="url(#94e5f51e56)"><path fill="#000000" d="M 83.847656 38.980469 C 83.847656 37.699219 83.835938 36.417969 83.855469 35.136719 C 83.863281 34.671875 83.9375 34.199219 84.019531 33.738281 C 84.152344 33.003906 84.289062 32.269531 84.472656 31.546875 C 84.847656 30.089844 85.433594 28.707031 86.15625 27.386719 C 86.585938 26.601562 87.050781 25.84375 87.609375 25.148438 C 88 24.660156 88.40625 24.179688 88.820312 23.710938 C 89.660156 22.765625 90.632812 21.96875 91.652344 21.226562 C 92.179688 20.847656 92.738281 20.507812 93.304688 20.1875 C 94.453125 19.53125 95.660156 19.007812 96.921875 18.617188 C 97.769531 18.355469 98.632812 18.148438 99.511719 18.011719 C 100.917969 17.796875 102.328125 17.769531 103.738281 17.851562 C 105.015625 17.921875 106.269531 18.140625 107.488281 18.535156 C 108.347656 18.8125 109.199219 19.132812 110.03125 19.492188 C 110.644531 19.753906 111.222656 20.101562 111.8125 20.421875 C 112.679688 20.894531 113.460938 21.492188 114.210938 22.128906 C 114.6875 22.535156 115.160156 22.949219 115.601562 23.394531 C 116.324219 24.128906 116.980469 24.925781 117.566406 25.773438 C 118.628906 27.316406 119.453125 28.984375 120.007812 30.773438 C 120.246094 31.546875 120.433594 32.335938 120.605469 33.125 C 120.707031 33.605469 120.746094 34.105469 120.789062 34.59375 C 121.003906 37.09375 120.878906 39.597656 120.871094 42.097656 C 120.871094 42.941406 120.742188 43.789062 120.621094 44.625 C 120.414062 46.011719 120 47.347656 119.46875 48.644531 C 119.050781 49.664062 118.535156 50.632812 117.953125 51.566406 C 117.429688 52.402344 116.808594 53.164062 116.167969 53.910156 C 115.347656 54.859375 114.402344 55.671875 113.410156 56.429688 C 111.929688 57.566406 110.289062 58.402344 108.542969 59.042969 C 107.492188 59.429688 106.410156 59.699219 105.308594 59.898438 C 104.570312 60.027344 103.820312 60.074219 103.066406 60.074219 C 102.210938 60.070312 101.351562 60.085938 100.5 60.03125 C 99.871094 59.988281 99.25 59.871094 98.632812 59.746094 C 96.816406 59.375 95.101562 58.714844 93.46875 57.835938 C 92.402344 57.265625 91.417969 56.578125 90.5 55.792969 C 90.027344 55.390625 89.546875 54.988281 89.125 54.539062 C 88.558594 53.929688 88.03125 53.289062 87.507812 52.640625 C 86.792969 51.75 86.253906 50.75 85.738281 49.730469 C 84.949219 48.160156 84.429688 46.5 84.097656 44.78125 C 83.992188 44.222656 83.914062 43.65625 83.890625 43.089844 C 83.84375 41.800781 83.839844 40.511719 83.816406 39.21875 C 83.8125 39.140625 83.816406 39.058594 83.816406 38.980469 C 83.828125 38.980469 83.839844 38.980469 83.847656 38.980469 Z M 120.652344 38.960938 C 120.664062 38.960938 120.671875 38.960938 120.683594 38.960938 C 120.652344 37.804688 120.652344 36.640625 120.585938 35.484375 C 120.539062 34.667969 120.445312 33.847656 120.300781 33.039062 C 119.941406 30.988281 119.222656 29.066406 118.1875 27.257812 C 116.785156 24.804688 114.90625 22.796875 112.578125 21.207031 C 110.984375 20.121094 109.253906 19.324219 107.402344 18.785156 C 105.886719 18.339844 104.335938 18.117188 102.765625 18.0625 C 102 18.039062 101.226562 18.113281 100.460938 18.179688 C 98.949219 18.316406 97.480469 18.671875 96.054688 19.199219 C 93.265625 20.226562 90.871094 21.84375 88.867188 24.039062 C 87.5625 25.460938 86.53125 27.0625 85.722656 28.8125 C 84.664062 31.117188 84.140625 33.550781 84.078125 36.066406 C 84.023438 38.289062 83.953125 40.519531 84.148438 42.746094 C 84.210938 43.457031 84.277344 44.167969 84.402344 44.867188 C 84.855469 47.394531 85.816406 49.71875 87.253906 51.84375 C 88.535156 53.738281 90.125 55.332031 92.003906 56.628906 C 93.910156 57.945312 95.996094 58.859375 98.25 59.382812 C 100.105469 59.816406 101.980469 59.929688 103.875 59.78125 C 105.4375 59.660156 106.953125 59.328125 108.429688 58.808594 C 110.640625 58.03125 112.621094 56.863281 114.382812 55.328125 C 115.582031 54.277344 116.628906 53.089844 117.515625 51.761719 C 118.570312 50.179688 119.363281 48.476562 119.894531 46.652344 C 120.402344 44.898438 120.617188 43.097656 120.652344 41.277344 C 120.664062 40.507812 120.652344 39.734375 120.652344 38.960938 Z M 120.652344 38.960938 " fill-opacity="1" fill-rule="evenodd"/></g><path fill="#000000" d="M 91.558594 40.035156 C 91.558594 39.949219 91.558594 39.882812 91.558594 39.8125 C 91.558594 38.773438 91.570312 37.734375 91.554688 36.691406 C 91.539062 35.972656 91.632812 35.269531 91.785156 34.574219 C 91.910156 34.015625 92.050781 33.453125 92.257812 32.921875 C 92.476562 32.351562 92.761719 31.800781 93.058594 31.265625 C 93.292969 30.84375 93.566406 30.441406 93.859375 30.058594 C 94.109375 29.730469 94.402344 29.433594 94.691406 29.136719 C 94.945312 28.878906 95.207031 28.628906 95.484375 28.390625 C 95.738281 28.171875 96 27.960938 96.28125 27.78125 C 96.75 27.480469 97.21875 27.171875 97.71875 26.929688 C 98.214844 26.6875 98.742188 26.492188 99.273438 26.332031 C 99.84375 26.160156 100.429688 26.035156 101.011719 25.921875 C 101.324219 25.859375 101.648438 25.847656 101.964844 25.847656 C 102.574219 25.84375 103.1875 25.832031 103.796875 25.882812 C 104.285156 25.925781 104.773438 26.042969 105.253906 26.152344 C 106 26.320312 106.707031 26.609375 107.398438 26.925781 C 107.8125 27.117188 108.230469 27.335938 108.585938 27.617188 C 108.832031 27.804688 108.953125 27.746094 109.15625 27.597656 C 109.941406 27.019531 110.839844 26.898438 111.78125 26.988281 C 112.375 27.042969 112.949219 27.191406 113.453125 27.535156 C 114.113281 27.984375 114.53125 28.621094 114.824219 29.355469 C 115.089844 30.015625 115.191406 30.703125 115.210938 31.414062 C 115.222656 31.878906 115.242188 32.347656 115.292969 32.8125 C 115.371094 33.488281 115.742188 34.023438 116.160156 34.535156 C 116.515625 34.96875 116.8125 35.4375 116.957031 35.996094 C 117.246094 37.113281 116.851562 37.863281 115.761719 38.253906 C 115.101562 38.492188 114.429688 38.472656 113.753906 38.34375 C 113.714844 38.335938 113.675781 38.328125 113.636719 38.324219 C 113.617188 38.320312 113.601562 38.324219 113.558594 38.328125 C 113.558594 38.386719 113.558594 38.449219 113.558594 38.507812 C 113.558594 39.132812 113.582031 39.757812 113.546875 40.378906 C 113.511719 40.984375 113.445312 41.59375 113.339844 42.191406 C 113.257812 42.664062 113.128906 43.136719 112.960938 43.585938 C 112.746094 44.164062 112.488281 44.726562 112.226562 45.289062 C 112.070312 45.628906 111.890625 45.960938 111.695312 46.28125 C 111.515625 46.566406 111.300781 46.832031 111.101562 47.109375 C 110.667969 47.710938 110.171875 48.265625 109.617188 48.753906 C 109.066406 49.234375 108.492188 49.695312 107.886719 50.105469 C 107.136719 50.609375 106.324219 51.007812 105.472656 51.320312 C 104.621094 51.632812 103.75 51.855469 102.855469 51.992188 C 101.878906 52.144531 100.902344 52.121094 99.921875 52.085938 C 99.15625 52.0625 98.40625 51.914062 97.667969 51.722656 C 96.945312 51.535156 96.242188 51.28125 95.558594 50.960938 C 94.976562 50.683594 94.40625 50.382812 93.882812 50.019531 C 93.382812 49.671875 92.917969 49.277344 92.449219 48.894531 C 91.875 48.425781 91.398438 47.867188 90.929688 47.300781 C 90.714844 47.039062 90.546875 46.738281 90.351562 46.460938 C 89.9375 45.882812 89.625 45.246094 89.335938 44.59375 C 89.050781 43.949219 88.851562 43.277344 88.667969 42.597656 C 88.488281 41.929688 88.449219 41.253906 88.355469 40.582031 C 88.34375 40.507812 88.34375 40.433594 88.34375 40.359375 C 88.347656 40.136719 88.445312 40.039062 88.667969 40.039062 C 89.558594 40.035156 90.453125 40.035156 91.34375 40.035156 C 91.40625 40.035156 91.46875 40.035156 91.558594 40.035156 Z M 92.394531 48.46875 C 97.390625 53.386719 105.957031 52.871094 110.332031 47.601562 C 110.296875 47.574219 110.265625 47.542969 110.226562 47.515625 C 109.898438 47.300781 109.566406 47.089844 109.238281 46.871094 C 109.011719 46.71875 108.78125 46.566406 108.5625 46.402344 C 108.417969 46.292969 108.429688 46.203125 108.570312 46.109375 C 109.136719 45.730469 109.703125 45.355469 110.269531 44.976562 C 110.316406 44.945312 110.363281 44.902344 110.433594 44.851562 C 110.25 44.761719 110.089844 44.691406 109.9375 44.601562 C 109.59375 44.410156 109.253906 44.210938 108.917969 44.007812 C 108.839844 43.960938 108.726562 43.902344 108.859375 43.773438 C 109.261719 43.382812 109.660156 42.992188 110.046875 42.589844 C 110.234375 42.402344 110.390625 42.1875 110.5625 41.984375 C 110.554688 41.964844 110.550781 41.949219 110.542969 41.933594 C 110.160156 41.933594 109.773438 41.933594 109.390625 41.933594 C 109.003906 41.933594 108.617188 41.96875 108.230469 41.898438 C 108.25 41.863281 108.269531 41.851562 108.289062 41.847656 C 109.09375 41.839844 109.898438 41.828125 110.703125 41.820312 C 110.816406 41.820312 110.828125 41.882812 110.773438 41.964844 C 110.738281 42.015625 110.691406 42.0625 110.652344 42.109375 C 110.519531 42.269531 110.390625 42.429688 110.242188 42.609375 C 110.425781 42.609375 110.574219 42.601562 110.71875 42.613281 C 110.792969 42.617188 110.863281 42.660156 110.933594 42.683594 C 110.898438 42.75 110.882812 42.832031 110.832031 42.878906 C 110.390625 43.273438 109.941406 43.664062 109.496094 44.054688 C 109.472656 44.078125 109.453125 44.105469 109.414062 44.148438 C 109.78125 44.335938 110.132812 44.511719 110.484375 44.6875 C 110.675781 44.785156 110.691406 44.886719 110.523438 45.035156 C 110.449219 45.101562 110.367188 45.15625 110.269531 45.234375 C 110.390625 45.296875 110.488281 45.339844 110.582031 45.394531 C 110.710938 45.472656 110.710938 45.550781 110.585938 45.636719 C 110.417969 45.746094 110.25 45.855469 110.089844 45.972656 C 109.832031 46.160156 109.585938 46.359375 109.3125 46.566406 C 109.734375 46.84375 110.132812 47.105469 110.546875 47.375 C 110.589844 47.320312 110.660156 47.253906 110.710938 47.175781 C 111.050781 46.679688 111.410156 46.199219 111.710938 45.679688 C 112.835938 43.742188 113.335938 41.632812 113.324219 39.398438 C 113.324219 39.273438 113.253906 39.238281 113.164062 39.222656 C 113.007812 39.195312 112.84375 39.195312 112.695312 39.148438 C 112.042969 38.960938 111.425781 38.683594 110.929688 38.210938 C 110.511719 37.8125 110.183594 37.335938 109.992188 36.789062 C 109.734375 36.054688 109.507812 35.304688 109.273438 34.558594 C 109.011719 33.71875 108.898438 32.851562 108.800781 31.984375 C 108.707031 31.15625 108.503906 30.371094 108.113281 29.632812 C 108.058594 29.53125 107.992188 29.4375 107.917969 29.316406 C 107.652344 29.804688 107.472656 30.273438 107.503906 30.816406 C 107.449219 30.765625 107.390625 30.714844 107.390625 30.660156 C 107.386719 30.445312 107.363281 30.222656 107.414062 30.019531 C 107.582031 29.335938 107.96875 28.773438 108.421875 28.25 C 108.496094 28.164062 108.574219 28.082031 108.660156 27.988281 C 108.566406 27.921875 108.492188 27.867188 108.410156 27.816406 C 106.027344 26.304688 103.441406 25.761719 100.660156 26.25 C 95.546875 27.148438 91.800781 31.628906 91.796875 36.824219 C 91.796875 37.910156 91.796875 38.996094 91.796875 40.082031 C 91.796875 40.140625 91.796875 40.203125 91.796875 40.277344 C 91.535156 40.277344 91.292969 40.273438 91.046875 40.28125 C 90.988281 40.285156 90.914062 40.316406 90.882812 40.359375 C 90.296875 41.175781 89.714844 42 89.128906 42.816406 C 89.0625 42.910156 89.042969 42.984375 89.078125 43.097656 C 89.632812 44.953125 90.574219 46.582031 91.894531 48.003906 C 92.089844 48.210938 92.246094 48.234375 92.496094 48.15625 C 93.964844 47.691406 95.40625 47.140625 96.804688 46.5 C 97.492188 46.183594 98.230469 45.925781 98.71875 45.289062 C 98.828125 45.398438 98.84375 45.542969 98.714844 45.671875 C 98.582031 45.808594 98.433594 45.949219 98.265625 46.035156 C 97.601562 46.378906 96.933594 46.710938 96.257812 47.027344 C 96.089844 47.109375 95.949219 47.160156 96.003906 47.386719 C 96.023438 47.449219 95.996094 47.523438 95.988281 47.589844 C 95.960938 47.761719 95.910156 47.929688 95.734375 47.992188 C 95.546875 48.054688 95.402344 47.949219 95.285156 47.816406 C 95.203125 47.722656 95.140625 47.617188 95.074219 47.527344 C 94.167969 47.847656 93.277344 48.160156 92.394531 48.46875 Z M 111.242188 27.203125 C 110.078125 27.164062 109.15625 27.679688 108.421875 28.582031 C 108.363281 28.65625 108.359375 28.707031 108.398438 28.792969 C 108.484375 28.980469 108.585938 29.167969 108.621094 29.367188 C 108.773438 30.183594 108.898438 31.003906 109.039062 31.824219 C 109.183594 32.660156 109.296875 33.503906 109.492188 34.328125 C 109.757812 35.449219 110.402344 36.339844 111.3125 37.03125 C 112.054688 37.597656 112.917969 37.886719 113.816406 38.085938 C 114.492188 38.234375 115.164062 38.226562 115.808594 37.945312 C 116.292969 37.738281 116.683594 37.445312 116.769531 36.878906 C 116.824219 36.507812 116.742188 36.152344 116.621094 35.804688 C 116.445312 35.3125 116.125 34.910156 115.800781 34.507812 C 115.382812 33.992188 115.078125 33.421875 115.011719 32.753906 C 114.964844 32.242188 114.949219 31.726562 114.9375 31.214844 C 114.925781 30.539062 114.789062 29.890625 114.515625 29.269531 C 114.214844 28.582031 113.792969 27.980469 113.117188 27.613281 C 112.542969 27.300781 111.917969 27.195312 111.242188 27.203125 Z M 95.265625 47.4375 C 95.363281 47.550781 95.445312 47.652344 95.535156 47.738281 C 95.621094 47.820312 95.703125 47.789062 95.726562 47.683594 C 95.761719 47.542969 95.769531 47.398438 95.792969 47.226562 C 95.601562 47.304688 95.449219 47.363281 95.265625 47.4375 Z M 95.265625 47.4375 " fill-opacity="1" fill-rule="evenodd"/><path fill="#000000" d="M 114.699219 47.410156 C 115.105469 47.582031 115.472656 47.738281 115.835938 47.894531 C 116.144531 48.027344 116.457031 48.15625 116.761719 48.296875 C 117.039062 48.421875 117.089844 48.5625 116.992188 48.847656 C 116.984375 48.875 116.972656 48.902344 116.964844 48.929688 C 116.75 49.433594 116.566406 49.503906 116.0625 49.285156 C 114.996094 48.832031 113.933594 48.375 112.867188 47.921875 C 112.34375 47.703125 112.289062 47.53125 112.566406 47.035156 C 112.6875 46.816406 112.871094 46.710938 113.105469 46.660156 C 114.078125 46.4375 115.046875 46.207031 116.015625 45.976562 C 116.058594 45.96875 116.101562 45.949219 116.167969 45.929688 C 115.5 45.644531 114.855469 45.363281 114.210938 45.089844 C 113.753906 44.894531 113.691406 44.730469 113.925781 44.285156 C 114.132812 43.894531 114.292969 43.835938 114.699219 44.007812 C 115.84375 44.496094 116.988281 44.984375 118.128906 45.472656 C 118.421875 45.597656 118.488281 45.765625 118.375 46.0625 C 118.253906 46.386719 118.066406 46.605469 117.683594 46.6875 C 116.738281 46.882812 115.800781 47.128906 114.859375 47.359375 C 114.820312 47.367188 114.785156 47.382812 114.699219 47.410156 Z M 114.699219 47.410156 " fill-opacity="1" fill-rule="evenodd"/><path fill="#000000" d="M 119.289062 41.601562 C 119.289062 41.898438 119.292969 42.195312 119.289062 42.492188 C 119.277344 42.917969 119.144531 43.042969 118.710938 43.058594 C 118.238281 43.078125 117.765625 43.101562 117.292969 43.121094 C 116.484375 43.148438 115.675781 43.175781 114.863281 43.199219 C 114.492188 43.210938 114.371094 43.097656 114.378906 42.726562 C 114.390625 42.167969 114.386719 41.605469 114.453125 41.054688 C 114.574219 40.054688 115.59375 38.980469 116.816406 38.933594 C 117.789062 38.894531 118.53125 39.265625 119.042969 40.09375 C 119.222656 40.382812 119.308594 40.710938 119.316406 41.054688 C 119.324219 41.234375 119.316406 41.417969 119.316406 41.601562 C 119.308594 41.601562 119.296875 41.601562 119.289062 41.601562 Z M 118.125 41.917969 C 118.125 41.703125 118.125 41.507812 118.125 41.308594 C 118.128906 40.484375 117.441406 39.925781 116.644531 40.128906 C 115.738281 40.359375 115.484375 41.140625 115.613281 42.007812 C 116.4375 41.980469 117.261719 41.949219 118.125 41.917969 Z M 118.125 41.917969 " fill-opacity="1" fill-rule="evenodd"/><path fill="#000000" d="M 112.3125 51.820312 C 112.46875 52.007812 112.605469 52.167969 112.734375 52.320312 C 113.203125 51.859375 113.65625 51.40625 114.113281 50.957031 C 114.148438 50.921875 114.183594 50.886719 114.222656 50.847656 C 114.609375 50.460938 115.085938 50.5625 115.28125 51.085938 C 115.3125 51.171875 115.292969 51.289062 115.257812 51.378906 C 115.21875 51.46875 115.136719 51.542969 115.066406 51.617188 C 114.429688 52.261719 113.789062 52.90625 113.148438 53.550781 C 113.085938 53.609375 113.023438 53.671875 112.953125 53.71875 C 112.773438 53.839844 112.617188 53.84375 112.449219 53.703125 C 112.253906 53.539062 112.066406 53.363281 111.878906 53.183594 C 111.175781 52.519531 110.472656 51.851562 109.769531 51.179688 C 109.386719 50.816406 109.367188 50.667969 109.738281 50.285156 C 110.394531 49.601562 111.066406 48.933594 111.742188 48.265625 C 111.953125 48.058594 112.109375 48.054688 112.347656 48.230469 C 112.410156 48.277344 112.472656 48.332031 112.527344 48.390625 C 112.769531 48.644531 112.773438 48.832031 112.527344 49.085938 C 112.046875 49.582031 111.558594 50.070312 111.074219 50.5625 C 111.046875 50.59375 111.019531 50.621094 111.015625 50.625 C 111.15625 50.785156 111.292969 50.941406 111.429688 51.101562 C 111.726562 50.808594 112.003906 50.53125 112.285156 50.253906 C 112.375 50.167969 112.460938 50.074219 112.554688 49.992188 C 112.730469 49.847656 112.898438 49.84375 113.085938 49.976562 C 113.121094 50 113.152344 50.023438 113.183594 50.046875 C 113.558594 50.355469 113.570312 50.582031 113.230469 50.921875 C 112.914062 51.238281 112.59375 51.546875 112.3125 51.820312 Z M 112.3125 51.820312 " fill-opacity="1" fill-rule="evenodd"/><path fill="#000000" d="M 106.851562 55.722656 C 106.515625 55.839844 106.183594 55.957031 105.84375 56.078125 C 105.921875 56.34375 106 56.59375 106.070312 56.84375 C 106.164062 57.179688 106.097656 57.332031 105.773438 57.464844 C 105.652344 57.519531 105.515625 57.558594 105.382812 57.574219 C 105.132812 57.601562 105.039062 57.539062 104.957031 57.300781 C 104.835938 56.9375 104.726562 56.570312 104.617188 56.207031 C 104.363281 55.378906 104.109375 54.546875 103.855469 53.71875 C 103.734375 53.316406 103.804688 53.15625 104.1875 53.015625 C 104.714844 52.824219 105.238281 52.621094 105.773438 52.472656 C 106.46875 52.273438 107.3125 52.492188 107.703125 53.203125 C 107.976562 53.703125 108.03125 54.222656 107.789062 54.75 C 107.738281 54.859375 107.753906 54.921875 107.828125 55 C 108.054688 55.246094 108.273438 55.492188 108.492188 55.738281 C 108.726562 56.007812 108.71875 56.179688 108.472656 56.4375 C 108.441406 56.464844 108.414062 56.492188 108.382812 56.519531 C 108.058594 56.796875 107.839844 56.867188 107.519531 56.480469 C 107.304688 56.222656 107.074219 55.976562 106.851562 55.722656 Z M 105.503906 54.980469 C 105.820312 54.867188 106.117188 54.777344 106.394531 54.652344 C 106.707031 54.515625 106.820312 54.199219 106.699219 53.894531 C 106.59375 53.628906 106.300781 53.5 105.984375 53.601562 C 105.714844 53.6875 105.449219 53.789062 105.171875 53.886719 C 105.28125 54.25 105.390625 54.601562 105.503906 54.980469 Z M 105.503906 54.980469 " fill-opacity="1" fill-rule="evenodd"/><path fill="#000000" d="M 96.054688 22.382812 C 96.140625 22.578125 96.21875 22.765625 96.304688 22.964844 C 96.707031 22.792969 97.09375 22.625 97.480469 22.460938 C 97.65625 22.386719 97.847656 22.292969 98.007812 22.453125 C 98.207031 22.652344 98.332031 22.90625 98.277344 23.195312 C 98.257812 23.289062 98.152344 23.390625 98.0625 23.4375 C 97.730469 23.601562 97.386719 23.738281 97.046875 23.890625 C 96.953125 23.929688 96.863281 23.972656 96.753906 24.023438 C 96.824219 24.191406 96.894531 24.347656 96.957031 24.503906 C 97.003906 24.625 97.082031 24.570312 97.152344 24.542969 C 97.710938 24.304688 98.265625 24.070312 98.824219 23.832031 C 98.886719 23.804688 98.949219 23.773438 99.015625 23.761719 C 99.085938 23.746094 99.171875 23.726562 99.234375 23.753906 C 99.519531 23.871094 99.589844 24.140625 99.640625 24.402344 C 99.683594 24.613281 99.597656 24.734375 99.363281 24.835938 C 98.976562 25.007812 98.589844 25.171875 98.199219 25.339844 C 97.769531 25.523438 97.339844 25.707031 96.910156 25.886719 C 96.519531 26.054688 96.359375 26 96.191406 25.613281 C 95.707031 24.492188 95.230469 23.367188 94.753906 22.242188 C 94.613281 21.898438 94.683594 21.722656 95.027344 21.570312 C 95.851562 21.210938 96.683594 20.859375 97.515625 20.511719 C 97.8125 20.382812 97.960938 20.449219 98.113281 20.742188 C 98.128906 20.769531 98.140625 20.800781 98.15625 20.832031 C 98.34375 21.246094 98.277344 21.414062 97.859375 21.59375 C 97.308594 21.832031 96.757812 22.070312 96.207031 22.308594 C 96.164062 22.328125 96.117188 22.351562 96.054688 22.382812 Z M 96.054688 22.382812 " fill-opacity="1" fill-rule="evenodd"/><path fill="#000000" d="M 90.527344 30.691406 C 90.757812 30.804688 90.980469 30.917969 91.203125 31.03125 C 91.546875 31.203125 91.597656 31.347656 91.453125 31.707031 C 91.4375 31.738281 91.421875 31.769531 91.40625 31.796875 C 91.222656 32.160156 91.074219 32.222656 90.710938 32.050781 C 90.296875 31.859375 89.890625 31.652344 89.480469 31.449219 C 88.804688 31.117188 88.128906 30.785156 87.453125 30.449219 C 87.070312 30.261719 87.011719 30.09375 87.195312 29.710938 C 87.40625 29.277344 87.605469 28.839844 87.839844 28.421875 C 88.171875 27.816406 88.695312 27.472656 89.386719 27.5 C 90.078125 27.527344 90.613281 27.859375 90.910156 28.515625 C 90.953125 28.613281 91.003906 28.648438 91.109375 28.652344 C 91.492188 28.667969 91.875 28.6875 92.253906 28.722656 C 92.453125 28.738281 92.554688 28.84375 92.578125 29.039062 C 92.59375 29.191406 92.59375 29.347656 92.566406 29.5 C 92.53125 29.734375 92.375 29.855469 92.132812 29.847656 C 91.785156 29.832031 91.4375 29.8125 91.089844 29.785156 C 90.988281 29.777344 90.9375 29.8125 90.898438 29.90625 C 90.78125 30.164062 90.65625 30.417969 90.527344 30.691406 Z M 89.492188 30.183594 C 89.625 29.921875 89.75 29.683594 89.859375 29.441406 C 89.992188 29.148438 89.890625 28.855469 89.617188 28.707031 C 89.347656 28.5625 89.035156 28.632812 88.875 28.902344 C 88.742188 29.121094 88.636719 29.359375 88.527344 29.589844 C 88.515625 29.625 88.539062 29.707031 88.570312 29.722656 C 88.867188 29.878906 89.171875 30.023438 89.492188 30.183594 Z M 89.492188 30.183594 " fill-opacity="1" fill-rule="evenodd"/><path fill="#000000" d="M 93.0625 28.105469 C 92.476562 28.078125 91.878906 27.761719 91.40625 27.203125 C 90.96875 26.675781 90.539062 26.140625 90.113281 25.605469 C 89.910156 25.355469 89.925781 25.183594 90.15625 24.964844 C 90.199219 24.925781 90.246094 24.890625 90.289062 24.855469 C 90.609375 24.605469 90.78125 24.621094 91.042969 24.9375 C 91.453125 25.433594 91.851562 25.941406 92.269531 26.433594 C 92.390625 26.578125 92.542969 26.707031 92.703125 26.8125 C 93.070312 27.046875 93.394531 27.019531 93.730469 26.757812 C 94.035156 26.519531 94.125 26.195312 94.007812 25.789062 C 93.914062 25.472656 93.695312 25.234375 93.496094 24.988281 C 93.164062 24.574219 92.824219 24.164062 92.488281 23.753906 C 92.234375 23.445312 92.25 23.277344 92.546875 23.011719 C 92.601562 22.960938 92.660156 22.917969 92.722656 22.875 C 92.964844 22.722656 93.132812 22.746094 93.320312 22.96875 C 93.582031 23.273438 93.828125 23.585938 94.082031 23.894531 C 94.273438 24.128906 94.472656 24.359375 94.652344 24.601562 C 95.109375 25.207031 95.3125 25.875 95.121094 26.628906 C 94.902344 27.476562 94.085938 28.101562 93.0625 28.105469 Z M 93.0625 28.105469 " fill-opacity="1" fill-rule="evenodd"/><path fill="#000000" d="M 100.507812 54.453125 C 100.496094 54.664062 100.484375 54.871094 100.472656 55.074219 C 100.8125 55.074219 101.128906 55.074219 101.445312 55.074219 C 101.617188 55.074219 101.789062 55.0625 101.957031 55.070312 C 102.191406 55.074219 102.300781 55.160156 102.328125 55.390625 C 102.34375 55.566406 102.335938 55.753906 102.300781 55.929688 C 102.265625 56.128906 102.128906 56.226562 101.917969 56.234375 C 101.519531 56.25 101.121094 56.257812 100.722656 56.273438 C 100.632812 56.273438 100.542969 56.285156 100.4375 56.292969 C 100.425781 56.398438 100.414062 56.492188 100.410156 56.589844 C 100.394531 56.949219 100.382812 57.308594 100.367188 57.667969 C 100.355469 57.925781 100.234375 58.074219 99.980469 58.109375 C 99.835938 58.128906 99.683594 58.128906 99.535156 58.113281 C 99.304688 58.089844 99.199219 57.972656 99.203125 57.738281 C 99.210938 57.21875 99.226562 56.699219 99.246094 56.179688 C 99.265625 55.597656 99.289062 55.015625 99.3125 54.433594 C 99.320312 54.222656 99.328125 54.011719 99.34375 53.800781 C 99.371094 53.449219 99.515625 53.304688 99.875 53.28125 C 100.066406 53.269531 100.261719 53.261719 100.453125 53.257812 C 101.195312 53.238281 101.9375 53.226562 102.679688 53.210938 C 103.03125 53.207031 103.140625 53.316406 103.148438 53.664062 C 103.160156 54.1875 103.078125 54.390625 102.453125 54.386719 C 101.839844 54.386719 101.230469 54.421875 100.621094 54.441406 C 100.589844 54.441406 100.554688 54.449219 100.507812 54.453125 Z M 100.507812 54.453125 " fill-opacity="1" fill-rule="evenodd"/><path fill="#000000" d="M 87.167969 33.453125 C 87.582031 33.507812 87.980469 33.566406 88.382812 33.621094 C 89.082031 33.71875 89.78125 33.808594 90.480469 33.90625 C 90.742188 33.945312 90.84375 34.074219 90.839844 34.335938 C 90.839844 34.355469 90.839844 34.371094 90.839844 34.390625 C 90.828125 34.917969 90.640625 35.0625 90.121094 34.988281 C 89.09375 34.839844 88.058594 34.703125 87.003906 34.558594 C 86.957031 34.910156 86.910156 35.25 86.863281 35.59375 C 86.855469 35.667969 86.84375 35.742188 86.832031 35.8125 C 86.804688 35.96875 86.78125 36.132812 86.597656 36.171875 C 86.378906 36.21875 86.15625 36.203125 85.984375 36.050781 C 85.921875 35.996094 85.898438 35.863281 85.90625 35.769531 C 85.945312 35.378906 85.996094 34.988281 86.050781 34.597656 C 86.160156 33.789062 86.277344 32.984375 86.386719 32.175781 C 86.449219 31.707031 86.738281 31.554688 87.171875 31.769531 C 87.34375 31.859375 87.34375 32.015625 87.328125 32.167969 C 87.28125 32.539062 87.226562 32.902344 87.179688 33.269531 C 87.171875 33.320312 87.171875 33.371094 87.167969 33.453125 Z M 87.167969 33.453125 " fill-opacity="1" fill-rule="evenodd"/><path fill="#000000" d="M 108.523438 51.183594 C 108.6875 51.171875 108.777344 51.273438 108.851562 51.394531 C 109.121094 51.84375 109.386719 52.289062 109.648438 52.734375 C 110.019531 53.359375 110.382812 53.984375 110.753906 54.609375 C 110.960938 54.960938 110.921875 55.125 110.582031 55.351562 C 110.546875 55.378906 110.507812 55.402344 110.46875 55.425781 C 110.105469 55.636719 109.921875 55.59375 109.707031 55.230469 C 109.097656 54.203125 108.492188 53.175781 107.890625 52.144531 C 107.832031 52.050781 107.785156 51.941406 107.765625 51.832031 C 107.75 51.761719 107.765625 51.664062 107.808594 51.609375 C 107.988281 51.371094 108.234375 51.242188 108.523438 51.183594 Z M 108.523438 51.183594 " fill-opacity="1" fill-rule="evenodd"/><path fill="#000000" d="M 100.96875 41.898438 C 99.964844 41.894531 98.863281 41.820312 97.78125 41.550781 C 97.273438 41.425781 96.789062 41.25 96.351562 40.953125 C 95.683594 40.5 95.515625 39.746094 95.984375 39.109375 C 96.171875 38.855469 96.425781 38.632812 96.6875 38.445312 C 97.199219 38.082031 97.78125 37.859375 98.382812 37.683594 C 99.84375 37.25 101.339844 37.019531 102.867188 37.015625 C 104.042969 37.015625 105.207031 37.082031 106.351562 37.359375 C 106.9375 37.503906 107.503906 37.707031 107.972656 38.097656 C 108.125 38.222656 108.265625 38.375 108.378906 38.535156 C 108.726562 39.035156 108.699219 39.613281 108.316406 40.089844 C 107.976562 40.515625 107.519531 40.765625 107.03125 40.96875 C 106.164062 41.332031 105.25 41.503906 104.332031 41.644531 C 103.25 41.808594 102.164062 41.894531 100.96875 41.898438 Z M 103.027344 41.574219 C 103.070312 41.574219 103.144531 41.582031 103.214844 41.574219 C 103.703125 41.507812 104.1875 41.449219 104.671875 41.371094 C 105.441406 41.25 106.199219 41.082031 106.921875 40.789062 C 107.34375 40.613281 107.75 40.40625 108.066406 40.058594 C 108.511719 39.574219 108.53125 39.023438 108.117188 38.515625 C 107.847656 38.183594 107.515625 37.941406 107.109375 37.800781 C 105.902344 37.390625 104.65625 37.25 103.390625 37.203125 C 103.261719 37.195312 103.132812 37.199219 103.027344 37.199219 C 103.027344 38.667969 103.027344 40.113281 103.027344 41.574219 Z M 103.027344 41.574219 " fill-opacity="1" fill-rule="evenodd"/><path fill="#000000" d="M 98.535156 29.433594 C 98.492188 29.707031 98.457031 29.941406 98.410156 30.175781 C 98.398438 30.226562 98.332031 30.269531 98.289062 30.316406 C 98.265625 30.253906 98.21875 30.1875 98.222656 30.128906 C 98.253906 29.898438 98.292969 29.671875 98.339844 29.441406 C 98.355469 29.378906 98.410156 29.324219 98.445312 29.265625 C 98.476562 29.328125 98.511719 29.390625 98.535156 29.433594 Z M 98.535156 29.433594 " fill-opacity="1" fill-rule="evenodd"/><path fill="#000000" d="M 99.394531 29.070312 C 99.335938 29.304688 99.289062 29.519531 99.222656 29.730469 C 99.210938 29.765625 99.140625 29.785156 99.097656 29.8125 C 99.074219 29.761719 99.023438 29.703125 99.03125 29.660156 C 99.078125 29.457031 99.136719 29.253906 99.199219 29.054688 C 99.214844 29.003906 99.273438 28.96875 99.3125 28.925781 C 99.339844 28.976562 99.371094 29.023438 99.394531 29.070312 Z M 99.394531 29.070312 " fill-opacity="1" fill-rule="evenodd"/><path fill="#000000" d="M 113.65625 36.199219 C 113.582031 36.152344 113.503906 36.105469 113.425781 36.058594 C 113.507812 36.015625 113.585938 35.945312 113.671875 35.929688 C 113.867188 35.894531 114.066406 35.882812 114.265625 35.863281 C 114.273438 35.863281 114.285156 35.863281 114.296875 35.859375 C 114.394531 35.855469 114.496094 35.855469 114.511719 35.976562 C 114.527344 36.101562 114.417969 36.117188 114.328125 36.125 C 114.109375 36.140625 113.894531 36.148438 113.679688 36.160156 C 113.671875 36.171875 113.664062 36.1875 113.65625 36.199219 Z M 113.65625 36.199219 " fill-opacity="1" fill-rule="evenodd"/><path fill="#000000" d="M 112.4375 35.328125 C 112.613281 35.289062 112.785156 35.238281 112.960938 35.214844 C 113.152344 35.1875 113.34375 35.175781 113.535156 35.175781 C 113.597656 35.175781 113.660156 35.242188 113.722656 35.277344 C 113.667969 35.3125 113.613281 35.367188 113.558594 35.375 C 113.246094 35.40625 112.933594 35.425781 112.621094 35.445312 C 112.5625 35.445312 112.5 35.421875 112.441406 35.414062 C 112.441406 35.382812 112.4375 35.355469 112.4375 35.328125 Z M 112.4375 35.328125 " fill-opacity="1" fill-rule="evenodd"/><path fill="#000000" d="M 113.542969 30.585938 C 113.5 30.566406 113.433594 30.535156 113.363281 30.5 C 113.429688 30.460938 113.488281 30.398438 113.5625 30.378906 C 113.675781 30.347656 113.796875 30.335938 113.914062 30.332031 C 113.964844 30.332031 114.015625 30.378906 114.066406 30.40625 C 114.023438 30.449219 113.988281 30.515625 113.9375 30.53125 C 113.824219 30.5625 113.703125 30.566406 113.542969 30.585938 Z M 113.542969 30.585938 " fill-opacity="1" fill-rule="evenodd"/><path fill="#000000" d="M 113.074219 30.003906 C 113.136719 29.9375 113.164062 29.894531 113.199219 29.871094 C 113.316406 29.789062 113.433594 29.707031 113.558594 29.640625 C 113.597656 29.621094 113.65625 29.648438 113.707031 29.652344 C 113.699219 29.695312 113.699219 29.761719 113.671875 29.78125 C 113.511719 29.910156 113.355469 30.050781 113.074219 30.003906 Z M 113.074219 30.003906 " fill-opacity="1" fill-rule="evenodd"/><path fill="#000000" d="M 112.347656 28.820312 C 112.328125 28.757812 112.285156 28.699219 112.300781 28.664062 C 112.359375 28.53125 112.429688 28.402344 112.507812 28.277344 C 112.523438 28.25 112.589844 28.242188 112.625 28.253906 C 112.644531 28.257812 112.671875 28.324219 112.664062 28.347656 C 112.597656 28.488281 112.527344 28.621094 112.453125 28.757812 C 112.441406 28.777344 112.410156 28.785156 112.347656 28.820312 Z M 112.347656 28.820312 " fill-opacity="1" fill-rule="evenodd"/><path fill="#fefefe" d="M 95.265625 47.4375 C 95.449219 47.363281 95.601562 47.304688 95.792969 47.226562 C 95.769531 47.398438 95.761719 47.542969 95.726562 47.683594 C 95.703125 47.789062 95.621094 47.820312 95.535156 47.738281 C 95.445312 47.652344 95.363281 47.550781 95.265625 47.4375 Z M 95.265625 47.4375 " fill-opacity="1" fill-rule="evenodd"/><path fill="#fefefe" d="M 103.027344 41.574219 C 103.027344 40.113281 103.027344 38.667969 103.027344 37.199219 C 103.132812 37.199219 103.261719 37.195312 103.390625 37.203125 C 104.65625 37.25 105.902344 37.390625 107.109375 37.800781 C 107.515625 37.941406 107.847656 38.183594 108.117188 38.515625 C 108.53125 39.023438 108.511719 39.574219 108.066406 40.058594 C 107.75 40.40625 107.34375 40.613281 106.921875 40.789062 C 106.199219 41.082031 105.441406 41.25 104.671875 41.371094 C 104.191406 41.449219 103.703125 41.507812 103.214844 41.574219 C 103.144531 41.582031 103.070312 41.574219 103.027344 41.574219 Z M 103.027344 41.574219 " fill-opacity="1" fill-rule="evenodd"/><g clip-path="url(#1a136ba697)"><g clip-path="url(#a8b1dfd678)"><g clip-path="url(#ca41a628f9)"><path fill="#ff914d" d="M 38.328125 23.539062 C 37.625 21.992188 36.90625 20.453125 36.175781 18.917969 C 35.996094 18.539062 35.8125 18.15625 35.628906 17.777344 C 35.449219 17.402344 35.28125 17.019531 35.082031 16.65625 C 34.90625 16.335938 34.574219 16.320312 34.277344 16.511719 C 34 16.691406 33.796875 17.007812 33.621094 17.28125 C 33.421875 17.585938 33.246094 17.910156 33.070312 18.226562 C 32.980469 18.386719 32.890625 18.542969 32.796875 18.699219 C 32.703125 18.847656 32.605469 19.019531 32.480469 19.152344 C 32.429688 19.207031 32.402344 19.199219 32.335938 19.167969 C 32.246094 19.132812 32.160156 19.078125 32.074219 19.03125 C 31.886719 18.929688 31.695312 18.828125 31.507812 18.726562 C 31.15625 18.535156 30.808594 18.332031 30.445312 18.15625 C 29.859375 17.867188 29.085938 17.679688 28.578125 18.238281 C 28.355469 18.488281 28.261719 18.824219 28.183594 19.136719 C 28.085938 19.542969 27.992188 19.945312 27.890625 20.34375 C 27.785156 20.746094 27.679688 21.148438 27.558594 21.546875 C 27.542969 21.605469 27.519531 21.707031 27.46875 21.746094 C 27.421875 21.78125 27.375 21.753906 27.324219 21.734375 C 27.171875 21.671875 27.027344 21.597656 26.878906 21.527344 C 26.296875 21.25 25.707031 20.957031 25.0625 20.847656 C 24.90625 20.820312 24.746094 20.808594 24.585938 20.808594 C 24.484375 20.785156 24.382812 20.769531 24.28125 20.769531 C 24.238281 20.769531 24.207031 20.789062 24.191406 20.8125 C 24.082031 20.792969 23.96875 20.796875 23.855469 20.847656 C 23.839844 20.851562 23.828125 20.863281 23.820312 20.875 C 23.792969 20.878906 23.765625 20.886719 23.734375 20.898438 C 23.671875 20.921875 23.628906 20.984375 23.621094 21.046875 C 23.507812 21.773438 23.722656 22.484375 23.980469 23.152344 C 24.285156 23.929688 24.617188 24.699219 24.960938 25.464844 C 25.304688 26.238281 25.664062 27 26.039062 27.761719 C 26.226562 28.140625 26.417969 28.515625 26.613281 28.890625 C 26.714844 29.082031 26.8125 29.273438 26.914062 29.464844 C 26.996094 29.609375 27.074219 29.757812 27.195312 29.878906 C 27.472656 30.148438 27.839844 30.117188 28.203125 30.0625 C 28.617188 29.996094 29.027344 29.910156 29.4375 29.804688 C 30.238281 29.597656 31.019531 29.324219 31.785156 29.003906 C 32.554688 28.6875 33.304688 28.328125 34.050781 27.960938 C 34.757812 27.609375 35.472656 27.265625 36.15625 26.875 C 36.824219 26.488281 37.464844 26.050781 37.996094 25.492188 C 38.242188 25.234375 38.507812 24.9375 38.582031 24.582031 C 38.65625 24.214844 38.476562 23.863281 38.328125 23.539062 Z M 34.511719 17.996094 C 34.519531 17.953125 34.527344 17.90625 34.53125 17.863281 C 34.542969 17.917969 34.550781 17.976562 34.5625 18.03125 C 34.546875 18.019531 34.53125 18.003906 34.511719 17.996094 Z M 28.667969 26.328125 C 28.679688 26.3125 28.691406 26.292969 28.699219 26.269531 C 28.699219 26.265625 28.703125 26.257812 28.703125 26.25 C 28.714844 26.261719 28.722656 26.273438 28.730469 26.28125 C 28.726562 26.300781 28.726562 26.316406 28.722656 26.335938 C 28.71875 26.339844 28.71875 26.34375 28.71875 26.351562 C 28.703125 26.34375 28.683594 26.335938 28.667969 26.328125 Z M 25.515625 22.417969 C 25.515625 22.414062 25.511719 22.410156 25.507812 22.40625 C 25.46875 22.371094 25.421875 22.359375 25.375 22.363281 C 25.367188 22.351562 25.355469 22.335938 25.347656 22.320312 C 25.363281 22.324219 25.378906 22.324219 25.394531 22.328125 C 25.414062 22.328125 25.433594 22.328125 25.453125 22.324219 C 25.492188 22.335938 25.535156 22.347656 25.574219 22.363281 C 25.550781 22.375 25.53125 22.394531 25.515625 22.417969 Z M 35.519531 19.867188 C 35.476562 19.738281 35.433594 19.613281 35.386719 19.488281 C 35.433594 19.597656 35.476562 19.707031 35.523438 19.816406 C 35.519531 19.832031 35.515625 19.847656 35.519531 19.867188 Z M 36.863281 21.273438 C 36.925781 21.410156 36.988281 21.546875 37.054688 21.683594 C 37.046875 21.683594 37.042969 21.683594 37.039062 21.683594 C 37.023438 21.65625 36.996094 21.636719 36.96875 21.621094 C 36.957031 21.59375 36.941406 21.5625 36.929688 21.53125 C 36.898438 21.453125 36.867188 21.371094 36.835938 21.292969 C 36.84375 21.285156 36.851562 21.28125 36.863281 21.273438 Z M 35.011719 17.398438 C 35.015625 17.394531 35.015625 17.394531 35.019531 17.394531 C 35.035156 17.429688 35.054688 17.46875 35.074219 17.507812 C 35.027344 17.484375 34.976562 17.476562 34.921875 17.5 C 34.917969 17.496094 34.914062 17.492188 34.910156 17.488281 C 34.953125 17.46875 34.988281 17.4375 35.011719 17.398438 Z M 34.125 17.210938 C 34.15625 17.164062 34.191406 17.121094 34.222656 17.078125 C 34.1875 17.144531 34.152344 17.210938 34.117188 17.277344 C 34.054688 17.34375 33.992188 17.414062 33.933594 17.484375 C 33.992188 17.390625 34.054688 17.300781 34.125 17.210938 Z M 28.820312 22.019531 C 28.820312 22.023438 28.816406 22.03125 28.816406 22.035156 C 28.796875 22.09375 28.773438 22.15625 28.75 22.214844 C 28.742188 22.210938 28.738281 22.210938 28.730469 22.207031 C 28.761719 22.144531 28.792969 22.082031 28.820312 22.019531 Z M 25.417969 21.320312 C 25.59375 21.371094 25.769531 21.4375 25.9375 21.507812 C 25.941406 21.507812 25.945312 21.511719 25.945312 21.511719 C 25.945312 21.515625 25.941406 21.515625 25.9375 21.519531 C 25.761719 21.464844 25.582031 21.402344 25.410156 21.335938 C 25.414062 21.328125 25.414062 21.324219 25.417969 21.320312 Z M 30.300781 29.164062 C 30.292969 29.152344 30.285156 29.140625 30.273438 29.132812 C 30.316406 29.121094 30.359375 29.105469 30.40625 29.09375 C 30.425781 29.097656 30.449219 29.101562 30.472656 29.105469 C 30.417969 29.125 30.359375 29.144531 30.300781 29.164062 Z M 35.03125 27.050781 C 35.042969 27.027344 35.054688 27.003906 35.066406 26.976562 C 35.121094 26.933594 35.171875 26.882812 35.226562 26.835938 C 35.160156 26.90625 35.097656 26.980469 35.03125 27.050781 Z M 38.125 24.730469 C 38.128906 24.710938 38.132812 24.695312 38.136719 24.675781 C 38.144531 24.628906 38.128906 24.582031 38.101562 24.546875 C 38.148438 24.527344 38.191406 24.488281 38.214844 24.4375 C 38.207031 24.539062 38.175781 24.636719 38.125 24.730469 Z M 38.195312 24.238281 C 38.128906 24.144531 38.0625 24.054688 37.996094 23.960938 C 38.027344 23.953125 38.054688 23.933594 38.078125 23.910156 C 38.125 24.015625 38.167969 24.125 38.195312 24.238281 Z M 38.195312 24.238281 " fill-opacity="1" fill-rule="nonzero"/></g></g></g><g clip-path="url(#5ba1358e0d)"><g clip-path="url(#52dfce2349)"><g clip-path="url(#44122a01d8)"><path fill="#ff914d" d="M 23.5 18.625 C 23.484375 18.609375 23.46875 18.597656 23.453125 18.585938 C 23.246094 18.4375 22.972656 18.367188 22.71875 18.410156 C 22.710938 18.410156 22.707031 18.410156 22.699219 18.410156 C 22.558594 18.410156 22.410156 18.441406 22.292969 18.523438 C 22.261719 18.53125 22.238281 18.546875 22.210938 18.5625 C 22.125 18.589844 22.046875 18.636719 21.988281 18.707031 C 21.921875 18.789062 21.894531 18.894531 21.894531 18.996094 C 21.84375 19.109375 21.820312 19.234375 21.820312 19.359375 C 21.820312 19.609375 21.929688 19.859375 22.109375 20.035156 C 22.183594 20.1875 22.304688 20.3125 22.472656 20.367188 C 22.648438 20.425781 22.808594 20.390625 22.953125 20.308594 C 23.09375 20.335938 23.246094 20.320312 23.386719 20.246094 C 23.632812 20.117188 23.800781 19.863281 23.851562 19.59375 C 23.886719 19.527344 23.914062 19.453125 23.929688 19.371094 C 23.992188 19.03125 23.789062 18.769531 23.5 18.625 Z M 23.5 18.625 " fill-opacity="1" fill-rule="nonzero"/></g></g></g><g clip-path="url(#1278bf130b)"><g clip-path="url(#119fff95db)"><g clip-path="url(#33669d2500)"><path fill="#ff914d" d="M 28.53125 14.226562 C 28.335938 14.089844 28.101562 13.972656 27.851562 13.953125 C 27.378906 13.917969 27.066406 14.3125 27.003906 14.734375 C 26.9375 14.863281 26.90625 15.007812 26.910156 15.160156 C 26.914062 15.257812 26.933594 15.351562 26.96875 15.4375 C 26.972656 15.449219 26.972656 15.460938 26.976562 15.472656 C 27.027344 15.679688 27.132812 15.886719 27.320312 16.007812 C 27.335938 16.015625 27.351562 16.023438 27.367188 16.035156 C 27.613281 16.234375 27.992188 16.183594 28.308594 16.0625 C 28.496094 16.007812 28.671875 15.90625 28.800781 15.761719 C 28.882812 15.683594 28.957031 15.585938 28.996094 15.476562 C 29.035156 15.382812 29.046875 15.289062 29.042969 15.191406 C 29.0625 15.097656 29.050781 15 29.015625 14.910156 C 29.011719 14.886719 29.011719 14.867188 29.007812 14.84375 C 28.957031 14.578125 28.75 14.375 28.53125 14.226562 Z M 27.621094 15.328125 C 27.601562 15.277344 27.589844 15.222656 27.585938 15.167969 C 27.597656 15.210938 27.617188 15.25 27.636719 15.285156 C 27.632812 15.300781 27.628906 15.316406 27.621094 15.328125 Z M 27.96875 15.597656 C 27.992188 15.59375 28.011719 15.582031 28.03125 15.566406 C 28.058594 15.585938 28.089844 15.601562 28.121094 15.617188 C 28.128906 15.617188 28.136719 15.621094 28.144531 15.625 C 28.082031 15.621094 28.027344 15.613281 27.96875 15.597656 Z M 27.816406 14.160156 C 27.804688 14.175781 27.792969 14.1875 27.785156 14.199219 C 27.757812 14.191406 27.726562 14.191406 27.695312 14.203125 C 27.671875 14.195312 27.648438 14.1875 27.625 14.183594 C 27.6875 14.164062 27.75 14.160156 27.816406 14.160156 Z M 27.816406 14.160156 " fill-opacity="1" fill-rule="nonzero"/></g></g></g><g clip-path="url(#b185d3dae4)"><g clip-path="url(#a566b590ed)"><g clip-path="url(#6729bb5145)"><path fill="#ff914d" d="M 34.878906 14.523438 C 34.855469 14.492188 34.824219 14.464844 34.792969 14.4375 C 34.792969 14.425781 34.789062 14.414062 34.785156 14.398438 C 34.785156 14.386719 34.789062 14.371094 34.785156 14.355469 C 34.769531 14.113281 34.570312 14.011719 34.359375 13.960938 C 34.269531 13.925781 34.171875 13.90625 34.074219 13.894531 C 33.949219 13.859375 33.824219 13.847656 33.699219 13.871094 C 33.621094 13.886719 33.554688 13.914062 33.492188 13.949219 C 33.46875 13.960938 33.445312 13.972656 33.421875 13.988281 C 33.339844 14.019531 33.261719 14.058594 33.191406 14.121094 C 33.15625 14.152344 33.128906 14.1875 33.097656 14.222656 C 33.046875 14.277344 33.011719 14.339844 32.984375 14.40625 C 32.980469 14.417969 32.972656 14.429688 32.96875 14.441406 C 32.957031 14.464844 32.949219 14.488281 32.941406 14.511719 C 32.875 14.628906 32.839844 14.765625 32.847656 14.90625 C 32.855469 15.046875 32.90625 15.179688 32.992188 15.292969 C 33.011719 15.414062 33.042969 15.539062 33.144531 15.617188 C 33.214844 15.667969 33.3125 15.695312 33.40625 15.707031 C 33.46875 15.746094 33.542969 15.777344 33.628906 15.792969 C 33.8125 15.828125 33.988281 15.785156 34.136719 15.691406 C 34.152344 15.691406 34.167969 15.6875 34.183594 15.679688 C 34.191406 15.675781 34.199219 15.667969 34.207031 15.664062 C 34.210938 15.664062 34.210938 15.664062 34.210938 15.664062 C 34.234375 15.648438 34.257812 15.636719 34.277344 15.621094 C 34.308594 15.632812 34.347656 15.628906 34.382812 15.605469 C 34.441406 15.5625 34.5 15.511719 34.546875 15.457031 C 34.613281 15.414062 34.671875 15.351562 34.714844 15.285156 C 34.730469 15.273438 34.746094 15.261719 34.757812 15.25 C 34.964844 15.058594 35.066406 14.753906 34.878906 14.523438 Z M 34.878906 14.523438 " fill-opacity="1" fill-rule="nonzero"/></g></g></g></svg>