<svg xmlns="http://www.w3.org/2000/svg" xmlns:xlink="http://www.w3.org/1999/xlink" width="52" zoomAndPan="magnify" viewBox="0 0 39 43.499998" height="58" preserveAspectRatio="xMidYMid meet" version="1.0"><defs><clipPath id="d95f23a22f"><path d="M 9.390625 10.867188 L 29.546875 10.867188 L 29.546875 31.023438 L 9.390625 31.023438 Z M 9.390625 10.867188 " clip-rule="nonzero"/></clipPath><clipPath id="c52b26e8ed"><path d="M 19.46875 10.867188 C 13.902344 10.867188 9.390625 15.382812 9.390625 20.945312 C 9.390625 26.511719 13.902344 31.023438 19.46875 31.023438 C 25.035156 31.023438 29.546875 26.511719 29.546875 20.945312 C 29.546875 15.382812 25.035156 10.867188 19.46875 10.867188 Z M 19.46875 10.867188 " clip-rule="nonzero"/></clipPath><clipPath id="4543543102"><path d="M 0.601562 0.03125 L 38.414062 0.03125 L 38.414062 43 L 0.601562 43 Z M 0.601562 0.03125 " clip-rule="nonzero"/></clipPath><clipPath id="1254c65ee1"><path d="M 0.601562 0.03125 L 38.414062 0.03125 L 38.414062 43 L 0.601562 43 Z M 0.601562 0.03125 " clip-rule="nonzero"/></clipPath><clipPath id="17720bf826"><path d="M 0.601562 0.03125 L 38.414062 0.03125 L 38.414062 43 L 0.601562 43 Z M 0.601562 0.03125 " clip-rule="nonzero"/></clipPath></defs><g clip-path="url(#d95f23a22f)"><g clip-path="url(#c52b26e8ed)"><path fill="#ff914d" d="M 9.390625 10.867188 L 29.546875 10.867188 L 29.546875 31.023438 L 9.390625 31.023438 Z M 9.390625 10.867188 " fill-opacity="1" fill-rule="nonzero"/></g></g><g clip-path="url(#4543543102)"><path fill="#dec2ba" d="M 38.089844 17.167969 C 38.046875 16.675781 38.007812 16.171875 37.90625 15.6875 C 37.734375 14.890625 37.542969 14.09375 37.300781 13.316406 C 36.742188 11.507812 35.90625 9.828125 34.832031 8.273438 C 34.238281 7.414062 33.578125 6.613281 32.84375 5.871094 C 32.402344 5.421875 31.921875 5.003906 31.4375 4.597656 C 30.683594 3.953125 29.894531 3.351562 29.015625 2.875 C 28.421875 2.550781 27.835938 2.203125 27.214844 1.933594 C 26.371094 1.574219 25.511719 1.253906 24.640625 0.972656 C 23.414062 0.574219 22.144531 0.355469 20.855469 0.28125 C 19.425781 0.195312 18 0.226562 16.582031 0.445312 C 15.691406 0.582031 14.820312 0.789062 13.960938 1.054688 C 12.6875 1.449219 11.464844 1.976562 10.304688 2.636719 C 9.730469 2.960938 9.164062 3.300781 8.632812 3.6875 C 7.601562 4.433594 6.617188 5.238281 5.769531 6.191406 C 5.347656 6.664062 4.941406 7.148438 4.546875 7.640625 C 3.980469 8.34375 3.511719 9.109375 3.074219 9.898438 C 2.34375 11.234375 1.753906 12.625 1.375 14.097656 C 1.1875 14.824219 1.050781 15.5625 0.917969 16.304688 C 0.832031 16.769531 0.757812 17.246094 0.75 17.71875 C 0.730469 19.007812 0.742188 20.300781 0.742188 21.589844 C 0.730469 21.589844 0.71875 21.589844 0.710938 21.589844 C 0.710938 21.671875 0.707031 21.753906 0.710938 21.832031 C 0.730469 23.136719 0.738281 24.4375 0.785156 25.738281 C 0.808594 26.308594 0.886719 26.878906 0.996094 27.441406 C 1.332031 29.175781 1.855469 30.851562 2.65625 32.4375 C 3.171875 33.460938 3.722656 34.472656 4.445312 35.371094 C 4.96875 36.023438 5.503906 36.671875 6.078125 37.28125 C 6.503906 37.738281 6.992188 38.144531 7.46875 38.550781 C 8.398438 39.339844 9.394531 40.035156 10.46875 40.613281 C 12.121094 41.496094 13.851562 42.160156 15.691406 42.535156 C 16.3125 42.664062 16.945312 42.78125 17.578125 42.824219 C 18.441406 42.878906 19.308594 42.863281 20.171875 42.867188 C 20.933594 42.867188 21.691406 42.820312 22.441406 42.6875 C 23.554688 42.492188 24.644531 42.21875 25.710938 41.828125 C 27.476562 41.183594 29.132812 40.339844 30.632812 39.191406 C 31.632812 38.425781 32.589844 37.609375 33.417969 36.648438 C 34.066406 35.898438 34.695312 35.128906 35.222656 34.285156 C 35.8125 33.34375 36.335938 32.367188 36.757812 31.339844 C 37.296875 30.03125 37.714844 28.683594 37.921875 27.285156 C 38.042969 26.441406 38.175781 25.585938 38.175781 24.738281 C 38.179688 22.214844 38.308594 19.691406 38.089844 17.167969 Z M 38.089844 17.167969 " fill-opacity="1" fill-rule="evenodd"/></g><path fill="#ffde59" d="M 9.324219 31.21875 C 10.222656 30.902344 11.128906 30.585938 12.050781 30.261719 C 12.117188 30.351562 12.183594 30.460938 12.265625 30.554688 C 12.382812 30.691406 12.53125 30.800781 12.722656 30.730469 C 12.898438 30.667969 12.953125 30.5 12.976562 30.328125 C 12.988281 30.257812 13.011719 30.183594 12.996094 30.121094 C 12.9375 29.890625 13.082031 29.835938 13.253906 29.757812 C 13.9375 29.433594 14.621094 29.097656 15.296875 28.75 C 15.46875 28.664062 15.617188 28.519531 15.753906 28.382812 C 15.882812 28.25 15.867188 28.101562 15.753906 27.992188 C 15.257812 28.636719 14.511719 28.902344 13.8125 29.21875 C 12.386719 29.871094 10.921875 30.429688 9.425781 30.898438 C 9.175781 30.980469 9.011719 30.957031 8.816406 30.746094 C 7.472656 29.304688 6.515625 27.652344 5.953125 25.769531 C 5.917969 25.65625 5.9375 25.578125 6.003906 25.484375 C 6.601562 24.65625 7.191406 23.820312 7.785156 22.992188 C 7.820312 22.949219 7.898438 22.914062 7.953125 22.914062 C 8.203125 22.90625 8.453125 22.910156 8.71875 22.910156 C 8.71875 22.832031 8.71875 22.769531 8.71875 22.707031 C 8.71875 21.605469 8.71875 20.503906 8.71875 19.402344 C 8.71875 14.136719 12.53125 9.585938 17.726562 8.675781 C 20.558594 8.183594 23.1875 8.730469 25.609375 10.265625 C 25.691406 10.316406 25.769531 10.375 25.867188 10.441406 C 25.777344 10.539062 25.699219 10.621094 25.625 10.707031 C 25.160156 11.238281 24.769531 11.808594 24.597656 12.5 C 24.546875 12.707031 24.570312 12.933594 24.574219 13.152344 C 24.574219 13.207031 24.632812 13.261719 24.6875 13.308594 C 24.65625 12.761719 24.839844 12.285156 25.109375 11.789062 C 25.183594 11.910156 25.253906 12.007812 25.308594 12.113281 C 25.707031 12.859375 25.914062 13.65625 26.007812 14.496094 C 26.109375 15.375 26.222656 16.257812 26.488281 17.105469 C 26.726562 17.863281 26.957031 18.625 27.21875 19.371094 C 27.414062 19.925781 27.75 20.410156 28.171875 20.8125 C 28.675781 21.292969 29.304688 21.570312 29.96875 21.765625 C 30.121094 21.808594 30.285156 21.808594 30.441406 21.839844 C 30.539062 21.855469 30.605469 21.890625 30.605469 22.015625 C 30.617188 24.285156 30.113281 26.421875 28.96875 28.390625 C 28.664062 28.914062 28.292969 29.402344 27.953125 29.90625 C 27.898438 29.984375 27.828125 30.054688 27.78125 30.109375 C 27.363281 29.835938 26.960938 29.570312 26.527344 29.289062 C 26.804688 29.074219 27.058594 28.875 27.316406 28.683594 C 27.480469 28.566406 27.652344 28.457031 27.820312 28.34375 C 27.949219 28.257812 27.953125 28.175781 27.816406 28.097656 C 27.722656 28.042969 27.625 28 27.503906 27.9375 C 27.601562 27.859375 27.6875 27.800781 27.761719 27.734375 C 27.929688 27.585938 27.914062 27.480469 27.71875 27.382812 C 27.363281 27.203125 27.007812 27.023438 26.632812 26.835938 C 26.671875 26.789062 26.691406 26.761719 26.714844 26.742188 C 27.167969 26.34375 27.625 25.949219 28.074219 25.546875 C 28.125 25.5 28.144531 25.414062 28.175781 25.347656 C 28.105469 25.324219 28.035156 25.28125 27.960938 25.277344 C 27.8125 25.265625 27.660156 25.273438 27.476562 25.273438 C 27.625 25.09375 27.757812 24.929688 27.890625 24.765625 C 27.929688 24.71875 27.976562 24.671875 28.011719 24.621094 C 28.070312 24.539062 28.058594 24.472656 27.945312 24.472656 C 27.125 24.480469 26.308594 24.492188 25.488281 24.503906 C 25.46875 24.503906 25.449219 24.519531 25.429688 24.550781 C 25.820312 24.625 26.214844 24.589844 26.605469 24.585938 C 26.996094 24.585938 27.390625 24.585938 27.78125 24.585938 C 27.785156 24.605469 27.792969 24.621094 27.796875 24.640625 C 27.625 24.84375 27.464844 25.0625 27.277344 25.253906 C 26.882812 25.664062 26.476562 26.058594 26.066406 26.453125 C 25.929688 26.585938 26.046875 26.644531 26.125 26.691406 C 26.46875 26.898438 26.8125 27.101562 27.164062 27.296875 C 27.316406 27.382812 27.484375 27.457031 27.667969 27.546875 C 27.597656 27.601562 27.550781 27.644531 27.5 27.675781 C 26.925781 28.058594 26.351562 28.441406 25.773438 28.824219 C 25.628906 28.917969 25.621094 29.011719 25.765625 29.121094 C 25.988281 29.285156 26.222656 29.441406 26.453125 29.597656 C 26.785156 29.816406 27.125 30.03125 27.457031 30.25 C 27.496094 30.277344 27.53125 30.308594 27.566406 30.335938 C 23.117188 35.6875 14.40625 36.207031 9.324219 31.21875 Z M 18.042969 24.554688 C 19.261719 24.550781 20.363281 24.460938 21.460938 24.296875 C 22.398438 24.152344 23.328125 23.976562 24.207031 23.609375 C 24.703125 23.402344 25.171875 23.148438 25.515625 22.71875 C 25.902344 22.234375 25.933594 21.648438 25.578125 21.140625 C 25.464844 20.976562 25.320312 20.824219 25.167969 20.699219 C 24.6875 20.300781 24.113281 20.09375 23.519531 19.949219 C 22.355469 19.664062 21.167969 19.601562 19.976562 19.601562 C 18.417969 19.605469 16.902344 19.839844 15.414062 20.277344 C 14.804688 20.453125 14.210938 20.679688 13.691406 21.050781 C 13.425781 21.238281 13.164062 21.464844 12.972656 21.722656 C 12.5 22.371094 12.667969 23.132812 13.347656 23.59375 C 13.792969 23.894531 14.285156 24.074219 14.800781 24.203125 C 15.902344 24.472656 17.023438 24.550781 18.042969 24.554688 Z M 15.570312 11.910156 C 15.546875 11.867188 15.511719 11.800781 15.476562 11.738281 C 15.441406 11.796875 15.386719 11.851562 15.371094 11.917969 C 15.324219 12.148438 15.28125 12.382812 15.253906 12.617188 C 15.246094 12.675781 15.296875 12.738281 15.320312 12.800781 C 15.363281 12.753906 15.429688 12.714844 15.441406 12.660156 C 15.492188 12.425781 15.523438 12.183594 15.570312 11.910156 Z M 16.445312 11.539062 C 16.417969 11.492188 16.386719 11.445312 16.359375 11.394531 C 16.320312 11.4375 16.261719 11.472656 16.246094 11.523438 C 16.179688 11.726562 16.121094 11.929688 16.074219 12.136719 C 16.066406 12.183594 16.117188 12.242188 16.140625 12.292969 C 16.1875 12.265625 16.257812 12.246094 16.269531 12.207031 C 16.335938 11.996094 16.382812 11.777344 16.445312 11.539062 Z M 16.445312 11.539062 " fill-opacity="1" fill-rule="evenodd"/><path fill="#ff914d" d="M 28.492188 9.644531 C 29.175781 9.636719 29.8125 9.746094 30.398438 10.0625 C 31.085938 10.4375 31.511719 11.042969 31.820312 11.742188 C 32.097656 12.371094 32.234375 13.027344 32.25 13.714844 C 32.261719 14.234375 32.273438 14.757812 32.324219 15.273438 C 32.390625 15.953125 32.699219 16.53125 33.125 17.058594 C 33.453125 17.460938 33.78125 17.871094 33.960938 18.371094 C 34.085938 18.722656 34.164062 19.085938 34.109375 19.460938 C 34.027344 20.035156 33.625 20.335938 33.136719 20.542969 C 32.476562 20.824219 31.796875 20.835938 31.105469 20.683594 C 30.195312 20.484375 29.316406 20.191406 28.5625 19.617188 C 27.636719 18.914062 26.980469 18.007812 26.710938 16.875 C 26.511719 16.039062 26.394531 15.183594 26.25 14.335938 C 26.105469 13.503906 25.980469 12.667969 25.828125 11.839844 C 25.789062 11.636719 25.6875 11.449219 25.601562 11.257812 C 25.5625 11.171875 25.5625 11.121094 25.625 11.046875 C 26.371094 10.128906 27.304688 9.605469 28.492188 9.644531 Z M 30.945312 18.773438 C 30.953125 18.757812 30.960938 18.746094 30.96875 18.730469 C 31.1875 18.71875 31.410156 18.710938 31.628906 18.695312 C 31.722656 18.6875 31.832031 18.671875 31.816406 18.542969 C 31.800781 18.421875 31.695312 18.421875 31.597656 18.429688 C 31.585938 18.429688 31.574219 18.429688 31.5625 18.429688 C 31.363281 18.453125 31.160156 18.460938 30.960938 18.496094 C 30.875 18.515625 30.792969 18.582031 30.710938 18.628906 C 30.789062 18.675781 30.867188 18.722656 30.945312 18.773438 Z M 29.707031 17.886719 C 29.707031 17.914062 29.707031 17.945312 29.710938 17.972656 C 29.769531 17.984375 29.832031 18.007812 29.894531 18.003906 C 30.210938 17.988281 30.527344 17.964844 30.84375 17.933594 C 30.902344 17.929688 30.957031 17.871094 31.011719 17.835938 C 30.949219 17.800781 30.886719 17.734375 30.824219 17.734375 C 30.628906 17.730469 30.429688 17.746094 30.238281 17.773438 C 30.058594 17.796875 29.882812 17.847656 29.707031 17.886719 Z M 30.828125 13.078125 C 30.992188 13.058594 31.117188 13.054688 31.230469 13.023438 C 31.28125 13.007812 31.320312 12.9375 31.363281 12.894531 C 31.308594 12.867188 31.257812 12.820312 31.207031 12.820312 C 31.085938 12.824219 30.964844 12.835938 30.851562 12.867188 C 30.777344 12.886719 30.714844 12.949219 30.644531 12.992188 C 30.71875 13.023438 30.789062 13.058594 30.828125 13.078125 Z M 30.351562 12.488281 C 30.636719 12.535156 30.800781 12.390625 30.960938 12.261719 C 30.992188 12.238281 30.988281 12.175781 31 12.128906 C 30.949219 12.125 30.882812 12.097656 30.847656 12.117188 C 30.71875 12.1875 30.601562 12.269531 30.480469 12.351562 C 30.445312 12.375 30.417969 12.417969 30.351562 12.488281 Z M 29.617188 11.285156 C 29.675781 11.25 29.710938 11.242188 29.722656 11.222656 C 29.796875 11.085938 29.871094 10.949219 29.933594 10.808594 C 29.945312 10.785156 29.917969 10.714844 29.898438 10.710938 C 29.859375 10.699219 29.792969 10.710938 29.777344 10.734375 C 29.699219 10.859375 29.625 10.992188 29.566406 11.128906 C 29.550781 11.164062 29.59375 11.222656 29.617188 11.285156 Z M 29.617188 11.285156 " fill-opacity="1" fill-rule="evenodd"/><g clip-path="url(#1254c65ee1)"><path fill="#dec2ba" d="M 38.0625 21.574219 C 38.0625 22.355469 38.074219 23.140625 38.058594 23.921875 C 38.023438 25.769531 37.804688 27.59375 37.289062 29.375 C 36.75 31.226562 35.941406 32.953125 34.871094 34.558594 C 33.96875 35.90625 32.90625 37.113281 31.683594 38.175781 C 29.890625 39.734375 27.878906 40.921875 25.632812 41.707031 C 24.128906 42.230469 22.589844 42.570312 21 42.695312 C 19.074219 42.84375 17.164062 42.726562 15.277344 42.289062 C 12.988281 41.757812 10.867188 40.832031 8.929688 39.496094 C 7.015625 38.179688 5.398438 36.566406 4.097656 34.644531 C 2.636719 32.488281 1.660156 30.128906 1.199219 27.566406 C 1.070312 26.855469 1.003906 26.132812 0.9375 25.414062 C 0.742188 23.15625 0.8125 20.890625 0.867188 18.636719 C 0.929688 16.085938 1.464844 13.613281 2.542969 11.28125 C 3.363281 9.503906 4.410156 7.878906 5.738281 6.433594 C 7.777344 4.210938 10.210938 2.570312 13.046875 1.527344 C 14.496094 0.992188 15.988281 0.628906 17.527344 0.492188 C 18.308594 0.421875 19.09375 0.347656 19.871094 0.375 C 21.46875 0.425781 23.046875 0.65625 24.585938 1.105469 C 26.46875 1.652344 28.226562 2.460938 29.847656 3.5625 C 32.21875 5.175781 34.128906 7.210938 35.554688 9.703125 C 36.605469 11.535156 37.335938 13.488281 37.703125 15.566406 C 37.847656 16.382812 37.945312 17.21875 37.992188 18.046875 C 38.058594 19.222656 38.058594 20.398438 38.089844 21.574219 C 38.082031 21.574219 38.070312 21.574219 38.0625 21.574219 Z M 8.472656 22.664062 C 8.382812 22.664062 8.320312 22.664062 8.253906 22.664062 C 7.347656 22.664062 6.441406 22.664062 5.539062 22.664062 C 5.308594 22.664062 5.207031 22.765625 5.207031 22.988281 C 5.207031 23.066406 5.207031 23.140625 5.214844 23.214844 C 5.316406 23.898438 5.351562 24.585938 5.535156 25.261719 C 5.722656 25.953125 5.921875 26.632812 6.214844 27.289062 C 6.507812 27.945312 6.824219 28.59375 7.246094 29.183594 C 7.445312 29.464844 7.617188 29.769531 7.835938 30.035156 C 8.3125 30.605469 8.796875 31.175781 9.378906 31.648438 C 9.855469 32.039062 10.332031 32.4375 10.835938 32.789062 C 11.371094 33.160156 11.949219 33.464844 12.542969 33.746094 C 13.234375 34.070312 13.953125 34.328125 14.691406 34.519531 C 15.4375 34.714844 16.199219 34.863281 16.980469 34.890625 C 17.976562 34.921875 18.96875 34.945312 19.960938 34.792969 C 20.875 34.652344 21.757812 34.425781 22.621094 34.109375 C 23.492188 33.796875 24.316406 33.390625 25.078125 32.878906 C 25.695312 32.464844 26.277344 31.996094 26.839844 31.507812 C 27.402344 31.011719 27.90625 30.449219 28.347656 29.835938 C 28.550781 29.558594 28.769531 29.289062 28.949219 28.996094 C 29.152344 28.675781 29.332031 28.335938 29.492188 27.992188 C 29.757812 27.421875 30.023438 26.851562 30.238281 26.265625 C 30.410156 25.808594 30.542969 25.332031 30.625 24.851562 C 30.730469 24.242188 30.800781 23.625 30.835938 23.011719 C 30.871094 22.378906 30.847656 21.746094 30.847656 21.113281 C 30.847656 21.054688 30.847656 20.992188 30.847656 20.929688 C 30.890625 20.929688 30.90625 20.925781 30.925781 20.925781 C 30.964844 20.933594 31.003906 20.941406 31.042969 20.949219 C 31.730469 21.078125 32.414062 21.097656 33.085938 20.855469 C 34.191406 20.460938 34.597656 19.699219 34.304688 18.566406 C 34.15625 18 33.855469 17.523438 33.492188 17.082031 C 33.066406 16.566406 32.6875 16.019531 32.609375 15.335938 C 32.558594 14.867188 32.539062 14.390625 32.527344 13.917969 C 32.503906 13.199219 32.402344 12.5 32.132812 11.828125 C 31.835938 11.085938 31.414062 10.4375 30.738281 9.980469 C 30.226562 9.632812 29.644531 9.484375 29.039062 9.425781 C 28.082031 9.335938 27.167969 9.457031 26.371094 10.046875 C 26.164062 10.199219 26.039062 10.257812 25.789062 10.0625 C 25.425781 9.78125 25.003906 9.558594 24.582031 9.363281 C 23.878906 9.042969 23.160156 8.75 22.402344 8.582031 C 21.910156 8.46875 21.417969 8.347656 20.917969 8.308594 C 20.300781 8.253906 19.675781 8.265625 19.058594 8.269531 C 18.734375 8.269531 18.40625 8.28125 18.089844 8.34375 C 17.496094 8.460938 16.898438 8.585938 16.320312 8.761719 C 15.78125 8.925781 15.246094 9.125 14.738281 9.367188 C 14.230469 9.613281 13.753906 9.925781 13.277344 10.230469 C 12.992188 10.414062 12.722656 10.628906 12.464844 10.851562 C 12.1875 11.089844 11.917969 11.34375 11.660156 11.609375 C 11.367188 11.910156 11.070312 12.210938 10.816406 12.542969 C 10.519531 12.933594 10.238281 13.339844 10.003906 13.765625 C 9.699219 14.3125 9.410156 14.867188 9.183594 15.445312 C 8.976562 15.984375 8.835938 16.554688 8.707031 17.121094 C 8.550781 17.828125 8.457031 18.542969 8.46875 19.273438 C 8.488281 20.328125 8.472656 21.382812 8.472656 22.4375 C 8.472656 22.507812 8.472656 22.574219 8.472656 22.664062 Z M 32.007812 30.140625 C 32.09375 30.113281 32.128906 30.101562 32.167969 30.089844 C 33.125 29.859375 34.078125 29.609375 35.042969 29.410156 C 35.429688 29.328125 35.617188 29.109375 35.746094 28.777344 C 35.859375 28.476562 35.792969 28.308594 35.496094 28.179688 C 34.332031 27.683594 33.171875 27.1875 32.007812 26.695312 C 31.589844 26.515625 31.429688 26.578125 31.21875 26.976562 C 30.980469 27.425781 31.042969 27.59375 31.507812 27.789062 C 32.164062 28.070312 32.820312 28.351562 33.5 28.640625 C 33.429688 28.664062 33.390625 28.679688 33.34375 28.691406 C 32.359375 28.921875 31.371094 29.15625 30.386719 29.382812 C 30.144531 29.4375 29.960938 29.542969 29.835938 29.765625 C 29.554688 30.269531 29.613281 30.4375 30.144531 30.664062 C 31.226562 31.125 32.308594 31.585938 33.390625 32.046875 C 33.90625 32.269531 34.089844 32.195312 34.308594 31.683594 C 34.320312 31.65625 34.328125 31.628906 34.339844 31.601562 C 34.4375 31.3125 34.382812 31.171875 34.105469 31.042969 C 33.792969 30.902344 33.476562 30.769531 33.164062 30.636719 C 32.792969 30.476562 32.421875 30.320312 32.007812 30.140625 Z M 36.671875 24.25 C 36.683594 24.25 36.691406 24.25 36.703125 24.25 C 36.703125 24.066406 36.707031 23.878906 36.703125 23.695312 C 36.691406 23.347656 36.605469 23.015625 36.421875 22.722656 C 35.902344 21.882812 35.148438 21.503906 34.15625 21.542969 C 32.914062 21.59375 31.878906 22.683594 31.757812 23.695312 C 31.6875 24.257812 31.695312 24.828125 31.679688 25.394531 C 31.671875 25.769531 31.792969 25.882812 32.175781 25.871094 C 32.996094 25.851562 33.820312 25.820312 34.644531 25.792969 C 35.125 25.773438 35.605469 25.75 36.085938 25.730469 C 36.527344 25.714844 36.660156 25.589844 36.671875 25.15625 C 36.679688 24.855469 36.671875 24.550781 36.671875 24.25 Z M 29.578125 34.617188 C 29.867188 34.339844 30.191406 34.027344 30.511719 33.707031 C 30.859375 33.359375 30.84375 33.132812 30.464844 32.820312 C 30.433594 32.792969 30.398438 32.769531 30.367188 32.746094 C 30.175781 32.613281 30.003906 32.617188 29.824219 32.765625 C 29.726562 32.847656 29.640625 32.941406 29.550781 33.03125 C 29.265625 33.308594 28.984375 33.589844 28.683594 33.886719 C 28.542969 33.726562 28.40625 33.570312 28.261719 33.40625 C 28.265625 33.402344 28.292969 33.371094 28.320312 33.34375 C 28.8125 32.84375 29.308594 32.347656 29.796875 31.84375 C 30.046875 31.585938 30.042969 31.398438 29.796875 31.140625 C 29.742188 31.082031 29.679688 31.027344 29.613281 30.976562 C 29.371094 30.800781 29.210938 30.800781 28.996094 31.011719 C 28.3125 31.691406 27.628906 32.367188 26.960938 33.0625 C 26.585938 33.449219 26.601562 33.597656 26.992188 33.96875 C 27.707031 34.648438 28.421875 35.324219 29.140625 36.003906 C 29.328125 36.179688 29.519531 36.363281 29.71875 36.527344 C 29.890625 36.667969 30.046875 36.667969 30.230469 36.542969 C 30.300781 36.496094 30.367188 36.433594 30.425781 36.371094 C 31.078125 35.71875 31.730469 35.066406 32.378906 34.410156 C 32.453125 34.339844 32.535156 34.261719 32.574219 34.167969 C 32.609375 34.082031 32.628906 33.960938 32.597656 33.875 C 32.402344 33.34375 31.914062 33.238281 31.519531 33.632812 C 31.484375 33.667969 31.445312 33.707031 31.410156 33.742188 C 30.949219 34.199219 30.484375 34.65625 30.007812 35.125 C 29.875 34.96875 29.738281 34.808594 29.578125 34.617188 Z M 24.027344 38.578125 C 24.253906 38.832031 24.488281 39.082031 24.707031 39.347656 C 25.03125 39.738281 25.253906 39.667969 25.585938 39.382812 C 25.617188 39.359375 25.644531 39.328125 25.671875 39.300781 C 25.925781 39.042969 25.933594 38.867188 25.695312 38.59375 C 25.472656 38.339844 25.25 38.089844 25.019531 37.84375 C 24.945312 37.761719 24.925781 37.699219 24.976562 37.585938 C 25.226562 37.054688 25.171875 36.527344 24.890625 36.019531 C 24.492188 35.300781 23.636719 35.078125 22.929688 35.277344 C 22.382812 35.429688 21.851562 35.632812 21.320312 35.828125 C 20.925781 35.972656 20.859375 36.136719 20.980469 36.542969 C 21.238281 37.386719 21.496094 38.226562 21.753906 39.066406 C 21.867188 39.4375 21.976562 39.808594 22.101562 40.175781 C 22.183594 40.421875 22.277344 40.480469 22.53125 40.453125 C 22.667969 40.4375 22.804688 40.398438 22.933594 40.34375 C 23.257812 40.207031 23.328125 40.054688 23.234375 39.714844 C 23.160156 39.457031 23.082031 39.207031 23 38.9375 C 23.347656 38.816406 23.683594 38.695312 24.027344 38.578125 Z M 13.046875 4.753906 C 13.113281 4.722656 13.15625 4.699219 13.203125 4.679688 C 13.761719 4.4375 14.320312 4.195312 14.878906 3.957031 C 15.308594 3.773438 15.375 3.601562 15.183594 3.183594 C 15.171875 3.152344 15.15625 3.121094 15.140625 3.089844 C 14.988281 2.796875 14.835938 2.730469 14.53125 2.855469 C 13.6875 3.207031 12.84375 3.566406 12.003906 3.933594 C 11.652344 4.085938 11.578125 4.265625 11.726562 4.613281 C 12.207031 5.753906 12.695312 6.894531 13.1875 8.03125 C 13.359375 8.425781 13.519531 8.480469 13.914062 8.3125 C 14.355469 8.125 14.792969 7.941406 15.230469 7.753906 C 15.625 7.585938 16.019531 7.417969 16.410156 7.246094 C 16.648438 7.140625 16.734375 7.019531 16.695312 6.804688 C 16.640625 6.539062 16.570312 6.265625 16.277344 6.144531 C 16.214844 6.121094 16.128906 6.140625 16.058594 6.15625 C 15.988281 6.167969 15.925781 6.199219 15.863281 6.226562 C 15.296875 6.464844 14.730469 6.707031 14.164062 6.945312 C 14.09375 6.976562 14.011719 7.03125 13.964844 6.910156 C 13.898438 6.75 13.832031 6.589844 13.757812 6.421875 C 13.867188 6.371094 13.960938 6.324219 14.054688 6.285156 C 14.402344 6.132812 14.75 5.988281 15.089844 5.824219 C 15.179688 5.78125 15.289062 5.671875 15.304688 5.578125 C 15.363281 5.285156 15.234375 5.03125 15.03125 4.828125 C 14.867188 4.664062 14.675781 4.761719 14.496094 4.835938 C 14.101562 5.003906 13.710938 5.171875 13.300781 5.347656 C 13.214844 5.144531 13.132812 4.953125 13.046875 4.753906 Z M 7.425781 13.183594 C 7.554688 12.90625 7.683594 12.648438 7.804688 12.386719 C 7.84375 12.292969 7.894531 12.257812 8 12.265625 C 8.351562 12.289062 8.703125 12.3125 9.058594 12.328125 C 9.304688 12.335938 9.460938 12.214844 9.5 11.976562 C 9.527344 11.824219 9.527344 11.660156 9.511719 11.507812 C 9.488281 11.308594 9.382812 11.203125 9.183594 11.1875 C 8.796875 11.152344 8.40625 11.132812 8.019531 11.117188 C 7.914062 11.113281 7.859375 11.074219 7.8125 10.976562 C 7.515625 10.3125 6.96875 9.972656 6.265625 9.945312 C 5.5625 9.917969 5.03125 10.269531 4.691406 10.878906 C 4.457031 11.304688 4.253906 11.75 4.039062 12.1875 C 3.851562 12.574219 3.910156 12.746094 4.300781 12.9375 C 4.984375 13.277344 5.675781 13.617188 6.359375 13.953125 C 6.777344 14.160156 7.191406 14.371094 7.613281 14.566406 C 7.980469 14.734375 8.132812 14.671875 8.320312 14.308594 C 8.335938 14.277344 8.351562 14.246094 8.367188 14.210938 C 8.515625 13.851562 8.460938 13.703125 8.113281 13.527344 C 7.886719 13.414062 7.660156 13.300781 7.425781 13.183594 Z M 10.003906 10.558594 C 11.046875 10.558594 11.875 9.925781 12.097656 9.0625 C 12.292969 8.300781 12.085938 7.621094 11.621094 7.003906 C 11.4375 6.761719 11.234375 6.527344 11.042969 6.292969 C 10.785156 5.976562 10.53125 5.660156 10.269531 5.351562 C 10.074219 5.121094 9.90625 5.101562 9.660156 5.257812 C 9.597656 5.296875 9.535156 5.34375 9.480469 5.394531 C 9.175781 5.664062 9.164062 5.832031 9.421875 6.148438 C 9.761719 6.5625 10.105469 6.980469 10.445312 7.398438 C 10.648438 7.648438 10.871094 7.886719 10.964844 8.210938 C 11.085938 8.625 10.996094 8.953125 10.683594 9.191406 C 10.339844 9.460938 10.011719 9.488281 9.640625 9.25 C 9.476562 9.144531 9.324219 9.011719 9.199219 8.863281 C 8.773438 8.363281 8.367188 7.851562 7.949219 7.347656 C 7.6875 7.027344 7.511719 7.011719 7.183594 7.265625 C 7.140625 7.300781 7.09375 7.335938 7.050781 7.375 C 6.816406 7.597656 6.800781 7.773438 7.003906 8.027344 C 7.441406 8.570312 7.875 9.109375 8.320312 9.644531 C 8.800781 10.210938 9.410156 10.53125 10.003906 10.558594 Z M 17.574219 37.289062 C 17.625 37.285156 17.65625 37.277344 17.691406 37.277344 C 18.3125 37.257812 18.933594 37.21875 19.550781 37.222656 C 20.1875 37.226562 20.269531 37.019531 20.261719 36.488281 C 20.253906 36.136719 20.140625 36.023438 19.78125 36.03125 C 19.027344 36.042969 18.273438 36.058594 17.519531 36.074219 C 17.324219 36.078125 17.125 36.089844 16.929688 36.101562 C 16.566406 36.125 16.417969 36.269531 16.390625 36.628906 C 16.375 36.84375 16.367188 37.054688 16.359375 37.269531 C 16.335938 37.859375 16.3125 38.449219 16.289062 39.039062 C 16.273438 39.566406 16.253906 40.09375 16.246094 40.621094 C 16.246094 40.859375 16.355469 40.980469 16.585938 41.003906 C 16.738281 41.019531 16.890625 41.015625 17.039062 40.996094 C 17.296875 40.964844 17.421875 40.8125 17.433594 40.546875 C 17.449219 40.183594 17.460938 39.820312 17.476562 39.457031 C 17.480469 39.359375 17.492188 39.261719 17.503906 39.15625 C 17.609375 39.148438 17.703125 39.136719 17.792969 39.132812 C 18.199219 39.121094 18.605469 39.109375 19.011719 39.09375 C 19.222656 39.085938 19.363281 38.988281 19.398438 38.789062 C 19.433594 38.609375 19.445312 38.417969 19.425781 38.238281 C 19.398438 38.003906 19.285156 37.921875 19.050781 37.914062 C 18.875 37.910156 18.703125 37.917969 18.527344 37.917969 C 18.207031 37.917969 17.882812 37.917969 17.539062 37.917969 C 17.550781 37.714844 17.5625 37.503906 17.574219 37.289062 Z M 4.007812 15.984375 C 4.011719 15.902344 4.011719 15.851562 4.019531 15.800781 C 4.070312 15.429688 4.125 15.054688 4.171875 14.683594 C 4.191406 14.527344 4.1875 14.367188 4.011719 14.28125 C 3.574219 14.058594 3.28125 14.214844 3.214844 14.691406 C 3.101562 15.511719 2.984375 16.328125 2.875 17.148438 C 2.820312 17.542969 2.765625 17.9375 2.730469 18.335938 C 2.71875 18.429688 2.742188 18.566406 2.804688 18.621094 C 2.980469 18.777344 3.207031 18.792969 3.429688 18.746094 C 3.617188 18.707031 3.644531 18.539062 3.667969 18.378906 C 3.679688 18.304688 3.691406 18.230469 3.699219 18.15625 C 3.75 17.808594 3.796875 17.460938 3.84375 17.109375 C 4.917969 17.253906 5.964844 17.394531 7.015625 17.542969 C 7.542969 17.621094 7.730469 17.472656 7.746094 16.933594 C 7.746094 16.917969 7.746094 16.902344 7.746094 16.882812 C 7.746094 16.617188 7.644531 16.484375 7.378906 16.445312 C 6.667969 16.34375 5.953125 16.253906 5.242188 16.15625 C 4.835938 16.101562 4.433594 16.042969 4.007812 15.984375 Z M 25.726562 33.972656 C 25.433594 34.03125 25.179688 34.164062 25 34.402344 C 24.957031 34.457031 24.941406 34.558594 24.953125 34.628906 C 24.976562 34.742188 25.023438 34.851562 25.082031 34.949219 C 25.695312 35.992188 26.308594 37.035156 26.929688 38.078125 C 27.148438 38.445312 27.332031 38.488281 27.703125 38.273438 C 27.742188 38.253906 27.78125 38.226562 27.820312 38.203125 C 28.164062 37.96875 28.203125 37.804688 27.992188 37.449219 C 27.617188 36.8125 27.246094 36.179688 26.871094 35.546875 C 26.601562 35.09375 26.332031 34.640625 26.058594 34.1875 C 25.984375 34.066406 25.894531 33.960938 25.726562 33.972656 Z M 25.726562 33.972656 " fill-opacity="1" fill-rule="evenodd"/></g><path fill="#dec2ba" d="M 35.492188 24.570312 C 34.613281 24.605469 33.773438 24.636719 32.933594 24.664062 C 32.804688 23.78125 33.0625 22.992188 33.984375 22.757812 C 34.792969 22.550781 35.496094 23.121094 35.492188 23.953125 C 35.488281 24.15625 35.492188 24.355469 35.492188 24.570312 Z M 35.492188 24.570312 " fill-opacity="1" fill-rule="evenodd"/><path fill="#dec2ba" d="M 22.65625 37.824219 C 22.539062 37.4375 22.429688 37.082031 22.316406 36.714844 C 22.597656 36.613281 22.871094 36.511719 23.144531 36.425781 C 23.46875 36.324219 23.765625 36.453125 23.871094 36.722656 C 23.996094 37.03125 23.878906 37.351562 23.5625 37.492188 C 23.277344 37.617188 22.976562 37.707031 22.65625 37.824219 Z M 22.65625 37.824219 " fill-opacity="1" fill-rule="evenodd"/><path fill="#dec2ba" d="M 6.375 12.671875 C 6.046875 12.507812 5.738281 12.359375 5.4375 12.203125 C 5.40625 12.183594 5.378906 12.101562 5.394531 12.066406 C 5.503906 11.832031 5.609375 11.59375 5.746094 11.371094 C 5.910156 11.09375 6.226562 11.023438 6.5 11.171875 C 6.777344 11.320312 6.882812 11.621094 6.746094 11.914062 C 6.636719 12.164062 6.507812 12.402344 6.375 12.671875 Z M 6.375 12.671875 " fill-opacity="1" fill-rule="evenodd"/><g clip-path="url(#17720bf826)"><path fill="#000000" d="M 0.636719 21.59375 C 0.636719 20.292969 0.621094 18.992188 0.644531 17.695312 C 0.652344 17.21875 0.726562 16.742188 0.808594 16.273438 C 0.945312 15.53125 1.082031 14.785156 1.269531 14.054688 C 1.652344 12.570312 2.246094 11.171875 2.980469 9.832031 C 3.417969 9.035156 3.890625 8.265625 4.460938 7.558594 C 4.855469 7.0625 5.265625 6.578125 5.691406 6.105469 C 6.542969 5.144531 7.535156 4.332031 8.570312 3.585938 C 9.105469 3.195312 9.675781 2.855469 10.25 2.527344 C 11.417969 1.863281 12.648438 1.332031 13.929688 0.9375 C 14.792969 0.667969 15.667969 0.460938 16.5625 0.324219 C 17.992188 0.101562 19.425781 0.0742188 20.863281 0.15625 C 22.160156 0.230469 23.4375 0.453125 24.671875 0.851562 C 25.546875 1.136719 26.414062 1.460938 27.257812 1.820312 C 27.882812 2.089844 28.472656 2.441406 29.074219 2.769531 C 29.953125 3.246094 30.746094 3.851562 31.507812 4.5 C 31.992188 4.910156 32.476562 5.328125 32.921875 5.78125 C 33.660156 6.527344 34.324219 7.335938 34.921875 8.195312 C 36.003906 9.761719 36.84375 11.449219 37.40625 13.269531 C 37.644531 14.050781 37.839844 14.851562 38.011719 15.65625 C 38.117188 16.140625 38.15625 16.644531 38.199219 17.144531 C 38.417969 19.679688 38.289062 22.21875 38.285156 24.757812 C 38.28125 25.609375 38.152344 26.46875 38.027344 27.316406 C 37.820312 28.726562 37.398438 30.078125 36.855469 31.394531 C 36.433594 32.429688 35.90625 33.410156 35.3125 34.359375 C 34.78125 35.207031 34.152344 35.980469 33.5 36.738281 C 32.664062 37.703125 31.703125 38.523438 30.695312 39.292969 C 29.1875 40.445312 27.523438 41.296875 25.746094 41.945312 C 24.675781 42.335938 23.578125 42.613281 22.457031 42.8125 C 21.707031 42.945312 20.941406 42.992188 20.175781 42.988281 C 19.304688 42.988281 18.433594 43 17.566406 42.945312 C 16.929688 42.902344 16.296875 42.785156 15.667969 42.65625 C 13.820312 42.28125 12.078125 41.613281 10.417969 40.722656 C 9.335938 40.140625 8.332031 39.441406 7.398438 38.648438 C 6.917969 38.238281 6.429688 37.832031 6 37.375 C 5.425781 36.757812 4.886719 36.105469 4.355469 35.449219 C 3.628906 34.546875 3.078125 33.53125 2.558594 32.5 C 1.753906 30.90625 1.226562 29.222656 0.890625 27.476562 C 0.78125 26.910156 0.699219 26.335938 0.679688 25.761719 C 0.628906 24.453125 0.625 23.144531 0.601562 21.835938 C 0.601562 21.753906 0.601562 21.671875 0.601562 21.589844 C 0.613281 21.59375 0.625 21.59375 0.636719 21.59375 Z M 38.0625 21.574219 C 38.070312 21.574219 38.082031 21.574219 38.089844 21.574219 C 38.058594 20.398438 38.058594 19.222656 37.992188 18.046875 C 37.945312 17.21875 37.847656 16.382812 37.703125 15.566406 C 37.335938 13.484375 36.605469 11.535156 35.554688 9.699219 C 34.128906 7.210938 32.21875 5.175781 29.847656 3.5625 C 28.226562 2.460938 26.46875 1.652344 24.585938 1.105469 C 23.046875 0.65625 21.46875 0.425781 19.871094 0.375 C 19.09375 0.347656 18.308594 0.421875 17.527344 0.492188 C 15.988281 0.628906 14.496094 0.992188 13.046875 1.523438 C 10.210938 2.570312 7.777344 4.210938 5.734375 6.433594 C 4.410156 7.878906 3.363281 9.503906 2.542969 11.28125 C 1.464844 13.613281 0.929688 16.085938 0.867188 18.632812 C 0.8125 20.890625 0.742188 23.15625 0.9375 25.414062 C 1 26.132812 1.070312 26.855469 1.199219 27.566406 C 1.660156 30.128906 2.636719 32.488281 4.097656 34.640625 C 5.398438 36.566406 7.015625 38.179688 8.929688 39.496094 C 10.867188 40.832031 12.988281 41.757812 15.277344 42.289062 C 17.164062 42.726562 19.074219 42.84375 21 42.695312 C 22.589844 42.570312 24.128906 42.230469 25.632812 41.707031 C 27.878906 40.917969 29.890625 39.734375 31.683594 38.175781 C 32.90625 37.113281 33.96875 35.90625 34.871094 34.558594 C 35.941406 32.953125 36.75 31.226562 37.289062 29.375 C 37.804688 27.59375 38.023438 25.769531 38.058594 23.921875 C 38.074219 23.140625 38.0625 22.355469 38.0625 21.574219 Z M 38.0625 21.574219 " fill-opacity="1" fill-rule="evenodd"/></g><path fill="#000000" d="M 8.472656 22.664062 C 8.472656 22.574219 8.472656 22.507812 8.472656 22.4375 C 8.472656 21.382812 8.488281 20.328125 8.46875 19.269531 C 8.457031 18.542969 8.550781 17.828125 8.707031 17.121094 C 8.835938 16.554688 8.976562 15.984375 9.183594 15.445312 C 9.410156 14.867188 9.699219 14.308594 10.003906 13.765625 C 10.238281 13.339844 10.519531 12.933594 10.816406 12.542969 C 11.070312 12.210938 11.367188 11.910156 11.660156 11.609375 C 11.917969 11.34375 12.1875 11.089844 12.464844 10.851562 C 12.722656 10.628906 12.992188 10.414062 13.277344 10.230469 C 13.753906 9.925781 14.230469 9.613281 14.738281 9.367188 C 15.246094 9.125 15.78125 8.925781 16.320312 8.761719 C 16.898438 8.585938 17.496094 8.460938 18.089844 8.34375 C 18.40625 8.28125 18.734375 8.269531 19.054688 8.269531 C 19.675781 8.265625 20.300781 8.253906 20.917969 8.304688 C 21.417969 8.347656 21.910156 8.46875 22.402344 8.578125 C 23.160156 8.75 23.878906 9.042969 24.582031 9.363281 C 25.003906 9.558594 25.425781 9.78125 25.789062 10.0625 C 26.039062 10.257812 26.164062 10.195312 26.371094 10.046875 C 27.167969 9.457031 28.082031 9.335938 29.039062 9.425781 C 29.644531 9.484375 30.226562 9.632812 30.738281 9.980469 C 31.414062 10.4375 31.835938 11.085938 32.132812 11.828125 C 32.402344 12.496094 32.503906 13.199219 32.527344 13.914062 C 32.539062 14.390625 32.558594 14.867188 32.609375 15.335938 C 32.6875 16.019531 33.066406 16.566406 33.492188 17.082031 C 33.855469 17.523438 34.15625 18 34.304688 18.5625 C 34.597656 19.699219 34.191406 20.460938 33.085938 20.855469 C 32.414062 21.097656 31.730469 21.078125 31.042969 20.949219 C 31.003906 20.941406 30.964844 20.933594 30.925781 20.925781 C 30.90625 20.921875 30.890625 20.929688 30.847656 20.929688 C 30.847656 20.992188 30.847656 21.054688 30.847656 21.113281 C 30.847656 21.746094 30.871094 22.378906 30.835938 23.011719 C 30.800781 23.625 30.730469 24.242188 30.625 24.851562 C 30.542969 25.332031 30.410156 25.808594 30.238281 26.265625 C 30.023438 26.851562 29.757812 27.421875 29.492188 27.992188 C 29.332031 28.335938 29.152344 28.675781 28.949219 28.996094 C 28.769531 29.289062 28.550781 29.558594 28.347656 29.835938 C 27.90625 30.449219 27.402344 31.011719 26.835938 31.503906 C 26.277344 31.996094 25.695312 32.464844 25.078125 32.878906 C 24.316406 33.390625 23.492188 33.792969 22.621094 34.109375 C 21.757812 34.425781 20.875 34.652344 19.960938 34.792969 C 18.96875 34.945312 17.976562 34.921875 16.980469 34.886719 C 16.199219 34.863281 15.4375 34.714844 14.6875 34.519531 C 13.953125 34.328125 13.234375 34.070312 12.542969 33.746094 C 11.949219 33.464844 11.371094 33.160156 10.835938 32.789062 C 10.332031 32.4375 9.855469 32.039062 9.378906 31.648438 C 8.796875 31.175781 8.3125 30.605469 7.835938 30.03125 C 7.617188 29.769531 7.445312 29.464844 7.246094 29.183594 C 6.824219 28.59375 6.507812 27.945312 6.214844 27.289062 C 5.921875 26.632812 5.722656 25.953125 5.535156 25.261719 C 5.351562 24.585938 5.316406 23.898438 5.214844 23.214844 C 5.207031 23.140625 5.207031 23.066406 5.207031 22.988281 C 5.207031 22.765625 5.308594 22.664062 5.535156 22.664062 C 6.441406 22.664062 7.347656 22.664062 8.253906 22.664062 C 8.320312 22.664062 8.382812 22.664062 8.472656 22.664062 Z M 9.324219 31.21875 C 14.40625 36.207031 23.117188 35.6875 27.566406 30.335938 C 27.53125 30.308594 27.496094 30.277344 27.460938 30.253906 C 27.125 30.03125 26.785156 29.816406 26.453125 29.597656 C 26.222656 29.441406 25.988281 29.285156 25.765625 29.121094 C 25.621094 29.011719 25.632812 28.917969 25.773438 28.824219 C 26.351562 28.441406 26.925781 28.058594 27.5 27.675781 C 27.550781 27.644531 27.597656 27.601562 27.667969 27.546875 C 27.484375 27.457031 27.316406 27.382812 27.164062 27.296875 C 26.816406 27.101562 26.46875 26.898438 26.125 26.691406 C 26.046875 26.644531 25.929688 26.585938 26.066406 26.453125 C 26.476562 26.058594 26.882812 25.664062 27.277344 25.253906 C 27.464844 25.0625 27.625 24.84375 27.800781 24.640625 C 27.792969 24.621094 27.789062 24.605469 27.78125 24.589844 C 27.390625 24.589844 27 24.585938 26.605469 24.589844 C 26.214844 24.589844 25.820312 24.625 25.429688 24.550781 C 25.449219 24.519531 25.46875 24.503906 25.488281 24.503906 C 26.308594 24.492188 27.125 24.480469 27.945312 24.472656 C 28.058594 24.472656 28.070312 24.539062 28.015625 24.621094 C 27.976562 24.671875 27.929688 24.71875 27.890625 24.769531 C 27.757812 24.929688 27.625 25.09375 27.476562 25.273438 C 27.660156 25.273438 27.8125 25.265625 27.960938 25.277344 C 28.035156 25.28125 28.105469 25.324219 28.175781 25.347656 C 28.144531 25.417969 28.125 25.5 28.074219 25.546875 C 27.625 25.949219 27.167969 26.34375 26.714844 26.742188 C 26.691406 26.761719 26.671875 26.789062 26.632812 26.835938 C 27.007812 27.023438 27.363281 27.203125 27.71875 27.382812 C 27.914062 27.480469 27.929688 27.585938 27.761719 27.734375 C 27.6875 27.800781 27.601562 27.859375 27.503906 27.9375 C 27.625 28 27.722656 28.042969 27.816406 28.097656 C 27.953125 28.175781 27.949219 28.257812 27.824219 28.34375 C 27.652344 28.457031 27.480469 28.566406 27.316406 28.683594 C 27.058594 28.875 26.804688 29.074219 26.527344 29.289062 C 26.960938 29.570312 27.363281 29.835938 27.785156 30.109375 C 27.828125 30.054688 27.898438 29.984375 27.953125 29.90625 C 28.292969 29.402344 28.664062 28.914062 28.96875 28.390625 C 30.113281 26.421875 30.617188 24.285156 30.605469 22.015625 C 30.605469 21.890625 30.539062 21.855469 30.441406 21.839844 C 30.285156 21.8125 30.121094 21.808594 29.96875 21.765625 C 29.304688 21.570312 28.675781 21.292969 28.171875 20.8125 C 27.75 20.410156 27.417969 19.925781 27.222656 19.371094 C 26.957031 18.625 26.726562 17.863281 26.488281 17.105469 C 26.222656 16.257812 26.109375 15.375 26.007812 14.496094 C 25.914062 13.65625 25.707031 12.859375 25.308594 12.113281 C 25.253906 12.007812 25.1875 11.914062 25.109375 11.789062 C 24.839844 12.285156 24.660156 12.761719 24.6875 13.308594 C 24.632812 13.261719 24.574219 13.207031 24.574219 13.152344 C 24.570312 12.933594 24.546875 12.707031 24.597656 12.5 C 24.769531 11.808594 25.160156 11.238281 25.625 10.707031 C 25.699219 10.621094 25.777344 10.539062 25.867188 10.441406 C 25.769531 10.375 25.691406 10.316406 25.609375 10.265625 C 23.1875 8.730469 20.558594 8.183594 17.730469 8.679688 C 12.53125 9.589844 8.71875 14.136719 8.71875 19.402344 C 8.71875 20.503906 8.71875 21.605469 8.71875 22.710938 C 8.71875 22.769531 8.71875 22.832031 8.71875 22.910156 C 8.453125 22.910156 8.203125 22.90625 7.953125 22.914062 C 7.898438 22.914062 7.820312 22.949219 7.785156 22.992188 C 7.191406 23.820312 6.601562 24.65625 6.003906 25.484375 C 5.9375 25.578125 5.917969 25.65625 5.953125 25.769531 C 6.515625 27.652344 7.472656 29.304688 8.816406 30.746094 C 9.011719 30.957031 9.175781 30.980469 9.425781 30.902344 C 10.921875 30.429688 12.386719 29.871094 13.8125 29.21875 C 14.511719 28.902344 15.257812 28.636719 15.753906 27.992188 C 15.867188 28.101562 15.882812 28.25 15.753906 28.382812 C 15.617188 28.519531 15.46875 28.664062 15.296875 28.75 C 14.621094 29.097656 13.941406 29.433594 13.253906 29.757812 C 13.082031 29.835938 12.9375 29.890625 12.996094 30.121094 C 13.011719 30.183594 12.988281 30.257812 12.976562 30.328125 C 12.953125 30.5 12.898438 30.667969 12.722656 30.734375 C 12.53125 30.800781 12.382812 30.691406 12.265625 30.554688 C 12.183594 30.460938 12.117188 30.351562 12.050781 30.261719 C 11.128906 30.585938 10.222656 30.902344 9.324219 31.21875 Z M 28.492188 9.644531 C 27.304688 9.605469 26.371094 10.128906 25.625 11.046875 C 25.5625 11.121094 25.5625 11.171875 25.601562 11.257812 C 25.6875 11.449219 25.789062 11.636719 25.828125 11.839844 C 25.980469 12.667969 26.105469 13.503906 26.25 14.335938 C 26.394531 15.183594 26.511719 16.039062 26.710938 16.875 C 26.980469 18.007812 27.636719 18.914062 28.5625 19.617188 C 29.316406 20.191406 30.195312 20.484375 31.105469 20.683594 C 31.796875 20.835938 32.476562 20.828125 33.136719 20.542969 C 33.625 20.335938 34.027344 20.035156 34.109375 19.460938 C 34.164062 19.085938 34.085938 18.722656 33.960938 18.371094 C 33.78125 17.871094 33.453125 17.460938 33.125 17.058594 C 32.699219 16.53125 32.390625 15.953125 32.324219 15.273438 C 32.273438 14.757812 32.261719 14.234375 32.25 13.714844 C 32.234375 13.027344 32.097656 12.371094 31.820312 11.742188 C 31.511719 11.042969 31.085938 10.4375 30.398438 10.0625 C 29.8125 9.746094 29.175781 9.636719 28.492188 9.644531 Z M 12.246094 30.171875 C 12.34375 30.285156 12.425781 30.386719 12.519531 30.476562 C 12.605469 30.558594 12.6875 30.527344 12.714844 30.421875 C 12.746094 30.28125 12.757812 30.132812 12.78125 29.957031 C 12.585938 30.035156 12.429688 30.097656 12.246094 30.171875 Z M 12.246094 30.171875 " fill-opacity="1" fill-rule="evenodd"/><path fill="#000000" d="M 32.007812 30.140625 C 32.421875 30.320312 32.792969 30.476562 33.164062 30.636719 C 33.476562 30.769531 33.792969 30.902344 34.105469 31.042969 C 34.382812 31.171875 34.4375 31.3125 34.339844 31.601562 C 34.328125 31.628906 34.320312 31.65625 34.308594 31.683594 C 34.089844 32.195312 33.90625 32.269531 33.390625 32.046875 C 32.308594 31.585938 31.226562 31.125 30.144531 30.664062 C 29.613281 30.4375 29.554688 30.269531 29.835938 29.765625 C 29.960938 29.542969 30.144531 29.4375 30.386719 29.382812 C 31.371094 29.15625 32.359375 28.921875 33.34375 28.691406 C 33.390625 28.679688 33.429688 28.664062 33.5 28.640625 C 32.820312 28.351562 32.164062 28.070312 31.507812 27.789062 C 31.042969 27.59375 30.980469 27.425781 31.21875 26.976562 C 31.429688 26.578125 31.589844 26.515625 32.007812 26.695312 C 33.171875 27.1875 34.332031 27.683594 35.496094 28.179688 C 35.792969 28.304688 35.859375 28.476562 35.746094 28.777344 C 35.617188 29.109375 35.433594 29.328125 35.042969 29.410156 C 34.078125 29.609375 33.125 29.859375 32.167969 30.089844 C 32.128906 30.101562 32.09375 30.113281 32.007812 30.140625 Z M 32.007812 30.140625 " fill-opacity="1" fill-rule="evenodd"/><path fill="#000000" d="M 36.671875 24.25 C 36.671875 24.550781 36.679688 24.855469 36.671875 25.15625 C 36.660156 25.589844 36.527344 25.714844 36.085938 25.730469 C 35.605469 25.75 35.125 25.773438 34.644531 25.792969 C 33.820312 25.820312 32.996094 25.851562 32.175781 25.871094 C 31.792969 25.882812 31.671875 25.769531 31.679688 25.394531 C 31.695312 24.828125 31.6875 24.257812 31.753906 23.695312 C 31.878906 22.683594 32.914062 21.59375 34.15625 21.542969 C 35.148438 21.503906 35.902344 21.882812 36.421875 22.722656 C 36.605469 23.015625 36.691406 23.347656 36.703125 23.695312 C 36.707031 23.878906 36.703125 24.066406 36.703125 24.25 C 36.695312 24.25 36.683594 24.25 36.671875 24.25 Z M 35.492188 24.570312 C 35.492188 24.355469 35.488281 24.15625 35.492188 23.953125 C 35.496094 23.121094 34.792969 22.550781 33.984375 22.757812 C 33.0625 22.992188 32.804688 23.78125 32.933594 24.664062 C 33.773438 24.636719 34.613281 24.605469 35.492188 24.570312 Z M 35.492188 24.570312 " fill-opacity="1" fill-rule="evenodd"/><path fill="#000000" d="M 29.578125 34.617188 C 29.738281 34.808594 29.875 34.96875 30.007812 35.125 C 30.484375 34.65625 30.949219 34.199219 31.410156 33.742188 C 31.445312 33.707031 31.484375 33.667969 31.519531 33.632812 C 31.914062 33.238281 32.402344 33.339844 32.597656 33.875 C 32.628906 33.957031 32.609375 34.082031 32.574219 34.167969 C 32.535156 34.261719 32.453125 34.339844 32.378906 34.410156 C 31.730469 35.066406 31.078125 35.71875 30.425781 36.371094 C 30.367188 36.433594 30.300781 36.492188 30.230469 36.542969 C 30.046875 36.667969 29.890625 36.667969 29.71875 36.527344 C 29.519531 36.363281 29.328125 36.179688 29.140625 36.003906 C 28.421875 35.324219 27.707031 34.648438 26.992188 33.96875 C 26.601562 33.597656 26.585938 33.449219 26.960938 33.0625 C 27.628906 32.367188 28.3125 31.691406 28.996094 31.011719 C 29.210938 30.800781 29.371094 30.800781 29.617188 30.976562 C 29.679688 31.023438 29.742188 31.082031 29.796875 31.136719 C 30.046875 31.398438 30.046875 31.585938 29.796875 31.84375 C 29.308594 32.347656 28.8125 32.84375 28.320312 33.34375 C 28.292969 33.371094 28.265625 33.402344 28.261719 33.40625 C 28.40625 33.570312 28.542969 33.726562 28.683594 33.886719 C 28.984375 33.589844 29.265625 33.308594 29.550781 33.03125 C 29.640625 32.941406 29.726562 32.847656 29.824219 32.765625 C 30.003906 32.617188 30.175781 32.613281 30.367188 32.746094 C 30.398438 32.769531 30.433594 32.792969 30.464844 32.820312 C 30.84375 33.132812 30.859375 33.359375 30.511719 33.707031 C 30.191406 34.027344 29.867188 34.339844 29.578125 34.617188 Z M 29.578125 34.617188 " fill-opacity="1" fill-rule="evenodd"/><path fill="#000000" d="M 24.027344 38.578125 C 23.683594 38.695312 23.347656 38.816406 23 38.9375 C 23.082031 39.207031 23.160156 39.457031 23.234375 39.714844 C 23.328125 40.054688 23.257812 40.207031 22.933594 40.34375 C 22.804688 40.398438 22.667969 40.4375 22.53125 40.453125 C 22.277344 40.480469 22.183594 40.421875 22.101562 40.175781 C 21.976562 39.808594 21.867188 39.4375 21.753906 39.066406 C 21.496094 38.226562 21.238281 37.386719 20.980469 36.542969 C 20.859375 36.136719 20.925781 35.972656 21.320312 35.828125 C 21.851562 35.632812 22.382812 35.429688 22.929688 35.277344 C 23.636719 35.078125 24.492188 35.300781 24.890625 36.019531 C 25.171875 36.527344 25.226562 37.054688 24.976562 37.589844 C 24.925781 37.699219 24.945312 37.761719 25.019531 37.84375 C 25.25 38.089844 25.472656 38.339844 25.695312 38.59375 C 25.933594 38.867188 25.925781 39.042969 25.671875 39.300781 C 25.644531 39.328125 25.617188 39.359375 25.585938 39.382812 C 25.253906 39.667969 25.03125 39.738281 24.707031 39.347656 C 24.488281 39.082031 24.253906 38.832031 24.027344 38.578125 Z M 22.65625 37.824219 C 22.976562 37.707031 23.277344 37.617188 23.5625 37.492188 C 23.878906 37.351562 23.996094 37.03125 23.871094 36.722656 C 23.765625 36.453125 23.464844 36.324219 23.144531 36.425781 C 22.871094 36.511719 22.597656 36.613281 22.316406 36.714844 C 22.429688 37.082031 22.539062 37.4375 22.65625 37.824219 Z M 22.65625 37.824219 " fill-opacity="1" fill-rule="evenodd"/><path fill="#000000" d="M 13.046875 4.753906 C 13.132812 4.953125 13.214844 5.144531 13.300781 5.347656 C 13.710938 5.171875 14.101562 5.003906 14.496094 4.835938 C 14.675781 4.761719 14.867188 4.664062 15.03125 4.828125 C 15.234375 5.03125 15.363281 5.285156 15.304688 5.578125 C 15.289062 5.675781 15.179688 5.78125 15.089844 5.824219 C 14.75 5.988281 14.398438 6.132812 14.054688 6.285156 C 13.960938 6.324219 13.867188 6.371094 13.757812 6.421875 C 13.832031 6.589844 13.898438 6.75 13.964844 6.910156 C 14.011719 7.03125 14.09375 6.976562 14.164062 6.945312 C 14.730469 6.707031 15.296875 6.464844 15.863281 6.226562 C 15.925781 6.199219 15.988281 6.167969 16.058594 6.15625 C 16.128906 6.140625 16.214844 6.121094 16.277344 6.144531 C 16.570312 6.265625 16.640625 6.539062 16.691406 6.804688 C 16.734375 7.019531 16.648438 7.140625 16.410156 7.246094 C 16.019531 7.417969 15.625 7.585938 15.230469 7.753906 C 14.792969 7.941406 14.351562 8.125 13.914062 8.3125 C 13.519531 8.480469 13.359375 8.425781 13.1875 8.03125 C 12.695312 6.894531 12.207031 5.753906 11.726562 4.613281 C 11.578125 4.265625 11.652344 4.085938 12.003906 3.933594 C 12.839844 3.566406 13.683594 3.207031 14.53125 2.855469 C 14.835938 2.730469 14.988281 2.796875 15.140625 3.089844 C 15.15625 3.121094 15.171875 3.152344 15.183594 3.183594 C 15.375 3.601562 15.308594 3.773438 14.878906 3.957031 C 14.320312 4.195312 13.761719 4.4375 13.203125 4.679688 C 13.15625 4.699219 13.113281 4.722656 13.046875 4.753906 Z M 13.046875 4.753906 " fill-opacity="1" fill-rule="evenodd"/><path fill="#000000" d="M 7.425781 13.183594 C 7.660156 13.300781 7.886719 13.414062 8.113281 13.527344 C 8.460938 13.703125 8.515625 13.851562 8.367188 14.210938 C 8.351562 14.246094 8.335938 14.277344 8.320312 14.308594 C 8.132812 14.671875 7.980469 14.734375 7.613281 14.566406 C 7.191406 14.371094 6.777344 14.160156 6.359375 13.953125 C 5.675781 13.617188 4.984375 13.277344 4.300781 12.9375 C 3.910156 12.746094 3.851562 12.574219 4.039062 12.1875 C 4.253906 11.75 4.457031 11.304688 4.691406 10.878906 C 5.03125 10.269531 5.5625 9.917969 6.265625 9.945312 C 6.96875 9.972656 7.515625 10.3125 7.8125 10.976562 C 7.859375 11.074219 7.914062 11.113281 8.019531 11.117188 C 8.40625 11.132812 8.796875 11.152344 9.183594 11.1875 C 9.382812 11.203125 9.488281 11.308594 9.511719 11.507812 C 9.527344 11.660156 9.527344 11.824219 9.5 11.976562 C 9.460938 12.214844 9.304688 12.335938 9.058594 12.328125 C 8.703125 12.3125 8.351562 12.289062 8 12.265625 C 7.894531 12.257812 7.84375 12.292969 7.804688 12.386719 C 7.683594 12.648438 7.554688 12.90625 7.425781 13.183594 Z M 6.375 12.671875 C 6.507812 12.402344 6.636719 12.164062 6.746094 11.914062 C 6.882812 11.621094 6.777344 11.320312 6.5 11.171875 C 6.226562 11.023438 5.910156 11.09375 5.746094 11.371094 C 5.609375 11.59375 5.503906 11.832031 5.394531 12.066406 C 5.378906 12.101562 5.40625 12.183594 5.4375 12.203125 C 5.738281 12.359375 6.046875 12.507812 6.375 12.671875 Z M 6.375 12.671875 " fill-opacity="1" fill-rule="evenodd"/><path fill="#000000" d="M 10.003906 10.558594 C 9.410156 10.53125 8.800781 10.210938 8.320312 9.644531 C 7.875 9.109375 7.441406 8.570312 7.003906 8.027344 C 6.800781 7.773438 6.816406 7.597656 7.050781 7.375 C 7.09375 7.335938 7.140625 7.300781 7.183594 7.265625 C 7.511719 7.011719 7.6875 7.027344 7.949219 7.347656 C 8.367188 7.851562 8.773438 8.363281 9.199219 8.863281 C 9.324219 9.011719 9.476562 9.144531 9.640625 9.25 C 10.011719 9.488281 10.339844 9.460938 10.683594 9.191406 C 10.996094 8.953125 11.085938 8.625 10.964844 8.210938 C 10.871094 7.886719 10.648438 7.648438 10.445312 7.398438 C 10.105469 6.980469 9.761719 6.5625 9.421875 6.148438 C 9.164062 5.832031 9.175781 5.664062 9.480469 5.394531 C 9.535156 5.34375 9.597656 5.296875 9.660156 5.257812 C 9.90625 5.101562 10.074219 5.121094 10.269531 5.351562 C 10.53125 5.660156 10.785156 5.976562 11.039062 6.292969 C 11.234375 6.527344 11.4375 6.761719 11.621094 7.003906 C 12.085938 7.621094 12.292969 8.300781 12.097656 9.0625 C 11.875 9.925781 11.046875 10.558594 10.003906 10.558594 Z M 10.003906 10.558594 " fill-opacity="1" fill-rule="evenodd"/><path fill="#000000" d="M 17.574219 37.289062 C 17.5625 37.503906 17.550781 37.714844 17.539062 37.917969 C 17.882812 37.917969 18.207031 37.917969 18.527344 37.917969 C 18.703125 37.917969 18.875 37.910156 19.050781 37.914062 C 19.285156 37.921875 19.398438 38.003906 19.425781 38.238281 C 19.445312 38.417969 19.433594 38.609375 19.398438 38.789062 C 19.363281 38.988281 19.222656 39.085938 19.011719 39.09375 C 18.605469 39.109375 18.199219 39.121094 17.792969 39.132812 C 17.703125 39.136719 17.609375 39.148438 17.503906 39.15625 C 17.492188 39.261719 17.480469 39.359375 17.476562 39.453125 C 17.460938 39.820312 17.449219 40.183594 17.433594 40.546875 C 17.421875 40.8125 17.296875 40.964844 17.039062 40.996094 C 16.890625 41.015625 16.738281 41.019531 16.585938 41.003906 C 16.355469 40.980469 16.246094 40.859375 16.246094 40.621094 C 16.253906 40.09375 16.273438 39.566406 16.289062 39.039062 C 16.3125 38.449219 16.335938 37.859375 16.359375 37.269531 C 16.367188 37.054688 16.375 36.84375 16.390625 36.628906 C 16.417969 36.269531 16.566406 36.125 16.929688 36.101562 C 17.125 36.089844 17.324219 36.078125 17.519531 36.074219 C 18.273438 36.058594 19.027344 36.042969 19.78125 36.03125 C 20.140625 36.023438 20.253906 36.136719 20.261719 36.488281 C 20.269531 37.019531 20.1875 37.226562 19.550781 37.222656 C 18.933594 37.21875 18.3125 37.257812 17.691406 37.277344 C 17.65625 37.277344 17.625 37.285156 17.574219 37.289062 Z M 17.574219 37.289062 " fill-opacity="1" fill-rule="evenodd"/><path fill="#000000" d="M 4.007812 15.984375 C 4.433594 16.042969 4.835938 16.101562 5.242188 16.15625 C 5.953125 16.253906 6.667969 16.34375 7.378906 16.445312 C 7.644531 16.484375 7.746094 16.617188 7.746094 16.882812 C 7.746094 16.902344 7.746094 16.917969 7.746094 16.933594 C 7.730469 17.472656 7.542969 17.621094 7.015625 17.542969 C 5.964844 17.394531 4.917969 17.253906 3.84375 17.109375 C 3.796875 17.460938 3.75 17.808594 3.699219 18.15625 C 3.691406 18.230469 3.679688 18.304688 3.667969 18.378906 C 3.644531 18.539062 3.617188 18.707031 3.429688 18.746094 C 3.207031 18.792969 2.980469 18.777344 2.804688 18.621094 C 2.742188 18.566406 2.71875 18.429688 2.730469 18.335938 C 2.765625 17.9375 2.820312 17.542969 2.875 17.148438 C 2.984375 16.328125 3.101562 15.511719 3.214844 14.691406 C 3.277344 14.214844 3.574219 14.058594 4.011719 14.28125 C 4.1875 14.367188 4.191406 14.527344 4.171875 14.683594 C 4.125 15.054688 4.070312 15.429688 4.019531 15.800781 C 4.011719 15.851562 4.011719 15.902344 4.007812 15.984375 Z M 4.007812 15.984375 " fill-opacity="1" fill-rule="evenodd"/><path fill="#000000" d="M 25.726562 33.972656 C 25.894531 33.960938 25.984375 34.066406 26.058594 34.1875 C 26.332031 34.640625 26.601562 35.09375 26.871094 35.546875 C 27.246094 36.179688 27.617188 36.8125 27.992188 37.449219 C 28.203125 37.804688 28.164062 37.96875 27.820312 38.203125 C 27.78125 38.226562 27.742188 38.253906 27.703125 38.273438 C 27.332031 38.488281 27.148438 38.445312 26.929688 38.078125 C 26.3125 37.035156 25.695312 35.992188 25.082031 34.949219 C 25.023438 34.851562 24.976562 34.742188 24.953125 34.628906 C 24.941406 34.558594 24.957031 34.457031 25 34.402344 C 25.179688 34.164062 25.433594 34.03125 25.726562 33.972656 Z M 25.726562 33.972656 " fill-opacity="1" fill-rule="evenodd"/><path fill="#000000" d="M 18.042969 24.554688 C 17.023438 24.550781 15.902344 24.472656 14.800781 24.203125 C 14.285156 24.074219 13.792969 23.894531 13.347656 23.59375 C 12.667969 23.132812 12.5 22.371094 12.972656 21.722656 C 13.164062 21.464844 13.425781 21.238281 13.691406 21.050781 C 14.210938 20.679688 14.804688 20.453125 15.414062 20.277344 C 16.902344 19.839844 18.417969 19.605469 19.976562 19.601562 C 21.171875 19.601562 22.355469 19.664062 23.519531 19.949219 C 24.113281 20.09375 24.6875 20.300781 25.167969 20.699219 C 25.320312 20.824219 25.464844 20.976562 25.578125 21.140625 C 25.933594 21.648438 25.902344 22.234375 25.515625 22.71875 C 25.171875 23.148438 24.703125 23.402344 24.207031 23.609375 C 23.328125 23.976562 22.398438 24.152344 21.460938 24.296875 C 20.363281 24.460938 19.261719 24.550781 18.042969 24.554688 Z M 20.136719 24.222656 C 20.179688 24.222656 20.257812 24.230469 20.328125 24.222656 C 20.824219 24.15625 21.320312 24.097656 21.8125 24.019531 C 22.589844 23.894531 23.363281 23.726562 24.097656 23.425781 C 24.527344 23.25 24.941406 23.039062 25.261719 22.6875 C 25.714844 22.195312 25.734375 21.636719 25.3125 21.121094 C 25.039062 20.785156 24.699219 20.539062 24.289062 20.398438 C 23.0625 19.980469 21.792969 19.839844 20.507812 19.789062 C 20.375 19.78125 20.246094 19.789062 20.136719 19.789062 C 20.136719 21.277344 20.136719 22.742188 20.136719 24.222656 Z M 20.136719 24.222656 " fill-opacity="1" fill-rule="evenodd"/><path fill="#000000" d="M 15.570312 11.910156 C 15.523438 12.183594 15.492188 12.425781 15.441406 12.660156 C 15.429688 12.714844 15.363281 12.753906 15.320312 12.800781 C 15.296875 12.738281 15.246094 12.675781 15.253906 12.617188 C 15.28125 12.382812 15.324219 12.148438 15.371094 11.917969 C 15.382812 11.851562 15.441406 11.796875 15.476562 11.738281 C 15.511719 11.800781 15.546875 11.867188 15.570312 11.910156 Z M 15.570312 11.910156 " fill-opacity="1" fill-rule="evenodd"/><path fill="#000000" d="M 16.445312 11.539062 C 16.382812 11.777344 16.335938 11.996094 16.269531 12.207031 C 16.257812 12.246094 16.1875 12.265625 16.140625 12.292969 C 16.117188 12.242188 16.066406 12.183594 16.074219 12.136719 C 16.121094 11.929688 16.179688 11.726562 16.246094 11.523438 C 16.261719 11.472656 16.320312 11.4375 16.359375 11.394531 C 16.386719 11.445312 16.417969 11.492188 16.445312 11.539062 Z M 16.445312 11.539062 " fill-opacity="1" fill-rule="evenodd"/><path fill="#000000" d="M 30.945312 18.773438 C 30.867188 18.722656 30.789062 18.675781 30.710938 18.628906 C 30.792969 18.582031 30.875 18.515625 30.960938 18.496094 C 31.160156 18.460938 31.363281 18.453125 31.5625 18.429688 C 31.574219 18.429688 31.585938 18.429688 31.597656 18.429688 C 31.695312 18.421875 31.800781 18.421875 31.816406 18.542969 C 31.832031 18.671875 31.722656 18.6875 31.628906 18.695312 C 31.410156 18.710938 31.1875 18.71875 30.96875 18.730469 C 30.960938 18.746094 30.953125 18.757812 30.945312 18.773438 Z M 30.945312 18.773438 " fill-opacity="1" fill-rule="evenodd"/><path fill="#000000" d="M 29.707031 17.886719 C 29.882812 17.847656 30.058594 17.796875 30.238281 17.773438 C 30.429688 17.746094 30.628906 17.730469 30.824219 17.734375 C 30.886719 17.734375 30.949219 17.800781 31.011719 17.835938 C 30.957031 17.871094 30.902344 17.929688 30.84375 17.933594 C 30.527344 17.964844 30.210938 17.988281 29.894531 18.003906 C 29.832031 18.007812 29.769531 17.984375 29.710938 17.972656 C 29.707031 17.945312 29.707031 17.914062 29.707031 17.886719 Z M 29.707031 17.886719 " fill-opacity="1" fill-rule="evenodd"/><path fill="#000000" d="M 30.828125 13.078125 C 30.789062 13.058594 30.71875 13.023438 30.644531 12.992188 C 30.714844 12.949219 30.777344 12.886719 30.851562 12.867188 C 30.964844 12.835938 31.085938 12.824219 31.207031 12.820312 C 31.257812 12.820312 31.308594 12.867188 31.363281 12.894531 C 31.320312 12.9375 31.28125 13.007812 31.230469 13.023438 C 31.117188 13.054688 30.992188 13.058594 30.828125 13.078125 Z M 30.828125 13.078125 " fill-opacity="1" fill-rule="evenodd"/><path fill="#000000" d="M 30.351562 12.488281 C 30.417969 12.417969 30.445312 12.375 30.480469 12.351562 C 30.601562 12.269531 30.71875 12.1875 30.847656 12.117188 C 30.882812 12.097656 30.949219 12.125 31 12.128906 C 30.988281 12.175781 30.992188 12.238281 30.960938 12.261719 C 30.800781 12.390625 30.636719 12.535156 30.351562 12.488281 Z M 30.351562 12.488281 " fill-opacity="1" fill-rule="evenodd"/><path fill="#000000" d="M 29.617188 11.285156 C 29.59375 11.222656 29.550781 11.164062 29.566406 11.128906 C 29.625 10.992188 29.699219 10.859375 29.777344 10.734375 C 29.792969 10.710938 29.863281 10.699219 29.898438 10.710938 C 29.917969 10.714844 29.945312 10.785156 29.933594 10.808594 C 29.871094 10.949219 29.796875 11.085938 29.722656 11.222656 C 29.710938 11.242188 29.675781 11.25 29.617188 11.285156 Z M 29.617188 11.285156 " fill-opacity="1" fill-rule="evenodd"/><path fill="#fefefe" d="M 12.246094 30.171875 C 12.429688 30.097656 12.585938 30.035156 12.78125 29.957031 C 12.757812 30.132812 12.746094 30.28125 12.714844 30.421875 C 12.6875 30.527344 12.605469 30.558594 12.519531 30.476562 C 12.425781 30.386719 12.34375 30.285156 12.246094 30.171875 Z M 12.246094 30.171875 " fill-opacity="1" fill-rule="evenodd"/><path fill="#fefefe" d="M 20.136719 24.222656 C 20.136719 22.742188 20.136719 21.277344 20.136719 19.789062 C 20.246094 19.789062 20.375 19.78125 20.507812 19.789062 C 21.792969 19.839844 23.0625 19.980469 24.289062 20.398438 C 24.699219 20.539062 25.039062 20.785156 25.3125 21.121094 C 25.734375 21.636719 25.714844 22.195312 25.261719 22.6875 C 24.941406 23.039062 24.527344 23.25 24.097656 23.425781 C 23.363281 23.726562 22.589844 23.894531 21.8125 24.019531 C 21.320312 24.097656 20.824219 24.15625 20.328125 24.222656 C 20.257812 24.230469 20.179688 24.222656 20.136719 24.222656 Z M 20.136719 24.222656 " fill-opacity="1" fill-rule="evenodd"/></svg>