<svg xmlns="http://www.w3.org/2000/svg" xmlns:xlink="http://www.w3.org/1999/xlink" width="53" zoomAndPan="magnify" viewBox="0 0 39.75 39.749999" height="53" preserveAspectRatio="xMidYMid meet" version="1.0"><defs><clipPath id="cb43fb4c33"><path d="M 10.808594 10.753906 L 28.808594 10.753906 L 28.808594 28.753906 L 10.808594 28.753906 Z M 10.808594 10.753906 " clip-rule="nonzero"/></clipPath><clipPath id="33f64171bc"><path d="M 0.308594 0.257812 L 39.308594 0.257812 L 39.308594 39.257812 L 0.308594 39.257812 Z M 0.308594 0.257812 " clip-rule="nonzero"/></clipPath></defs><g clip-path="url(#cb43fb4c33)"><path fill="#ffffff" d="M 28.808594 19.753906 C 28.808594 20.347656 28.75 20.929688 28.636719 21.511719 C 28.519531 22.089844 28.347656 22.652344 28.125 23.199219 C 27.898438 23.746094 27.621094 24.265625 27.292969 24.753906 C 26.964844 25.246094 26.589844 25.699219 26.171875 26.117188 C 25.753906 26.535156 25.300781 26.910156 24.808594 27.238281 C 24.316406 27.566406 23.796875 27.84375 23.253906 28.070312 C 22.707031 28.296875 22.144531 28.464844 21.5625 28.582031 C 20.984375 28.695312 20.398438 28.753906 19.808594 28.753906 C 19.21875 28.753906 18.632812 28.695312 18.050781 28.582031 C 17.472656 28.464844 16.910156 28.296875 16.363281 28.070312 C 15.816406 27.84375 15.300781 27.566406 14.808594 27.238281 C 14.316406 26.910156 13.863281 26.535156 13.445312 26.117188 C 13.027344 25.699219 12.652344 25.246094 12.324219 24.753906 C 11.996094 24.265625 11.71875 23.746094 11.492188 23.199219 C 11.265625 22.652344 11.097656 22.089844 10.980469 21.511719 C 10.867188 20.929688 10.808594 20.347656 10.808594 19.753906 C 10.808594 19.164062 10.867188 18.578125 10.980469 18 C 11.097656 17.417969 11.265625 16.855469 11.492188 16.3125 C 11.71875 15.765625 11.996094 15.246094 12.324219 14.753906 C 12.652344 14.261719 13.027344 13.808594 13.445312 13.390625 C 13.863281 12.972656 14.316406 12.601562 14.808594 12.273438 C 15.300781 11.945312 15.816406 11.667969 16.363281 11.441406 C 16.910156 11.214844 17.472656 11.042969 18.050781 10.929688 C 18.632812 10.8125 19.21875 10.753906 19.808594 10.753906 C 20.398438 10.753906 20.984375 10.8125 21.5625 10.929688 C 22.144531 11.042969 22.707031 11.214844 23.253906 11.441406 C 23.796875 11.667969 24.316406 11.945312 24.808594 12.273438 C 25.300781 12.601562 25.753906 12.972656 26.171875 13.390625 C 26.589844 13.808594 26.964844 14.261719 27.292969 14.753906 C 27.621094 15.246094 27.898438 15.765625 28.125 16.3125 C 28.347656 16.855469 28.519531 17.417969 28.636719 18 C 28.75 18.578125 28.808594 19.164062 28.808594 19.753906 Z M 28.808594 19.753906 " fill-opacity="1" fill-rule="nonzero"/></g><g clip-path="url(#33f64171bc)"><path fill="#ed1d24" d="M 6.160156 0.257812 L 33.460938 0.257812 C 33.84375 0.257812 34.222656 0.292969 34.601562 0.367188 C 34.976562 0.445312 35.34375 0.554688 35.699219 0.703125 C 36.054688 0.847656 36.390625 1.027344 36.710938 1.242188 C 37.027344 1.457031 37.324219 1.699219 37.597656 1.96875 C 37.867188 2.242188 38.109375 2.535156 38.324219 2.855469 C 38.539062 3.175781 38.71875 3.511719 38.863281 3.867188 C 39.011719 4.222656 39.121094 4.589844 39.199219 4.964844 C 39.273438 5.339844 39.308594 5.722656 39.308594 6.105469 L 39.308594 33.40625 C 39.308594 33.789062 39.273438 34.171875 39.199219 34.546875 C 39.121094 34.925781 39.011719 35.289062 38.863281 35.644531 C 38.71875 36 38.539062 36.335938 38.324219 36.65625 C 38.109375 36.976562 37.867188 37.269531 37.597656 37.542969 C 37.324219 37.8125 37.027344 38.058594 36.710938 38.269531 C 36.390625 38.484375 36.054688 38.664062 35.699219 38.8125 C 35.34375 38.957031 34.976562 39.070312 34.601562 39.144531 C 34.222656 39.21875 33.84375 39.257812 33.460938 39.257812 L 6.160156 39.257812 C 5.777344 39.257812 5.394531 39.21875 5.019531 39.144531 C 4.640625 39.070312 4.277344 38.957031 3.921875 38.8125 C 3.566406 38.664062 3.230469 38.484375 2.910156 38.269531 C 2.589844 38.058594 2.292969 37.8125 2.023438 37.542969 C 1.75 37.269531 1.507812 36.976562 1.296875 36.65625 C 1.082031 36.335938 0.902344 36 0.753906 35.644531 C 0.609375 35.289062 0.496094 34.925781 0.421875 34.546875 C 0.347656 34.171875 0.308594 33.789062 0.308594 33.40625 L 0.308594 6.105469 C 0.308594 5.722656 0.347656 5.339844 0.421875 4.964844 C 0.496094 4.589844 0.609375 4.222656 0.753906 3.867188 C 0.902344 3.511719 1.082031 3.175781 1.296875 2.855469 C 1.507812 2.535156 1.75 2.242188 2.023438 1.96875 C 2.292969 1.699219 2.589844 1.457031 2.910156 1.242188 C 3.230469 1.027344 3.566406 0.847656 3.921875 0.703125 C 4.277344 0.554688 4.640625 0.445312 5.019531 0.367188 C 5.394531 0.292969 5.777344 0.257812 6.160156 0.257812 Z M 6.160156 0.257812 " fill-opacity="1" fill-rule="nonzero"/></g><path fill="#ffffff" d="M 32.835938 13.128906 C 32.53125 11.988281 31.539062 11.074219 30.398438 10.769531 C 27.808594 10.082031 12.191406 10.007812 9.222656 10.769531 C 8.078125 11.074219 7.089844 11.988281 6.785156 13.128906 C 6.097656 16.023438 6.023438 23.414062 6.785156 26.382812 C 7.089844 27.527344 8.078125 28.441406 9.222656 28.746094 C 11.964844 29.507812 27.578125 29.507812 30.398438 28.746094 C 31.539062 28.441406 32.53125 27.527344 32.835938 26.382812 C 33.519531 23.640625 33.519531 15.949219 32.835938 13.128906 " fill-opacity="1" fill-rule="nonzero"/><path fill="#ed1d24" d="M 17.066406 15.71875 L 17.066406 23.792969 L 24.152344 19.757812 " fill-opacity="1" fill-rule="nonzero"/></svg>